<svg xmlns="http://www.w3.org/2000/svg" viewBox="0 0 58.01 58.01"><defs><style>.cls-1{fill:#1f191a;}</style></defs><g id="Слой_2" data-name="Слой 2"><g id="Преимущества"><path class="cls-1" d="M57.43,10.69,29.33.06a.88.88,0,0,0-.64,0L.59,10.69a.9.9,0,0,0-.59.85v5.69a.91.91,0,0,0,.91.91h3.7v39a.9.9,0,0,0,.91.9h47a.9.9,0,0,0,.9-.9v-39h3.71a.9.9,0,0,0,.9-.91V11.54A.9.9,0,0,0,57.43,10.69Zm-37.18,32H22v2.71h-1.7Zm-.9,4.52h3.51a.9.9,0,0,0,.9-.9V42.72H28.1V56.2h-14V42.72h4.33v3.62A.9.9,0,0,0,19.35,47.24ZM36.06,27.43h1.7v2.71h-1.7ZM35.15,32h3.51a.91.91,0,0,0,.91-.91V27.43H43.9V40.91h-14V27.43h4.34V31A.9.9,0,0,0,35.15,32Zm.91,10.77h1.7v2.71h-1.7ZM29.91,56.2V42.72h4.34v3.62a.9.9,0,0,0,.9.9h3.51a.9.9,0,0,0,.91-.9V42.72H43.9V56.2Zm21.68,0H45.72V26.52a.91.91,0,0,0-.91-.91H29a.91.91,0,0,0-.91.91V40.91H13.2a.9.9,0,0,0-.91.9V56.2H6.42V18.14H51.59ZM56.2,16.33H1.81V12.16L29,1.88,56.2,12.16Z"/><path class="cls-1" d="M24.15,10A4.86,4.86,0,1,0,29,5.09,4.87,4.87,0,0,0,24.15,10Zm7.9,0a3,3,0,1,1-3-3A3,3,0,0,1,32.05,10Z"/></g></g></svg>