<svg xmlns="http://www.w3.org/2000/svg" viewBox="0 0 47.72 56.11"><defs><style>.cls-1{fill:#221300;}</style></defs><g id="Слой_2" data-name="Слой 2"><g id="Преимущества"><path class="cls-1" d="M46.72,38.07H38.29v-2h7.44V2H2V36.08H9.43v2H1a1,1,0,0,1-1-1V1A1,1,0,0,1,1,0H46.72a1,1,0,0,1,1,1V37.07A1,1,0,0,1,46.72,38.07Z"/><path class="cls-1" d="M23.86,44.07A11.82,11.82,0,1,1,35.68,32.25,11.84,11.84,0,0,1,23.86,44.07Zm0-21.65a9.83,9.83,0,1,0,9.83,9.83A9.84,9.84,0,0,0,23.86,22.42Z"/><path class="cls-1" d="M28.64,56.11a1,1,0,0,1-.6-.2l-4.18-3.16-4.23,3.16a1,1,0,0,1-1,.09,1,1,0,0,1-.55-.89v-12h2v10l3.23-2.41a1,1,0,0,1,1.2,0l3.18,2.4v-10h2v12a1,1,0,0,1-1,1Z"/><path class="cls-1" d="M22.64,38.07a1,1,0,0,1-.7-.29l-3.61-3.61,1.41-1.41,2.77,2.78,5.32-7.48,1.62,1.16-6,8.43a1,1,0,0,1-.72.42Z"/><rect class="cls-1" x="14.21" y="8.43" width="19.26" height="1.99"/><rect class="cls-1" x="17.82" y="13.21" width="12.04" height="1.99"/></g></g></svg>