<svg xmlns="http://www.w3.org/2000/svg" viewBox="0 0 111.1 67.64"><defs><style>.cls-1{fill:#e98905;}</style></defs><g id="Слой_2" data-name="Слой 2"><g id="Продукция"><path class="cls-1" d="M55.49,67.64H8.07c-5.15,0-8-2.9-8-8.07C0,54-.06,48.43.08,42.87a10.3,10.3,0,0,1,1.18-4.56C7.58,26.89,14,15.54,20.41,4.15A7.62,7.62,0,0,1,27.58,0q28,0,55.91,0a7.7,7.7,0,0,1,7.26,4.25c6.35,11.35,12.78,22.66,19.08,34A10.27,10.27,0,0,1,111,42.84c.14,5.71.07,11.42,0,17.13,0,4.66-3,7.67-7.74,7.67Zm48.9-29.06c-.17-.39-.24-.61-.35-.81L86.39,6.34a2.89,2.89,0,0,0-2.81-1.51q-28,0-56,0a3.08,3.08,0,0,0-3,1.75Q15.92,22.05,7.21,37.49a11,11,0,0,0-.47,1.09ZM5.06,53.17c-.11.24-.18.32-.18.41l0,5.52c0,3.11.62,3.73,3.71,3.73h94c.52,0,1.14.15,1.54-.08.76-.44,1.94-1.06,2-1.68.23-2.6.1-5.23.1-7.9H24.07A7.76,7.76,0,0,1,22,53a2.14,2.14,0,0,1-1.64-2.47,2.19,2.19,0,0,1,2.09-2.12,15.89,15.89,0,0,1,1.69,0h82.06V43.59H5v4.58c.15.08.19.12.23.12,2.69,0,5.38,0,8.06.06,1.6,0,2.55.81,2.67,2.15.14,1.55-.94,2.64-2.77,2.66C10.47,53.2,7.78,53.17,5.06,53.17Z"/><path class="cls-1" d="M31.34,9.67a2.41,2.41,0,0,1,2.44,2.39,2.33,2.33,0,0,1-2.25,2.4A2.4,2.4,0,0,1,29,12.18,2.47,2.47,0,0,1,31.34,9.67Z"/><path class="cls-1" d="M79.65,14.46A2.32,2.32,0,0,1,77.32,12a2.41,2.41,0,0,1,2.36-2.33,2.49,2.49,0,0,1,2.44,2.43A2.41,2.41,0,0,1,79.65,14.46Z"/><path class="cls-1" d="M63,9.68a2.43,2.43,0,0,1,2.18,2.64,2.36,2.36,0,0,1-2.64,2.13,2.4,2.4,0,0,1-2.14-2.53A2.47,2.47,0,0,1,63,9.68Z"/><path class="cls-1" d="M48.3,9.67a2.46,2.46,0,0,1,2.41,2.44,2.38,2.38,0,0,1-2.47,2.35,2.34,2.34,0,0,1-2.32-2.33A2.42,2.42,0,0,1,48.3,9.67Z"/><path class="cls-1" d="M21.74,29a2.39,2.39,0,0,1,2.39,2.44,2.35,2.35,0,0,1-2.47,2.33,2.38,2.38,0,0,1-2.33-2.34A2.42,2.42,0,0,1,21.74,29Z"/><path class="cls-1" d="M89.35,33.79A2.37,2.37,0,0,1,87,31.36,2.39,2.39,0,0,1,89.3,29a2.43,2.43,0,0,1,2.47,2.37A2.39,2.39,0,0,1,89.35,33.79Z"/><path class="cls-1" d="M26.6,19.33A2.41,2.41,0,0,1,29,21.81a2.34,2.34,0,0,1-2.49,2.31,2.39,2.39,0,0,1-2.3-2.37A2.47,2.47,0,0,1,26.6,19.33Z"/><path class="cls-1" d="M45.91,19.34a2.39,2.39,0,0,1,2.35,2.47,2.31,2.31,0,0,1-2.47,2.31,2.4,2.4,0,0,1-2.31-2.37A2.45,2.45,0,0,1,45.91,19.34Z"/><path class="cls-1" d="M67.62,21.73a2.4,2.4,0,0,1-2.44,2.39,2.3,2.3,0,0,1-2.34-2.3,2.38,2.38,0,0,1,2.33-2.48A2.45,2.45,0,0,1,67.62,21.73Z"/><path class="cls-1" d="M86.94,21.76a2.38,2.38,0,0,1-2.46,2.36,2.32,2.32,0,0,1-2.33-2.46,2.43,2.43,0,0,1,2.36-2.33A2.47,2.47,0,0,1,86.94,21.76Z"/><path class="cls-1" d="M45.89,31.4a2.39,2.39,0,0,1-2.44,2.38,2.35,2.35,0,0,1-2.36-2.3A2.39,2.39,0,0,1,43.44,29,2.44,2.44,0,0,1,45.89,31.4Z"/><path class="cls-1" d="M70,31.44a2.33,2.33,0,0,1-2.45,2.34,2.39,2.39,0,0,1-2.34-2.34A2.43,2.43,0,0,1,67.62,29,2.38,2.38,0,0,1,70,31.44Z"/></g></g></svg>