<svg xmlns="http://www.w3.org/2000/svg" viewBox="0 0 62.32 47.23"><defs><style>.cls-1{fill:#48826a;}</style></defs><g id="Слой_2" data-name="Слой 2"><g id="Достижения_право_вверх_" data-name="Достижения (право вверх)"><path class="cls-1" d="M32,4.78h0l0,0,0,0-.1-.09-.19-.18a3.8,3.8,0,0,1-.33-.37,1.23,1.23,0,0,1-.3-.63c0-.09,0-.16.2-.29a2,2,0,0,1,.7-.27h0L45.24,0h0l.29,0h.17A1.5,1.5,0,0,1,47,1.16h0l2.82,13.34h0a3.2,3.2,0,0,0,.46,1.16,1.7,1.7,0,0,0,1.36.79,2.47,2.47,0,0,0,1.47-.57,7.14,7.14,0,0,0,.88-.85L54,15h0a4.63,4.63,0,0,1,2.59-1.56h0l.47-.07.47,0a4.7,4.7,0,0,1,4.29,2.74,5.25,5.25,0,0,1,.32,1h0c0,.15,0,.31.08.46l0,.48a4.79,4.79,0,0,1-1,3,4.85,4.85,0,0,1-2.67,1.65h0a5.17,5.17,0,0,1-.79.1,4.75,4.75,0,0,1-2.22-.47h0a4.71,4.71,0,0,0-2.1-.56l-.35.05a2.46,2.46,0,0,0-.38.14,1.55,1.55,0,0,0-.61.55,2.16,2.16,0,0,0-.31,1.33,4,4,0,0,0,.08.62v0q1.35,6.35,2.69,12.7s0,.21.14.63a1.14,1.14,0,0,1,0,.3v.15a1.5,1.5,0,0,1-1.16,1.3h0L40.27,42.28h0l-.41.06a1,1,0,0,1-.55-.1c-.08-.06-.12-.1-.14-.3a3.48,3.48,0,0,1,.42-1.45h0v0l0-.06a6.19,6.19,0,0,0,.57-2.78,6.8,6.8,0,0,0-.13-1h0a6,6,0,0,0-2.59-3.78,6.76,6.76,0,0,0-1.59-.74,6.41,6.41,0,0,0-1.74-.24l-.6,0-.6.1h0a6,6,0,0,0-4.76,5.91c0,.2,0,.41,0,.61l.09.6h0a6,6,0,0,0,2,3.33h0l0,0,0,0,.1.09.19.18a2.73,2.73,0,0,1,.32.37,1.27,1.27,0,0,1,.31.63c0,.09,0,.16-.21.29a2.11,2.11,0,0,1-.69.27h0l-10.7,2.27-2.63.55h0l-.29,0a1.49,1.49,0,0,1-1.45-1.17h0q-1.41-6.66-2.83-13.33h0A3.46,3.46,0,0,0,12,31.54a1.7,1.7,0,0,0-1.36-.78,2.38,2.38,0,0,0-1.46.57,6.48,6.48,0,0,0-.88.85s0,0-.05,0h0a4.71,4.71,0,0,1-2.6,1.56h0l-.47.07-.47,0A4.71,4.71,0,0,1,.1,30.2h0c0-.16,0-.31-.07-.47l0-.47a5.23,5.23,0,0,1,.1-1,4.7,4.7,0,0,1,3.61-3.64h0a5.2,5.2,0,0,1,.78-.1A4.72,4.72,0,0,1,6.72,25h0a4.57,4.57,0,0,0,2.09.55l.36,0a1.82,1.82,0,0,0,.37-.13,1.53,1.53,0,0,0,.62-.56,2.26,2.26,0,0,0,.31-1.32,5.82,5.82,0,0,0-.08-.62v0L7.58,9.53h0a2.89,2.89,0,0,1,0-.29A1.49,1.49,0,0,1,8.71,7.78h0L22.05,5h0l.41-.06A1,1,0,0,1,23,5c.07,0,.12.1.13.3a3.52,3.52,0,0,1-.42,1.45h0v0s0,0,0,.06a6.05,6.05,0,0,0-.55,2,5.93,5.93,0,0,0,0,.73,5.7,5.7,0,0,0,.13,1h0a6,6,0,0,0,5.91,4.76l.61,0,.6-.1h0a6,6,0,0,0,4.76-5.91l0-.61c0-.2-.07-.4-.1-.6h0a6,6,0,0,0-2-3.34h0"/></g></g></svg>