<svg xmlns="http://www.w3.org/2000/svg" xmlns:xlink="http://www.w3.org/1999/xlink" viewBox="0 0 152.95 22.42"><defs><style>.cls-1{mask:url(#mask);filter:url(#luminosity-noclip-2);}.cls-2,.cls-5{mix-blend-mode:multiply;}.cls-2{fill:url(#radial-gradient);}.cls-3{isolation:isolate;}.cls-4{mask:url(#mask-2);}.cls-5{opacity:0.49;fill:url(#radial-gradient-2);}.cls-6{filter:url(#luminosity-noclip);}</style><filter id="luminosity-noclip" x="0" y="-7997.4" width="152.95" height="32766" filterUnits="userSpaceOnUse" color-interpolation-filters="sRGB"><feFlood flood-color="#fff" result="bg"/><feBlend in="SourceGraphic" in2="bg"/></filter><mask id="mask" x="0" y="-7997.4" width="152.95" height="32766" maskUnits="userSpaceOnUse"><g class="cls-6"/></mask><radialGradient id="radial-gradient" cx="-1168.62" cy="-460.97" r="123.97" gradientTransform="translate(797.43 52.88) scale(0.62 0.09)" gradientUnits="userSpaceOnUse"><stop offset="0" stop-color="#fff"/><stop offset="0.08" stop-color="#f6f6f6"/><stop offset="0.22" stop-color="#ddd"/><stop offset="0.4" stop-color="#b4b4b4"/><stop offset="0.61" stop-color="#7c7c7c"/><stop offset="0.84" stop-color="#353535"/><stop offset="1"/></radialGradient><filter id="luminosity-noclip-2" x="0" y="0" width="152.95" height="22.42" filterUnits="userSpaceOnUse" color-interpolation-filters="sRGB"><feFlood flood-color="#fff" result="bg"/><feBlend in="SourceGraphic" in2="bg"/></filter><mask id="mask-2" x="0" y="0" width="152.95" height="22.42" maskUnits="userSpaceOnUse"><g class="cls-1"><path class="cls-2" d="M153,11.21c0,6.19-34.24,11.21-76.47,11.21S0,17.4,0,11.21,34.24,0,76.48,0,153,5,153,11.21Z"/></g></mask><radialGradient id="radial-gradient-2" cx="-1168.62" cy="-460.97" r="123.97" gradientTransform="translate(797.43 52.88) scale(0.62 0.09)" gradientUnits="userSpaceOnUse"><stop offset="0" stop-color="#8c8e91"/><stop offset="0.15" stop-color="#95979a"/><stop offset="0.4" stop-color="#aeafb1"/><stop offset="0.72" stop-color="#d6d7d8"/><stop offset="1" stop-color="#fff"/></radialGradient></defs><g class="cls-3"><g id="Слой_2" data-name="Слой 2"><g id="Наполнители"><g class="cls-4"><path class="cls-5" d="M153,11.21c0,6.19-34.24,11.21-76.47,11.21S0,17.4,0,11.21,34.24,0,76.48,0,153,5,153,11.21Z"/></g></g></g></g></svg>