<svg id="Layer_1" data-name="Layer 1" xmlns="http://www.w3.org/2000/svg" xmlns:xlink="http://www.w3.org/1999/xlink" viewBox="0 0 28 18"><defs><style>.cls-1,.cls-4{fill:none;}.cls-2{fill:#3c3c3b;}.cls-2,.cls-3,.cls-4{stroke:#3c3c3b;stroke-linecap:round;stroke-linejoin:round;}.cls-2,.cls-3{stroke-width:0.7px;}.cls-3{fill:#fff;}.cls-4{stroke-width:0.5px;}.cls-5{clip-path:url(#clip-path);}.cls-6{fill:#6f6f6e;}</style><clipPath id="clip-path"><rect class="cls-1" x="2.1" y="7.84" width="23.9" height="1.68"/></clipPath></defs><rect class="cls-2" x="2.1" y="7.84" width="23.9" height="1.68"/><rect class="cls-3" x="2.1" y="0.96" width="23.9" height="6.88"/><path class="cls-4" d="M2,17c0-.4,3.86-.4,3.86-.79S2,15.85,2,15.45s3.86-.39,3.86-.79S2,14.26,2,13.87s3.86-.4,3.86-.8S2,12.68,2,12.28s3.86-.4,3.86-.8S2,11.09,2,10.69s3.86-.4,3.86-.79"/><path class="cls-4" d="M7,17c0-.4,3.86-.4,3.86-.79S7,15.85,7,15.45s3.86-.39,3.86-.79S7,14.26,7,13.87s3.86-.4,3.86-.8S7,12.68,7,12.28s3.86-.4,3.86-.8S7,11.09,7,10.69s3.86-.4,3.86-.79"/><path class="cls-4" d="M12,17c0-.4,3.86-.4,3.86-.79s-3.86-.4-3.86-.8,3.86-.39,3.86-.79S12,14.26,12,13.87s3.86-.4,3.86-.8S12,12.68,12,12.28s3.86-.4,3.86-.8S12,11.09,12,10.69s3.86-.4,3.86-.79"/><path class="cls-4" d="M17,17c0-.4,3.86-.4,3.86-.79s-3.86-.4-3.86-.8,3.86-.39,3.86-.79S17,14.26,17,13.87s3.86-.4,3.86-.8S17,12.68,17,12.28s3.86-.4,3.86-.8S17,11.09,17,10.69s3.86-.4,3.86-.79"/><path class="cls-4" d="M21.93,17c0-.4,3.86-.4,3.86-.79s-3.86-.4-3.86-.8,3.86-.39,3.86-.79-3.86-.4-3.86-.79,3.86-.4,3.86-.8-3.86-.39-3.86-.79,3.86-.4,3.86-.8-3.86-.39-3.86-.79,3.86-.4,3.86-.79"/><line class="cls-3" x1="2.1" y1="17.04" x2="26" y2="17.04"/><g class="cls-5"><rect class="cls-6" x="26.46" y="9.53" width="2.38" height="0.08" transform="translate(16.02 36.41) rotate(-85.66)"/><rect class="cls-6" x="21.5" y="9.42" width="2.38" height="0.08" transform="translate(-0.1 0.24) rotate(-0.61)"/><rect class="cls-6" x="25.08" y="7.95" width="2.38" height="0.08" transform="translate(-0.08 0.28) rotate(-0.61)"/><rect class="cls-6" x="26.83" y="7.25" width="0.08" height="2.38" transform="translate(0.23 17.58) rotate(-36.36)"/><rect class="cls-6" x="25.79" y="9.3" width="2.38" height="0.08" transform="matrix(0.26, -0.97, 0.97, 0.26, 11.05, 33.04)"/><rect class="cls-6" x="25.47" y="8.42" width="2.38" height="0.08" transform="translate(11.67 32.07) rotate(-75.19)"/><rect class="cls-6" x="23.28" y="9.47" width="0.08" height="2.38" transform="translate(1.62 24.33) rotate(-56.78)"/><rect class="cls-6" x="23.33" y="8.54" width="0.08" height="2.38" transform="translate(-0.47 18.24) rotate(-42.25)"/><rect class="cls-6" x="23.07" y="7.15" width="0.08" height="2.38" transform="translate(9.86 29.02) rotate(-77.21)"/><rect class="cls-6" x="26.56" y="8.2" width="0.08" height="2.38" transform="translate(11.55 33.26) rotate(-77.21)"/><rect class="cls-6" x="22.38" y="8.65" width="2.38" height="0.08" transform="translate(5.72 26.37) rotate(-64.96)"/><rect class="cls-6" x="26.52" y="9.16" width="0.08" height="2.38" transform="translate(14.33 36.1) rotate(-85.91)"/><rect class="cls-6" x="25.89" y="7.66" width="0.08" height="2.38" transform="translate(7.56 29.18) rotate(-66.76)"/><rect class="cls-6" x="21.27" y="8.65" width="2.38" height="0.08" transform="translate(-1.56 10.4) rotate(-25.22)"/><rect class="cls-6" x="23.13" y="9.37" width="2.38" height="0.08" transform="translate(-1.69 11.26) rotate(-25.22)"/><rect class="cls-6" x="23.43" y="10.69" width="2.38" height="0.08" transform="translate(-2.1 8.01) rotate(-17.73)"/><rect class="cls-6" x="26.21" y="8.65" width="0.08" height="2.38" transform="translate(-1.69 7.55) rotate(-15.87)"/><rect class="cls-6" x="24.58" y="8.72" width="0.08" height="2.38" transform="translate(-0.33 18.95) rotate(-41.84)"/><rect class="cls-6" x="26.1" y="7.25" width="0.08" height="2.38" transform="translate(1.03 19.58) rotate(-41.84)"/><polygon class="cls-6" points="23.74 9.91 24.46 7.64 24.39 7.62 23.66 9.89 23.74 9.91"/><rect class="cls-6" x="20.87" y="8.62" width="2.38" height="0.08" transform="translate(7.11 27.05) rotate(-72.31)"/><rect class="cls-6" x="23.39" y="8.39" width="2.38" height="0.08" transform="translate(15.16 32.65) rotate(-87.69)"/><rect class="cls-6" x="24.02" y="9.55" width="2.38" height="0.08" transform="translate(-1.3 14.57) rotate(-31.46)"/><rect class="cls-6" x="22.92" y="8.39" width="2.38" height="0.08" transform="translate(-0.01 16.82) rotate(-38.44)"/><rect class="cls-6" x="22.27" y="7.64" width="0.08" height="2.38" transform="translate(-1.68 8.33) rotate(-20.41)"/><rect class="cls-6" x="24.36" y="8.91" width="2.38" height="0.08" transform="translate(15.19 33.97) rotate(-86.8)"/><rect class="cls-6" x="21.87" y="9" width="2.38" height="0.08" transform="translate(12.75 31.55) rotate(-86.8)"/><rect class="cls-6" x="23.86" y="9.31" width="2.38" height="0.08" transform="translate(14.32 33.84) rotate(-86.8)"/><rect class="cls-6" x="21.74" y="8.95" width="2.38" height="0.08" transform="translate(1.53 21.18) rotate(-51.06)"/><rect class="cls-6" x="21.01" y="10.42" width="2.38" height="0.08" transform="translate(10.09 31.81) rotate(-85.66)"/><rect class="cls-6" x="19.64" y="8.85" width="2.38" height="0.08" transform="translate(-0.09 0.22) rotate(-0.61)"/><rect class="cls-6" x="21.39" y="8.14" width="0.08" height="2.38" transform="translate(-1.36 14.52) rotate(-36.36)"/><rect class="cls-6" x="20.34" y="10.2" width="2.38" height="0.08" transform="translate(6.13 28.44) rotate(-75.18)"/><polygon class="cls-6" points="20.71 10.7 23.05 11.15 23.04 11.23 20.7 10.78 20.71 10.7"/><rect class="cls-6" x="21.11" y="9.1" width="0.08" height="2.38" transform="translate(6.44 28.64) rotate(-77.21)"/><rect class="cls-6" x="21.07" y="10.06" width="0.08" height="2.38" transform="translate(8.38 31.5) rotate(-85.91)"/><rect class="cls-6" x="22.82" y="6.7" width="0.08" height="2.38" transform="translate(2.23 20.52) rotate(-50.52)"/><rect class="cls-6" x="22.34" y="6.63" width="0.08" height="2.38" transform="translate(9.32 27.6) rotate(-75.84)"/><rect class="cls-6" x="24.28" y="5.94" width="0.08" height="2.38" transform="translate(-0.9 9.68) rotate(-22.13)"/><rect class="cls-6" x="21.26" y="6.34" width="0.08" height="2.38" transform="translate(-0.28 14.21) rotate(-36.68)"/><rect class="cls-6" x="19.55" y="7.97" width="2.38" height="0.08" transform="translate(-0.48 14.63) rotate(-38.44)"/><rect class="cls-6" x="26.83" y="7.25" width="0.08" height="2.38" transform="translate(0.23 17.58) rotate(-36.36)"/><rect class="cls-6" x="25.47" y="8.42" width="2.38" height="0.08" transform="translate(11.67 32.07) rotate(-75.19)"/><rect class="cls-6" x="23.07" y="7.15" width="0.08" height="2.38" transform="translate(9.86 29.02) rotate(-77.21)"/><rect class="cls-6" x="22.38" y="8.65" width="2.38" height="0.08" transform="translate(5.72 26.37) rotate(-64.96)"/><rect class="cls-6" x="26.1" y="7.25" width="0.08" height="2.38" transform="translate(1.03 19.58) rotate(-41.84)"/><polygon class="cls-6" points="23.74 9.91 24.46 7.64 24.39 7.62 23.66 9.89 23.74 9.91"/><rect class="cls-6" x="20.87" y="8.62" width="2.38" height="0.08" transform="translate(7.11 27.05) rotate(-72.31)"/><rect class="cls-6" x="23.39" y="8.39" width="2.38" height="0.08" transform="translate(15.16 32.65) rotate(-87.69)"/><rect class="cls-6" x="22.92" y="8.39" width="2.38" height="0.08" transform="matrix(0.78, -0.62, 0.62, 0.78, -0.01, 16.82)"/><rect class="cls-6" x="22.27" y="7.64" width="0.08" height="2.38" transform="translate(-1.68 8.33) rotate(-20.41)"/><rect class="cls-6" x="21.87" y="9" width="2.38" height="0.08" transform="matrix(0.06, -1, 1, 0.06, 12.75, 31.55)"/><rect class="cls-6" x="21.39" y="8.14" width="0.08" height="2.38" transform="translate(-1.36 14.52) rotate(-36.36)"/><rect class="cls-6" x="22.82" y="6.7" width="0.08" height="2.38" transform="translate(2.23 20.52) rotate(-50.52)"/><rect class="cls-6" x="22.15" y="5.26" width="0.08" height="2.38" transform="translate(15.68 28.62) rotate(-89.85)"/><rect class="cls-6" x="22.34" y="6.63" width="0.08" height="2.38" transform="translate(9.32 27.6) rotate(-75.84)"/><rect class="cls-6" x="24.28" y="5.99" width="0.08" height="2.38" transform="translate(8.72 27.17) rotate(-68.49)"/><rect class="cls-6" x="24.28" y="5.94" width="0.08" height="2.38" transform="translate(-0.9 9.68) rotate(-22.13)"/><rect class="cls-6" x="22.96" y="6.84" width="2.38" height="0.08" transform="translate(3.62 21.34) rotate(-51.06)"/><rect class="cls-6" x="20.93" y="7.4" width="2.38" height="0.08" transform="translate(0.17 15.37) rotate(-38.44)"/><rect class="cls-6" x="23.11" y="6.18" width="0.08" height="2.38" transform="translate(8.86 27.02) rotate(-71.62)"/><rect class="cls-6" x="20.57" y="5.3" width="0.08" height="2.38" transform="translate(7.95 24) rotate(-71.61)"/><rect class="cls-6" x="20.17" y="4.61" width="0.08" height="2.38" transform="translate(12.98 25.55) rotate(-85.91)"/><rect class="cls-6" x="21.26" y="6.34" width="0.08" height="2.38" transform="translate(-0.28 14.21) rotate(-36.68)"/><rect class="cls-6" x="19.55" y="7.97" width="2.38" height="0.08" transform="matrix(0.78, -0.62, 0.62, 0.78, -0.48, 14.63)"/><rect class="cls-6" x="21.5" y="9.42" width="2.38" height="0.08" transform="translate(-0.1 0.24) rotate(-0.61)"/><rect class="cls-6" x="21.27" y="8.65" width="2.38" height="0.08" transform="translate(-1.56 10.4) rotate(-25.22)"/><rect class="cls-6" x="20.87" y="8.62" width="2.38" height="0.08" transform="translate(7.11 27.05) rotate(-72.31)"/><rect class="cls-6" x="21.01" y="10.42" width="2.38" height="0.08" transform="translate(10.09 31.81) rotate(-85.66)"/><rect class="cls-6" x="16.06" y="10.31" width="2.38" height="0.08" transform="translate(-0.11 0.18) rotate(-0.61)"/><rect class="cls-6" x="19.64" y="8.85" width="2.38" height="0.08" transform="translate(-0.09 0.22) rotate(-0.61)"/><rect class="cls-6" x="19.46" y="8.51" width="2.38" height="0.08" transform="translate(-0.12 16.79) rotate(-44.12)"/><rect class="cls-6" x="21.39" y="8.14" width="0.08" height="2.38" transform="translate(-1.36 14.52) rotate(-36.36)"/><rect class="cls-6" x="20.34" y="10.2" width="2.38" height="0.08" transform="matrix(0.26, -0.97, 0.97, 0.26, 6.13, 28.44)"/><rect class="cls-6" x="20.03" y="9.31" width="2.38" height="0.08" transform="translate(6.75 27.48) rotate(-75.19)"/><rect class="cls-6" x="17.84" y="10.37" width="0.08" height="2.38" transform="translate(-1.59 20.18) rotate(-56.78)"/><rect class="cls-6" x="17.89" y="9.43" width="0.08" height="2.38" transform="translate(-2.49 14.81) rotate(-42.25)"/><polygon class="cls-6" points="20.71 10.7 23.05 11.15 23.04 11.23 20.7 10.78 20.71 10.7"/><rect class="cls-6" x="17.62" y="8.04" width="0.08" height="2.38" transform="translate(4.75 24.41) rotate(-77.21)"/><rect class="cls-6" x="21.11" y="9.1" width="0.08" height="2.38" transform="translate(6.44 28.64) rotate(-77.21)"/><rect class="cls-6" x="16.93" y="9.55" width="2.38" height="0.08" transform="translate(1.77 21.95) rotate(-64.96)"/><rect class="cls-6" x="21.07" y="10.06" width="0.08" height="2.38" transform="translate(8.38 31.5) rotate(-85.91)"/><rect class="cls-6" x="20.44" y="8.56" width="0.08" height="2.38" transform="translate(3.44 24.72) rotate(-66.76)"/><rect class="cls-6" x="15.82" y="9.54" width="2.38" height="0.08" transform="translate(-2.46 8.16) rotate(-25.22)"/><rect class="cls-6" x="17.69" y="10.27" width="2.38" height="0.08" transform="translate(-2.59 9.03) rotate(-25.22)"/><rect class="cls-6" x="17.99" y="11.59" width="2.38" height="0.08" transform="translate(-2.63 6.39) rotate(-17.73)"/><rect class="cls-6" x="20.76" y="9.54" width="0.08" height="2.38" transform="translate(-2.14 6.1) rotate(-15.87)"/><rect class="cls-6" x="19.14" y="9.61" width="0.08" height="2.38" transform="translate(-2.32 15.55) rotate(-41.84)"/><rect class="cls-6" x="20.65" y="8.14" width="0.08" height="2.38" transform="translate(-0.95 16.18) rotate(-41.84)"/><polygon class="cls-6" points="18.3 10.81 19.02 8.54 18.94 8.52 18.22 10.79 18.3 10.81"/><rect class="cls-6" x="15.43" y="9.51" width="2.38" height="0.08" transform="translate(2.47 22.48) rotate(-72.31)"/><rect class="cls-6" x="17.94" y="9.29" width="2.38" height="0.08" transform="translate(9.04 28.07) rotate(-87.69)"/><rect class="cls-6" x="18.58" y="10.44" width="2.38" height="0.08" transform="translate(-2.56 11.86) rotate(-31.46)"/><rect class="cls-6" x="17.48" y="9.29" width="2.38" height="0.08" transform="translate(-1.75 13.63) rotate(-38.44)"/><rect class="cls-6" x="16.82" y="8.54" width="0.08" height="2.38" transform="translate(-2.33 6.49) rotate(-20.41)"/><rect class="cls-6" x="18.92" y="9.81" width="2.38" height="0.08" transform="translate(9.15 29.38) rotate(-86.8)"/><rect class="cls-6" x="16.42" y="9.89" width="2.38" height="0.08" transform="translate(6.71 26.96) rotate(-86.8)"/><rect class="cls-6" x="18.41" y="10.21" width="2.38" height="0.08" transform="translate(8.28 29.25) rotate(-86.8)"/><rect class="cls-6" x="16.3" y="9.85" width="2.38" height="0.08" transform="translate(-1.19 17.28) rotate(-51.06)"/><rect class="cls-6" x="15.57" y="11.32" width="2.38" height="0.08" transform="translate(4.17 27.21) rotate(-85.66)"/><rect class="cls-6" x="14.19" y="9.74" width="2.38" height="0.08" transform="translate(-0.1 0.16) rotate(-0.61)"/><rect class="cls-6" x="15.94" y="9.04" width="0.08" height="2.38" transform="translate(-2.95 11.47) rotate(-36.36)"/><rect class="cls-6" x="14.9" y="11.09" width="2.38" height="0.08" transform="translate(1.21 23.84) rotate(-75.18)"/><polygon class="cls-6" points="15.27 11.59 17.6 12.05 17.59 12.13 15.25 11.67 15.27 11.59"/><rect class="cls-6" x="15.67" y="9.99" width="0.08" height="2.38" transform="translate(1.32 24.03) rotate(-77.21)"/><rect class="cls-6" x="15.62" y="10.95" width="0.08" height="2.38" transform="translate(2.43 26.9) rotate(-85.91)"/><rect class="cls-6" x="22.34" y="6.63" width="0.08" height="2.38" transform="translate(9.32 27.6) rotate(-75.84)"/><polygon class="cls-6" points="18.14 6.78 17.53 9.08 17.46 9.06 18.07 6.76 18.14 6.78"/><rect class="cls-6" x="17.37" y="7.6" width="0.08" height="2.38" transform="translate(-0.44 16.64) rotate(-50.52)"/><rect class="cls-6" x="16.89" y="7.52" width="0.08" height="2.38" transform="translate(4.34 23) rotate(-75.84)"/><rect class="cls-6" x="18.83" y="6.83" width="0.08" height="2.38" transform="translate(-1.63 7.7) rotate(-22.13)"/><rect class="cls-6" x="21.26" y="6.34" width="0.08" height="2.38" transform="translate(-0.28 14.21) rotate(-36.68)"/><rect class="cls-6" x="21.08" y="6.13" width="0.08" height="2.38" transform="translate(-0.33 1.04) rotate(-2.8)"/><rect class="cls-6" x="19.55" y="7.97" width="2.38" height="0.08" transform="translate(-0.48 14.63) rotate(-38.44)"/><rect class="cls-6" x="15.81" y="7.23" width="0.08" height="2.38" transform="translate(-1.89 11.14) rotate(-36.68)"/><rect class="cls-6" x="14.1" y="8.86" width="2.38" height="0.08" transform="translate(-2.22 11.44) rotate(-38.44)"/><rect class="cls-6" x="20.87" y="8.62" width="2.38" height="0.08" transform="translate(7.11 27.05) rotate(-72.31)"/><rect class="cls-6" x="19.46" y="8.51" width="2.38" height="0.08" transform="translate(-0.12 16.79) rotate(-44.12)"/><rect class="cls-6" x="21.39" y="8.14" width="0.08" height="2.38" transform="translate(-1.36 14.52) rotate(-36.36)"/><rect class="cls-6" x="20.03" y="9.31" width="2.38" height="0.08" transform="matrix(0.26, -0.97, 0.97, 0.26, 6.75, 27.48)"/><rect class="cls-6" x="17.62" y="8.04" width="0.08" height="2.38" transform="translate(4.75 24.41) rotate(-77.21)"/><rect class="cls-6" x="16.93" y="9.55" width="2.38" height="0.08" transform="translate(1.77 21.95) rotate(-64.96)"/><rect class="cls-6" x="20.65" y="8.14" width="0.08" height="2.38" transform="translate(-0.95 16.18) rotate(-41.84)"/><polygon class="cls-6" points="18.3 10.81 19.02 8.54 18.94 8.52 18.22 10.79 18.3 10.81"/><rect class="cls-6" x="15.43" y="9.51" width="2.38" height="0.08" transform="translate(2.47 22.48) rotate(-72.31)"/><rect class="cls-6" x="17.94" y="9.29" width="2.38" height="0.08" transform="translate(9.04 28.07) rotate(-87.69)"/><rect class="cls-6" x="17.48" y="9.29" width="2.38" height="0.08" transform="translate(-1.75 13.63) rotate(-38.44)"/><rect class="cls-6" x="16.82" y="8.54" width="0.08" height="2.38" transform="matrix(0.94, -0.35, 0.35, 0.94, -2.33, 6.49)"/><rect class="cls-6" x="16.42" y="9.89" width="2.38" height="0.08" transform="translate(6.71 26.96) rotate(-86.8)"/><rect class="cls-6" x="15.94" y="9.04" width="0.08" height="2.38" transform="translate(-2.95 11.47) rotate(-36.36)"/><rect class="cls-6" x="22.15" y="5.26" width="0.08" height="2.38" transform="translate(15.68 28.62) rotate(-89.85)"/><rect class="cls-6" x="22.34" y="6.63" width="0.08" height="2.38" transform="translate(9.32 27.6) rotate(-75.84)"/><rect class="cls-6" x="20.93" y="7.4" width="2.38" height="0.08" transform="translate(0.17 15.37) rotate(-38.44)"/><rect class="cls-6" x="15.16" y="4.87" width="2.38" height="0.08" transform="translate(-0.05 0.17) rotate(-0.61)"/><rect class="cls-6" x="17.15" y="5.47" width="0.08" height="2.38" transform="translate(5.41 20.83) rotate(-71.45)"/><rect class="cls-6" x="20.57" y="5.3" width="0.08" height="2.38" transform="translate(7.95 24) rotate(-71.61)"/><rect class="cls-6" x="18.09" y="5.82" width="2.38" height="0.08" transform="translate(7.75 22.38) rotate(-71.99)"/><polygon class="cls-6" points="18.14 6.78 17.53 9.08 17.46 9.06 18.07 6.76 18.14 6.78"/><rect class="cls-6" x="19.74" y="5.74" width="0.08" height="2.38" transform="translate(-0.47 12.33) rotate(-34.23)"/><rect class="cls-6" x="17.37" y="7.6" width="0.08" height="2.38" transform="translate(-0.44 16.64) rotate(-50.52)"/><rect class="cls-6" x="19.52" y="6.48" width="0.08" height="2.38" transform="translate(1.12 17.75) rotate(-50.07)"/><rect class="cls-6" x="16.56" y="6.1" width="0.08" height="2.38" transform="translate(-0.25 0.6) rotate(-2.05)"/><rect class="cls-6" x="18" y="4.69" width="0.08" height="2.38" transform="translate(-0.47 10.07) rotate(-30.81)"/><rect class="cls-6" x="16.94" y="4.92" width="0.08" height="2.38" transform="matrix(0.55, -0.84, 0.84, 0.55, 2.56, 16.97)"/><rect class="cls-6" x="17.36" y="6.46" width="0.08" height="2.38" transform="translate(-0.85 12.96) rotate(-39.95)"/><rect class="cls-6" x="14.96" y="6.75" width="2.38" height="0.08" transform="translate(6.07 21.11) rotate(-77.65)"/><rect class="cls-6" x="18.88" y="7.06" width="2.38" height="0.08" transform="translate(-0.64 12.03) rotate(-32.86)"/><rect class="cls-6" x="20.17" y="4.61" width="0.08" height="2.38" transform="translate(12.98 25.55) rotate(-85.91)"/><rect class="cls-6" x="16.71" y="6.15" width="0.08" height="2.38" transform="translate(9.36 24.07) rotate(-89.85)"/><rect class="cls-6" x="16.89" y="7.52" width="0.08" height="2.38" transform="translate(4.34 23) rotate(-75.84)"/><polygon class="cls-6" points="18.08 6.49 20.4 7.02 20.39 7.09 18.06 6.57 18.08 6.49"/><polygon class="cls-6" points="19.95 8.36 21.23 6.35 21.3 6.39 20.02 8.4 19.95 8.36"/><rect class="cls-6" x="18.78" y="7.81" width="2.38" height="0.08" transform="translate(-1.44 9.26) rotate(-25.22)"/><rect class="cls-6" x="18.83" y="6.88" width="0.08" height="2.38" transform="translate(4.44 22.67) rotate(-68.49)"/><rect class="cls-6" x="17.09" y="6.14" width="2.38" height="0.08" transform="translate(-1.01 5.86) rotate(-17.73)"/><rect class="cls-6" x="18.83" y="6.83" width="0.08" height="2.38" transform="translate(-1.63 7.7) rotate(-22.13)"/><rect class="cls-6" x="18.24" y="4.17" width="0.08" height="2.38" transform="translate(1.09 13.56) rotate(-41.84)"/><rect class="cls-6" x="21.26" y="6.34" width="0.08" height="2.38" transform="translate(-0.28 14.21) rotate(-36.68)"/><rect class="cls-6" x="21.08" y="6.13" width="0.08" height="2.38" transform="translate(-0.33 1.04) rotate(-2.8)"/><rect class="cls-6" x="15.74" y="7.03" width="2.38" height="0.08" transform="translate(0.79 15.8) rotate(-51.06)"/><rect class="cls-6" x="17.51" y="7.73" width="2.38" height="0.08" transform="translate(0.9 17.43) rotate(-51.06)"/><rect class="cls-6" x="15.49" y="8.29" width="2.38" height="0.08" transform="translate(-1.56 12.18) rotate(-38.44)"/><rect class="cls-6" x="17.67" y="7.07" width="0.08" height="2.38" transform="translate(4.28 22.46) rotate(-71.62)"/><rect class="cls-6" x="19.55" y="7.97" width="2.38" height="0.08" transform="translate(-0.48 14.63) rotate(-38.44)"/><rect class="cls-6" x="15.98" y="6.83" width="2.38" height="0.08" transform="translate(9.36 23.64) rotate(-86.8)"/><rect class="cls-6" x="18.92" y="6.32" width="2.38" height="0.08" transform="translate(2.52 18) rotate(-51.06)"/><rect class="cls-6" x="14.67" y="5.87" width="2.38" height="0.08" transform="translate(8.77 21.28) rotate(-85.66)"/><rect class="cls-6" x="15.13" y="6.19" width="0.08" height="2.38" transform="translate(3.38 19.45) rotate(-71.61)"/><rect class="cls-6" x="14" y="5.65" width="2.38" height="0.08" transform="translate(5.81 18.92) rotate(-75.18)"/><polygon class="cls-6" points="14.37 6.15 16.71 6.6 16.69 6.68 14.36 6.22 14.37 6.15"/><rect class="cls-6" x="14.77" y="4.55" width="0.08" height="2.38" transform="translate(5.94 18.91) rotate(-77.21)"/><rect class="cls-6" x="14.73" y="5.51" width="0.08" height="2.38" transform="translate(7.03 20.95) rotate(-85.91)"/><rect class="cls-6" x="15.81" y="7.23" width="0.08" height="2.38" transform="translate(-1.89 11.14) rotate(-36.68)"/><rect class="cls-6" x="14.1" y="8.86" width="2.38" height="0.08" transform="translate(-2.22 11.44) rotate(-38.44)"/><rect class="cls-6" x="16.06" y="10.31" width="2.38" height="0.08" transform="translate(-0.11 0.18) rotate(-0.61)"/><rect class="cls-6" x="15.82" y="9.54" width="2.38" height="0.08" transform="translate(-2.46 8.16) rotate(-25.22)"/><rect class="cls-6" x="15.43" y="9.51" width="2.38" height="0.08" transform="translate(2.47 22.48) rotate(-72.31)"/><rect class="cls-6" x="15.57" y="11.32" width="2.38" height="0.08" transform="translate(4.17 27.21) rotate(-85.66)"/><rect class="cls-6" x="10.61" y="11.21" width="2.38" height="0.08" transform="translate(-0.12 0.13) rotate(-0.61)"/><rect class="cls-6" x="14.19" y="9.74" width="2.38" height="0.08" transform="translate(-0.1 0.16) rotate(-0.61)"/><rect class="cls-6" x="14.01" y="9.4" width="2.38" height="0.08" transform="translate(-2.28 13.25) rotate(-44.12)"/><rect class="cls-6" x="15.94" y="9.04" width="0.08" height="2.38" transform="translate(-2.95 11.47) rotate(-36.36)"/><rect class="cls-6" x="14.9" y="11.09" width="2.38" height="0.08" transform="matrix(0.26, -0.97, 0.97, 0.26, 1.21, 23.84)"/><rect class="cls-6" x="14.58" y="10.21" width="2.38" height="0.08" transform="translate(1.83 22.88) rotate(-75.19)"/><rect class="cls-6" x="12.44" y="10.33" width="0.08" height="2.38" transform="translate(-4.5 11.39) rotate(-42.25)"/><polygon class="cls-6" points="15.27 11.59 17.6 12.05 17.59 12.13 15.25 11.67 15.27 11.59"/><rect class="cls-6" x="12.17" y="8.94" width="0.08" height="2.38" transform="translate(-0.37 19.8) rotate(-77.21)"/><rect class="cls-6" x="15.67" y="9.99" width="0.08" height="2.38" transform="translate(1.32 24.03) rotate(-77.21)"/><rect class="cls-6" x="11.49" y="10.44" width="2.38" height="0.08" transform="translate(-2.18 17.53) rotate(-64.96)"/><rect class="cls-6" x="15.62" y="10.95" width="0.08" height="2.38" transform="translate(2.43 26.9) rotate(-85.91)"/><rect class="cls-6" x="14.99" y="9.45" width="0.08" height="2.38" transform="translate(-0.68 20.26) rotate(-66.76)"/><rect class="cls-6" x="10.38" y="10.44" width="2.38" height="0.08" transform="translate(-3.36 5.93) rotate(-25.22)"/><rect class="cls-6" x="12.24" y="11.16" width="2.38" height="0.08" transform="matrix(0.9, -0.43, 0.43, 0.9, -3.49, 6.79)"/><rect class="cls-6" x="12.54" y="12.48" width="2.38" height="0.08" transform="translate(-3.16 4.78) rotate(-17.73)"/><rect class="cls-6" x="15.32" y="10.44" width="0.08" height="2.38" transform="translate(-2.59 4.64) rotate(-15.87)"/><rect class="cls-6" x="13.69" y="10.51" width="0.08" height="2.38" transform="translate(-4.3 12.14) rotate(-41.84)"/><rect class="cls-6" x="15.2" y="9.04" width="0.08" height="2.38" transform="translate(-2.94 12.78) rotate(-41.84)"/><polygon class="cls-6" points="12.85 11.71 13.57 9.44 13.5 9.41 12.77 11.68 12.85 11.71"/><rect class="cls-6" x="9.98" y="10.41" width="2.38" height="0.08" transform="translate(-2.18 17.92) rotate(-72.31)"/><rect class="cls-6" x="12.49" y="10.18" width="2.38" height="0.08" transform="translate(2.92 23.48) rotate(-87.69)"/><rect class="cls-6" x="13.13" y="11.34" width="2.38" height="0.08" transform="translate(-3.83 9.15) rotate(-31.46)"/><rect class="cls-6" x="12.03" y="10.18" width="2.38" height="0.08" transform="translate(-3.49 10.44) rotate(-38.44)"/><rect class="cls-6" x="11.37" y="9.43" width="0.08" height="2.38" transform="translate(-2.99 4.65) rotate(-20.41)"/><rect class="cls-6" x="13.47" y="10.7" width="2.38" height="0.08" transform="translate(3.12 24.78) rotate(-86.8)"/><rect class="cls-6" x="10.97" y="10.79" width="2.38" height="0.08" transform="translate(0.68 22.37) rotate(-86.8)"/><rect class="cls-6" x="12.97" y="11.1" width="2.38" height="0.08" transform="translate(2.24 24.66) rotate(-86.8)"/><rect class="cls-6" x="10.85" y="10.74" width="2.38" height="0.08" transform="translate(-3.91 13.37) rotate(-51.06)"/><rect class="cls-6" x="8.74" y="10.64" width="2.38" height="0.08" transform="translate(-0.11 0.11) rotate(-0.61)"/><rect class="cls-6" x="10.5" y="9.93" width="0.08" height="2.38" transform="translate(-4.54 8.41) rotate(-36.36)"/><rect class="cls-6" x="16.89" y="7.52" width="0.08" height="2.38" transform="translate(4.34 23) rotate(-75.84)"/><polygon class="cls-6" points="12.7 7.67 12.09 9.98 12.01 9.96 12.62 7.65 12.7 7.67"/><rect class="cls-6" x="11.93" y="8.49" width="0.08" height="2.38" transform="translate(-3.12 12.77) rotate(-50.52)"/><rect class="cls-6" x="11.45" y="8.42" width="0.08" height="2.38" transform="translate(-0.64 18.39) rotate(-75.84)"/><rect class="cls-6" x="13.38" y="7.73" width="0.08" height="2.38" transform="translate(-2.37 5.71) rotate(-22.13)"/><rect class="cls-6" x="15.81" y="7.23" width="0.08" height="2.38" transform="translate(-1.89 11.14) rotate(-36.68)"/><rect class="cls-6" x="15.64" y="7.03" width="0.08" height="2.38" transform="translate(-0.38 0.78) rotate(-2.8)"/><rect class="cls-6" x="14.1" y="8.86" width="2.38" height="0.08" transform="translate(-2.22 11.44) rotate(-38.44)"/><rect class="cls-6" x="10.37" y="8.13" width="0.08" height="2.38" transform="translate(-3.51 8.06) rotate(-36.68)"/><rect class="cls-6" x="8.66" y="9.76" width="2.38" height="0.08" transform="translate(-3.96 8.25) rotate(-38.44)"/><rect class="cls-6" x="15.43" y="9.51" width="2.38" height="0.08" transform="translate(2.47 22.48) rotate(-72.31)"/><rect class="cls-6" x="14.01" y="9.4" width="2.38" height="0.08" transform="translate(-2.28 13.25) rotate(-44.12)"/><rect class="cls-6" x="15.94" y="9.04" width="0.08" height="2.38" transform="translate(-2.95 11.47) rotate(-36.36)"/><rect class="cls-6" x="14.58" y="10.21" width="2.38" height="0.08" transform="translate(1.83 22.88) rotate(-75.19)"/><rect class="cls-6" x="12.17" y="8.94" width="0.08" height="2.38" transform="translate(-0.37 19.8) rotate(-77.21)"/><rect class="cls-6" x="11.49" y="10.44" width="2.38" height="0.08" transform="translate(-2.18 17.53) rotate(-64.96)"/><rect class="cls-6" x="15.2" y="9.04" width="0.08" height="2.38" transform="translate(-2.94 12.78) rotate(-41.84)"/><polygon class="cls-6" points="12.85 11.71 13.57 9.44 13.5 9.41 12.77 11.68 12.85 11.71"/><rect class="cls-6" x="9.98" y="10.41" width="2.38" height="0.08" transform="translate(-2.18 17.92) rotate(-72.31)"/><rect class="cls-6" x="12.49" y="10.18" width="2.38" height="0.08" transform="translate(2.92 23.48) rotate(-87.69)"/><rect class="cls-6" x="12.03" y="10.18" width="2.38" height="0.08" transform="translate(-3.49 10.44) rotate(-38.44)"/><rect class="cls-6" x="11.37" y="9.43" width="0.08" height="2.38" transform="matrix(0.94, -0.35, 0.35, 0.94, -2.99, 4.65)"/><rect class="cls-6" x="10.97" y="10.79" width="2.38" height="0.08" transform="matrix(0.06, -1, 1, 0.06, 0.68, 22.37)"/><rect class="cls-6" x="10.5" y="9.93" width="0.08" height="2.38" transform="translate(-4.54 8.41) rotate(-36.36)"/><rect class="cls-6" x="15.16" y="4.87" width="2.38" height="0.08" transform="translate(-0.05 0.17) rotate(-0.61)"/><rect class="cls-6" x="14.96" y="6.75" width="2.38" height="0.08" transform="translate(6.07 21.11) rotate(-77.65)"/><rect class="cls-6" x="16.71" y="6.15" width="0.08" height="2.38" transform="translate(9.36 24.07) rotate(-89.85)"/><rect class="cls-6" x="16.89" y="7.52" width="0.08" height="2.38" transform="translate(4.34 23) rotate(-75.84)"/><rect class="cls-6" x="15.49" y="8.29" width="2.38" height="0.08" transform="translate(-1.56 12.18) rotate(-38.44)"/><rect class="cls-6" x="14.67" y="5.87" width="2.38" height="0.08" transform="translate(8.77 21.28) rotate(-85.66)"/><rect class="cls-6" x="9.72" y="5.76" width="2.38" height="0.08" transform="translate(-0.06 0.12) rotate(-0.61)"/><rect class="cls-6" x="11.7" y="6.36" width="0.08" height="2.38" transform="translate(0.84 16.28) rotate(-71.45)"/><rect class="cls-6" x="15.13" y="6.19" width="0.08" height="2.38" transform="translate(3.38 19.45) rotate(-71.61)"/><rect class="cls-6" x="12.64" y="6.72" width="2.38" height="0.08" transform="translate(3.13 17.82) rotate(-71.99)"/><rect class="cls-6" x="14" y="5.65" width="2.38" height="0.08" transform="translate(5.81 18.92) rotate(-75.18)"/><polygon class="cls-6" points="12.7 7.67 12.09 9.98 12.01 9.96 12.62 7.65 12.7 7.67"/><rect class="cls-6" x="14.3" y="6.64" width="0.08" height="2.38" transform="matrix(0.83, -0.56, 0.56, 0.83, -1.92, 9.42)"/><rect class="cls-6" x="11.93" y="8.49" width="0.08" height="2.38" transform="translate(-3.12 12.77) rotate(-50.52)"/><rect class="cls-6" x="14.08" y="7.38" width="0.08" height="2.38" transform="translate(-1.52 13.89) rotate(-50.07)"/><rect class="cls-6" x="11.11" y="7" width="0.08" height="2.38" transform="translate(-0.29 0.4) rotate(-2.05)"/><rect class="cls-6" x="12.55" y="5.58" width="0.08" height="2.38" transform="translate(-1.69 7.4) rotate(-30.81)"/><rect class="cls-6" x="11.5" y="5.82" width="0.08" height="2.38" transform="translate(-0.65 12.82) rotate(-56.78)"/><rect class="cls-6" x="11.92" y="7.35" width="0.08" height="2.38" transform="translate(-2.69 9.67) rotate(-39.95)"/><rect class="cls-6" x="9.51" y="7.64" width="2.38" height="0.08" transform="translate(0.91 16.5) rotate(-77.65)"/><rect class="cls-6" x="11.55" y="4.88" width="0.08" height="2.38" transform="translate(-1.08 9.37) rotate(-42.25)"/><polygon class="cls-6" points="14.37 6.15 16.71 6.6 16.69 6.68 14.36 6.22 14.37 6.15"/><rect class="cls-6" x="13.43" y="7.95" width="2.38" height="0.08" transform="translate(-2 9.21) rotate(-32.86)"/><rect class="cls-6" x="14.77" y="4.55" width="0.08" height="2.38" transform="translate(5.94 18.91) rotate(-77.21)"/><rect class="cls-6" x="14.73" y="5.51" width="0.08" height="2.38" transform="translate(7.03 20.95) rotate(-85.91)"/><rect class="cls-6" x="11.26" y="7.05" width="0.08" height="2.38" transform="translate(3.03 19.52) rotate(-89.85)"/><rect class="cls-6" x="11.45" y="8.42" width="0.08" height="2.38" transform="translate(-0.64 18.39) rotate(-75.84)"/><rect class="cls-6" x="14.1" y="4.01" width="0.08" height="2.38" transform="translate(3.78 16.14) rotate(-66.76)"/><polygon class="cls-6" points="12.63 7.39 14.96 7.91 14.94 7.99 12.62 7.46 12.63 7.39"/><polygon class="cls-6" points="14.51 9.26 15.79 7.25 15.86 7.29 14.57 9.3 14.51 9.26"/><rect class="cls-6" x="13.33" y="8.71" width="2.38" height="0.08" transform="translate(-2.34 7.02) rotate(-25.22)"/><rect class="cls-6" x="11.35" y="5.71" width="2.38" height="0.08" transform="translate(-1.26 5.89) rotate(-25.22)"/><rect class="cls-6" x="13.39" y="7.78" width="0.08" height="2.38" transform="translate(0.16 18.17) rotate(-68.49)"/><rect class="cls-6" x="11.65" y="7.04" width="2.38" height="0.08" transform="matrix(0.95, -0.3, 0.3, 0.95, -1.54, 4.25)"/><rect class="cls-6" x="13.38" y="7.73" width="0.08" height="2.38" transform="translate(-2.37 5.71) rotate(-22.13)"/><rect class="cls-6" x="14.42" y="4.99" width="0.08" height="2.38" transform="translate(-1.14 4.19) rotate(-15.87)"/><rect class="cls-6" x="12.8" y="5.06" width="0.08" height="2.38" transform="translate(-0.9 10.16) rotate(-41.84)"/><rect class="cls-6" x="15.81" y="7.23" width="0.08" height="2.38" transform="translate(-1.89 11.14) rotate(-36.68)"/><rect class="cls-6" x="12.24" y="5.89" width="2.38" height="0.08" transform="translate(-1.12 7.88) rotate(-31.46)"/><rect class="cls-6" x="15.64" y="7.03" width="0.08" height="2.38" transform="translate(-0.38 0.78) rotate(-2.8)"/><rect class="cls-6" x="10.3" y="7.93" width="2.38" height="0.08" transform="translate(-1.93 11.9) rotate(-51.06)"/><rect class="cls-6" x="12.06" y="8.63" width="2.38" height="0.08" transform="translate(-1.82 13.53) rotate(-51.06)"/><rect class="cls-6" x="10.04" y="9.19" width="2.38" height="0.08" transform="translate(-3.3 8.98) rotate(-38.44)"/><rect class="cls-6" x="12.22" y="7.97" width="0.08" height="2.38" transform="translate(-0.3 17.91) rotate(-71.62)"/><rect class="cls-6" x="14.1" y="8.86" width="2.38" height="0.08" transform="translate(-2.22 11.44) rotate(-38.44)"/><rect class="cls-6" x="10.54" y="7.73" width="2.38" height="0.08" transform="translate(3.32 19.05) rotate(-86.8)"/><rect class="cls-6" x="12.07" y="5.66" width="2.38" height="0.08" transform="translate(6.84 18.62) rotate(-86.8)"/><rect class="cls-6" x="13.47" y="7.21" width="2.38" height="0.08" transform="translate(-0.19 14.1) rotate(-51.06)"/><rect class="cls-6" x="9.23" y="6.77" width="2.38" height="0.08" transform="translate(2.84 16.68) rotate(-85.66)"/><rect class="cls-6" x="9.68" y="7.09" width="0.08" height="2.38" transform="matrix(0.32, -0.95, 0.95, 0.32, -1.2, 14.89)"/><rect class="cls-6" x="8.56" y="6.54" width="2.38" height="0.08" transform="translate(0.89 14.32) rotate(-75.18)"/><polygon class="cls-6" points="8.92 7.04 11.26 7.5 11.25 7.58 8.91 7.12 8.92 7.04"/><rect class="cls-6" x="9.33" y="5.44" width="0.08" height="2.38" transform="translate(0.82 14.3) rotate(-77.21)"/><rect class="cls-6" x="9.28" y="6.4" width="0.08" height="2.38" transform="translate(1.08 16.35) rotate(-85.91)"/><rect class="cls-6" x="10.37" y="8.13" width="0.08" height="2.38" transform="translate(-3.51 8.06) rotate(-36.68)"/><rect class="cls-6" x="8.66" y="9.76" width="2.38" height="0.08" transform="translate(-3.96 8.25) rotate(-38.44)"/><rect class="cls-6" x="10.61" y="11.21" width="2.38" height="0.08" transform="translate(-0.12 0.13) rotate(-0.61)"/><rect class="cls-6" x="10.38" y="10.44" width="2.38" height="0.08" transform="translate(-3.36 5.93) rotate(-25.22)"/><rect class="cls-6" x="9.98" y="10.41" width="2.38" height="0.08" transform="translate(-2.18 17.92) rotate(-72.31)"/><rect class="cls-6" x="8.74" y="10.64" width="2.38" height="0.08" transform="translate(-0.11 0.11) rotate(-0.61)"/><rect class="cls-6" x="8.57" y="10.3" width="2.38" height="0.08" transform="translate(-4.44 9.71) rotate(-44.12)"/><rect class="cls-6" x="10.5" y="9.93" width="0.08" height="2.38" transform="translate(-4.54 8.41) rotate(-36.36)"/><rect class="cls-6" x="9.14" y="11.1" width="2.38" height="0.08" transform="translate(-3.08 18.28) rotate(-75.19)"/><rect class="cls-6" x="6.73" y="9.83" width="0.08" height="2.38" transform="translate(-5.48 15.18) rotate(-77.21)"/><rect class="cls-6" x="9.55" y="10.35" width="0.08" height="2.38" transform="translate(-4.8 15.8) rotate(-66.76)"/><rect class="cls-6" x="9.76" y="9.93" width="0.08" height="2.38" transform="translate(-4.92 9.37) rotate(-41.84)"/><rect class="cls-6" x="6.58" y="11.08" width="2.38" height="0.08" transform="translate(-5.23 7.24) rotate(-38.44)"/><rect class="cls-6" x="11.45" y="8.42" width="0.08" height="2.38" transform="translate(-0.64 18.39) rotate(-75.84)"/><polygon class="cls-6" points="7.25 8.57 6.64 10.87 6.57 10.85 7.18 8.55 7.25 8.57"/><rect class="cls-6" x="6.48" y="9.39" width="0.08" height="2.38" transform="translate(-5.79 8.89) rotate(-50.52)"/><rect class="cls-6" x="6" y="9.31" width="0.08" height="2.38" transform="translate(-5.62 13.79) rotate(-75.84)"/><rect class="cls-6" x="7.94" y="8.62" width="0.08" height="2.38" transform="translate(-3.11 3.73) rotate(-22.13)"/><rect class="cls-6" x="10.37" y="8.13" width="0.08" height="2.38" transform="translate(-3.51 8.06) rotate(-36.68)"/><rect class="cls-6" x="10.19" y="7.92" width="0.08" height="2.38" transform="translate(-0.43 0.51) rotate(-2.8)"/><rect class="cls-6" x="8.66" y="9.76" width="2.38" height="0.08" transform="translate(-3.96 8.25) rotate(-38.44)"/><rect class="cls-6" x="4.92" y="9.02" width="0.08" height="2.38" transform="translate(-5.12 4.99) rotate(-36.68)"/><rect class="cls-6" x="9.98" y="10.41" width="2.38" height="0.08" transform="translate(-2.18 17.92) rotate(-72.31)"/><rect class="cls-6" x="8.57" y="10.3" width="2.38" height="0.08" transform="translate(-4.44 9.71) rotate(-44.12)"/><rect class="cls-6" x="10.5" y="9.93" width="0.08" height="2.38" transform="translate(-4.54 8.41) rotate(-36.36)"/><rect class="cls-6" x="9.14" y="11.1" width="2.38" height="0.08" transform="translate(-3.08 18.28) rotate(-75.19)"/><rect class="cls-6" x="6.73" y="9.83" width="0.08" height="2.38" transform="translate(-5.48 15.18) rotate(-77.21)"/><rect class="cls-6" x="9.76" y="9.93" width="0.08" height="2.38" transform="translate(-4.92 9.37) rotate(-41.84)"/><rect class="cls-6" x="6.58" y="11.08" width="2.38" height="0.08" transform="matrix(0.78, -0.62, 0.62, 0.78, -5.23, 7.24)"/><rect class="cls-6" x="9.72" y="5.76" width="2.38" height="0.08" transform="translate(-0.06 0.12) rotate(-0.61)"/><rect class="cls-6" x="9.51" y="7.64" width="2.38" height="0.08" transform="translate(0.91 16.5) rotate(-77.65)"/><rect class="cls-6" x="11.26" y="7.05" width="0.08" height="2.38" transform="translate(3.03 19.52) rotate(-89.85)"/><rect class="cls-6" x="11.45" y="8.42" width="0.08" height="2.38" transform="translate(-0.64 18.39) rotate(-75.84)"/><rect class="cls-6" x="10.04" y="9.19" width="2.38" height="0.08" transform="translate(-3.3 8.98) rotate(-38.44)"/><rect class="cls-6" x="9.23" y="6.77" width="2.38" height="0.08" transform="translate(2.84 16.68) rotate(-85.66)"/><rect class="cls-6" x="4.27" y="6.66" width="2.38" height="0.08" transform="translate(-0.07 0.06) rotate(-0.61)"/><rect class="cls-6" x="6.26" y="7.26" width="0.08" height="2.38" transform="translate(-3.72 11.73) rotate(-71.45)"/><rect class="cls-6" x="9.68" y="7.09" width="0.08" height="2.38" transform="translate(-1.2 14.89) rotate(-71.61)"/><rect class="cls-6" x="7.2" y="7.61" width="2.38" height="0.08" transform="translate(-1.48 13.26) rotate(-71.99)"/><rect class="cls-6" x="8.56" y="6.54" width="2.38" height="0.08" transform="matrix(0.26, -0.97, 0.97, 0.26, 0.89, 14.32)"/><polygon class="cls-6" points="7.25 8.57 6.64 10.87 6.57 10.85 7.18 8.55 7.25 8.57"/><rect class="cls-6" x="8.85" y="7.53" width="0.08" height="2.38" transform="matrix(0.83, -0.56, 0.56, 0.83, -3.37, 6.51)"/><rect class="cls-6" x="6.48" y="9.39" width="0.08" height="2.38" transform="translate(-5.79 8.89) rotate(-50.52)"/><rect class="cls-6" x="8.63" y="8.28" width="0.08" height="2.38" transform="translate(-4.15 10.04) rotate(-50.07)"/><rect class="cls-6" x="5.66" y="7.89" width="0.08" height="2.38" transform="translate(-0.32 0.21) rotate(-2.05)"/><rect class="cls-6" x="7.1" y="6.48" width="0.08" height="2.38" transform="translate(-2.92 4.74) rotate(-30.81)"/><rect class="cls-6" x="6.05" y="6.71" width="0.08" height="2.38" transform="translate(-3.86 8.67) rotate(-56.78)"/><rect class="cls-6" x="6.47" y="8.25" width="0.08" height="2.38" transform="translate(-4.54 6.38) rotate(-39.95)"/><rect class="cls-6" x="4.07" y="8.54" width="2.38" height="0.08" transform="translate(-4.24 11.88) rotate(-77.65)"/><rect class="cls-6" x="6.1" y="5.78" width="0.08" height="2.38" transform="translate(-3.09 5.94) rotate(-42.25)"/><polygon class="cls-6" points="8.92 7.04 11.26 7.5 11.25 7.58 8.91 7.12 8.92 7.04"/><rect class="cls-6" x="7.99" y="8.85" width="2.38" height="0.08" transform="translate(-3.35 6.4) rotate(-32.86)"/><rect class="cls-6" x="9.33" y="5.44" width="0.08" height="2.38" transform="translate(0.82 14.3) rotate(-77.21)"/><rect class="cls-6" x="9.28" y="6.4" width="0.08" height="2.38" transform="translate(1.08 16.35) rotate(-85.91)"/><rect class="cls-6" x="5.82" y="7.94" width="0.08" height="2.38" transform="translate(-3.3 14.97) rotate(-89.85)"/><rect class="cls-6" x="6" y="9.31" width="0.08" height="2.38" transform="translate(-5.62 13.79) rotate(-75.84)"/><rect class="cls-6" x="8.65" y="4.9" width="0.08" height="2.38" transform="translate(-0.34 11.68) rotate(-66.76)"/><polygon class="cls-6" points="7.19 8.28 9.51 8.81 9.49 8.88 7.17 8.36 7.19 8.28"/><polygon class="cls-6" points="9.06 10.15 10.34 8.14 10.41 8.18 9.13 10.19 9.06 10.15"/><rect class="cls-6" x="7.89" y="9.6" width="2.38" height="0.08" transform="translate(-3.24 4.79) rotate(-25.22)"/><rect class="cls-6" x="5.9" y="6.61" width="2.38" height="0.08" transform="translate(-2.16 3.66) rotate(-25.22)"/><rect class="cls-6" x="7.94" y="8.67" width="0.08" height="2.38" transform="matrix(0.37, -0.93, 0.93, 0.37, -4.12, 13.67)"/><rect class="cls-6" x="6.2" y="7.93" width="2.38" height="0.08" transform="translate(-2.08 2.63) rotate(-17.73)"/><rect class="cls-6" x="7.94" y="8.62" width="0.08" height="2.38" transform="translate(-3.11 3.73) rotate(-22.13)"/><rect class="cls-6" x="8.98" y="5.89" width="0.08" height="2.38" transform="translate(-1.59 2.73) rotate(-15.87)"/><rect class="cls-6" x="7.35" y="5.96" width="0.08" height="2.38" transform="translate(-2.88 6.75) rotate(-41.84)"/><rect class="cls-6" x="10.37" y="8.13" width="0.08" height="2.38" transform="translate(-3.51 8.06) rotate(-36.68)"/><rect class="cls-6" x="6.79" y="6.79" width="2.38" height="0.08" transform="translate(-2.39 5.17) rotate(-31.46)"/><rect class="cls-6" x="10.19" y="7.92" width="0.08" height="2.38" transform="translate(-0.43 0.51) rotate(-2.8)"/><rect class="cls-6" x="4.85" y="8.82" width="2.38" height="0.08" transform="translate(-4.65 7.99) rotate(-51.06)"/><rect class="cls-6" x="6.62" y="9.52" width="2.38" height="0.08" transform="translate(-4.54 9.63) rotate(-51.06)"/><rect class="cls-6" x="4.6" y="10.08" width="2.38" height="0.08" transform="translate(-5.04 5.79) rotate(-38.44)"/><rect class="cls-6" x="6.78" y="8.86" width="0.08" height="2.38" transform="translate(-4.87 13.35) rotate(-71.62)"/><rect class="cls-6" x="8.66" y="9.76" width="2.38" height="0.08" transform="translate(-3.96 8.25) rotate(-38.44)"/><rect class="cls-6" x="5.09" y="8.62" width="2.38" height="0.08" transform="translate(-2.71 14.45) rotate(-86.8)"/><rect class="cls-6" x="6.63" y="6.55" width="2.38" height="0.08" transform="translate(0.8 14.03) rotate(-86.8)"/><rect class="cls-6" x="8.03" y="8.11" width="2.38" height="0.08" transform="translate(-2.91 10.2) rotate(-51.06)"/><rect class="cls-6" x="3.78" y="7.66" width="2.38" height="0.08" transform="translate(-3.08 12.07) rotate(-85.66)"/><rect class="cls-6" x="4.24" y="7.98" width="0.08" height="2.38" transform="translate(-5.78 10.34) rotate(-71.61)"/><rect class="cls-6" x="3.11" y="7.44" width="2.38" height="0.08" transform="translate(-4.03 9.72) rotate(-75.18)"/><polygon class="cls-6" points="3.48 7.94 5.82 8.39 5.8 8.47 3.46 8.02 3.48 7.94"/><rect class="cls-6" x="3.88" y="6.34" width="0.08" height="2.38" transform="translate(-4.29 9.69) rotate(-77.21)"/><rect class="cls-6" x="3.84" y="7.3" width="0.08" height="2.38" transform="translate(-4.87 11.75) rotate(-85.91)"/><rect class="cls-6" x="4.92" y="9.02" width="0.08" height="2.38" transform="translate(-5.12 4.99) rotate(-36.68)"/><rect class="cls-6" x="6" y="9.31" width="0.08" height="2.38" transform="translate(-5.62 13.79) rotate(-75.84)"/><rect class="cls-6" x="4.92" y="9.02" width="0.08" height="2.38" transform="translate(-5.12 4.99) rotate(-36.68)"/><rect class="cls-6" x="4.27" y="6.66" width="2.38" height="0.08" transform="translate(-0.07 0.06) rotate(-0.61)"/><rect class="cls-6" x="4.07" y="8.54" width="2.38" height="0.08" transform="translate(-4.24 11.88) rotate(-77.65)"/><rect class="cls-6" x="5.82" y="7.94" width="0.08" height="2.38" transform="translate(-3.3 14.97) rotate(-89.85)"/><rect class="cls-6" x="6" y="9.31" width="0.08" height="2.38" transform="translate(-5.62 13.79) rotate(-75.84)"/><rect class="cls-6" x="4.6" y="10.08" width="2.38" height="0.08" transform="translate(-5.04 5.79) rotate(-38.44)"/><rect class="cls-6" x="3.78" y="7.66" width="2.38" height="0.08" transform="translate(-3.08 12.07) rotate(-85.66)"/><rect class="cls-6" x="4.24" y="7.98" width="0.08" height="2.38" transform="translate(-5.78 10.34) rotate(-71.61)"/><rect class="cls-6" x="1.75" y="8.51" width="2.38" height="0.08" transform="translate(-6.1 8.7) rotate(-71.99)"/><rect class="cls-6" x="3.11" y="7.44" width="2.38" height="0.08" transform="matrix(0.26, -0.97, 0.97, 0.26, -4.03, 9.72)"/><rect class="cls-6" x="3.4" y="8.43" width="0.08" height="2.38" transform="matrix(0.83, -0.56, 0.56, 0.83, -4.81, 3.6)"/><rect class="cls-6" x="1.66" y="7.37" width="0.08" height="2.38" transform="translate(-4.15 2.08) rotate(-30.81)"/><rect class="cls-6" x="0.65" y="6.67" width="0.08" height="2.38" transform="translate(-5.11 2.51) rotate(-42.25)"/><polygon class="cls-6" points="3.48 7.94 5.82 8.39 5.8 8.47 3.46 8.02 3.48 7.94"/><rect class="cls-6" x="2.54" y="9.74" width="2.38" height="0.08" transform="translate(-4.71 3.59) rotate(-32.86)"/><rect class="cls-6" x="3.88" y="6.34" width="0.08" height="2.38" transform="translate(-4.29 9.69) rotate(-77.21)"/><rect class="cls-6" x="3.84" y="7.3" width="0.08" height="2.38" transform="translate(-4.87 11.75) rotate(-85.91)"/><rect class="cls-6" x="3.21" y="5.8" width="0.08" height="2.38" transform="translate(-4.46 7.21) rotate(-66.76)"/><polygon class="cls-6" points="1.74 9.18 4.07 9.7 4.05 9.78 1.72 9.25 1.74 9.18"/><polygon class="cls-6" points="3.62 11.04 4.9 9.04 4.96 9.08 3.68 11.09 3.62 11.04"/><rect class="cls-6" x="2.44" y="10.5" width="2.38" height="0.08" transform="translate(-4.14 2.55) rotate(-25.22)"/><rect class="cls-6" x="0.46" y="7.51" width="2.38" height="0.08" transform="matrix(0.9, -0.43, 0.43, 0.9, -3.06, 1.42)"/><rect class="cls-6" x="0.75" y="8.83" width="2.38" height="0.08" transform="translate(-2.61 1.01) rotate(-17.73)"/><rect class="cls-6" x="3.53" y="6.78" width="0.08" height="2.38" transform="translate(-2.04 1.28) rotate(-15.87)"/><rect class="cls-6" x="1.9" y="6.85" width="0.08" height="2.38" transform="translate(-4.87 3.35) rotate(-41.84)"/><rect class="cls-6" x="4.92" y="9.02" width="0.08" height="2.38" transform="translate(-5.12 4.99) rotate(-36.68)"/><rect class="cls-6" x="1.34" y="7.68" width="2.38" height="0.08" transform="translate(-3.66 2.46) rotate(-31.46)"/><rect class="cls-6" x="1.18" y="7.45" width="2.38" height="0.08" transform="translate(-5.23 9.44) rotate(-86.8)"/><rect class="cls-6" x="2.58" y="9" width="2.38" height="0.08" transform="translate(-5.63 6.29) rotate(-51.06)"/></g></svg>