<svg id="Layer_1" data-name="Layer 1" xmlns="http://www.w3.org/2000/svg" viewBox="0 0 28 18"><defs><style>.cls-1,.cls-2,.cls-3{fill:none;stroke:#3c3c3b;stroke-linejoin:round;stroke-width:0.7px;}.cls-1{stroke-linecap:round;}.cls-3{stroke-dasharray:1 1;}.cls-4{fill:#3c3c3b;}.cls-5{fill:#fff;}</style></defs><path class="cls-1" d="M1.45,1.57h7.8c-.42.91-7.24.9-6.81,1.76S8.16,4.19,7.91,5s-4.48.81-4.32,1.61,3.78.82,3.72,1.62S3.83,9,3.75,9.79s3.58.83,3.72,1.63S3.3,12.17,3,13s5.1.85,5.44,1.7-6.52.83-7,1.73H9.24"/><path class="cls-1" d="M10.12,1.57h7.8c-.42.91-7.24.9-6.82,1.76s5.73.86,5.48,1.69-4.48.81-4.32,1.61S16,7.45,16,8.25,12.5,9,12.42,9.79s3.58.83,3.72,1.63S12,12.17,11.67,13s5.09.85,5.44,1.7-6.52.83-7,1.73h7.81"/><path class="cls-1" d="M18.79,1.57h7.8c-.43.91-7.24.9-6.82,1.76s5.72.86,5.48,1.69-4.48.81-4.32,1.61,3.77.82,3.71,1.62S21.17,9,21.09,9.79s3.58.83,3.72,1.63-4.18.75-4.47,1.58,5.09.85,5.44,1.7-6.53.83-7,1.73h7.81"/><line class="cls-2" x1="26.71" y1="1.26" x2="26.71" y2="1.59"/><line class="cls-3" x1="26.71" y1="2.24" x2="26.71" y2="16.08"/><path class="cls-2" d="M18.39,1.26v.33m8.32,14.82v.33"/><line class="cls-3" x1="18.31" y1="2.24" x2="18.31" y2="16.08"/><path class="cls-2" d="M1.29,1.26v.33m17,14.82v.33"/><line class="cls-3" x1="1.29" y1="2.24" x2="1.29" y2="16.08"/><path class="cls-2" d="M9.61,1.26v.33M1.29,16.41v.33"/><line class="cls-3" x1="9.69" y1="2.24" x2="9.69" y2="16.08"/><line class="cls-2" x1="9.69" y1="16.41" x2="9.69" y2="16.74"/><rect class="cls-4" x="7.01" y="6.01" width="13.97" height="5.98"/><path class="cls-5" d="M9.7,10.78V10.1h.5a.91.91,0,0,0,.22.44.61.61,0,0,0,.84,0,1,1,0,0,0,.14-.57.8.8,0,0,0-.19-.58.66.66,0,0,0-.53-.2,1.46,1.46,0,0,0-.29,0l-.28.06-.24-.15V7.2h1.62l.15,0,.08,0A.44.44,0,0,0,11.78,7h.31L12,7.89H10.34v1l.34-.07.42,0a1.4,1.4,0,0,1,.6.12,1,1,0,0,1,.4.37,1.15,1.15,0,0,1,.14.57,1.2,1.2,0,0,1-.17.64,1,1,0,0,1-.49.38,2,2,0,0,1-.77.13,3,3,0,0,1-.59-.06,2.28,2.28,0,0,1-.52-.16"/><path class="cls-5" d="M13.45,9a6.22,6.22,0,0,0,.05,1,1.31,1.31,0,0,0,.17.53.37.37,0,0,0,.31.17.35.35,0,0,0,.18,0,.45.45,0,0,0,.14-.16,1.18,1.18,0,0,0,.11-.29,2.46,2.46,0,0,0,.06-.45c0-.18,0-.38,0-.6a6.4,6.4,0,0,0,0-.82,2.27,2.27,0,0,0-.1-.52.59.59,0,0,0-.17-.26A.32.32,0,0,0,14,7.46a.33.33,0,0,0-.25.1.61.61,0,0,0-.16.29,2.54,2.54,0,0,0-.09.49c0,.2,0,.43,0,.69m.48,2a1.29,1.29,0,0,1-.72-.19,1.2,1.2,0,0,1-.44-.61,3,3,0,0,1-.16-1.09A3.05,3.05,0,0,1,12.77,8a1.37,1.37,0,0,1,.47-.66A1.21,1.21,0,0,1,14,7.15a1.18,1.18,0,0,1,1,.46A2.44,2.44,0,0,1,15.33,9,2.52,2.52,0,0,1,15,10.5a1.19,1.19,0,0,1-1,.5"/><path class="cls-5" d="M16.54,9a7.81,7.81,0,0,0,.05,1,1.31,1.31,0,0,0,.17.53.37.37,0,0,0,.31.17.35.35,0,0,0,.18,0,.45.45,0,0,0,.14-.16,1.18,1.18,0,0,0,.11-.29,2.46,2.46,0,0,0,.06-.45,5.62,5.62,0,0,0,0-.6,6.4,6.4,0,0,0,0-.82,2.27,2.27,0,0,0-.1-.52.68.68,0,0,0-.16-.26.37.37,0,0,0-.22-.08.33.33,0,0,0-.25.1.71.71,0,0,0-.16.29,2.54,2.54,0,0,0-.09.49c0,.2,0,.43,0,.69M17,11a1.25,1.25,0,0,1-.72-.19,1.16,1.16,0,0,1-.45-.61,3,3,0,0,1-.16-1.09A3.05,3.05,0,0,1,15.86,8a1.37,1.37,0,0,1,.47-.66,1.26,1.26,0,0,1,.75-.23,1.19,1.19,0,0,1,1,.46A2.45,2.45,0,0,1,18.42,9a2.52,2.52,0,0,1-.36,1.48,1.18,1.18,0,0,1-1,.5"/><path class="cls-2" d="M27,1.55H1m26,14.9H1"/></svg>