<svg id="Layer_1" data-name="Layer 1" xmlns="http://www.w3.org/2000/svg" xmlns:xlink="http://www.w3.org/1999/xlink" viewBox="0 0 28 18"><defs><style>.cls-1,.cls-4,.cls-7{fill:none;}.cls-2{clip-path:url(#clip-path);}.cls-3{fill:#3c3c3b;}.cls-4,.cls-7{stroke:#3c3c3b;}.cls-4{stroke-linecap:round;stroke-linejoin:round;stroke-width:0.7px;}.cls-5{clip-path:url(#clip-path-2);}.cls-6{fill:#878787;}.cls-7{stroke-miterlimit:10;stroke-width:0.7px;}.cls-8{fill:#fff;}</style><clipPath id="clip-path"><rect class="cls-1" x="1" y="3.64" width="26" height="3.92"/></clipPath><clipPath id="clip-path-2"><rect class="cls-1" x="1" y="9.99" width="26" height="5.07"/></clipPath></defs><g class="cls-2"><path class="cls-3" d="M26.93,8.32a.54.54,0,0,0,.54-.54.54.54,0,1,0-1.08,0A.54.54,0,0,0,26.93,8.32Z"/><path class="cls-3" d="M24.77,8.32a.54.54,0,0,0,.54-.54.55.55,0,0,0-.54-.54.54.54,0,0,0-.54.54A.54.54,0,0,0,24.77,8.32Z"/><circle class="cls-3" cx="26.93" cy="5.62" r="0.54"/><path class="cls-3" d="M24.77,6.16a.54.54,0,0,0,0-1.08.54.54,0,1,0,0,1.08Z"/><path class="cls-3" d="M23.69,7.24a.54.54,0,1,0-.55-.54A.54.54,0,0,0,23.69,7.24Z"/><path class="cls-3" d="M25.85,7.24a.54.54,0,1,0-.54-.54A.54.54,0,0,0,25.85,7.24Z"/><path class="cls-3" d="M23.69,5.08a.54.54,0,1,0-.55-.54A.54.54,0,0,0,23.69,5.08Z"/><path class="cls-3" d="M25.85,5.08a.54.54,0,1,0-.54-.54A.54.54,0,0,0,25.85,5.08Z"/><path class="cls-3" d="M22.6,8.32a.54.54,0,0,0,.54-.54.54.54,0,0,0-.54-.54.55.55,0,0,0-.54.54A.54.54,0,0,0,22.6,8.32Z"/><circle class="cls-3" cx="22.6" cy="5.62" r="0.54"/><path class="cls-3" d="M26.93,4a.54.54,0,1,0-.54-.54A.54.54,0,0,0,26.93,4Z"/><path class="cls-3" d="M24.77,4a.54.54,0,0,0,0-1.08.54.54,0,1,0,0,1.08Z"/><path class="cls-3" d="M22.6,4a.54.54,0,0,0,0-1.08A.54.54,0,0,0,22.6,4Z"/><path class="cls-3" d="M22.6,8.32a.54.54,0,0,0,.54-.54.54.54,0,0,0-.54-.54.55.55,0,0,0-.54.54A.54.54,0,0,0,22.6,8.32Z"/><path class="cls-3" d="M20.44,8.32A.54.54,0,0,0,21,7.78a.54.54,0,1,0-1.08,0A.54.54,0,0,0,20.44,8.32Z"/><circle class="cls-3" cx="22.6" cy="5.62" r="0.54"/><path class="cls-3" d="M20.44,6.16a.54.54,0,1,0-.54-.54A.54.54,0,0,0,20.44,6.16Z"/><path class="cls-3" d="M19.36,7.24a.54.54,0,1,0-.54-.54A.54.54,0,0,0,19.36,7.24Z"/><path class="cls-3" d="M21.52,7.24a.54.54,0,0,0,0-1.08.54.54,0,1,0,0,1.08Z"/><path class="cls-3" d="M19.36,5.08a.54.54,0,1,0-.54-.54A.54.54,0,0,0,19.36,5.08Z"/><path class="cls-3" d="M21.52,5.08a.54.54,0,0,0,0-1.08.54.54,0,1,0,0,1.08Z"/><path class="cls-3" d="M18.28,8.32a.54.54,0,0,0,.54-.54.54.54,0,1,0-1.08,0A.54.54,0,0,0,18.28,8.32Z"/><circle class="cls-3" cx="18.28" cy="5.62" r="0.54"/><path class="cls-3" d="M22.6,4a.54.54,0,0,0,0-1.08A.54.54,0,0,0,22.6,4Z"/><path class="cls-3" d="M20.44,4a.54.54,0,1,0-.54-.54A.54.54,0,0,0,20.44,4Z"/><path class="cls-3" d="M18.28,4a.54.54,0,1,0-.54-.54A.54.54,0,0,0,18.28,4Z"/><path class="cls-3" d="M18.28,8.32a.54.54,0,0,0,.54-.54.54.54,0,1,0-1.08,0A.54.54,0,0,0,18.28,8.32Z"/><path class="cls-3" d="M16.12,8.32a.54.54,0,0,0,.54-.54.54.54,0,1,0-1.08,0A.54.54,0,0,0,16.12,8.32Z"/><circle class="cls-3" cx="18.28" cy="5.62" r="0.54"/><path class="cls-3" d="M16.12,6.16a.54.54,0,1,0-.54-.54A.54.54,0,0,0,16.12,6.16Z"/><path class="cls-3" d="M15,7.24a.54.54,0,1,0-.54-.54A.54.54,0,0,0,15,7.24Z"/><path class="cls-3" d="M17.2,7.24a.54.54,0,1,0-.54-.54A.54.54,0,0,0,17.2,7.24Z"/><path class="cls-3" d="M15,5.08a.54.54,0,1,0-.54-.54A.54.54,0,0,0,15,5.08Z"/><path class="cls-3" d="M17.2,5.08a.54.54,0,1,0-.54-.54A.54.54,0,0,0,17.2,5.08Z"/><path class="cls-3" d="M14,8.32a.54.54,0,0,0,.54-.54.54.54,0,1,0-1.08,0A.54.54,0,0,0,14,8.32Z"/><circle class="cls-3" cx="13.96" cy="5.62" r="0.54"/><path class="cls-3" d="M18.28,4a.54.54,0,1,0-.54-.54A.54.54,0,0,0,18.28,4Z"/><path class="cls-3" d="M16.12,4a.54.54,0,1,0-.54-.54A.54.54,0,0,0,16.12,4Z"/><path class="cls-3" d="M14,4a.54.54,0,1,0-.54-.54A.54.54,0,0,0,14,4Z"/><path class="cls-3" d="M14,8.32a.54.54,0,0,0,.54-.54.54.54,0,1,0-1.08,0A.54.54,0,0,0,14,8.32Z"/><path class="cls-3" d="M11.8,8.32a.54.54,0,0,0,.54-.54.54.54,0,1,0-1.08,0A.54.54,0,0,0,11.8,8.32Z"/><circle class="cls-3" cx="13.96" cy="5.62" r="0.54"/><path class="cls-3" d="M11.8,6.16a.54.54,0,1,0-.54-.54A.54.54,0,0,0,11.8,6.16Z"/><path class="cls-3" d="M10.72,7.24a.54.54,0,1,0-.54-.54A.54.54,0,0,0,10.72,7.24Z"/><path class="cls-3" d="M12.88,7.24a.54.54,0,1,0-.54-.54A.54.54,0,0,0,12.88,7.24Z"/><path class="cls-3" d="M10.72,5.08a.54.54,0,1,0-.54-.54A.54.54,0,0,0,10.72,5.08Z"/><path class="cls-3" d="M12.88,5.08a.54.54,0,1,0-.54-.54A.54.54,0,0,0,12.88,5.08Z"/><path class="cls-3" d="M9.64,8.32a.54.54,0,0,0,.54-.54.54.54,0,1,0-1.08,0A.54.54,0,0,0,9.64,8.32Z"/><circle class="cls-3" cx="9.64" cy="5.62" r="0.54"/><path class="cls-3" d="M14,4a.54.54,0,1,0-.54-.54A.54.54,0,0,0,14,4Z"/><path class="cls-3" d="M11.8,4a.54.54,0,1,0-.54-.54A.54.54,0,0,0,11.8,4Z"/><path class="cls-3" d="M9.64,4a.54.54,0,1,0-.54-.54A.54.54,0,0,0,9.64,4Z"/><path class="cls-3" d="M9.64,8.32a.54.54,0,0,0,.54-.54.54.54,0,1,0-1.08,0A.54.54,0,0,0,9.64,8.32Z"/><path class="cls-3" d="M7.48,8.32A.54.54,0,0,0,8,7.78a.55.55,0,0,0-.54-.54.54.54,0,0,0-.54.54A.54.54,0,0,0,7.48,8.32Z"/><circle class="cls-3" cx="9.64" cy="5.62" r="0.54"/><path class="cls-3" d="M7.48,6.16a.54.54,0,0,0,0-1.08.54.54,0,0,0,0,1.08Z"/><path class="cls-3" d="M6.39,7.24a.54.54,0,1,0-.54-.54A.55.55,0,0,0,6.39,7.24Z"/><path class="cls-3" d="M8.56,7.24a.54.54,0,0,0,0-1.08.54.54,0,1,0,0,1.08Z"/><path class="cls-3" d="M6.39,5.08a.54.54,0,1,0-.54-.54A.55.55,0,0,0,6.39,5.08Z"/><path class="cls-3" d="M8.56,5.08A.54.54,0,0,0,8.56,4a.54.54,0,1,0,0,1.08Z"/><path class="cls-3" d="M5.31,8.32a.54.54,0,0,0,.54-.54.54.54,0,0,0-.54-.54.55.55,0,0,0-.54.54A.54.54,0,0,0,5.31,8.32Z"/><circle class="cls-3" cx="5.31" cy="5.62" r="0.54"/><path class="cls-3" d="M9.64,4a.54.54,0,1,0-.54-.54A.54.54,0,0,0,9.64,4Z"/><path class="cls-3" d="M7.48,4a.54.54,0,0,0,0-1.08A.54.54,0,0,0,7.48,4Z"/><path class="cls-3" d="M5.31,4a.54.54,0,0,0,0-1.08A.54.54,0,0,0,5.31,4Z"/><path class="cls-3" d="M5.31,8.32a.54.54,0,0,0,.54-.54.54.54,0,0,0-.54-.54.55.55,0,0,0-.54.54A.54.54,0,0,0,5.31,8.32Z"/><path class="cls-3" d="M3.15,8.32a.54.54,0,0,0,.54-.54.54.54,0,1,0-1.08,0A.54.54,0,0,0,3.15,8.32Z"/><circle class="cls-3" cx="5.31" cy="5.62" r="0.54"/><path class="cls-3" d="M3.15,6.16a.54.54,0,1,0-.54-.54A.54.54,0,0,0,3.15,6.16Z"/><path class="cls-3" d="M2.07,7.24a.54.54,0,1,0-.54-.54A.54.54,0,0,0,2.07,7.24Z"/><path class="cls-3" d="M4.23,7.24a.54.54,0,0,0,0-1.08.54.54,0,0,0,0,1.08Z"/><path class="cls-3" d="M2.07,5.08a.54.54,0,1,0-.54-.54A.54.54,0,0,0,2.07,5.08Z"/><path class="cls-3" d="M4.23,5.08A.54.54,0,0,0,4.23,4a.54.54,0,0,0,0,1.08Z"/><path class="cls-3" d="M1,8.32a.54.54,0,0,0,.54-.54.54.54,0,1,0-1.08,0A.54.54,0,0,0,1,8.32Z"/><circle class="cls-3" cx="0.99" cy="5.62" r="0.54"/><path class="cls-3" d="M5.31,4a.54.54,0,0,0,0-1.08A.54.54,0,0,0,5.31,4Z"/><path class="cls-3" d="M3.15,4a.54.54,0,1,0-.54-.54A.54.54,0,0,0,3.15,4Z"/><path class="cls-3" d="M1,4a.54.54,0,1,0-.54-.54A.54.54,0,0,0,1,4Z"/></g><rect class="cls-4" x="1" y="3.64" width="26" height="3.92"/><g class="cls-5"><path class="cls-6" d="M1.29,12v1a1.23,1.23,0,0,0,.6,1.06l.89.51a1.21,1.21,0,0,0,1.22,0l.89-.51A1.22,1.22,0,0,0,5.5,13V12a1.21,1.21,0,0,0-.61-1L4,10.44a1.26,1.26,0,0,0-1.22,0L1.89,11a1.23,1.23,0,0,0-.6,1"/><path class="cls-7" d="M1.29,12v1a1.23,1.23,0,0,0,.6,1.06l.89.51a1.21,1.21,0,0,0,1.22,0l.89-.51A1.22,1.22,0,0,0,5.5,13V12a1.21,1.21,0,0,0-.61-1L4,10.44a1.26,1.26,0,0,0-1.22,0L1.89,11A1.23,1.23,0,0,0,1.29,12Z"/><path class="cls-6" d="M6.59,12v1A1.22,1.22,0,0,0,7.2,14.1l.89.51a1.19,1.19,0,0,0,1.21,0l.89-.51A1.22,1.22,0,0,0,10.8,13V12a1.21,1.21,0,0,0-.61-1l-.89-.52a1.24,1.24,0,0,0-1.21,0L7.2,11a1.21,1.21,0,0,0-.61,1"/><path class="cls-7" d="M6.59,12v1A1.22,1.22,0,0,0,7.2,14.1l.89.51a1.19,1.19,0,0,0,1.21,0l.89-.51A1.22,1.22,0,0,0,10.8,13V12a1.21,1.21,0,0,0-.61-1l-.89-.52a1.24,1.24,0,0,0-1.21,0L7.2,11A1.21,1.21,0,0,0,6.59,12Z"/><path class="cls-6" d="M17.2,12v1a1.22,1.22,0,0,0,.61,1.06l.89.51a1.19,1.19,0,0,0,1.21,0l.89-.51A1.22,1.22,0,0,0,21.41,13V12a1.21,1.21,0,0,0-.61-1l-.89-.52a1.24,1.24,0,0,0-1.21,0l-.89.52a1.21,1.21,0,0,0-.61,1"/><path class="cls-7" d="M17.2,12v1a1.22,1.22,0,0,0,.61,1.06l.89.51a1.19,1.19,0,0,0,1.21,0l.89-.51A1.22,1.22,0,0,0,21.41,13V12a1.21,1.21,0,0,0-.61-1l-.89-.52a1.24,1.24,0,0,0-1.21,0l-.89.52A1.21,1.21,0,0,0,17.2,12Z"/><path class="cls-6" d="M11.89,12v1a1.24,1.24,0,0,0,.61,1.06l.89.51a1.21,1.21,0,0,0,1.22,0l.89-.51A1.24,1.24,0,0,0,16.11,13V12a1.24,1.24,0,0,0-.61-1l-.89-.52a1.26,1.26,0,0,0-1.22,0L12.5,11a1.24,1.24,0,0,0-.61,1"/><path class="cls-7" d="M11.89,12v1a1.24,1.24,0,0,0,.61,1.06l.89.51a1.21,1.21,0,0,0,1.22,0l.89-.51A1.24,1.24,0,0,0,16.11,13V12a1.24,1.24,0,0,0-.61-1l-.89-.52a1.26,1.26,0,0,0-1.22,0L12.5,11A1.24,1.24,0,0,0,11.89,12Z"/><path class="cls-8" d="M22.5,12v1a1.22,1.22,0,0,0,.61,1.06l.89.51a1.21,1.21,0,0,0,1.22,0l.89-.51a1.23,1.23,0,0,0,.6-1.06V12a1.23,1.23,0,0,0-.6-1l-.89-.52a1.26,1.26,0,0,0-1.22,0l-.89.52a1.21,1.21,0,0,0-.61,1"/><path class="cls-7" d="M22.5,12v1a1.22,1.22,0,0,0,.61,1.06l.89.51a1.21,1.21,0,0,0,1.22,0l.89-.51a1.23,1.23,0,0,0,.6-1.06V12a1.23,1.23,0,0,0-.6-1l-.89-.52a1.26,1.26,0,0,0-1.22,0l-.89.52A1.21,1.21,0,0,0,22.5,12Z"/><path class="cls-6" d="M8.7,10.28a1.25,1.25,0,0,1,.6.16l.89.52a1.21,1.21,0,0,1,.61,1v1a1.22,1.22,0,0,1-.61,1.06l-.89.51a1.16,1.16,0,0,1-.6.17"/><path class="cls-7" d="M8.7,10.28a1.25,1.25,0,0,1,.6.16l.89.52a1.21,1.21,0,0,1,.61,1v1a1.22,1.22,0,0,1-.61,1.06l-.89.51a1.16,1.16,0,0,1-.6.17"/></g></svg>