<svg id="Layer_1" data-name="Layer 1" xmlns="http://www.w3.org/2000/svg" viewBox="0 0 28 18"><defs><style>.cls-1{fill:#fff;stroke:#3c3c3b;stroke-linecap:round;stroke-linejoin:round;stroke-width:0.7px;}.cls-2{fill:#3c3c3b;}</style></defs><circle class="cls-1" cx="14" cy="9" r="8"/><path class="cls-2" d="M10.19,12.81A5.41,5.41,0,0,1,8.76,9.65a5.22,5.22,0,0,1,.8-3.3,5,5,0,0,1,5.86-2.11l0,.15a4.78,4.78,0,0,0-3.08.23,4.62,4.62,0,0,0-2.24,2,4.49,4.49,0,0,0,.84,5.45Z"/><polygon class="cls-2" points="13.66 5.17 14.92 4.17 15.07 2.57 17.45 5.54 13.66 5.17"/><path class="cls-2" d="M17.81,5.19a5.41,5.41,0,0,1,1.43,3.16,5.22,5.22,0,0,1-.8,3.3,5,5,0,0,1-5.86,2.11l0-.15a4.78,4.78,0,0,0,3.08-.23,4.62,4.62,0,0,0,2.24-2A4.49,4.49,0,0,0,17.1,5.9Z"/><polygon class="cls-2" points="14.34 12.82 13.08 13.83 12.93 15.43 10.54 12.46 14.34 12.82"/><line class="cls-1" x1="20.64" y1="9" x2="7.22" y2="9"/></svg>