<svg id="Layer_1" data-name="Layer 1" xmlns="http://www.w3.org/2000/svg" viewBox="0 0 28 18"><defs><style>.cls-1{fill:#f39400;}.cls-2{fill:none;stroke:#3c3c3b;stroke-miterlimit:10;}.cls-3{fill:#3c3c3b;}</style></defs><path class="cls-1" d="M21.66,17H8a2.33,2.33,0,0,1-2.33-2.33V3.33A2.33,2.33,0,0,1,8,1H21.66a12.09,12.09,0,0,0,0,8,12.09,12.09,0,0,1,0,8"/><path class="cls-2" d="M13.66,16.19V.81m8,16.19H8a2.33,2.33,0,0,1-2.33-2.33V3.33A2.33,2.33,0,0,1,8,1H21.66"/><polygon class="cls-3" points="16.71 13.72 16.17 13.21 13.66 15.9 11.16 13.21 10.61 13.72 13.66 17 16.71 13.72"/></svg>