<svg id="Layer_1" data-name="Layer 1" xmlns="http://www.w3.org/2000/svg" xmlns:xlink="http://www.w3.org/1999/xlink" viewBox="0 0 28 18"><defs><style>.cls-1,.cls-4,.cls-5{fill:none;}.cls-2{clip-path:url(#clip-path);}.cls-3{fill:#3c3c3b;}.cls-4,.cls-5{stroke:#3c3c3b;stroke-width:0.7px;}.cls-4{stroke-linecap:round;stroke-linejoin:round;}.cls-5{stroke-miterlimit:10;}</style><clipPath id="clip-path"><rect class="cls-1" x="2" y="13.73" width="24" height="3.62"/></clipPath></defs><g class="cls-2"><path class="cls-3" d="M25.93,18.05a.5.5,0,0,0,0-1,.5.5,0,0,0,0,1"/><path class="cls-3" d="M23.94,18.05a.5.5,0,0,0,0-1,.5.5,0,0,0,0,1"/><path class="cls-3" d="M25.93,16.05a.5.5,0,1,0-.5-.5.5.5,0,0,0,.5.5"/><path class="cls-3" d="M23.94,16.05a.5.5,0,1,0,0-1,.5.5,0,1,0,0,1"/><path class="cls-3" d="M22.94,17.05a.5.5,0,0,0,.5-.5.5.5,0,0,0-1,0,.5.5,0,0,0,.5.5"/><path class="cls-3" d="M24.94,17.05a.49.49,0,0,0,.49-.5.5.5,0,1,0-.49.5"/><path class="cls-3" d="M22.94,15.06a.5.5,0,0,0,.5-.5.5.5,0,1,0-1,0,.5.5,0,0,0,.5.5"/><path class="cls-3" d="M24.94,15.06a.5.5,0,0,0,.49-.5.5.5,0,1,0-1,0,.5.5,0,0,0,.5.5"/><path class="cls-3" d="M21.94,18.05a.5.5,0,0,0,0-1,.5.5,0,0,0,0,1"/><path class="cls-3" d="M21.94,16.05a.5.5,0,1,0-.5-.5.5.5,0,0,0,.5.5"/><path class="cls-3" d="M25.93,14.06a.5.5,0,0,0,0-1,.5.5,0,0,0,0,1"/><path class="cls-3" d="M23.94,14.06a.5.5,0,0,0,0-1,.5.5,0,0,0,0,1"/><path class="cls-3" d="M21.94,14.06a.5.5,0,0,0,0-1,.5.5,0,0,0,0,1"/><path class="cls-3" d="M21.94,18.05a.5.5,0,0,0,0-1,.5.5,0,0,0,0,1"/><path class="cls-3" d="M20,18.05a.5.5,0,0,0,0-1,.5.5,0,0,0,0,1"/><path class="cls-3" d="M21.94,16.05a.5.5,0,1,0-.5-.5.5.5,0,0,0,.5.5"/><path class="cls-3" d="M20,16.05a.5.5,0,1,0,0-1,.5.5,0,1,0,0,1"/><path class="cls-3" d="M19,17.05a.5.5,0,0,0,.5-.5.5.5,0,0,0-1,0,.5.5,0,0,0,.5.5"/><path class="cls-3" d="M21,17.05a.49.49,0,0,0,.49-.5.5.5,0,1,0-.49.5"/><path class="cls-3" d="M19,15.06a.5.5,0,0,0,.5-.5.5.5,0,1,0-1,0,.5.5,0,0,0,.5.5"/><path class="cls-3" d="M21,15.06a.5.5,0,0,0,.49-.5.5.5,0,1,0-1,0,.5.5,0,0,0,.5.5"/><path class="cls-3" d="M18,18.05a.5.5,0,0,0,0-1,.5.5,0,0,0,0,1"/><path class="cls-3" d="M18,16.05a.5.5,0,1,0-.5-.5.5.5,0,0,0,.5.5"/><path class="cls-3" d="M21.94,14.06a.5.5,0,0,0,0-1,.5.5,0,0,0,0,1"/><path class="cls-3" d="M20,14.06a.5.5,0,0,0,0-1,.5.5,0,0,0,0,1"/><path class="cls-3" d="M18,14.06a.5.5,0,0,0,0-1,.5.5,0,0,0,0,1"/><path class="cls-3" d="M18,18.05a.5.5,0,0,0,0-1,.5.5,0,0,0,0,1"/><path class="cls-3" d="M16,18.05a.5.5,0,1,0,0-1,.5.5,0,0,0,0,1"/><path class="cls-3" d="M18,16.05a.5.5,0,1,0-.5-.5.5.5,0,0,0,.5.5"/><path class="cls-3" d="M16,16.05a.5.5,0,1,0,0-1,.5.5,0,1,0,0,1"/><path class="cls-3" d="M15,17.05a.5.5,0,0,0,.5-.5.5.5,0,0,0-1,0,.5.5,0,0,0,.5.5"/><path class="cls-3" d="M17,17.05a.49.49,0,0,0,.49-.5.5.5,0,1,0-.49.5"/><path class="cls-3" d="M15,15.06a.5.5,0,0,0,.5-.5.5.5,0,0,0-1,0,.5.5,0,0,0,.5.5"/><path class="cls-3" d="M17,15.06a.5.5,0,0,0,.49-.5.5.5,0,1,0-1,0,.5.5,0,0,0,.5.5"/><path class="cls-3" d="M14,18.05a.5.5,0,0,0,0-1,.5.5,0,0,0,0,1"/><path class="cls-3" d="M14,16.05a.5.5,0,1,0-.5-.5.5.5,0,0,0,.5.5"/><path class="cls-3" d="M18,14.06a.5.5,0,0,0,0-1,.5.5,0,0,0,0,1"/><path class="cls-3" d="M16,14.06a.5.5,0,0,0,0-1,.5.5,0,0,0,0,1"/><path class="cls-3" d="M14,14.06a.5.5,0,0,0,0-1,.5.5,0,0,0,0,1"/><path class="cls-3" d="M14,18.05a.5.5,0,0,0,0-1,.5.5,0,0,0,0,1"/><path class="cls-3" d="M12,18.05a.5.5,0,1,0,0-1,.5.5,0,0,0,0,1"/><path class="cls-3" d="M14,16.05a.5.5,0,1,0-.5-.5.5.5,0,0,0,.5.5"/><path class="cls-3" d="M12,16.05a.5.5,0,1,0,0-1,.5.5,0,1,0,0,1"/><path class="cls-3" d="M11,17.05a.5.5,0,0,0,.5-.5.5.5,0,0,0-1,0,.5.5,0,0,0,.5.5"/><path class="cls-3" d="M13,17.05a.49.49,0,0,0,.49-.5.5.5,0,1,0-.49.5"/><path class="cls-3" d="M11,15.06a.5.5,0,0,0,.5-.5.5.5,0,0,0-1,0,.5.5,0,0,0,.5.5"/><path class="cls-3" d="M13,15.06a.5.5,0,0,0,.49-.5.5.5,0,1,0-1,0,.5.5,0,0,0,.5.5"/><path class="cls-3" d="M10,18.05a.5.5,0,1,0,0-1,.5.5,0,0,0,0,1"/><path class="cls-3" d="M10,16.05a.5.5,0,1,0-.5-.5.5.5,0,0,0,.5.5"/><path class="cls-3" d="M14,14.06a.5.5,0,0,0,0-1,.5.5,0,0,0,0,1"/><path class="cls-3" d="M12,14.06a.5.5,0,0,0,0-1,.5.5,0,0,0,0,1"/><path class="cls-3" d="M10,14.06a.5.5,0,0,0,0-1,.5.5,0,0,0,0,1"/><path class="cls-3" d="M10,18.05a.5.5,0,1,0,0-1,.5.5,0,0,0,0,1"/><path class="cls-3" d="M8,18.05a.5.5,0,0,0,0-1,.5.5,0,0,0,0,1"/><path class="cls-3" d="M10,16.05a.5.5,0,1,0-.5-.5.5.5,0,0,0,.5.5"/><path class="cls-3" d="M8,16.05a.5.5,0,1,0,0-1,.5.5,0,1,0,0,1"/><path class="cls-3" d="M7,17.05a.5.5,0,0,0,.5-.5.5.5,0,0,0-1,0,.5.5,0,0,0,.5.5"/><path class="cls-3" d="M9,17.05a.49.49,0,0,0,.49-.5.5.5,0,1,0-.49.5"/><path class="cls-3" d="M7,15.06a.5.5,0,0,0,.5-.5.5.5,0,1,0-1,0,.5.5,0,0,0,.5.5"/><path class="cls-3" d="M9,15.06a.5.5,0,0,0,.49-.5.5.5,0,1,0-1,0,.5.5,0,0,0,.5.5"/><path class="cls-3" d="M6,18.05a.5.5,0,0,0,0-1,.5.5,0,0,0,0,1"/><path class="cls-3" d="M6,16.05a.5.5,0,1,0-.5-.5.5.5,0,0,0,.5.5"/><path class="cls-3" d="M10,14.06a.5.5,0,0,0,0-1,.5.5,0,0,0,0,1"/><path class="cls-3" d="M8,14.06a.5.5,0,0,0,0-1,.5.5,0,1,0,0,1"/><path class="cls-3" d="M6,14.06a.5.5,0,0,0,0-1,.5.5,0,1,0,0,1"/><path class="cls-3" d="M6,18.05a.5.5,0,0,0,0-1,.5.5,0,0,0,0,1"/><path class="cls-3" d="M4,18.05a.5.5,0,0,0,0-1,.5.5,0,1,0,0,1"/><path class="cls-3" d="M6,16.05a.5.5,0,1,0-.5-.5.5.5,0,0,0,.5.5"/><path class="cls-3" d="M4.05,16.05a.5.5,0,1,0-.52-.5.5.5,0,0,0,.52.5"/><path class="cls-3" d="M3,17.05a.5.5,0,0,0,.51-.5.51.51,0,0,0-1,0,.5.5,0,0,0,.51.5"/><path class="cls-3" d="M5.08,17.05a.5.5,0,0,0,.51-.5.52.52,0,1,0-.51.5"/><path class="cls-3" d="M3,15.06a.51.51,0,0,0,.51-.5.51.51,0,0,0-1,0,.51.51,0,0,0,.51.5"/><path class="cls-3" d="M5,15.06a.5.5,0,0,0,.49-.5.5.5,0,1,0-1,0,.5.5,0,0,0,.5.5"/><path class="cls-3" d="M2,18.05a.5.5,0,1,0,0-1,.5.5,0,1,0,0,1"/><path class="cls-3" d="M2,16.05a.5.5,0,1,0-.5-.5.5.5,0,0,0,.5.5"/><path class="cls-3" d="M6,14.06a.5.5,0,0,0,0-1,.5.5,0,1,0,0,1"/><path class="cls-3" d="M4,14.06a.5.5,0,0,0,0-1,.5.5,0,0,0,0,1"/><path class="cls-3" d="M2,14.06a.5.5,0,1,0,0-1,.5.5,0,0,0,0,1"/></g><rect class="cls-4" x="2" y="13.73" width="24" height="3.62"/><path class="cls-5" d="M15.71.65H12.29a1.81,1.81,0,0,0-1.77,2.18l.42,2.08a4.9,4.9,0,0,0,.76,8.15,1.25,1.25,0,0,0,.53.13h.17a10.73,10.73,0,0,1,3.2,0h.17a1.25,1.25,0,0,0,.53-.13,4.9,4.9,0,0,0,.76-8.15l.42-2.08A1.81,1.81,0,0,0,15.71.65Z"/><path class="cls-5" d="M12.13,4.27l.06,0a4.86,4.86,0,0,1,3.62,0l.06,0,0-.06.33-1.64a.52.52,0,0,0-.51-.63H12.29a.52.52,0,0,0-.51.63l.33,1.64Z"/></svg>