<svg id="Layer_1" data-name="Layer 1" xmlns="http://www.w3.org/2000/svg" viewBox="0 0 28 18"><defs><style>.cls-1,.cls-2{fill:none;stroke-miterlimit:10;stroke-width:1.5px;}.cls-1{stroke:#3c3c3b;}.cls-2{stroke:#f39400;}.cls-3{fill:#3c3c3b;}</style></defs><line class="cls-1" x1="24.85" y1="9.51" x2="3.15" y2="9.51"/><line class="cls-2" x1="24.85" y1="7.38" x2="3.15" y2="7.38"/><path class="cls-3" d="M18.92,5.25a1,1,0,0,1,1-1h0a1,1,0,0,1,1,1h0a1,1,0,0,1-1,1h0A1,1,0,0,1,18.92,5.25Z"/><path class="cls-3" d="M15,5.25a1,1,0,0,1,1-1h0a1,1,0,0,1,1,1h0a1,1,0,0,1-1,1h0A1,1,0,0,1,15,5.25Z"/><path class="cls-3" d="M11,5.25a1,1,0,0,1,1-1h0a1,1,0,0,1,1,1h0a1,1,0,0,1-1,1h0A1,1,0,0,1,11,5.25Z"/><path class="cls-3" d="M7.08,5.25a1,1,0,0,1,1-1h0a1,1,0,0,1,1,1h0a1,1,0,0,1-1,1h0A1,1,0,0,1,7.08,5.25Z"/><path class="cls-3" d="M4.13,6.25A1,1,0,0,0,4.84,6a1,1,0,0,0,.29-.71,1,1,0,0,0-2,0A1,1,0,0,0,3.42,6,1,1,0,0,0,4.13,6.25Z"/><path class="cls-3" d="M23.87,6.25A1,1,0,0,0,24.58,6a1,1,0,0,0,.29-.71,1,1,0,0,0-2,0,1,1,0,0,0,.29.71A1,1,0,0,0,23.87,6.25Z"/><line class="cls-2" x1="24.85" y1="3.13" x2="3.15" y2="3.13"/><line class="cls-1" x1="24.85" y1="1" x2="3.15" y2="1"/><path class="cls-3" d="M5.69,17.67a1.56,1.56,0,0,1-.62.12A1.5,1.5,0,0,1,4,17.34a2.22,2.22,0,0,1-.41-1.69v-.17c0-.77.06-1.16.41-1.52a1.53,1.53,0,0,1,1.11-.45,1.77,1.77,0,0,1,.63.12,1.85,1.85,0,0,1,.54.38l-.43.43a1,1,0,0,0-.74-.35.88.88,0,0,0-.63.25,1.89,1.89,0,0,0-.24,1.25v.19c0,.72,0,1,.24,1.18a.84.84,0,0,0,.63.26,1,1,0,0,0,.74-.36l.43.43A1.68,1.68,0,0,1,5.69,17.67Z"/><path class="cls-3" d="M9.59,17.34a1.46,1.46,0,0,1-1.11.45,1.49,1.49,0,0,1-1.1-.45A2.23,2.23,0,0,1,7,15.68v-.22A2,2,0,0,1,7.38,14a1.58,1.58,0,0,1,2.21,0,1.87,1.87,0,0,1,.41,1.4v.29C10,16.37,10,16.92,9.59,17.34Zm-.48-3a.84.84,0,0,0-.63-.26.85.85,0,0,0-.62.26c-.25.26-.24.69-.24,1.27s0,1.07.24,1.34a.85.85,0,0,0,.62.26A.84.84,0,0,0,9.11,17c.25-.26.25-.63.25-1.35S9.35,14.59,9.11,14.35Z"/><path class="cls-3" d="M13,17.67a1.56,1.56,0,0,1-.62.12,1.5,1.5,0,0,1-1.12-.45,2.22,2.22,0,0,1-.41-1.69v-.17c0-.77.06-1.16.41-1.52a1.53,1.53,0,0,1,1.11-.45,1.77,1.77,0,0,1,.63.12,1.85,1.85,0,0,1,.54.38l-.43.43a1,1,0,0,0-.74-.35.88.88,0,0,0-.63.25,1.89,1.89,0,0,0-.24,1.25v.19c0,.72,0,1,.24,1.18a.84.84,0,0,0,.63.26,1,1,0,0,0,.74-.36l.43.43A1.68,1.68,0,0,1,13,17.67Z"/><path class="cls-3" d="M15.84,14.12v3.63H15.2V14.12H14v-.57h3v.57Z"/><path class="cls-3" d="M20.18,17.75l-.3-.84H18.23l-.3.84h-.67l1.54-4.2h.51l1.54,4.2ZM19.07,14.5l-.66,1.87h1.3Z"/><path class="cls-3" d="M23.19,17.75H21.48v-4.2h1.64a1.13,1.13,0,0,1,1.27,1.13.94.94,0,0,1-.57.92,1,1,0,0,1,.64,1A1.14,1.14,0,0,1,23.19,17.75Zm-.12-3.63h-.95v1.21h.95a.61.61,0,1,0,0-1.21Zm.05,1.78h-1v1.28h1a.64.64,0,1,0,0-1.28Z"/></svg>