<svg id="Layer_1" data-name="Layer 1" xmlns="http://www.w3.org/2000/svg" viewBox="0 0 28 18"><defs><style>.cls-1{fill:#f39400;}.cls-2{fill:none;stroke:#3c3c3b;stroke-miterlimit:10;stroke-width:0.7px;}</style></defs><path class="cls-1" d="M13.74,8.45a1.16,1.16,0,1,1,2.32,0,2.15,2.15,0,0,1-4.29,0,3.17,3.17,0,0,1,6.33,0,4.17,4.17,0,0,1-8.33,0,5.27,5.27,0,0,1,10.54,0,6.34,6.34,0,0,1-12.68,0H5.43a8.57,8.57,0,0,0,17.14,0,7.47,7.47,0,0,0-14.94,0,6.34,6.34,0,0,0,12.68,0,5.27,5.27,0,0,0-10.54,0,4.17,4.17,0,0,0,8.33,0,3.17,3.17,0,0,0-6.33,0Z"/><path class="cls-2" d="M13.74,8.45a1.16,1.16,0,1,1,2.32,0,2.15,2.15,0,0,1-4.29,0,3.17,3.17,0,0,1,6.33,0,4.17,4.17,0,0,1-8.33,0,5.27,5.27,0,0,1,10.54,0,6.34,6.34,0,0,1-12.68,0H5.43a8.57,8.57,0,0,0,17.14,0,7.47,7.47,0,0,0-14.94,0,6.34,6.34,0,0,0,12.68,0,5.27,5.27,0,0,0-10.54,0,4.17,4.17,0,0,0,8.33,0,3.17,3.17,0,0,0-6.33,0Z"/></svg>