<svg id="Layer_1" data-name="Layer 1" xmlns="http://www.w3.org/2000/svg" viewBox="0 0 28 18"><defs><style>.cls-1{fill:#3c3c3b;}</style></defs><path class="cls-1" d="M2.32,9.67A7.42,7.42,0,0,1,7.88,8.14a11,11,0,0,1,2.88.71c.92.36,1.8.76,2.69,1.14a17.52,17.52,0,0,0,5.41,1.69,11.37,11.37,0,0,0,5.53-1.18,12.81,12.81,0,0,1-2.63,1.28,9,9,0,0,1-2.93.44,15.68,15.68,0,0,1-5.66-1.59,21.9,21.9,0,0,0-5.36-2A8.34,8.34,0,0,0,5,8.68,6.87,6.87,0,0,0,2.32,9.67Z"/><path class="cls-1" d="M3.35,7.92a.26.26,0,0,1-.26-.26.26.26,0,0,1,.26-.25.25.25,0,0,1,.25.25A.26.26,0,0,1,3.35,7.92Z"/><circle class="cls-1" cx="5.21" cy="6.95" r="0.44"/><circle class="cls-1" cx="7.17" cy="6.55" r="0.58"/><circle class="cls-1" cx="9.17" cy="6.52" r="0.68"/><path class="cls-1" d="M11.13,7.62a.75.75,0,1,1,.75-.75A.75.75,0,0,1,11.13,7.62Z"/><path class="cls-1" d="M13,8.34a.78.78,0,1,1,.78-.78A.78.78,0,0,1,13,8.34Z"/><path class="cls-1" d="M14.88,9.08a.8.8,0,1,1,.79-.8A.8.8,0,0,1,14.88,9.08Z"/><path class="cls-1" d="M16.77,9.7a.77.77,0,1,1,0-1.54.77.77,0,1,1,0,1.54Z"/><path class="cls-1" d="M18.72,10.09a.72.72,0,1,1,.71-.71A.71.71,0,0,1,18.72,10.09Z"/><path class="cls-1" d="M20.71,10.05a.63.63,0,1,1,.63-.63A.63.63,0,0,1,20.71,10.05Z"/><path class="cls-1" d="M22.64,9.41a.5.5,0,0,1-.51-.5.51.51,0,1,1,1,0A.5.5,0,0,1,22.64,9.41Z"/><path class="cls-1" d="M24.36,8.23a.34.34,0,1,1,.33-.33A.34.34,0,0,1,24.36,8.23Z"/><circle class="cls-1" cx="25.68" cy="6.75" r="0.11"/></svg>