<svg id="Layer_1" data-name="Layer 1" xmlns="http://www.w3.org/2000/svg" viewBox="0 0 28 18"><defs><style>.cls-1{fill:#3c3c3b;}</style></defs><path class="cls-1" d="M22.33,4.88a16.81,16.81,0,0,0-2,0c-.34,0-.67,0-1,0a2.26,2.26,0,0,1-.51-.08.32.32,0,0,1-.24-.19c0-.1,0-.18-.06-.27a6.48,6.48,0,0,0-.34-1.92,1.08,1.08,0,0,0-1.51-.46.17.17,0,0,1-.18,0l0,0c-.12-.12-.31-.28-.31-.24s-.09,0-.25.09h-.08c-.1,0-.13,0-.13,0l-.08-.06-.08-.07s-.19,0-.37.05l-.29.09h-.09a.22.22,0,0,1-.17-.1.19.19,0,0,1-.06-.11l0-.08,0-.13a1,1,0,0,0-.21-.4c-.1-.11-.21-.17-.26-.15a5,5,0,0,0-.86.53c-.31.22-.61.44-.94.65L12.07,2a1,1,0,0,1-.16,0,.4.4,0,0,1-.21,0l-.28-.14a1.13,1.13,0,0,0-.42,0,4.74,4.74,0,0,0-2,.52A5,5,0,0,0,6.61,5.76a10.39,10.39,0,0,0-.26,2.17,6.33,6.33,0,0,0,.27,2.13A4.26,4.26,0,0,0,9.41,13a5.91,5.91,0,0,0,2.13.3,5,5,0,0,0,2-.75,12.34,12.34,0,0,1,2.08-1,6,6,0,0,1,2.29-.27c1.53,0,3,.76,4.41.88-.07.09-.17.06-.26,0l-.27-.07L21.24,12l-1.11-.26a8.87,8.87,0,0,0-2.23-.25,7.51,7.51,0,0,0-4.15,1.42,5.52,5.52,0,0,1-2.18.89,6.2,6.2,0,0,1-2.34-.25A4.93,4.93,0,0,1,6,10.26a7,7,0,0,1-.32-2.34A9.08,9.08,0,0,1,5.94,5.6,5.66,5.66,0,0,1,8.67,1.81,5.2,5.2,0,0,1,11,1.24a1.62,1.62,0,0,1,.7.1l.22.12s-.17,0-.1,0l.1-.06.94-.6A3.64,3.64,0,0,1,14,.22a.81.81,0,0,1,.71.33,1.55,1.55,0,0,1,.29.61l0,.15v.05l0-.05a.19.19,0,0,0-.14-.07c-.05,0-.06,0-.06,0L15,1.17a.9.9,0,0,1,.74,0,.79.79,0,0,1,.13.12l0,0s0,0-.11,0h0a.73.73,0,0,1,.29-.08.51.51,0,0,1,.39.17l.21.2-.19-.05a1.68,1.68,0,0,1,1.09-.05,1.26,1.26,0,0,1,.8.76,6.93,6.93,0,0,1,.26,2,.85.85,0,0,0,0,.23.18.18,0,0,0,.13.1,2,2,0,0,0,.48.11,8.39,8.39,0,0,0,1,.06A19.19,19.19,0,0,1,22.33,4.88Z"/><path class="cls-1" d="M18.72,18c-.14-1.27-.2-2.55-.26-3.82a.25.25,0,0,1,.24-.26h0l1.16-.05-.22.53c-.73-.69-1.44-1.39-2.15-2.09H18L15.86,14.4l-.22-.53,1.16.05h0a.25.25,0,0,1,.24.26c-.06,1.27-.13,2.55-.26,3.82-.14-1.27-.21-2.55-.27-3.82l.27.26-1.16.05a.3.3,0,0,1-.31-.3.35.35,0,0,1,.08-.22h0c.69-.72,1.39-1.43,2.09-2.15a.36.36,0,0,1,.49,0h0c.7.72,1.4,1.43,2.08,2.15h0a.3.3,0,0,1,0,.43.3.3,0,0,1-.21.09l-1.16-.05.26-.26C18.93,15.45,18.86,16.73,18.72,18Z"/><path class="cls-1" d="M11.78,18c-.08-.54-.13-1.08-.19-1.62a.17.17,0,0,1,.15-.18h0l1.16-.08-.19.45c-.75-.66-1.47-1.36-2.18-2.06h.49c-.71.7-1.42,1.4-2.17,2.06l-.19-.45,1.15.08h0a.17.17,0,0,1,.15.18h0c-.06.54-.1,1.08-.19,1.62-.08-.54-.13-1.08-.18-1.62l.18.19-1.15.08a.26.26,0,0,1-.28-.25.29.29,0,0,1,.07-.18l0,0c.66-.75,1.36-1.47,2.06-2.18a.35.35,0,0,1,.49,0h0c.7.71,1.4,1.43,2.06,2.18l0,0a.26.26,0,0,1,0,.37.3.3,0,0,1-.18.06l-1.16-.08.18-.19C11.91,16.92,11.86,17.46,11.78,18Z"/></svg>