<svg id="Layer_1" data-name="Layer 1" xmlns="http://www.w3.org/2000/svg" viewBox="0 0 28 18"><defs><style>.cls-1{fill:#3c3c3b;}.cls-2{fill:#fff;stroke:#3c3c3b;stroke-linecap:round;stroke-linejoin:round;stroke-width:0.52px;}</style></defs><path class="cls-1" d="M13,18,12.74,7.78A.25.25,0,0,1,13,7.51a.26.26,0,0,1,.27.26h0L13,18A0,0,0,0,1,13,18Z"/><path class="cls-1" d="M6.81,18a15.38,15.38,0,0,0,2.27-4.85,14.87,14.87,0,0,0,.45-2.64,15.86,15.86,0,0,0,0-2.67v0a.26.26,0,0,1,.24-.27.25.25,0,0,1,.28.24h0A16.82,16.82,0,0,1,10,10.51a16.15,16.15,0,0,1-.56,2.68A15.58,15.58,0,0,1,6.91,18a.06.06,0,1,1-.1-.08Z"/><path class="cls-1" d="M18.7,18a15.58,15.58,0,0,1-2.48-4.85,16.15,16.15,0,0,1-.56-2.68,16.82,16.82,0,0,1-.07-2.75.25.25,0,0,1,.27-.25.26.26,0,0,1,.25.26h0v0a15.86,15.86,0,0,0,0,2.67,14.87,14.87,0,0,0,.45,2.64A15.38,15.38,0,0,0,18.8,18a.06.06,0,1,1-.1.08Z"/><polygon class="cls-2" points="13.12 12.98 2.4 7.9 2.4 5.12 13.12 10.19 13.12 12.98"/><rect class="cls-2" x="13.12" y="10.32" width="12.48" height="2.65"/><polygon class="cls-2" points="25.6 10.32 13.12 10.32 2.4 5.12 14.88 5.12 25.6 10.32"/><path class="cls-1" d="M9.72,7.78A15.31,15.31,0,0,0,8,2.28.19.19,0,0,1,8.11,2a.2.2,0,0,1,.26.08h0A15.35,15.35,0,0,1,9.81,7.77a0,0,0,0,1,0,.05S9.72,7.81,9.72,7.78Z"/><polygon class="cls-1" points="6.86 0 9.96 2.39 8.25 2.39 7.4 3.88 6.86 0"/><path class="cls-1" d="M15.8,7.77a15.16,15.16,0,0,1,1.43-5.66A.19.19,0,0,1,17.49,2a.2.2,0,0,1,.1.26h0a15.12,15.12,0,0,0-1.69,5.5s0,0-.05,0A0,0,0,0,1,15.8,7.77Z"/><polygon class="cls-1" points="18.75 0 18.21 3.88 17.36 2.39 15.64 2.39 18.75 0"/><path class="cls-1" d="M13,7.78l-.14-5.21A.18.18,0,0,1,13,2.38a.19.19,0,0,1,.2.18h0l-.14,5.21a0,0,0,0,1-.05,0A.05.05,0,0,1,13,7.78Z"/><polygon class="cls-1" points="13 0 14.48 3.63 13 2.77 11.52 3.63 13 0"/></svg>