<svg id="Layer_1" data-name="Layer 1" xmlns="http://www.w3.org/2000/svg" viewBox="0 0 28 18"><defs><style>.cls-1{fill:#3c3c3b;}</style></defs><path class="cls-1" d="M12.67,10.38a1.7,1.7,0,0,1-.55-.07l-3.27-1A2,2,0,0,1,8,8.89.16.16,0,0,1,8,8.81l-3-5.74a.3.3,0,0,1,.13-.41.31.31,0,0,1,.41.12l3,5.7a1.44,1.44,0,0,0,.54.3l3.27.94a1.22,1.22,0,0,0,.78,0l2.71-1A.29.29,0,0,0,16,8.35a.25.25,0,0,0-.14-.16.31.31,0,0,0-.25,0l-1.92.64a.66.66,0,0,1-.82-.4.65.65,0,0,1,0-.51.65.65,0,0,1,.38-.33l2.13-.7h0a1.88,1.88,0,0,1,1.25-.06L19.32,8h0a.79.79,0,0,0,1-.24C19.45,7.38,16.6,6,16.52,6a.89.89,0,0,0-.34,0,6.21,6.21,0,0,1-.74,0l-2.09-.11c-.19,0-1.41.36-2.49.69a.31.31,0,0,1-.37-.17L7.87.43A.3.3,0,0,1,8,0a.3.3,0,0,1,.4.15l2.52,5.63a21.26,21.26,0,0,1,2.39-.64c.22,0,1.29.06,2.15.11a5.45,5.45,0,0,0,.69,0,1.39,1.39,0,0,1,.65.12l3.89,1.89a.46.46,0,0,1,.24.27.5.5,0,0,1,0,.36,1.41,1.41,0,0,1-1.87.66l-2.7-1.24h0c-.19-.1-.58,0-.79.09l-2.13.7,0,0s0,0,0,0,0,0,.05,0l1.92-.64a.92.92,0,0,1,.71,0,.88.88,0,0,1,.45.52A.9.9,0,0,1,16,9.3l-2.72,1a1.56,1.56,0,0,1-.6.11"/><path class="cls-1" d="M12.63,11.75a5.5,5.5,0,0,1-1.51-.2l-3.25-.9A1.85,1.85,0,0,1,6.62,9.5l-.28-.75a.76.76,0,0,0-.72-.5L4,8.27A.3.3,0,0,1,3.73,8,.3.3,0,0,1,4,7.66l1.58,0a1.38,1.38,0,0,1,1.31.9l.27.75a1.22,1.22,0,0,0,.84.77l3.25.9a4.83,4.83,0,0,0,2.33.06l6.81-1.51a1.23,1.23,0,0,0,.95-1,1.37,1.37,0,0,1,1.33-1.1l1.26,0a.31.31,0,0,1,.31.3A.3.3,0,0,1,24,8l-1.27,0a.76.76,0,0,0-.73.61,1.87,1.87,0,0,1-1.42,1.45l-6.81,1.51a5.9,5.9,0,0,1-1.11.13"/><path class="cls-1" d="M15.86,12.6a.3.3,0,0,1,.31.3l.06,4.79a.31.31,0,1,1-.61,0l-.06-4.79a.3.3,0,0,1,.3-.31"/><path class="cls-1" d="M15.12,16.42a.31.31,0,0,1,.23.11l.57.68.54-.69a.3.3,0,0,1,.43-.05.3.3,0,0,1,.05.43l-.78,1a.27.27,0,0,1-.23.12.32.32,0,0,1-.24-.11l-.81-1a.31.31,0,0,1,0-.43.37.37,0,0,1,.2-.07"/><path class="cls-1" d="M11.68,12.58a.3.3,0,0,1,.31.3l0,4.79a.3.3,0,0,1-.3.31.32.32,0,0,1-.31-.3l0-4.79a.3.3,0,0,1,.3-.31"/><path class="cls-1" d="M10.93,16.4a.32.32,0,0,1,.24.11l.56.68.55-.69a.3.3,0,0,1,.43-.05.31.31,0,0,1,0,.43l-.78,1a.33.33,0,0,1-.24.12.32.32,0,0,1-.24-.11l-.8-1a.3.3,0,0,1,0-.43.28.28,0,0,1,.19-.07"/><path class="cls-1" d="M7.79,11.52a.32.32,0,0,1,.31.31l0,3.73a.31.31,0,1,1-.61,0l0-3.74a.3.3,0,0,1,.3-.31"/><path class="cls-1" d="M7,14.7a.32.32,0,0,1,.24.11l.56.68.55-.69a.31.31,0,0,1,.43-.05.3.3,0,0,1,0,.43l-.78,1a.3.3,0,0,1-.24.11.28.28,0,0,1-.23-.11l-.81-1a.3.3,0,0,1,0-.43A.34.34,0,0,1,7,14.7"/><path class="cls-1" d="M19.73,11.14a.31.31,0,0,1,.31.3l.05,3.74a.31.31,0,0,1-.31.31.32.32,0,0,1-.31-.3l0-3.74a.3.3,0,0,1,.3-.31"/><path class="cls-1" d="M19,14.32a.34.34,0,0,1,.24.11l.56.68.55-.69a.3.3,0,0,1,.43-.05.31.31,0,0,1,0,.43l-.78,1a.3.3,0,0,1-.24.12.32.32,0,0,1-.24-.11l-.8-1a.3.3,0,0,1,0-.43.32.32,0,0,1,.19-.07"/></svg>