<svg width="28" height="18" viewBox="0 0 28 18" fill="none" xmlns="http://www.w3.org/2000/svg">
<circle cx="14" cy="9" r="8.745" fill="#F09100" stroke="#3C3C3B" stroke-width="0.51"/>
<path d="M19.3751 4.0173C19.4067 3.8322 19.2823 3.65653 19.0972 3.62493L16.0808 3.10994C15.8957 3.07834 15.7201 3.20277 15.6885 3.38787C15.6569 3.57297 15.7813 3.74864 15.9664 3.78024L18.6476 4.23801L18.1898 6.91921C18.1582 7.10431 18.2827 7.27998 18.4678 7.31158C18.6529 7.34318 18.8285 7.21875 18.8601 7.03365L19.3751 4.0173ZM10.5965 10.3575L19.2365 4.23753L18.8434 3.68263L10.2034 9.80263L10.5965 10.3575Z" fill="#3C3C3B"/>
<path d="M8.6241 14.1114C8.59517 14.297 8.72212 14.4708 8.90766 14.4998L11.9311 14.9712C12.1167 15.0002 12.2905 14.8732 12.3194 14.6877C12.3484 14.5021 12.2214 14.3283 12.0359 14.2993L9.34837 13.8803L9.76744 11.1927C9.79637 11.0072 9.66941 10.8334 9.48388 10.8044C9.29834 10.7755 9.12449 10.9024 9.09555 11.088L8.6241 14.1114ZM17.3104 7.64534L8.75954 13.8892L9.16055 14.4384L17.7114 8.19451L17.3104 7.64534Z" fill="#3C3C3B"/>
</svg>
