<svg width="22" height="11" viewBox="0 0 22 11" fill="none" xmlns="http://www.w3.org/2000/svg">
<path d="M21.8499 9.50977H0.149902" stroke="#3C3C3B" stroke-width="1.5" stroke-miterlimit="10"/>
<path d="M21.8499 7.37988H0.149902" stroke="#F39400" stroke-width="1.5" stroke-miterlimit="10"/>
<path d="M15.9199 5.25C15.9199 4.98478 16.0253 4.73043 16.2128 4.54289C16.4004 4.35536 16.6547 4.25 16.9199 4.25V4.25C17.1851 4.25 17.4395 4.35536 17.627 4.54289C17.8146 4.73043 17.9199 4.98478 17.9199 5.25C17.9199 5.51522 17.8146 5.76957 17.627 5.95711C17.4395 6.14464 17.1851 6.25 16.9199 6.25C16.6547 6.25 16.4004 6.14464 16.2128 5.95711C16.0253 5.76957 15.9199 5.51522 15.9199 5.25Z" fill="#3C3C3B"/>
<path d="M12 5.25C12 4.98478 12.1054 4.73043 12.2929 4.54289C12.4804 4.35536 12.7348 4.25 13 4.25V4.25C13.2652 4.25 13.5196 4.35536 13.7071 4.54289C13.8946 4.73043 14 4.98478 14 5.25C14 5.51522 13.8946 5.76957 13.7071 5.95711C13.5196 6.14464 13.2652 6.25 13 6.25C12.7348 6.25 12.4804 6.14464 12.2929 5.95711C12.1054 5.76957 12 5.51522 12 5.25Z" fill="#3C3C3B"/>
<path d="M8 5.25C8 4.98478 8.10536 4.73043 8.29289 4.54289C8.48043 4.35536 8.73478 4.25 9 4.25V4.25C9.26522 4.25 9.51957 4.35536 9.70711 4.54289C9.89464 4.73043 10 4.98478 10 5.25C10 5.51522 9.89464 5.76957 9.70711 5.95711C9.51957 6.14464 9.26522 6.25 9 6.25C8.73478 6.25 8.48043 6.14464 8.29289 5.95711C8.10536 5.76957 8 5.51522 8 5.25Z" fill="#3C3C3B"/>
<path d="M4.08008 5.25C4.08008 4.98478 4.18544 4.73043 4.37297 4.54289C4.56051 4.35536 4.81486 4.25 5.08008 4.25V4.25C5.34529 4.25 5.59965 4.35536 5.78718 4.54289C5.97472 4.73043 6.08008 4.98478 6.08008 5.25C6.08008 5.51522 5.97472 5.76957 5.78718 5.95711C5.59965 6.14464 5.34529 6.25 5.08008 6.25C4.81486 6.25 4.56051 6.14464 4.37297 5.95711C4.18544 5.76957 4.08008 5.51522 4.08008 5.25Z" fill="#3C3C3B"/>
<path d="M1.1299 6.25004C1.39009 6.26236 1.64483 6.17266 1.8399 6.00004C1.93258 5.9066 2.00591 5.79578 2.05567 5.67395C2.10544 5.55211 2.13066 5.42165 2.1299 5.29004C2.1299 5.02482 2.02454 4.77047 1.83701 4.58293C1.64947 4.3954 1.39512 4.29004 1.1299 4.29004C0.864683 4.29004 0.610329 4.3954 0.422793 4.58293C0.235256 4.77047 0.1299 5.02482 0.1299 5.29004C0.129139 5.42165 0.154364 5.55211 0.204128 5.67395C0.253893 5.79578 0.327218 5.9066 0.419899 6.00004C0.614972 6.17266 0.869705 6.26236 1.1299 6.25004Z" fill="#3C3C3B"/>
<path d="M20.8699 6.25004C21.1301 6.26236 21.3848 6.17266 21.5799 6.00004C21.6726 5.9066 21.7459 5.79578 21.7957 5.67395C21.8454 5.55211 21.8707 5.42165 21.8699 5.29004C21.8699 5.02482 21.7645 4.77047 21.577 4.58293C21.3895 4.3954 21.1351 4.29004 20.8699 4.29004C20.6047 4.29004 20.3503 4.3954 20.1628 4.58293C19.9752 4.77047 19.8699 5.02482 19.8699 5.29004C19.8691 5.42165 19.8944 5.55211 19.9441 5.67395C19.9939 5.79578 20.0672 5.9066 20.1599 6.00004C20.355 6.17266 20.6097 6.26236 20.8699 6.25004Z" fill="#3C3C3B"/>
<path d="M21.8499 3.12988H0.149902" stroke="#F39400" stroke-width="1.5" stroke-miterlimit="10"/>
<path d="M21.8499 1H0.149902" stroke="#3C3C3B" stroke-width="1.5" stroke-miterlimit="10"/>
</svg>
