<svg xmlns="http://www.w3.org/2000/svg" viewBox="0 0 335.76 30.29"><defs><style>.cls-1{fill:#05564e;}.cls-2{fill:#e98905;}.cls-3{fill:#fff;}</style></defs><g id="Слой_2" data-name="Слой 2"><g id="Шапка"><path class="cls-1" d="M139.87,23.19c0,.43,0,.92,0,1.47-.26-.4-.51-.76-.73-1.08L122.31.59l-.09-.12h-1.94V29.74h2.55v-24c0-.1,0-.21,0-.3a12.13,12.13,0,0,0,.7,1l17.06,23.32h1.82V.47h-2.53Z"/><path class="cls-1" d="M158.84.47h-2.28l-11,29.27h2.78l3.27-8.93h12l3.26,8.93h2.83L158.91.66Zm-1.16,3.84A7.14,7.14,0,0,0,158,5.54l4.68,12.88H152.53L157.2,5.5c.14-.36.28-.81.43-1.34Z"/><polygon class="cls-1" points="165.99 2.87 174.22 2.87 174.22 29.74 176.75 29.74 176.75 2.87 184.98 2.87 184.98 0.47 165.99 0.47 165.99 2.87"/><path class="cls-1" d="M205.79,18.43c0,6.34-2.46,9.43-7.52,9.43-5.24,0-7.79-3.18-7.79-9.71V.47H188v18c0,7.83,3.34,11.81,9.94,11.81,6.92,0,10.43-4.12,10.43-12.25V.47h-2.53Z"/><path class="cls-1" d="M224,16.23a8.38,8.38,0,0,0,4.46-2.64,8,8,0,0,0,1.84-5.37,7.46,7.46,0,0,0-2.24-5.61A8.55,8.55,0,0,0,222,.47h-8.21V29.74h2.55V17h3.24a4.44,4.44,0,0,1,2.76.83,8.94,8.94,0,0,1,2.26,3.38l3.87,8.58h2.87l-4.42-9.56A9.57,9.57,0,0,0,224,16.23m3.69-7.81a5.8,5.8,0,0,1-1.82,4.52,7.22,7.22,0,0,1-5,1.65h-4.61V2.87h5a7,7,0,0,1,4.76,1.47,5.24,5.24,0,0,1,1.63,4.08"/><path class="cls-1" d="M249.8,18.42H239.75l5.17-14.28c.09-.25.19-.54.29-.85l0-.09-.9-2.46a.35.35,0,0,0-.66,0l-10.85,29h2.77l3.19-8.7a.35.35,0,0,1,.33-.23h11.57l-.87-2.38h0"/><path class="cls-2" d="M257.15,27l0,.18h-.46l0-.18a15.73,15.73,0,0,0-.74-2.82L247.46,0h-1.81L256.2,29.72h1.21L268.62,0h-1.7L258,24.12a18.82,18.82,0,0,0-.83,2.86"/><polygon class="cls-2" points="274.37 15.47 285.18 15.47 285.18 14.02 274.37 14.02 274.37 1.49 286.01 1.49 286.01 0 272.79 0 272.79 29.72 286.69 29.72 286.69 28.27 274.37 28.27 274.37 15.47"/><path class="cls-2" d="M302,16.18l-.14-.05v-.41l.18,0a8.31,8.31,0,0,0,5-2.75,8.06,8.06,0,0,0,1.76-5.31,7.42,7.42,0,0,0-2.14-5.53A8.19,8.19,0,0,0,300.63,0h-7.91V29.72h1.59V16.29h3.85a5,5,0,0,1,3.15,1A9.8,9.8,0,0,1,303.78,21l3.84,8.71h1.8l-4.2-9.31c-1.07-2.35-2.17-3.77-3.27-4.23m-2.39-1.34h-5.25V1.49H300a7.49,7.49,0,0,1,5.23,1.68,6,6,0,0,1,1.85,4.67A6.67,6.67,0,0,1,305,13a7.81,7.81,0,0,1-5.48,1.87"/><path class="cls-2" d="M330.61,20.34,334,29.72h1.8L325,0h-1.62L312.51,29.72h1.75l3.36-9.38ZM323.2,4.59a21.46,21.46,0,0,0,.66-2.23l0-.17h.43l.35,1.21A8.64,8.64,0,0,0,325,4.63h0l5.06,14.24H318.16Z"/><rect class="cls-2" y="0.47" width="113.55" height="29.77"/><path class="cls-3" d="M111.84,30.29h-11.3v-4a3.34,3.34,0,0,1,1-2.48,3.49,3.49,0,0,1,2.57-1,3.56,3.56,0,0,1,2.59,1,3.32,3.32,0,0,1,1,2.48v2.5h4.18Zm-5.55-1.54V26.5a2.11,2.11,0,0,0-.59-1.56,2.26,2.26,0,0,0-1.62-.57,2.14,2.14,0,0,0-1.58.57,2.05,2.05,0,0,0-.58,1.55v2.26Z"/><path class="cls-3" d="M111.84,20.84h-11.3v-3.5a5.18,5.18,0,0,1,.31-2A2.81,2.81,0,0,1,102,14a3.48,3.48,0,0,1,1.83-.47,3.56,3.56,0,0,1,1.94.54,2.69,2.69,0,0,1,1.16,1.43h0a3.7,3.7,0,0,1,.52-.31l4.38-2.34v1.74l-4.5,2.33V19.3h4.5ZM106,19.3V17.08a1.89,1.89,0,0,0-.57-1.44,2.14,2.14,0,0,0-1.51-.53,1.76,1.76,0,0,0-1.78,1,3.43,3.43,0,0,0-.19,1.33V19.3Z"/><path class="cls-3" d="M106.11,11.81A5.66,5.66,0,0,1,102,10.2a5.39,5.39,0,0,1-1.66-4.06,5.38,5.38,0,0,1,1.66-4,5.65,5.65,0,0,1,4.1-1.6,5.92,5.92,0,0,1,4.22,1.6,5.34,5.34,0,0,1,1.7,4,5.34,5.34,0,0,1-1.7,4.05,5.89,5.89,0,0,1-4.22,1.62m0-1.6a4.6,4.6,0,0,0,3.19-1.15,3.77,3.77,0,0,0,1.28-2.92,3.76,3.76,0,0,0-1.28-2.9,4.6,4.6,0,0,0-3.19-1.15A4.34,4.34,0,0,0,103,3.24a3.82,3.82,0,0,0-1.24,2.9A3.84,3.84,0,0,0,103,9.06a4.34,4.34,0,0,0,3.08,1.15"/></g></g></svg>