<svg width="42" height="42" viewBox="0 0 42 42" fill="none" xmlns="http://www.w3.org/2000/svg">
<g filter="url(#filter0_ii_202_25)">
<path d="M21 42C32.598 42 42 32.598 42 21C42 9.40202 32.598 0 21 0C9.40202 0 0 9.40202 0 21C0 32.598 9.40202 42 21 42Z" fill="white"/>
<path d="M21 42C32.598 42 42 32.598 42 21C42 9.40202 32.598 0 21 0C9.40202 0 0 9.40202 0 21C0 32.598 9.40202 42 21 42Z" fill="url(#paint0_linear_202_25)" fill-opacity="0.2"/>
<path d="M21.0001 41.6501C32.4048 41.6501 41.6501 32.4048 41.6501 21.0001C41.6501 9.59542 32.4048 0.350098 21.0001 0.350098C9.59542 0.350098 0.350098 9.59542 0.350098 21.0001C0.350098 32.4048 9.59542 41.6501 21.0001 41.6501Z" stroke="url(#paint1_linear_202_25)" stroke-width="0.7"/>
</g>
<path fill-rule="evenodd" clip-rule="evenodd" d="M23.0807 10.6189C22.4259 8.6036 19.5747 8.6036 18.9198 10.6189L17.3022 15.5974C17.2604 15.7262 17.1404 15.8133 17.005 15.8133H11.7703C9.65117 15.8133 8.77017 18.525 10.4846 19.7706L14.7195 22.8474C14.829 22.927 14.8749 23.0681 14.833 23.1968L13.2154 28.1753C12.5606 30.1907 14.8673 31.8665 16.5816 30.621L20.8166 27.5441C20.9261 27.4645 21.0744 27.4645 21.1839 27.5441L25.4189 30.621C27.1333 31.8666 29.4399 30.1906 28.7851 28.1753L27.1675 23.1968C27.1257 23.0681 27.1715 22.927 27.281 22.8474L31.516 19.7706C33.2303 18.525 32.3493 15.8133 30.2302 15.8133C29.7124 15.8133 29.2927 16.2331 29.2927 16.7508C29.2927 17.2686 29.7124 17.6883 30.2302 17.6883C30.5329 17.6883 30.6588 18.0757 30.4139 18.2536L26.1789 21.3305C25.4122 21.8876 25.0914 22.8749 25.3843 23.7762L27.0019 28.7547C27.0954 29.0426 26.7659 29.282 26.521 29.1041L22.286 26.0272C21.5193 25.4702 20.4812 25.4702 19.7145 26.0272L15.4795 29.1041C15.2346 29.282 14.9051 29.0426 14.9986 28.7547L16.6162 23.7762C16.9091 22.8749 16.5883 21.8876 15.8216 21.3305L11.5867 18.2536C11.3417 18.0757 11.4676 17.6883 11.7703 17.6883H17.005C17.9527 17.6883 18.7926 17.0781 19.0854 16.1768L20.7031 11.1983C20.7966 10.9104 21.2039 10.9104 21.2975 11.1983L22.9151 16.1768C23.2079 17.0781 24.0478 17.6883 24.9955 17.6883C25.5133 17.6883 25.933 17.2686 25.933 16.7508C25.933 16.2331 25.5133 15.8133 24.9955 15.8133C24.8601 15.8133 24.7401 15.7262 24.6983 15.5974L23.0807 10.6189Z" fill="#03554D"/>
<defs>
<filter id="filter0_ii_202_25" x="-2" y="-2" width="48" height="48" filterUnits="userSpaceOnUse" color-interpolation-filters="sRGB">
<feFlood flood-opacity="0" result="BackgroundImageFix"/>
<feBlend mode="normal" in="SourceGraphic" in2="BackgroundImageFix" result="shape"/>
<feColorMatrix in="SourceAlpha" type="matrix" values="0 0 0 0 0 0 0 0 0 0 0 0 0 0 0 0 0 0 127 0" result="hardAlpha"/>
<feOffset dx="4" dy="4"/>
<feGaussianBlur stdDeviation="4"/>
<feComposite in2="hardAlpha" operator="arithmetic" k2="-1" k3="1"/>
<feColorMatrix type="matrix" values="0 0 0 0 0 0 0 0 0 0 0 0 0 0 0 0 0 0 0.09 0"/>
<feBlend mode="normal" in2="shape" result="effect1_innerShadow_202_25"/>
<feColorMatrix in="SourceAlpha" type="matrix" values="0 0 0 0 0 0 0 0 0 0 0 0 0 0 0 0 0 0 127 0" result="hardAlpha"/>
<feOffset dx="-2" dy="-2"/>
<feGaussianBlur stdDeviation="4"/>
<feComposite in2="hardAlpha" operator="arithmetic" k2="-1" k3="1"/>
<feColorMatrix type="matrix" values="0 0 0 0 0.920833 0 0 0 0 0.920833 0 0 0 0 0.920833 0 0 0 0.25 0"/>
<feBlend mode="normal" in2="effect1_innerShadow_202_25" result="effect2_innerShadow_202_25"/>
</filter>
<linearGradient id="paint0_linear_202_25" x1="36.25" y1="35.75" x2="7.25" y2="4.5" gradientUnits="userSpaceOnUse">
<stop stop-color="#D2D2D2" stop-opacity="0.8"/>
<stop offset="1" stop-color="#EFEFEF" stop-opacity="0"/>
</linearGradient>
<linearGradient id="paint1_linear_202_25" x1="35.2501" y1="35.0001" x2="7.7501" y2="4.2501" gradientUnits="userSpaceOnUse">
<stop stop-color="#06564D"/>
<stop offset="1" stop-color="white" stop-opacity="0"/>
</linearGradient>
</defs>
</svg>
