<svg id="Layer_1" data-name="Layer 1" xmlns="http://www.w3.org/2000/svg" viewBox="0 0 28 18"><defs><style>.cls-1{fill:#f39400;}.cls-2,.cls-4{fill:none;stroke:#3c3c3b;stroke-miterlimit:10;}.cls-2{stroke-width:0.7px;}.cls-3{fill:#3c3c3b;}.cls-4{stroke-width:0.82px;}</style></defs><path class="cls-1" d="M9.77,8.45a5.27,5.27,0,0,1,10.54,0,6.34,6.34,0,0,1-12.68,0,7.47,7.47,0,0,1,14.94,0,8.57,8.57,0,0,1-17.14,0h2.2a6.34,6.34,0,0,0,12.68,0,5.27,5.27,0,0,0-10.54,0,4.17,4.17,0,0,0,8.33,0,3.17,3.17,0,0,0-6.33,0Z"/><path class="cls-2" d="M9.77,8.45a5.27,5.27,0,0,1,10.54,0,6.34,6.34,0,0,1-12.68,0,7.47,7.47,0,0,1,14.94,0,8.57,8.57,0,0,1-17.14,0h2.2a6.34,6.34,0,0,0,12.68,0,5.27,5.27,0,0,0-10.54,0,4.17,4.17,0,0,0,8.33,0,3.17,3.17,0,0,0-6.33,0Z"/><path class="cls-3" d="M14.49,9.28a4.52,4.52,0,0,0-.23-.5A3.72,3.72,0,0,0,14,8.3a3.63,3.63,0,0,0-.34-.46l-.52.46a2.83,2.83,0,0,1,.34.35c.1.12.2.26.3.4a5.66,5.66,0,0,1,.48.87l.24.56.17-.55a13.76,13.76,0,0,1,.67-1.71c.13-.28.27-.56.42-.83s.3-.54.47-.8c-.2.24-.39.49-.57.74s-.35.52-.51.79-.45.76-.65,1.16"/><path class="cls-4" d="M14.49,9.28a4.52,4.52,0,0,0-.23-.5A3.72,3.72,0,0,0,14,8.3a3.63,3.63,0,0,0-.34-.46l-.52.46a2.83,2.83,0,0,1,.34.35c.1.12.2.26.3.4a5.66,5.66,0,0,1,.48.87l.24.56.17-.55a13.76,13.76,0,0,1,.67-1.71c.13-.28.27-.56.42-.83s.3-.54.47-.8c-.2.24-.39.49-.57.74s-.35.52-.51.79S14.69,8.88,14.49,9.28Z"/></svg>