<svg id="Layer_1" data-name="Layer 1" xmlns="http://www.w3.org/2000/svg" viewBox="0 0 28 18"><defs><style>.cls-1{fill:none;stroke:#3c3c3b;stroke-linecap:round;stroke-linejoin:round;stroke-width:0.7px;}</style></defs><path class="cls-1" d="M18.67,1h8.64C25,2.19,19.94,2.11,19.75,2.89c-.09.37,6.36.93,6.1,1.82s-5,.87-4.83,1.73,4.23.89,4.16,1.74-3.9.82-4,1.67,4,.89,4.17,1.75-4.67.82-5,1.7,6.15,1.45,6.05,1.83c-.24,1-5.56.75-7.78,1.86h8.65M9.7,1h8.63C16.05,2.19,11,2.11,10.78,2.89c-.1.37,6.36.93,6.09,1.82s-5,.87-4.83,1.73,4.23.89,4.17,1.74-3.91.82-4,1.67,4,.89,4.17,1.75-4.68.82-5,1.7,6.15,1.45,6.06,1.83c-.24,1-5.56.75-7.78,1.86h8.65M.73,1H9.36C7.08,2.19,2,2.11,1.8,2.89c-.09.37,6.37.93,6.1,1.82s-5,.87-4.83,1.73,4.23.89,4.17,1.74-3.91.82-4,1.67,4,.89,4.17,1.75-4.67.82-5,1.7,6.15,1.45,6.05,1.83c-.24,1-5.56.75-7.78,1.86H9.34"/></svg>