<svg id="Layer_1" data-name="Layer 1" xmlns="http://www.w3.org/2000/svg" viewBox="0 0 28 18"><defs><style>.cls-1{fill:#fff;stroke:#3c3c3b;stroke-linecap:round;stroke-linejoin:round;stroke-width:0.7px;}.cls-2{fill:#1d1e1c;}.cls-3{fill:#3c3c3b;}</style></defs><rect class="cls-1" x="1" y="3.18" width="13.99" height="6.21"/><polygon class="cls-1" points="27 15.07 14.99 9.39 14.99 3.19 27 8.87 27 15.07"/><polygon class="cls-1" points="13.01 15.07 1 9.39 1 3.19 13.01 8.87 13.01 15.07"/><rect class="cls-1" x="13.01" y="8.87" width="13.99" height="6.21"/><polygon class="cls-1" points="13.01 8.87 27 8.87 14.99 3.19 1 3.19 13.01 8.87"/><path class="cls-2" d="M13,8.89l-.07,0,0-.07,0-.08a.12.12,0,0,1,.15,0l0,.08,0,.07Z"/><path class="cls-2" d="M15.29,9l-.07,0,0-.07,0-.08a.11.11,0,0,1,.15,0l0,.08,0,.07Z"/><path class="cls-2" d="M19.83,8.89l-.07,0,0-.07,0-.08a.1.1,0,0,1,.14,0l0,.08,0,.07Z"/><path class="cls-2" d="M17.63,9.16l-.07,0,0-.07,0-.07a.1.1,0,0,1,.14,0l0,.07,0,.07Z"/><path class="cls-3" d="M11.3,5.45l-.07,0,0-.07,0-.07a.11.11,0,0,1,.15,0l0,.07,0,.07Z"/><path class="cls-3" d="M11.58,4.63l-.08,0,0-.08,0-.07a.1.1,0,0,1,.14,0l0,.07,0,.08Z"/><path class="cls-3" d="M12.4,5l-.07,0,0-.08,0-.07a.11.11,0,0,1,.15,0l0,.07,0,.08Z"/><path class="cls-3" d="M12.27,5.59l-.08,0,0-.07,0-.08a.12.12,0,0,1,.15,0l0,.08,0,.07Z"/><path class="cls-3" d="M9.24,4.08l-.07,0,0-.08,0-.07a.1.1,0,0,1,.14,0l0,.07,0,.08Z"/><path class="cls-3" d="M9,4.49l-.07,0,0-.07,0-.08a.11.11,0,0,1,.15,0l0,.08,0,.07Z"/><path class="cls-3" d="M10.34,4l-.07,0,0-.07,0-.08a.11.11,0,0,1,.14,0l0,.08,0,.07Z"/><path class="cls-3" d="M9.48,5.07,9.41,5l0-.07,0-.07a.1.1,0,0,1,.14,0l0,.07,0,.07Z"/><path class="cls-3" d="M10.24,5.07l-.07,0,0-.07,0-.07a.11.11,0,0,1,.15,0l0,.07,0,.07Z"/><path class="cls-3" d="M11.3,3.87l-.07,0,0-.07,0-.08a.14.14,0,0,1,.15,0l0,.08,0,.07Z"/><path class="cls-3" d="M10.79,4.54l-.08,0,0-.07,0-.07a.1.1,0,0,1,.14,0l0,.07,0,.07Z"/><path class="cls-3" d="M12.4,4.22l-.08,0,0-.07,0-.07a.11.11,0,0,1,.15,0l0,.07,0,.07Z"/><path class="cls-3" d="M16,6.86l-.07,0,0-.07,0-.07a.1.1,0,0,1,.14,0l0,.07,0,.07Z"/><path class="cls-3" d="M14.31,3.68l-.08,0,0-.08,0-.07a.1.1,0,0,1,.14,0l0,.07,0,.08Z"/><path class="cls-3" d="M14.88,4,14.8,4l0-.08,0-.07a.11.11,0,0,1,.14,0l0,.07L15,4Z"/><path class="cls-3" d="M6.25,3.77l-.08,0,0-.08,0-.07a.1.1,0,0,1,.14,0l0,.07,0,.08Z"/><path class="cls-3" d="M13.17,4.85l-.07,0,0-.07,0-.07a.11.11,0,0,1,.15,0l0,.07,0,.07Z"/><path class="cls-3" d="M13.59,4.17l-.07,0,0-.08,0-.07a.1.1,0,0,1,.14,0l0,.07,0,.08Z"/><path class="cls-3" d="M18,5.38l-.07,0,0-.07,0-.07a.11.11,0,0,1,.15,0l0,.07,0,.07Z"/><path class="cls-3" d="M17.08,5,17,5l0-.07,0-.08a.1.1,0,0,1,.14,0l0,.08,0,.07Z"/><path class="cls-3" d="M16.25,5.25l-.07,0,0-.07,0-.07a.1.1,0,0,1,.14,0l0,.07,0,.07Z"/><path class="cls-3" d="M16.12,4.49l-.08,0,0-.07,0-.08a.12.12,0,0,1,.15,0l0,.08,0,.07Z"/><path class="cls-3" d="M8.86,6.39l-.07,0,0-.07,0-.08a.12.12,0,0,1,.15,0l0,.08,0,.07Z"/><path class="cls-3" d="M15.43,4.63l-.08,0,0-.08,0-.07a.1.1,0,0,1,.14,0l0,.07,0,.08Z"/><path class="cls-3" d="M10.68,6l-.07,0,0-.07,0-.07a.11.11,0,0,1,.15,0l0,.07,0,.07Z"/><path class="cls-3" d="M13.72,4.65l-.07,0,0-.07,0-.08a.11.11,0,0,1,.15,0l0,.08,0,.07Z"/><path class="cls-3" d="M14.27,4.65l-.07,0,0-.07,0-.08a.11.11,0,0,1,.15,0l0,.08,0,.07Z"/><path class="cls-3" d="M18.94,6l-.08,0,0-.07,0-.07a.11.11,0,0,1,.15,0l0,.07L19,6Z"/><path class="cls-3" d="M18.11,6,18,6l0-.07,0-.07a.1.1,0,0,1,.14,0l0,.07,0,.07Z"/><path class="cls-3" d="M17.28,5.86l-.07,0,0-.07,0-.07a.11.11,0,0,1,.15,0l0,.07,0,.07Z"/><path class="cls-3" d="M15.43,6.14l-.08,0,0-.08,0-.07a.11.11,0,0,1,.14,0l0,.07,0,.08Z"/><path class="cls-3" d="M14.6,6.14l-.07,0,0-.07,0-.08a.12.12,0,0,1,.15,0l0,.08,0,.07Z"/><path class="cls-3" d="M13.78,6,13.7,6l0-.07,0-.07a.1.1,0,0,1,.14,0l0,.07,0,.07Z"/><path class="cls-3" d="M23.92,8.17l-.07,0,0-.08,0-.07A.1.1,0,0,1,24,8l0,.07,0,.08Z"/><path class="cls-3" d="M19.37,7.35l-.07,0,0-.07,0-.08a.12.12,0,0,1,.15,0l0,.08,0,.07Z"/><path class="cls-3" d="M14.53,5.66l-.07,0,0-.07,0-.08a.12.12,0,0,1,.15,0l0,.08,0,.07Z"/><path class="cls-3" d="M9,5.59,9,5.56l0-.07,0-.08a.11.11,0,0,1,.15,0l0,.08,0,.07Z"/><path class="cls-3" d="M13.67,5.37l-.07,0,0-.07,0-.07a.11.11,0,0,1,.15,0l0,.07,0,.07Z"/><path class="cls-3" d="M19.59,6.62l-.08,0,0-.07,0-.08a.11.11,0,0,1,.15,0l0,.08,0,.07Z"/><path class="cls-3" d="M19,8.44l-.07,0,0-.07,0-.08a.11.11,0,0,1,.15,0l0,.08,0,.07Z"/><path class="cls-3" d="M16.46,5.86l-.07,0,0-.07,0-.07a.1.1,0,0,1,.14,0l0,.07,0,.07Z"/><path class="cls-3" d="M12.82,5.73l-.08,0,0-.08,0-.07a.11.11,0,0,1,.15,0l0,.07,0,.08Z"/><path class="cls-3" d="M11.58,6.07,11.5,6l0-.07,0-.08a.12.12,0,0,1,.14,0l0,.08,0,.07Z"/><path class="cls-3" d="M9.45,5.86l-.08,0,0-.07,0-.07a.11.11,0,0,1,.15,0l0,.07,0,.07Z"/><path class="cls-3" d="M13.5,8.06l-.07,0,0-.07,0-.07a.11.11,0,0,1,.15,0l0,.07,0,.07Z"/><path class="cls-3" d="M12.82,8.2l-.08,0,0-.07,0-.07a.11.11,0,0,1,.15,0l0,.07,0,.07Z"/><path class="cls-3" d="M12,7.82l-.07,0,0-.07,0-.07a.11.11,0,0,1,.15,0l0,.07,0,.07Z"/><path class="cls-3" d="M12,7.24l-.07,0,0-.07,0-.08a.11.11,0,0,1,.14,0l0,.08,0,.07Z"/><path class="cls-3" d="M12.82,7.51l-.08,0,0-.07,0-.07a.11.11,0,0,1,.15,0l0,.07,0,.07Z"/><path class="cls-3" d="M13.92,7.51l-.08,0,0-.07,0-.07a.11.11,0,0,1,.15,0l0,.07,0,.07Z"/><path class="cls-3" d="M14.47,8.34l-.08,0,0-.07,0-.08a.12.12,0,0,1,.15,0l0,.08,0,.07Z"/><path class="cls-3" d="M13.27,6.65l-.08,0,0-.07,0-.08a.11.11,0,0,1,.14,0l0,.08,0,.07Z"/><path class="cls-3" d="M14.47,6.83l-.08,0,0-.08,0-.07a.11.11,0,0,1,.15,0l0,.07,0,.08Z"/><path class="cls-3" d="M14.74,7.65l-.07,0,0-.07,0-.07a.11.11,0,0,1,.15,0l0,.07,0,.07Z"/><path class="cls-3" d="M15.15,8.61l-.07,0,0-.07,0-.07a.11.11,0,0,1,.15,0l0,.07,0,.07Z"/><path class="cls-3" d="M15.57,8.06l-.08,0,0-.07,0-.07a.11.11,0,0,1,.15,0l0,.07,0,.07Z"/><path class="cls-3" d="M12.33,6.59l-.07,0,0-.08,0-.07a.12.12,0,0,1,.15,0l0,.07,0,.08Z"/><path class="cls-3" d="M15.35,5.31l-.07,0,0-.07,0-.07a.1.1,0,0,1,.14,0l0,.07,0,.07Z"/><path class="cls-3" d="M20.38,8.34l-.07,0,0-.07,0-.08a.1.1,0,0,1,.14,0l0,.08,0,.07Z"/><path class="cls-3" d="M19.69,8.06l-.07,0,0-.07,0-.07a.11.11,0,0,1,.15,0l0,.07,0,.07Z"/><path class="cls-3" d="M20,7.24l-.07,0,0-.07,0-.08a.1.1,0,0,1,.14,0l0,.08,0,.07Z"/><path class="cls-3" d="M21.2,7.93l-.07,0,0-.08,0-.07a.12.12,0,0,1,.15,0l0,.07,0,.08Z"/><path class="cls-3" d="M21.48,7.24l-.07,0,0-.08,0-.07a.1.1,0,0,1,.14,0l0,.07,0,.08Z"/><path class="cls-3" d="M20.79,6.83l-.07,0,0-.08,0-.07a.11.11,0,0,1,.15,0l0,.07,0,.08Z"/><path class="cls-3" d="M21.55,8.5l-.07,0,0-.08,0-.07a.11.11,0,0,1,.15,0l0,.07,0,.08Z"/><path class="cls-3" d="M22,7.93,22,7.9l0-.08,0-.07a.1.1,0,0,1,.14,0l0,.07,0,.08Z"/><path class="cls-3" d="M22.65,8.41l-.07,0,0-.08,0-.07a.11.11,0,0,1,.15,0l0,.07,0,.08Z"/><path class="cls-3" d="M24.83,8.43l-.07,0,0-.07,0-.07a.11.11,0,0,1,.15,0l0,.07,0,.07Z"/><path class="cls-3" d="M23.28,8.34l-.07,0,0-.07,0-.08a.14.14,0,0,1,.15,0l0,.08,0,.07Z"/><path class="cls-3" d="M22.38,7.62l-.07,0,0-.07,0-.08a.12.12,0,0,1,.15,0l0,.08,0,.07Z"/><path class="cls-3" d="M23.07,7.89l-.07,0,0-.07,0-.07a.1.1,0,0,1,.14,0l0,.07,0,.07Z"/><path class="cls-3" d="M16.8,6.83l-.07,0,0-.08,0-.07a.11.11,0,0,1,.15,0l0,.07,0,.08Z"/><path class="cls-3" d="M17.9,7l-.07,0,0-.07,0-.07a.11.11,0,0,1,.15,0l0,.07,0,.07Z"/><path class="cls-3" d="M17.22,7.24l-.08,0,0-.07,0-.08a.11.11,0,0,1,.15,0l0,.08,0,.07Z"/><path class="cls-3" d="M16.67,7.51l-.08,0,0-.07,0-.07a.11.11,0,0,1,.15,0l0,.07,0,.07Z"/><path class="cls-3" d="M17.9,7.51l-.07,0,0-.07,0-.07a.11.11,0,0,1,.15,0l0,.07,0,.07Z"/><path class="cls-3" d="M18.59,7.38l-.07,0,0-.08,0-.07a.11.11,0,0,1,.15,0l0,.07,0,.08Z"/><path class="cls-3" d="M18.18,8.2l-.08,0,0-.07,0-.08a.11.11,0,0,1,.14,0l0,.07,0,.07Z"/><path class="cls-3" d="M17.49,8.34l-.07,0,0-.07,0-.08a.11.11,0,0,1,.15,0l0,.08,0,.07Z"/><path class="cls-3" d="M10.2,6.69l-.07,0,0-.07,0-.08a.11.11,0,0,1,.15,0l0,.08,0,.07Z"/><path class="cls-3" d="M10.89,7.1l-.07,0,0-.07,0-.07a.1.1,0,0,1,.14,0L11,7l0,.07Z"/><path class="cls-3" d="M16.53,8.34l-.07,0,0-.07,0-.08a.1.1,0,0,1,.14,0l0,.08,0,.07Z"/><path class="cls-3" d="M15.25,7.26l-.07,0,0-.08,0-.07a.1.1,0,0,1,.14,0l0,.07,0,.08Z"/><path class="cls-3" d="M9.58,6.62l-.07,0,0-.07,0-.08a.14.14,0,0,1,.15,0l0,.08,0,.07Z"/><path class="cls-3" d="M13.92,6.55l-.08,0,0-.07,0-.07a.11.11,0,0,1,.15,0l0,.07,0,.07Z"/><path class="cls-3" d="M17.7,6.55l-.07,0,0-.07,0-.07a.1.1,0,0,1,.14,0l0,.07,0,.07Z"/><path class="cls-3" d="M18.52,6.69l-.07,0,0-.07,0-.08a.11.11,0,0,1,.15,0l0,.08,0,.07Z"/><path class="cls-3" d="M20.59,7.55l-.08,0,0-.07,0-.08a.14.14,0,0,1,.15,0l0,.08,0,.07Z"/><path class="cls-3" d="M20,6.29l-.07,0,0-.07,0-.07a.1.1,0,0,1,.14,0l0,.07,0,.07Z"/><path class="cls-3" d="M10.1,5.83,10,5.8l0-.07,0-.08a.11.11,0,0,1,.14,0l0,.08,0,.07Z"/><path class="cls-3" d="M5,4.18l-.08,0,0-.07L5,4a.11.11,0,0,1,.14,0l0,.08,0,.07Z"/><path class="cls-3" d="M7.18,3.94l-.08,0,0-.07,0-.08a.1.1,0,0,1,.14,0l0,.08,0,.07Z"/><path class="cls-3" d="M6.08,4.21,6,4.18l0-.07L6,4a.11.11,0,0,1,.15,0l0,.07,0,.07Z"/><path class="cls-3" d="M7.18,4.76l-.08,0,0-.07,0-.07a.1.1,0,0,1,.14,0l0,.07,0,.07Z"/><path class="cls-3" d="M5.8,5,5.73,5l0-.08,0-.07a.12.12,0,0,1,.15,0l0,.07,0,.08Z"/><path class="cls-3" d="M6.73,5.45l-.07,0,0-.07,0-.07a.11.11,0,0,1,.15,0l0,.07,0,.07Z"/><path class="cls-3" d="M6.35,4.76l-.07,0,0-.07,0-.07a.11.11,0,0,1,.15,0l0,.07,0,.07Z"/><path class="cls-3" d="M4.27,3.73l-.08,0,0-.08,0-.07a.11.11,0,0,1,.15,0l0,.07,0,.08Z"/><path class="cls-3" d="M3.73,4l-.07,0,0-.07,0-.07a.11.11,0,0,1,.15,0l0,.07,0,.07Z"/><path class="cls-3" d="M8.14,3.87l-.07,0,0-.07,0-.08a.12.12,0,0,1,.14,0l0,.08,0,.07Z"/><path class="cls-3" d="M7.86,6,7.79,6l0-.07,0-.07a.11.11,0,0,1,.15,0L8,5.9l0,.07Z"/><path class="cls-3" d="M8.24,5.17l-.07,0,0-.07,0-.07a.11.11,0,0,1,.15,0l0,.07,0,.07Z"/><path class="cls-3" d="M7.31,5.31l-.07,0,0-.07,0-.07a.11.11,0,0,1,.15,0l0,.07,0,.07Z"/><line class="cls-1" x1="13.01" y1="15.07" x2="13.01" y2="8.87"/><line class="cls-1" x1="14.18" y1="15.07" x2="14.18" y2="8.87"/><line class="cls-1" x1="15.34" y1="15.07" x2="15.34" y2="8.87"/><line class="cls-1" x1="16.51" y1="15.07" x2="16.51" y2="8.87"/><line class="cls-1" x1="17.68" y1="15.07" x2="17.68" y2="8.87"/><line class="cls-1" x1="18.84" y1="15.07" x2="18.84" y2="8.87"/><line class="cls-1" x1="20.01" y1="15.07" x2="20.01" y2="8.87"/><line class="cls-1" x1="21.17" y1="15.07" x2="21.17" y2="8.87"/><line class="cls-1" x1="22.34" y1="15.07" x2="22.34" y2="8.87"/><line class="cls-1" x1="23.5" y1="15.07" x2="23.5" y2="8.87"/><line class="cls-1" x1="24.67" y1="15.07" x2="24.67" y2="8.87"/><line class="cls-1" x1="25.83" y1="15.07" x2="25.83" y2="8.87"/><line class="cls-1" x1="27" y1="15.07" x2="27" y2="8.87"/></svg>