<svg id="Layer_1" data-name="Layer 1" xmlns="http://www.w3.org/2000/svg" xmlns:xlink="http://www.w3.org/1999/xlink" viewBox="0 0 28 18"><defs><style>.cls-1,.cls-5{fill:none;}.cls-2{fill:#3c3c3b;}.cls-3{clip-path:url(#clip-path);}.cls-4{fill:#878787;}.cls-5{stroke:#3c3c3b;stroke-miterlimit:10;stroke-width:0.7px;}</style><clipPath id="clip-path"><rect class="cls-1" x="1" y="10.99" width="26" height="5.07"/></clipPath></defs><path class="cls-2" d="M2.32,7.05A7.42,7.42,0,0,1,7.88,5.52a11,11,0,0,1,2.88.71c.92.36,1.8.76,2.69,1.14a17.52,17.52,0,0,0,5.41,1.69,11.37,11.37,0,0,0,5.53-1.18,13.34,13.34,0,0,1-2.63,1.28,9,9,0,0,1-2.93.44A15.68,15.68,0,0,1,13.17,8,21.9,21.9,0,0,0,7.81,6.06,8.09,8.09,0,0,0,5,6.06,6.87,6.87,0,0,0,2.32,7.05Z"/><path class="cls-2" d="M3.35,5.3A.26.26,0,0,1,3.09,5a.26.26,0,0,1,.26-.25A.25.25,0,0,1,3.6,5,.26.26,0,0,1,3.35,5.3Z"/><circle class="cls-2" cx="5.21" cy="4.33" r="0.44"/><circle class="cls-2" cx="7.17" cy="3.93" r="0.58"/><circle class="cls-2" cx="9.17" cy="3.9" r="0.68"/><path class="cls-2" d="M11.13,5a.75.75,0,1,1,.75-.75A.75.75,0,0,1,11.13,5Z"/><path class="cls-2" d="M13,5.72a.78.78,0,1,1,.78-.78A.78.78,0,0,1,13,5.72Z"/><path class="cls-2" d="M14.88,6.46a.8.8,0,1,1,.79-.8A.8.8,0,0,1,14.88,6.46Z"/><circle class="cls-2" cx="16.77" cy="6.31" r="0.77"/><path class="cls-2" d="M18.72,7.47a.72.72,0,1,1,.71-.72A.72.72,0,0,1,18.72,7.47Z"/><path class="cls-2" d="M20.71,7.43a.63.63,0,1,1,.63-.63A.63.63,0,0,1,20.71,7.43Z"/><path class="cls-2" d="M22.64,6.79a.5.5,0,0,1-.51-.5.51.51,0,1,1,1,0A.5.5,0,0,1,22.64,6.79Z"/><path class="cls-2" d="M24.36,5.61a.34.34,0,1,1,.33-.33A.34.34,0,0,1,24.36,5.61Z"/><path class="cls-2" d="M25.68,4.24a.11.11,0,1,1,.11-.11A.11.11,0,0,1,25.68,4.24Z"/><g class="cls-3"><path class="cls-4" d="M1.29,13v1a1.23,1.23,0,0,0,.6,1.06l.89.51a1.21,1.21,0,0,0,1.22,0l.89-.51A1.22,1.22,0,0,0,5.5,14V13a1.21,1.21,0,0,0-.61-1L4,11.44a1.26,1.26,0,0,0-1.22,0L1.89,12a1.23,1.23,0,0,0-.6,1"/><path class="cls-5" d="M1.29,13v1a1.23,1.23,0,0,0,.6,1.06l.89.51a1.21,1.21,0,0,0,1.22,0l.89-.51A1.22,1.22,0,0,0,5.5,14V13a1.21,1.21,0,0,0-.61-1L4,11.44a1.26,1.26,0,0,0-1.22,0L1.89,12A1.23,1.23,0,0,0,1.29,13Z"/><path class="cls-4" d="M6.59,13v1A1.22,1.22,0,0,0,7.2,15.1l.89.51a1.19,1.19,0,0,0,1.21,0l.89-.51A1.22,1.22,0,0,0,10.8,14V13a1.21,1.21,0,0,0-.61-1l-.89-.52a1.24,1.24,0,0,0-1.21,0L7.2,12a1.21,1.21,0,0,0-.61,1"/><path class="cls-5" d="M6.59,13v1A1.22,1.22,0,0,0,7.2,15.1l.89.51a1.19,1.19,0,0,0,1.21,0l.89-.51A1.22,1.22,0,0,0,10.8,14V13a1.21,1.21,0,0,0-.61-1l-.89-.52a1.24,1.24,0,0,0-1.21,0L7.2,12A1.21,1.21,0,0,0,6.59,13Z"/><path class="cls-4" d="M17.2,13v1a1.22,1.22,0,0,0,.61,1.06l.89.51a1.19,1.19,0,0,0,1.21,0l.89-.51A1.22,1.22,0,0,0,21.41,14V13a1.21,1.21,0,0,0-.61-1l-.89-.52a1.24,1.24,0,0,0-1.21,0l-.89.52a1.21,1.21,0,0,0-.61,1"/><path class="cls-5" d="M17.2,13v1a1.22,1.22,0,0,0,.61,1.06l.89.51a1.19,1.19,0,0,0,1.21,0l.89-.51A1.22,1.22,0,0,0,21.41,14V13a1.21,1.21,0,0,0-.61-1l-.89-.52a1.24,1.24,0,0,0-1.21,0l-.89.52A1.21,1.21,0,0,0,17.2,13Z"/><path class="cls-4" d="M11.89,13v1a1.24,1.24,0,0,0,.61,1.06l.89.51a1.21,1.21,0,0,0,1.22,0l.89-.51A1.24,1.24,0,0,0,16.11,14V13a1.24,1.24,0,0,0-.61-1l-.89-.52a1.26,1.26,0,0,0-1.22,0L12.5,12a1.24,1.24,0,0,0-.61,1"/><path class="cls-5" d="M11.89,13v1a1.24,1.24,0,0,0,.61,1.06l.89.51a1.21,1.21,0,0,0,1.22,0l.89-.51A1.24,1.24,0,0,0,16.11,14V13a1.24,1.24,0,0,0-.61-1l-.89-.52a1.26,1.26,0,0,0-1.22,0L12.5,12A1.24,1.24,0,0,0,11.89,13Z"/><path class="cls-4" d="M22.5,13v1a1.22,1.22,0,0,0,.61,1.06l.89.51a1.21,1.21,0,0,0,1.22,0l.89-.51a1.23,1.23,0,0,0,.6-1.06V13a1.23,1.23,0,0,0-.6-1l-.89-.52a1.26,1.26,0,0,0-1.22,0l-.89.52a1.21,1.21,0,0,0-.61,1"/><path class="cls-5" d="M22.5,13v1a1.22,1.22,0,0,0,.61,1.06l.89.51a1.21,1.21,0,0,0,1.22,0l.89-.51a1.23,1.23,0,0,0,.6-1.06V13a1.23,1.23,0,0,0-.6-1l-.89-.52a1.26,1.26,0,0,0-1.22,0l-.89.52A1.21,1.21,0,0,0,22.5,13Z"/><path class="cls-4" d="M8.7,11.28a1.25,1.25,0,0,1,.6.16l.89.52a1.21,1.21,0,0,1,.61,1v1a1.22,1.22,0,0,1-.61,1.06l-.89.51a1.16,1.16,0,0,1-.6.17"/><path class="cls-5" d="M8.7,11.28a1.25,1.25,0,0,1,.6.16l.89.52a1.21,1.21,0,0,1,.61,1v1a1.22,1.22,0,0,1-.61,1.06l-.89.51a1.16,1.16,0,0,1-.6.17"/></g></svg>