<svg id="Layer_1" data-name="Layer 1" xmlns="http://www.w3.org/2000/svg" xmlns:xlink="http://www.w3.org/1999/xlink" viewBox="0 0 28 18"><defs><style>.cls-1{fill:none;}.cls-2{fill:#fff;stroke:#3c3c3b;stroke-linecap:round;stroke-linejoin:round;stroke-width:0.7px;}.cls-3{clip-path:url(#clip-path);}.cls-4{fill:#3c3c3b;}</style><clipPath id="clip-path"><polygon class="cls-1" points="27 11.84 13.01 11.84 1 6.16 14.99 6.16 27 11.84"/></clipPath></defs><polygon class="cls-2" points="27 11.84 13.01 11.84 1 6.16 14.99 6.16 27 11.84"/><g class="cls-3"><circle class="cls-4" cx="3.84" cy="6.39" r="0.22"/><circle class="cls-4" cx="2.35" cy="6.39" r="0.22"/><circle class="cls-4" cx="6.82" cy="6.39" r="0.22"/><circle class="cls-4" cx="5.33" cy="6.39" r="0.22"/><circle class="cls-4" cx="3.84" cy="6.39" r="0.22"/><circle class="cls-4" cx="9.79" cy="6.39" r="0.22"/><circle class="cls-4" cx="8.3" cy="6.39" r="0.22"/><circle class="cls-4" cx="6.82" cy="6.39" r="0.22"/><circle class="cls-4" cx="12.77" cy="6.39" r="0.22"/><circle class="cls-4" cx="11.28" cy="6.39" r="0.22"/><circle class="cls-4" cx="9.79" cy="6.39" r="0.22"/><circle class="cls-4" cx="15.75" cy="6.39" r="0.22"/><circle class="cls-4" cx="14.26" cy="6.39" r="0.22"/><circle class="cls-4" cx="12.77" cy="6.39" r="0.22"/><circle class="cls-4" cx="18.73" cy="6.39" r="0.22"/><circle class="cls-4" cx="17.24" cy="6.39" r="0.22"/><circle class="cls-4" cx="15.75" cy="6.39" r="0.22"/><circle class="cls-4" cx="3.84" cy="7.88" r="0.22"/><circle class="cls-4" cx="3.84" cy="6.39" r="0.22"/><circle class="cls-4" cx="2.35" cy="7.88" r="0.22"/><circle class="cls-4" cx="2.35" cy="6.39" r="0.22"/><circle class="cls-4" cx="3.09" cy="7.14" r="0.22"/><circle class="cls-4" cx="3.09" cy="8.63" r="0.22"/><circle class="cls-4" cx="1.6" cy="7.14" r="0.22"/><circle class="cls-4" cx="1.6" cy="8.63" r="0.22"/><circle class="cls-4" cx="6.82" cy="7.88" r="0.22"/><circle class="cls-4" cx="6.82" cy="6.39" r="0.22"/><circle class="cls-4" cx="5.33" cy="7.88" r="0.22"/><circle class="cls-4" cx="5.33" cy="6.39" r="0.22"/><circle class="cls-4" cx="6.07" cy="7.14" r="0.22"/><circle class="cls-4" cx="6.07" cy="8.63" r="0.22"/><circle class="cls-4" cx="4.58" cy="7.14" r="0.22"/><circle class="cls-4" cx="4.58" cy="8.63" r="0.22"/><circle class="cls-4" cx="3.84" cy="7.88" r="0.22"/><circle class="cls-4" cx="3.84" cy="6.39" r="0.22"/><circle class="cls-4" cx="9.79" cy="7.88" r="0.22"/><circle class="cls-4" cx="9.79" cy="6.39" r="0.22"/><circle class="cls-4" cx="8.3" cy="7.88" r="0.22"/><circle class="cls-4" cx="8.3" cy="6.39" r="0.22"/><circle class="cls-4" cx="9.05" cy="7.14" r="0.22"/><circle class="cls-4" cx="9.05" cy="8.63" r="0.22"/><circle class="cls-4" cx="7.56" cy="7.14" r="0.22"/><circle class="cls-4" cx="7.56" cy="8.63" r="0.22"/><circle class="cls-4" cx="9.79" cy="9.37" r="0.22"/><circle class="cls-4" cx="8.3" cy="9.37" r="0.22"/><circle class="cls-4" cx="6.82" cy="7.88" r="0.22"/><circle class="cls-4" cx="6.82" cy="6.39" r="0.22"/><circle class="cls-4" cx="12.77" cy="7.88" r="0.22"/><circle class="cls-4" cx="12.77" cy="6.39" r="0.22"/><circle class="cls-4" cx="11.28" cy="7.88" r="0.22"/><circle class="cls-4" cx="11.28" cy="6.39" r="0.22"/><circle class="cls-4" cx="12.03" cy="7.14" r="0.22"/><circle class="cls-4" cx="12.03" cy="8.63" r="0.22"/><circle class="cls-4" cx="10.54" cy="7.14" r="0.22"/><circle class="cls-4" cx="10.54" cy="8.63" r="0.22"/><circle class="cls-4" cx="12.77" cy="9.37" r="0.22"/><circle class="cls-4" cx="11.28" cy="9.37" r="0.22"/><circle class="cls-4" cx="9.79" cy="7.88" r="0.22"/><circle class="cls-4" cx="9.79" cy="6.39" r="0.22"/><circle class="cls-4" cx="9.79" cy="9.37" r="0.22"/><circle class="cls-4" cx="15.75" cy="7.88" r="0.22"/><circle class="cls-4" cx="15.75" cy="6.39" r="0.22"/><circle class="cls-4" cx="14.26" cy="7.88" r="0.22"/><circle class="cls-4" cx="14.26" cy="6.39" r="0.22"/><circle class="cls-4" cx="15" cy="7.14" r="0.22"/><circle class="cls-4" cx="15" cy="8.63" r="0.22"/><circle class="cls-4" cx="13.52" cy="7.14" r="0.22"/><circle class="cls-4" cx="13.52" cy="8.63" r="0.22"/><circle class="cls-4" cx="15.75" cy="9.37" r="0.22"/><circle class="cls-4" cx="14.26" cy="9.37" r="0.22"/><circle class="cls-4" cx="12.77" cy="7.88" r="0.22"/><circle class="cls-4" cx="12.77" cy="6.39" r="0.22"/><circle class="cls-4" cx="12.77" cy="9.37" r="0.22"/><circle class="cls-4" cx="18.73" cy="7.88" r="0.22"/><circle class="cls-4" cx="18.73" cy="6.39" r="0.22"/><circle class="cls-4" cx="17.24" cy="7.88" r="0.22"/><circle class="cls-4" cx="17.24" cy="6.39" r="0.22"/><circle class="cls-4" cx="17.98" cy="7.14" r="0.22"/><circle class="cls-4" cx="17.98" cy="8.63" r="0.22"/><circle class="cls-4" cx="16.49" cy="7.14" r="0.22"/><circle class="cls-4" cx="16.49" cy="8.63" r="0.22"/><circle class="cls-4" cx="18.73" cy="9.37" r="0.22"/><circle class="cls-4" cx="17.24" cy="9.37" r="0.22"/><circle class="cls-4" cx="15.75" cy="7.88" r="0.22"/><circle class="cls-4" cx="15.75" cy="6.39" r="0.22"/><circle class="cls-4" cx="15.75" cy="9.37" r="0.22"/><circle class="cls-4" cx="21.7" cy="7.88" r="0.22"/><circle class="cls-4" cx="21.7" cy="6.39" r="0.22"/><circle class="cls-4" cx="20.22" cy="7.88" r="0.22"/><circle class="cls-4" cx="20.22" cy="6.39" r="0.22"/><circle class="cls-4" cx="20.96" cy="7.14" r="0.22"/><circle class="cls-4" cx="20.96" cy="8.63" r="0.22"/><circle class="cls-4" cx="19.47" cy="7.14" r="0.22"/><circle class="cls-4" cx="19.47" cy="8.63" r="0.22"/><circle class="cls-4" cx="21.7" cy="9.37" r="0.22"/><circle class="cls-4" cx="20.22" cy="9.37" r="0.22"/><circle class="cls-4" cx="18.73" cy="7.88" r="0.22"/><circle class="cls-4" cx="18.73" cy="6.39" r="0.22"/><circle class="cls-4" cx="18.73" cy="9.37" r="0.22"/><circle class="cls-4" cx="24.68" cy="9.37" r="0.22"/><circle class="cls-4" cx="23.19" cy="9.37" r="0.22"/><circle class="cls-4" cx="21.7" cy="7.88" r="0.22"/><circle class="cls-4" cx="21.7" cy="6.39" r="0.22"/><circle class="cls-4" cx="21.7" cy="9.37" r="0.22"/><circle class="cls-4" cx="9.79" cy="10.86" r="0.22"/><circle class="cls-4" cx="9.79" cy="9.37" r="0.22"/><circle class="cls-4" cx="8.3" cy="10.86" r="0.22"/><circle class="cls-4" cx="8.3" cy="9.37" r="0.22"/><circle class="cls-4" cx="9.05" cy="10.12" r="0.22"/><circle class="cls-4" cx="9.05" cy="11.61" r="0.22"/><circle class="cls-4" cx="7.56" cy="10.12" r="0.22"/><circle class="cls-4" cx="7.56" cy="11.61" r="0.22"/><circle class="cls-4" cx="12.77" cy="10.86" r="0.22"/><circle class="cls-4" cx="12.77" cy="9.37" r="0.22"/><circle class="cls-4" cx="11.28" cy="10.86" r="0.22"/><circle class="cls-4" cx="11.28" cy="9.37" r="0.22"/><circle class="cls-4" cx="12.03" cy="10.12" r="0.22"/><circle class="cls-4" cx="12.03" cy="11.61" r="0.22"/><circle class="cls-4" cx="10.54" cy="10.12" r="0.22"/><circle class="cls-4" cx="10.54" cy="11.61" r="0.22"/><circle class="cls-4" cx="9.79" cy="10.86" r="0.22"/><circle class="cls-4" cx="9.79" cy="9.37" r="0.22"/><circle class="cls-4" cx="15.75" cy="10.86" r="0.22"/><circle class="cls-4" cx="15.75" cy="9.37" r="0.22"/><circle class="cls-4" cx="14.26" cy="10.86" r="0.22"/><circle class="cls-4" cx="14.26" cy="9.37" r="0.22"/><circle class="cls-4" cx="15" cy="10.12" r="0.22"/><circle class="cls-4" cx="15" cy="11.61" r="0.22"/><circle class="cls-4" cx="13.52" cy="10.12" r="0.22"/><circle class="cls-4" cx="13.52" cy="11.61" r="0.22"/><circle class="cls-4" cx="12.77" cy="10.86" r="0.22"/><circle class="cls-4" cx="12.77" cy="9.37" r="0.22"/><circle class="cls-4" cx="18.73" cy="10.86" r="0.22"/><circle class="cls-4" cx="18.73" cy="9.37" r="0.22"/><circle class="cls-4" cx="17.24" cy="10.86" r="0.22"/><circle class="cls-4" cx="17.24" cy="9.37" r="0.22"/><circle class="cls-4" cx="17.98" cy="10.12" r="0.22"/><circle class="cls-4" cx="17.98" cy="11.61" r="0.22"/><circle class="cls-4" cx="16.49" cy="10.12" r="0.22"/><circle class="cls-4" cx="16.49" cy="11.61" r="0.22"/><circle class="cls-4" cx="15.75" cy="10.86" r="0.22"/><circle class="cls-4" cx="15.75" cy="9.37" r="0.22"/><circle class="cls-4" cx="21.7" cy="10.86" r="0.22"/><circle class="cls-4" cx="21.7" cy="9.37" r="0.22"/><circle class="cls-4" cx="20.22" cy="10.86" r="0.22"/><circle class="cls-4" cx="20.22" cy="9.37" r="0.22"/><circle class="cls-4" cx="20.96" cy="10.12" r="0.22"/><circle class="cls-4" cx="20.96" cy="11.61" r="0.22"/><circle class="cls-4" cx="19.47" cy="10.12" r="0.22"/><circle class="cls-4" cx="19.47" cy="11.61" r="0.22"/><circle class="cls-4" cx="18.73" cy="10.86" r="0.22"/><circle class="cls-4" cx="18.73" cy="9.37" r="0.22"/><circle class="cls-4" cx="24.68" cy="10.86" r="0.22"/><circle class="cls-4" cx="24.68" cy="9.37" r="0.22"/><circle class="cls-4" cx="23.19" cy="10.86" r="0.22"/><circle class="cls-4" cx="23.19" cy="9.37" r="0.22"/><circle class="cls-4" cx="23.94" cy="10.12" r="0.22"/><circle class="cls-4" cx="23.94" cy="11.61" r="0.22"/><circle class="cls-4" cx="22.45" cy="10.12" r="0.22"/><circle class="cls-4" cx="22.45" cy="11.61" r="0.22"/><circle class="cls-4" cx="21.7" cy="10.86" r="0.22"/><circle class="cls-4" cx="21.7" cy="9.37" r="0.22"/><circle class="cls-4" cx="27.66" cy="10.86" r="0.22"/><circle class="cls-4" cx="27.66" cy="9.37" r="0.22"/><circle class="cls-4" cx="26.17" cy="10.86" r="0.22"/><circle class="cls-4" cx="26.17" cy="9.37" r="0.22"/><circle class="cls-4" cx="26.92" cy="10.12" r="0.22"/><circle class="cls-4" cx="26.92" cy="11.61" r="0.22"/><circle class="cls-4" cx="25.43" cy="10.12" r="0.22"/><circle class="cls-4" cx="25.43" cy="11.61" r="0.22"/><circle class="cls-4" cx="24.68" cy="10.86" r="0.22"/><circle class="cls-4" cx="24.68" cy="9.37" r="0.22"/></g></svg>