<svg id="Layer_1" data-name="Layer 1" xmlns="http://www.w3.org/2000/svg" xmlns:xlink="http://www.w3.org/1999/xlink" viewBox="0 0 28 18"><defs><style>.cls-1{fill:none;}.cls-2{fill:#fff;stroke:#3c3c3b;stroke-linecap:round;stroke-linejoin:round;stroke-width:0.7px;}.cls-3{clip-path:url(#clip-path);}.cls-4{fill:#3c3c3b;}.cls-5{clip-path:url(#clip-path-2);}</style><clipPath id="clip-path"><polygon class="cls-1" points="27 13.18 13.01 13.18 1 7.5 14.99 7.5 27 13.18"/></clipPath><clipPath id="clip-path-2"><polygon class="cls-1" points="27 9.18 13.01 9.18 1 3.5 14.99 3.5 27 9.18"/></clipPath></defs><polygon class="cls-2" points="27 13.18 13.01 13.18 1 7.5 14.99 7.5 27 13.18"/><g class="cls-3"><circle class="cls-4" cx="3.84" cy="7.74" r="0.22"/><circle class="cls-4" cx="2.35" cy="7.74" r="0.22"/><circle class="cls-4" cx="6.82" cy="7.74" r="0.22"/><circle class="cls-4" cx="5.33" cy="7.74" r="0.22"/><circle class="cls-4" cx="3.84" cy="7.74" r="0.22"/><circle class="cls-4" cx="9.79" cy="7.74" r="0.22"/><circle class="cls-4" cx="8.3" cy="7.74" r="0.22"/><circle class="cls-4" cx="6.82" cy="7.74" r="0.22"/><circle class="cls-4" cx="12.77" cy="7.74" r="0.22"/><circle class="cls-4" cx="11.28" cy="7.74" r="0.22"/><circle class="cls-4" cx="9.79" cy="7.74" r="0.22"/><circle class="cls-4" cx="15.75" cy="7.74" r="0.22"/><circle class="cls-4" cx="14.26" cy="7.74" r="0.22"/><circle class="cls-4" cx="12.77" cy="7.74" r="0.22"/><circle class="cls-4" cx="18.73" cy="7.74" r="0.22"/><circle class="cls-4" cx="17.24" cy="7.74" r="0.22"/><circle class="cls-4" cx="15.75" cy="7.74" r="0.22"/><circle class="cls-4" cx="3.84" cy="9.22" r="0.22"/><circle class="cls-4" cx="3.84" cy="7.74" r="0.22"/><circle class="cls-4" cx="2.35" cy="9.22" r="0.22"/><circle class="cls-4" cx="2.35" cy="7.74" r="0.22"/><circle class="cls-4" cx="3.09" cy="8.48" r="0.22"/><circle class="cls-4" cx="3.09" cy="9.97" r="0.22"/><circle class="cls-4" cx="1.6" cy="8.48" r="0.22"/><circle class="cls-4" cx="1.6" cy="9.97" r="0.22"/><circle class="cls-4" cx="6.82" cy="9.22" r="0.22"/><circle class="cls-4" cx="6.82" cy="7.74" r="0.22"/><circle class="cls-4" cx="5.33" cy="9.22" r="0.22"/><circle class="cls-4" cx="5.33" cy="7.74" r="0.22"/><circle class="cls-4" cx="6.07" cy="8.48" r="0.22"/><circle class="cls-4" cx="6.07" cy="9.97" r="0.22"/><circle class="cls-4" cx="4.58" cy="8.48" r="0.22"/><circle class="cls-4" cx="4.58" cy="9.97" r="0.22"/><circle class="cls-4" cx="3.84" cy="9.22" r="0.22"/><circle class="cls-4" cx="3.84" cy="7.74" r="0.22"/><circle class="cls-4" cx="9.79" cy="9.22" r="0.22"/><circle class="cls-4" cx="9.79" cy="7.74" r="0.22"/><circle class="cls-4" cx="8.3" cy="9.22" r="0.22"/><circle class="cls-4" cx="8.3" cy="7.74" r="0.22"/><circle class="cls-4" cx="9.05" cy="8.48" r="0.22"/><circle class="cls-4" cx="9.05" cy="9.97" r="0.22"/><circle class="cls-4" cx="7.56" cy="8.48" r="0.22"/><circle class="cls-4" cx="7.56" cy="9.97" r="0.22"/><circle class="cls-4" cx="9.79" cy="10.71" r="0.22"/><circle class="cls-4" cx="8.3" cy="10.71" r="0.22"/><circle class="cls-4" cx="6.82" cy="9.22" r="0.22"/><circle class="cls-4" cx="6.82" cy="7.74" r="0.22"/><circle class="cls-4" cx="12.77" cy="9.22" r="0.22"/><circle class="cls-4" cx="12.77" cy="7.74" r="0.22"/><circle class="cls-4" cx="11.28" cy="9.22" r="0.22"/><circle class="cls-4" cx="11.28" cy="7.74" r="0.22"/><circle class="cls-4" cx="12.03" cy="8.48" r="0.22"/><circle class="cls-4" cx="12.03" cy="9.97" r="0.22"/><circle class="cls-4" cx="10.54" cy="8.48" r="0.22"/><circle class="cls-4" cx="10.54" cy="9.97" r="0.22"/><circle class="cls-4" cx="12.77" cy="10.71" r="0.22"/><circle class="cls-4" cx="11.28" cy="10.71" r="0.22"/><circle class="cls-4" cx="9.79" cy="9.22" r="0.22"/><circle class="cls-4" cx="9.79" cy="7.74" r="0.22"/><circle class="cls-4" cx="9.79" cy="10.71" r="0.22"/><circle class="cls-4" cx="15.75" cy="9.22" r="0.22"/><circle class="cls-4" cx="15.75" cy="7.74" r="0.22"/><circle class="cls-4" cx="14.26" cy="9.22" r="0.22"/><circle class="cls-4" cx="14.26" cy="7.74" r="0.22"/><circle class="cls-4" cx="15" cy="8.48" r="0.22"/><circle class="cls-4" cx="15" cy="9.97" r="0.22"/><circle class="cls-4" cx="13.52" cy="8.48" r="0.22"/><circle class="cls-4" cx="13.52" cy="9.97" r="0.22"/><circle class="cls-4" cx="15.75" cy="10.71" r="0.22"/><circle class="cls-4" cx="14.26" cy="10.71" r="0.22"/><circle class="cls-4" cx="12.77" cy="9.22" r="0.22"/><circle class="cls-4" cx="12.77" cy="7.74" r="0.22"/><circle class="cls-4" cx="12.77" cy="10.71" r="0.22"/><circle class="cls-4" cx="18.73" cy="9.22" r="0.22"/><circle class="cls-4" cx="18.73" cy="7.74" r="0.22"/><circle class="cls-4" cx="17.24" cy="9.22" r="0.22"/><circle class="cls-4" cx="17.24" cy="7.74" r="0.22"/><circle class="cls-4" cx="17.98" cy="8.48" r="0.22"/><circle class="cls-4" cx="17.98" cy="9.97" r="0.22"/><circle class="cls-4" cx="16.49" cy="8.48" r="0.22"/><circle class="cls-4" cx="16.49" cy="9.97" r="0.22"/><circle class="cls-4" cx="18.73" cy="10.71" r="0.22"/><circle class="cls-4" cx="17.24" cy="10.71" r="0.22"/><circle class="cls-4" cx="15.75" cy="9.22" r="0.22"/><circle class="cls-4" cx="15.75" cy="7.74" r="0.22"/><circle class="cls-4" cx="15.75" cy="10.71" r="0.22"/><circle class="cls-4" cx="21.7" cy="9.22" r="0.22"/><circle class="cls-4" cx="21.7" cy="7.74" r="0.22"/><circle class="cls-4" cx="20.22" cy="9.22" r="0.22"/><circle class="cls-4" cx="20.22" cy="7.74" r="0.22"/><circle class="cls-4" cx="20.96" cy="8.48" r="0.22"/><circle class="cls-4" cx="20.96" cy="9.97" r="0.22"/><circle class="cls-4" cx="19.47" cy="8.48" r="0.22"/><circle class="cls-4" cx="19.47" cy="9.97" r="0.22"/><circle class="cls-4" cx="21.7" cy="10.71" r="0.22"/><circle class="cls-4" cx="20.22" cy="10.71" r="0.22"/><circle class="cls-4" cx="18.73" cy="9.22" r="0.22"/><circle class="cls-4" cx="18.73" cy="7.74" r="0.22"/><circle class="cls-4" cx="18.73" cy="10.71" r="0.22"/><circle class="cls-4" cx="24.68" cy="10.71" r="0.22"/><circle class="cls-4" cx="23.19" cy="10.71" r="0.22"/><circle class="cls-4" cx="21.7" cy="9.22" r="0.22"/><circle class="cls-4" cx="21.7" cy="7.74" r="0.22"/><circle class="cls-4" cx="21.7" cy="10.71" r="0.22"/><circle class="cls-4" cx="9.79" cy="12.2" r="0.22"/><circle class="cls-4" cx="9.79" cy="10.71" r="0.22"/><circle class="cls-4" cx="8.3" cy="12.2" r="0.22"/><circle class="cls-4" cx="8.3" cy="10.71" r="0.22"/><circle class="cls-4" cx="9.05" cy="11.46" r="0.22"/><circle class="cls-4" cx="9.05" cy="12.95" r="0.22"/><circle class="cls-4" cx="7.56" cy="11.46" r="0.22"/><circle class="cls-4" cx="7.56" cy="12.95" r="0.22"/><circle class="cls-4" cx="12.77" cy="12.2" r="0.22"/><circle class="cls-4" cx="12.77" cy="10.71" r="0.22"/><circle class="cls-4" cx="11.28" cy="12.2" r="0.22"/><circle class="cls-4" cx="11.28" cy="10.71" r="0.22"/><circle class="cls-4" cx="12.03" cy="11.46" r="0.22"/><circle class="cls-4" cx="12.03" cy="12.95" r="0.22"/><circle class="cls-4" cx="10.54" cy="11.46" r="0.22"/><circle class="cls-4" cx="10.54" cy="12.95" r="0.22"/><circle class="cls-4" cx="9.79" cy="12.2" r="0.22"/><circle class="cls-4" cx="9.79" cy="10.71" r="0.22"/><circle class="cls-4" cx="15.75" cy="12.2" r="0.22"/><circle class="cls-4" cx="15.75" cy="10.71" r="0.22"/><circle class="cls-4" cx="14.26" cy="12.2" r="0.22"/><circle class="cls-4" cx="14.26" cy="10.71" r="0.22"/><circle class="cls-4" cx="15" cy="11.46" r="0.22"/><circle class="cls-4" cx="15" cy="12.95" r="0.22"/><circle class="cls-4" cx="13.52" cy="11.46" r="0.22"/><circle class="cls-4" cx="13.52" cy="12.95" r="0.22"/><circle class="cls-4" cx="12.77" cy="12.2" r="0.22"/><circle class="cls-4" cx="12.77" cy="10.71" r="0.22"/><circle class="cls-4" cx="18.73" cy="12.2" r="0.22"/><circle class="cls-4" cx="18.73" cy="10.71" r="0.22"/><circle class="cls-4" cx="17.24" cy="12.2" r="0.22"/><circle class="cls-4" cx="17.24" cy="10.71" r="0.22"/><circle class="cls-4" cx="17.98" cy="11.46" r="0.22"/><circle class="cls-4" cx="17.98" cy="12.95" r="0.22"/><circle class="cls-4" cx="16.49" cy="11.46" r="0.22"/><circle class="cls-4" cx="16.49" cy="12.95" r="0.22"/><circle class="cls-4" cx="15.75" cy="12.2" r="0.22"/><circle class="cls-4" cx="15.75" cy="10.71" r="0.22"/><circle class="cls-4" cx="21.7" cy="12.2" r="0.22"/><circle class="cls-4" cx="21.7" cy="10.71" r="0.22"/><circle class="cls-4" cx="20.22" cy="12.2" r="0.22"/><circle class="cls-4" cx="20.22" cy="10.71" r="0.22"/><circle class="cls-4" cx="20.96" cy="11.46" r="0.22"/><circle class="cls-4" cx="20.96" cy="12.95" r="0.22"/><circle class="cls-4" cx="19.47" cy="11.46" r="0.22"/><circle class="cls-4" cx="19.47" cy="12.95" r="0.22"/><circle class="cls-4" cx="18.73" cy="12.2" r="0.22"/><circle class="cls-4" cx="18.73" cy="10.71" r="0.22"/><circle class="cls-4" cx="24.68" cy="12.2" r="0.22"/><circle class="cls-4" cx="24.68" cy="10.71" r="0.22"/><circle class="cls-4" cx="23.19" cy="12.2" r="0.22"/><circle class="cls-4" cx="23.19" cy="10.71" r="0.22"/><circle class="cls-4" cx="23.94" cy="11.46" r="0.22"/><circle class="cls-4" cx="23.94" cy="12.95" r="0.22"/><circle class="cls-4" cx="22.45" cy="11.46" r="0.22"/><circle class="cls-4" cx="22.45" cy="12.95" r="0.22"/><circle class="cls-4" cx="21.7" cy="12.2" r="0.22"/><circle class="cls-4" cx="21.7" cy="10.71" r="0.22"/><circle class="cls-4" cx="27.66" cy="12.2" r="0.22"/><circle class="cls-4" cx="27.66" cy="10.71" r="0.22"/><circle class="cls-4" cx="26.17" cy="12.2" r="0.22"/><circle class="cls-4" cx="26.17" cy="10.71" r="0.22"/><circle class="cls-4" cx="26.92" cy="11.46" r="0.22"/><circle class="cls-4" cx="26.92" cy="12.95" r="0.22"/><circle class="cls-4" cx="25.43" cy="11.46" r="0.22"/><circle class="cls-4" cx="25.43" cy="12.95" r="0.22"/><circle class="cls-4" cx="24.68" cy="12.2" r="0.22"/><circle class="cls-4" cx="24.68" cy="10.71" r="0.22"/></g><rect class="cls-2" x="13.01" y="13.18" width="13.99" height="1.32"/><polygon class="cls-2" points="13.01 14.5 1 8.82 1 7.5 13.01 13.18 13.01 14.5"/><polygon class="cls-2" points="27 9.18 13.01 9.18 1 3.5 14.99 3.5 27 9.18"/><g class="cls-5"><circle class="cls-4" cx="3.84" cy="3.74" r="0.22"/><circle class="cls-4" cx="2.35" cy="3.74" r="0.22"/><circle class="cls-4" cx="6.82" cy="3.74" r="0.22"/><circle class="cls-4" cx="5.33" cy="3.74" r="0.22"/><circle class="cls-4" cx="3.84" cy="3.74" r="0.22"/><circle class="cls-4" cx="9.79" cy="3.74" r="0.22"/><circle class="cls-4" cx="8.3" cy="3.74" r="0.22"/><circle class="cls-4" cx="6.82" cy="3.74" r="0.22"/><circle class="cls-4" cx="12.77" cy="3.74" r="0.22"/><circle class="cls-4" cx="11.28" cy="3.74" r="0.22"/><circle class="cls-4" cx="9.79" cy="3.74" r="0.22"/><circle class="cls-4" cx="15.75" cy="3.74" r="0.22"/><circle class="cls-4" cx="14.26" cy="3.74" r="0.22"/><circle class="cls-4" cx="12.77" cy="3.74" r="0.22"/><circle class="cls-4" cx="18.73" cy="3.74" r="0.22"/><circle class="cls-4" cx="17.24" cy="3.74" r="0.22"/><circle class="cls-4" cx="15.75" cy="3.74" r="0.22"/><circle class="cls-4" cx="3.84" cy="5.22" r="0.22"/><circle class="cls-4" cx="3.84" cy="3.74" r="0.22"/><circle class="cls-4" cx="2.35" cy="5.22" r="0.22"/><circle class="cls-4" cx="2.35" cy="3.74" r="0.22"/><circle class="cls-4" cx="3.09" cy="4.48" r="0.22"/><circle class="cls-4" cx="3.09" cy="5.97" r="0.22"/><circle class="cls-4" cx="1.6" cy="4.48" r="0.22"/><circle class="cls-4" cx="1.6" cy="5.97" r="0.22"/><circle class="cls-4" cx="6.82" cy="5.22" r="0.22"/><circle class="cls-4" cx="6.82" cy="3.74" r="0.22"/><circle class="cls-4" cx="5.33" cy="5.22" r="0.22"/><circle class="cls-4" cx="5.33" cy="3.74" r="0.22"/><circle class="cls-4" cx="6.07" cy="4.48" r="0.22"/><circle class="cls-4" cx="6.07" cy="5.97" r="0.22"/><circle class="cls-4" cx="4.58" cy="4.48" r="0.22"/><circle class="cls-4" cx="4.58" cy="5.97" r="0.22"/><circle class="cls-4" cx="3.84" cy="5.22" r="0.22"/><circle class="cls-4" cx="3.84" cy="3.74" r="0.22"/><circle class="cls-4" cx="9.79" cy="5.22" r="0.22"/><circle class="cls-4" cx="9.79" cy="3.74" r="0.22"/><circle class="cls-4" cx="8.3" cy="5.22" r="0.22"/><circle class="cls-4" cx="8.3" cy="3.74" r="0.22"/><circle class="cls-4" cx="9.05" cy="4.48" r="0.22"/><circle class="cls-4" cx="9.05" cy="5.97" r="0.22"/><circle class="cls-4" cx="7.56" cy="4.48" r="0.22"/><circle class="cls-4" cx="7.56" cy="5.97" r="0.22"/><circle class="cls-4" cx="9.79" cy="6.71" r="0.22"/><circle class="cls-4" cx="8.3" cy="6.71" r="0.22"/><circle class="cls-4" cx="6.82" cy="5.22" r="0.22"/><circle class="cls-4" cx="6.82" cy="3.74" r="0.22"/><circle class="cls-4" cx="12.77" cy="5.22" r="0.22"/><circle class="cls-4" cx="12.77" cy="3.74" r="0.22"/><circle class="cls-4" cx="11.28" cy="5.22" r="0.22"/><circle class="cls-4" cx="11.28" cy="3.74" r="0.22"/><circle class="cls-4" cx="12.03" cy="4.48" r="0.22"/><circle class="cls-4" cx="12.03" cy="5.97" r="0.22"/><circle class="cls-4" cx="10.54" cy="4.48" r="0.22"/><circle class="cls-4" cx="10.54" cy="5.97" r="0.22"/><circle class="cls-4" cx="12.77" cy="6.71" r="0.22"/><circle class="cls-4" cx="11.28" cy="6.71" r="0.22"/><circle class="cls-4" cx="9.79" cy="5.22" r="0.22"/><circle class="cls-4" cx="9.79" cy="3.74" r="0.22"/><circle class="cls-4" cx="9.79" cy="6.71" r="0.22"/><circle class="cls-4" cx="15.75" cy="5.22" r="0.22"/><circle class="cls-4" cx="15.75" cy="3.74" r="0.22"/><circle class="cls-4" cx="14.26" cy="5.22" r="0.22"/><circle class="cls-4" cx="14.26" cy="3.74" r="0.22"/><circle class="cls-4" cx="15" cy="4.48" r="0.22"/><circle class="cls-4" cx="15" cy="5.97" r="0.22"/><circle class="cls-4" cx="13.52" cy="4.48" r="0.22"/><circle class="cls-4" cx="13.52" cy="5.97" r="0.22"/><circle class="cls-4" cx="15.75" cy="6.71" r="0.22"/><circle class="cls-4" cx="14.26" cy="6.71" r="0.22"/><circle class="cls-4" cx="12.77" cy="5.22" r="0.22"/><circle class="cls-4" cx="12.77" cy="3.74" r="0.22"/><circle class="cls-4" cx="12.77" cy="6.71" r="0.22"/><circle class="cls-4" cx="18.73" cy="5.22" r="0.22"/><circle class="cls-4" cx="18.73" cy="3.74" r="0.22"/><circle class="cls-4" cx="17.24" cy="5.22" r="0.22"/><circle class="cls-4" cx="17.24" cy="3.74" r="0.22"/><circle class="cls-4" cx="17.98" cy="4.48" r="0.22"/><circle class="cls-4" cx="17.98" cy="5.97" r="0.22"/><circle class="cls-4" cx="16.49" cy="4.48" r="0.22"/><circle class="cls-4" cx="16.49" cy="5.97" r="0.22"/><circle class="cls-4" cx="18.73" cy="6.71" r="0.22"/><circle class="cls-4" cx="17.24" cy="6.71" r="0.22"/><circle class="cls-4" cx="15.75" cy="5.22" r="0.22"/><circle class="cls-4" cx="15.75" cy="3.74" r="0.22"/><circle class="cls-4" cx="15.75" cy="6.71" r="0.22"/><circle class="cls-4" cx="21.7" cy="5.22" r="0.22"/><circle class="cls-4" cx="21.7" cy="3.74" r="0.22"/><circle class="cls-4" cx="20.22" cy="5.22" r="0.22"/><circle class="cls-4" cx="20.22" cy="3.74" r="0.22"/><circle class="cls-4" cx="20.96" cy="4.48" r="0.22"/><circle class="cls-4" cx="20.96" cy="5.97" r="0.22"/><circle class="cls-4" cx="19.47" cy="4.48" r="0.22"/><circle class="cls-4" cx="19.47" cy="5.97" r="0.22"/><circle class="cls-4" cx="21.7" cy="6.71" r="0.22"/><circle class="cls-4" cx="20.22" cy="6.71" r="0.22"/><circle class="cls-4" cx="18.73" cy="5.22" r="0.22"/><circle class="cls-4" cx="18.73" cy="3.74" r="0.22"/><circle class="cls-4" cx="18.73" cy="6.71" r="0.22"/><circle class="cls-4" cx="24.68" cy="6.71" r="0.22"/><circle class="cls-4" cx="23.19" cy="6.71" r="0.22"/><circle class="cls-4" cx="21.7" cy="5.22" r="0.22"/><circle class="cls-4" cx="21.7" cy="3.74" r="0.22"/><circle class="cls-4" cx="21.7" cy="6.71" r="0.22"/><circle class="cls-4" cx="9.79" cy="8.2" r="0.22"/><circle class="cls-4" cx="9.79" cy="6.71" r="0.22"/><circle class="cls-4" cx="8.3" cy="8.2" r="0.22"/><circle class="cls-4" cx="8.3" cy="6.71" r="0.22"/><circle class="cls-4" cx="9.05" cy="7.46" r="0.22"/><circle class="cls-4" cx="9.05" cy="8.95" r="0.22"/><circle class="cls-4" cx="7.56" cy="7.46" r="0.22"/><circle class="cls-4" cx="7.56" cy="8.95" r="0.22"/><circle class="cls-4" cx="12.77" cy="8.2" r="0.22"/><circle class="cls-4" cx="12.77" cy="6.71" r="0.22"/><circle class="cls-4" cx="11.28" cy="8.2" r="0.22"/><circle class="cls-4" cx="11.28" cy="6.71" r="0.22"/><circle class="cls-4" cx="12.03" cy="7.46" r="0.22"/><circle class="cls-4" cx="12.03" cy="8.95" r="0.22"/><circle class="cls-4" cx="10.54" cy="7.46" r="0.22"/><circle class="cls-4" cx="10.54" cy="8.95" r="0.22"/><circle class="cls-4" cx="9.79" cy="8.2" r="0.22"/><circle class="cls-4" cx="9.79" cy="6.71" r="0.22"/><circle class="cls-4" cx="15.75" cy="8.2" r="0.22"/><circle class="cls-4" cx="15.75" cy="6.71" r="0.22"/><circle class="cls-4" cx="14.26" cy="8.2" r="0.22"/><circle class="cls-4" cx="14.26" cy="6.71" r="0.22"/><circle class="cls-4" cx="15" cy="7.46" r="0.22"/><circle class="cls-4" cx="15" cy="8.95" r="0.22"/><circle class="cls-4" cx="13.52" cy="7.46" r="0.22"/><circle class="cls-4" cx="13.52" cy="8.95" r="0.22"/><circle class="cls-4" cx="12.77" cy="8.2" r="0.22"/><circle class="cls-4" cx="12.77" cy="6.71" r="0.22"/><circle class="cls-4" cx="18.73" cy="8.2" r="0.22"/><circle class="cls-4" cx="18.73" cy="6.71" r="0.22"/><circle class="cls-4" cx="17.24" cy="8.2" r="0.22"/><circle class="cls-4" cx="17.24" cy="6.71" r="0.22"/><circle class="cls-4" cx="17.98" cy="7.46" r="0.22"/><circle class="cls-4" cx="17.98" cy="8.95" r="0.22"/><circle class="cls-4" cx="16.49" cy="7.46" r="0.22"/><circle class="cls-4" cx="16.49" cy="8.95" r="0.22"/><circle class="cls-4" cx="15.75" cy="8.2" r="0.22"/><circle class="cls-4" cx="15.75" cy="6.71" r="0.22"/><circle class="cls-4" cx="21.7" cy="8.2" r="0.22"/><circle class="cls-4" cx="21.7" cy="6.71" r="0.22"/><circle class="cls-4" cx="20.22" cy="8.2" r="0.22"/><circle class="cls-4" cx="20.22" cy="6.71" r="0.22"/><circle class="cls-4" cx="20.96" cy="7.46" r="0.22"/><circle class="cls-4" cx="20.96" cy="8.95" r="0.22"/><circle class="cls-4" cx="19.47" cy="7.46" r="0.22"/><circle class="cls-4" cx="19.47" cy="8.95" r="0.22"/><circle class="cls-4" cx="18.73" cy="8.2" r="0.22"/><circle class="cls-4" cx="18.73" cy="6.71" r="0.22"/><circle class="cls-4" cx="24.68" cy="8.2" r="0.22"/><circle class="cls-4" cx="24.68" cy="6.71" r="0.22"/><circle class="cls-4" cx="23.19" cy="8.2" r="0.22"/><circle class="cls-4" cx="23.19" cy="6.71" r="0.22"/><circle class="cls-4" cx="23.94" cy="7.46" r="0.22"/><circle class="cls-4" cx="23.94" cy="8.95" r="0.22"/><circle class="cls-4" cx="22.45" cy="7.46" r="0.22"/><circle class="cls-4" cx="22.45" cy="8.95" r="0.22"/><circle class="cls-4" cx="21.7" cy="8.2" r="0.22"/><circle class="cls-4" cx="21.7" cy="6.71" r="0.22"/><circle class="cls-4" cx="27.66" cy="8.2" r="0.22"/><circle class="cls-4" cx="27.66" cy="6.71" r="0.22"/><circle class="cls-4" cx="26.17" cy="8.2" r="0.22"/><circle class="cls-4" cx="26.17" cy="6.71" r="0.22"/><circle class="cls-4" cx="26.92" cy="7.46" r="0.22"/><circle class="cls-4" cx="26.92" cy="8.95" r="0.22"/><circle class="cls-4" cx="25.43" cy="7.46" r="0.22"/><circle class="cls-4" cx="25.43" cy="8.95" r="0.22"/><circle class="cls-4" cx="24.68" cy="8.2" r="0.22"/><circle class="cls-4" cx="24.68" cy="6.71" r="0.22"/></g><rect class="cls-2" x="13.01" y="9.18" width="13.99" height="1.32"/><polygon class="cls-2" points="13.01 10.5 1 4.82 1 3.5 13.01 9.18 13.01 10.5"/></svg>