<svg id="Layer_1" data-name="Layer 1" xmlns="http://www.w3.org/2000/svg" xmlns:xlink="http://www.w3.org/1999/xlink" viewBox="0 0 28 18"><defs><style>.cls-1{fill:none;}.cls-2{fill:#c6c6c5;}.cls-2,.cls-8{stroke:#3c3c3b;stroke-linecap:round;stroke-linejoin:round;stroke-width:0.7px;}.cls-3{clip-path:url(#clip-path);}.cls-4{clip-path:url(#clip-path-2);}.cls-5{fill:#1d1d1b;}.cls-6{clip-path:url(#clip-path-3);}.cls-7{clip-path:url(#clip-path-4);}.cls-8{fill:#fff;}.cls-9{clip-path:url(#clip-path-5);}.cls-10{fill:#3c3c3b;}</style><clipPath id="clip-path"><polygon class="cls-1" points="13.11 13.33 25.73 13.33 14.89 8.2 2.27 8.2 13.11 13.33"/></clipPath><clipPath id="clip-path-2"><rect class="cls-1" x="18.7" y="6.14" width="9.01" height="9.01"/></clipPath><clipPath id="clip-path-3"><rect class="cls-1" x="9.69" y="6.14" width="9.01" height="9.01"/></clipPath><clipPath id="clip-path-4"><rect class="cls-1" x="0.69" y="6.14" width="9.01" height="9.01"/></clipPath><clipPath id="clip-path-5"><polygon class="cls-1" points="27 10.08 13.01 10.08 1 4.39 14.99 4.39 27 10.08"/></clipPath></defs><polygon class="cls-2" points="13.01 13.61 27 13.61 14.99 7.92 1 7.92 13.01 13.61"/><g class="cls-3"><g class="cls-4"><path class="cls-5" d="M22.46,15.39c-.12.09-.22.79-.34.88s-.13.11-.13.16,0,.07,0,.15-.12.39-.35.34c-.06,0-.12-.17.23-.36,0,0,0-.15,0-.22.33-.88.64-1.6.74-1.38Z"/><path class="cls-5" d="M23.42,15.56c0-.08-.07-.13-.07-.21l-.55.12c-.15-.17.19-.23.42-.35a3.81,3.81,0,0,1,.45-.23C23.64,15.07,23.48,15.34,23.42,15.56Z"/><path class="cls-5" d="M26.83,16a.18.18,0,0,1-.13.24c-.14,0-.33.06-.33.14a.58.58,0,0,1-.42.5,2.47,2.47,0,0,1,.86-.9c.05,0,0-.16,0-.22.11-.22.44,0,.47-.39,0,0-.06-.08-.11-.12.35.1.31-.35.63-.37v.25c-.15,0-.26.06-.38.12C27.07,15.43,27.47,15.91,26.83,16Z"/><path class="cls-5" d="M19.35,16.24c-.05-.32.45-1,.6-1.25.08.08.05.21,0,.28-.06.33-.44.55-.44,1-.09.15-.08.26-.35.24Z"/><path class="cls-5" d="M20.61,15.37a.58.58,0,0,0-.13-.38.17.17,0,0,1,.23.13A.66.66,0,0,1,20.61,15.37Z"/><path class="cls-5" d="M19.07,15.33c-.3,0,0-.26-.12-.37C19.31,15,18.85,15.27,19.07,15.33Z"/><path class="cls-5" d="M21,15.51c.27-.2.37-.82.69-.95-.26.2-.28.82-.48,1-.39.41-.93.63-1.22,1.15-.1.19.12.45-.14.62a1.21,1.21,0,0,1,.28-1.1C20.43,16,20.63,15.76,21,15.51Z"/><path class="cls-5" d="M24.79,15.44c-.08.08-.2,0-.22-.11s-.21-.44,0-.5a.64.64,0,0,0,.5.12C24.62,15,24.9,15.31,24.79,15.44Z"/><path class="cls-5" d="M26,15.56s.13,0,.17-.08c-.17-.1,0-.36-.2-.4s-.17.08-.28.06C25.81,15.33,25.93,15.37,26,15.56Z"/><path class="cls-5" d="M17.82,16a.18.18,0,0,1-.12.24c-.15,0-.34.06-.34.14a.57.57,0,0,1-.41.5,2.39,2.39,0,0,1,.86-.9s0-.16,0-.22c.11-.22.45,0,.48-.39,0,0-.07-.08-.11-.12.35.1.31-.35.62-.37v.25c-.14,0-.25.06-.37.12C18.06,15.43,18.46,15.91,17.82,16Z"/><path class="cls-5" d="M27.58,13.34c.14-.05.29.12.36.08.36-.17.32-.59.78-.23,0,0,.1-.07.09-.1s-.15-.24-.1-.38.14-.12.24-.15c.31-.1-.08-.42.36-.64.05,0,.06-.23,0-.33s-.39-.13-.61-.13a.6.6,0,0,0,.5-.25l-.12.25.5.25c-.08,0-.2.06-.23.13s0,.35,0,.48-.18,0-.21,0c-.21.23-.1.66-.31.8s-1,.16-1.17.7c0,.09.19.21.33.22s.31-.12.38-.36a.33.33,0,0,0,.13.35c.25.09.23-.41.49-.33a.24.24,0,0,1,.11.22c0,.07-.15.12-.23.12s-.1-.1-.12-.09c-.25.11-.6.07-.74.36a.48.48,0,0,0,0,.24c-.13,0-.35.05-.34-.12s.16-.33.08-.49-.15-.09-.24-.14Z"/><path class="cls-5" d="M27.83,11.83c-.27,0-.12-.15-.13-.25Z"/><path class="cls-5" d="M27.77,7.7c0,.41,0,.28-.44.41.08,0,.33-.16.35-.22s0-.19.05-.31-.24-.12-.13-.29,0-.63.36-.76c.07,0,0,.08.12.08C28.08,7,27.78,7.34,27.77,7.7Z"/><path class="cls-5" d="M27.45,12.36c.09-.24.31-.22.5-.25C27.83,12.29,27.64,12.31,27.45,12.36Z"/><path class="cls-5" d="M19.64,11h-.13a.79.79,0,0,1,.25-.37c0,.08.13.18.11.24S19.72,11,19.64,11Z"/><path class="cls-5" d="M22.46,6.39c-.12.08-.22.78-.34.87s-.13.12-.13.16,0,.07,0,.16-.12.38-.35.33c-.06,0-.12-.16.23-.35,0,0,0-.16,0-.23.33-.88.64-1.6.74-1.38Z"/><path class="cls-5" d="M21.08,7.81c-.12,0-.29-.18-.27-.22.15-.39.3-.56.46-.56s-.2.24-.28.41.32.41.25.52S21.16,7.9,21.08,7.81Z"/><path class="cls-5" d="M20.7,8c-.1.32-.07.35-.5.5.13,0,.09,0,.12-.38C20.33,8.06,20.62,8,20.7,8Z"/><path class="cls-5" d="M20.32,9.49c0,.08-.07.22-.12.22-.34,0-.4.29-.5.53.22.06.37.28.62.25-.11.06-.24.19-.36.1s0-.19,0-.2c-.48-.17-.36-.53-.1-.76,0,0,.17.11.22.08.21-.11-.08-.75.14-.6s.28.24.47,0c.08-.11,0-.31,0-.48s.34,0,.35.13C21.06,9.17,20.47,9.1,20.32,9.49Z"/><path class="cls-5" d="M21.82,9.11c0,.05-.08.11-.12.11s-.08-.07-.13-.11S21.79,9,21.8,9a.54.54,0,0,0-.35-.62C22,8.21,22.1,8.77,21.82,9.11Z"/><path class="cls-5" d="M22.35,9.36c.06-.65-.09-1,.6-.75.16.22-.3,0-.35.14s.28.17.26.24-.35.06-.39.13,0,.25.11.37C22.49,9.45,22.35,9.4,22.35,9.36Z"/><path class="cls-5" d="M23.07,9.47S23,9.4,23,9.36c.13-.07.22-.35.35-.22S23.2,9.52,23.07,9.47Z"/><path class="cls-5" d="M21.28,10.6c-.07.08-.19,0-.22-.11s-.2-.44,0-.5a.64.64,0,0,0,.5.13C21.12,10.11,21.4,10.47,21.28,10.6Z"/><path class="cls-5" d="M23.87,8.83c.46-.06.51-.46.76-.7.05-.05.17,0,.23,0A.48.48,0,0,0,25,7.61c.22.28.44-.1.6,0s.25.66.65.84c-.06.31-.34.49-.5.75.14-.44.48-.91-.12-1.13,0,0,.11-.08.11-.12a.28.28,0,0,0-.12-.24.37.37,0,0,0-.47.12c-.16.3-.26.32-.49.53s0,.4-.16.59c0-.05-.1-.14-.12-.11-.16.29-.38.26-.44.08Z"/><path class="cls-5" d="M23.77,8.2h0s-.21.06-.21.11c0,.27-.06.55-.4.5a3.26,3.26,0,0,0,.73-1.26c.08-.15-.44-.52-.23-.65l.37.16c.11-.12.24-.19.51,0-.18,0-.39,0-.49.13s0,.43,0,.74c0,.05-.18.07-.21.14A.5.5,0,0,0,23.77,8.2Z"/><path class="cls-5" d="M23.42,6.56c0-.08-.07-.13-.07-.21l-.55.11c-.15-.17.19-.23.42-.34a3.88,3.88,0,0,1,.45-.24C23.64,6.07,23.48,6.34,23.42,6.56Z"/><path class="cls-5" d="M25.08,13c.08-.18.24-.12.37-.13C25.36,13,25.23,13,25.08,13Z"/><path class="cls-5" d="M26.63,6.49c-.07.71-.09,0-.14,0,.12,0,.3,0,.25-.25A.8.8,0,0,0,26.63,6.49Z"/><path class="cls-5" d="M26.83,7a.17.17,0,0,1-.13.23c-.14,0-.33.07-.33.14a.56.56,0,0,1-.42.5A2.52,2.52,0,0,1,26.81,7c.05,0,0-.16,0-.23.11-.22.44,0,.47-.38,0,0-.06-.08-.11-.12.35.1.31-.36.63-.38v.25c-.15,0-.26.06-.38.12C27.07,6.42,27.47,6.91,26.83,7Z"/><path class="cls-5" d="M27.19,8c0,.16-.09.33-.24.36s-.25.18-.37-.23c.39.13.5-.2.62-.5A1.51,1.51,0,0,1,27.19,8Z"/><path class="cls-5" d="M26.59,9.24a.68.68,0,0,0,0,.25.4.4,0,0,1-.1-.48c.05-.06.22,0,.35,0A.94.94,0,0,0,26.59,9.24Z"/><path class="cls-5" d="M24.49,9.86c0-.08.05-.21,0-.23s-.31-.05-.48-.07c.05,0,.09-.09.14-.1s.29.15.34.12a7.53,7.53,0,0,0,1-1.06c0,.05-.16.44-.17.45C25,9.34,24.78,9.5,24.49,9.86Z"/><path class="cls-5" d="M25.17,10.18c-.11-.07-.33-.06-.23-.24.22-.36.69-.37,1-.64.07.35.53.27.74.51,0,0,0,.16,0,.24s0,.29.24.25l-.12.13c-.23-.33-.27,0-.5,0,.08,0,.21-.07.22-.14a.55.55,0,0,0-.1-.61c-.07-.06-.19-.13-.24-.11a.43.43,0,0,0-.13.48c-.21-.19-.3-.63-.61-.46a1.81,1.81,0,0,0-.36.37c-.18.22.41.15.34.47A1.48,1.48,0,0,0,25.17,10.18Z"/><path class="cls-5" d="M24,10.23s.17-.05.21,0,.3.19.33.31c.07,0,.19-.11.19-.17s-.41-.19-.64-.27a.36.36,0,0,1-.21-.33A1.35,1.35,0,0,0,24,10.23Z"/><path class="cls-5" d="M23.44,10.16c.08.27-.15.18-.24,0s-.15-.63.25-.65c0,0,.08.07.13.11S23.15,9.23,23.44,10.16Z"/><path class="cls-5" d="M19.35,7.24c-.05-.33.45-1,.6-1.26a.34.34,0,0,1,0,.29c-.06.33-.44.54-.44,1-.09.16-.08.26-.35.25Z"/><path class="cls-5" d="M18.91,8.54c.38-.21,0-.23.44-.43.22.06.27.33.29.56,0,.06-.07.23-.07.32l-.12-.25c0-.09-.08-.3-.11-.31A.64.64,0,0,0,18.91,8.54Z"/><path class="cls-5" d="M21.55,6.54V6.29c.12.06.23.15.38.12Z"/><path class="cls-5" d="M19.34,9.71c.08.27-.14.18-.24,0s-.15-.63.26-.64c0,0,.08.06.12.11S19.05,8.78,19.34,9.71Z"/><path class="cls-5" d="M18.58,13.34c.14-.05.28.12.35.08.36-.17.33-.59.78-.23,0,0,.1-.07.1-.1s-.15-.24-.1-.38.13-.12.23-.15c.31-.1-.08-.42.37-.64.05,0,.05-.23,0-.33s-.39-.13-.6-.13a.62.62,0,0,0,.5-.25l-.13.25c.17.08.34.16.5.25-.08,0-.2.06-.23.13s0,.35,0,.48-.17,0-.21,0c-.2.23-.1.66-.3.8s-1,.16-1.18.7c0,.09.19.21.34.22s.31-.12.37-.36a.34.34,0,0,0,.14.35c.24.09.23-.41.48-.33a.22.22,0,0,1,.11.22c0,.07-.14.12-.23.12s-.09-.1-.11-.09c-.26.11-.6.07-.75.36a.64.64,0,0,0,0,.24c-.14,0-.36.05-.35-.12s.17-.33.08-.49-.15-.09-.23-.14Z"/><path class="cls-5" d="M20.4,14.58c.06,0,.09-.14.13-.23l.25.13c.22-.54.6-1.24,1.25-1.25v.25a.33.33,0,0,0-.35.14c-.12.19.26.31,0,.61,0-.22.07-.52-.14-.58s-.41.31-.36.58c-.09,0-.21,0-.23,0-.15.33-.55.4-.65.74-.2-.23-.56-.27-.62-.63C20,14.27,20.13,14.68,20.4,14.58Z"/><path class="cls-5" d="M18.82,11.83c-.26,0-.11-.15-.12-.25Z"/><path class="cls-5" d="M19.47,11.82a.44.44,0,0,1,.1.39c-.08,0-.22-.09-.22-.13,0-.27-.25-.47-.15-.75C19.37,11.45,19.36,11.67,19.47,11.82Z"/><path class="cls-5" d="M18.82,11.08c0-.28.19,0,.25-.12Z"/><path class="cls-5" d="M21.09,11.33c0,.43.3.66.61.88a.56.56,0,0,0-.38-.24s-.08.1-.12.1S21,12,21,12c0-.24-.13-.49.07-.76,0,0-.06-.15-.1-.23l-.25.12c-.08-.17-.17-.33-.25-.5.38.05.43.5.75.63C21.16,11.25,21.09,11.29,21.09,11.33Z"/><path class="cls-5" d="M21.89,11.91c.21,0,.21-.16.21-.27s-.08-.17.2-.43c.05-.05.06-.23.12-.36l.13.12c-.08,0-.19.08-.22.15s.06.28,0,.35-.3.18-.3.43c0,0,.11.09.1.1a.93.93,0,0,0-.05.52C21.82,12.38,21.91,12.13,21.89,11.91Z"/><path class="cls-5" d="M23.11,11.44c-.21.26-.48,0-.63.32.22-.08.09.06.49.13,0-.09,0-.24,0-.25.4-.24.19-.75.51-1.07l-.18,0a1.54,1.54,0,0,1-.15.51C22.85,11.23,23.29,11.22,23.11,11.44Z"/><path class="cls-5" d="M22.22,12.93c-.3-.25-.29.06-.52,0a2,2,0,0,1,.13-.25c.21.27.42-.1.59,0S22.26,13,22.22,12.93Z"/><path class="cls-5" d="M22.47,13.6s-.17.06-.2.13c-.18.36-.06.46.12.74a.18.18,0,0,1-.24-.13c0-.21.1-.19-.12-.4-.06-.06.23-.23.28-.37s.32-.35.46-.58c.05-.08.22,0,.2.1C22.93,13.37,22.5,13,22.47,13.6Z"/><path class="cls-5" d="M22.54,7.48c-.07-.05.05-.16.15-.2.11.25.53.07.54.36,0,.1-.16.19-.16.34C22.82,7.81,22.79,7.65,22.54,7.48Z"/><path class="cls-5" d="M23.58,12.9c.12.27-.21.17-.26.3C23.15,12.88,23.64,13.12,23.58,12.9Z"/><path class="cls-5" d="M23.88,13l.25.12c.05-.09.13-.19.1-.24-.16-.36.06-.73.16-1.07a.27.27,0,0,0,.37-.13,3.88,3.88,0,0,0,.5-1.12c-.09,0-.23,0-.24.06-.16.54-.6,1.36-1.19,1.49a.2.2,0,0,0,0,.16c0,.14.24.14.29.24S24,12.88,23.88,13Z"/><path class="cls-5" d="M23.6,11.46c0,.08-.05.18,0,.27.14-.36.15-.77.54-1-.15-.12-.26,0-.38.08C24,11.06,23.52,11.15,23.6,11.46Z"/><path class="cls-5" d="M24.34,14c-.1.2.24.49.35.46S25,14.29,25,14c.51,0,1.14.54.72,1-.09.09-.31,0-.47-.1a.45.45,0,0,0,.35-.61.36.36,0,0,0-.35-.14c-.34,0-.19.33-.38.5a.35.35,0,0,1-.24.11c-.15,0-.26-.15-.39-.21a.25.25,0,0,0-.11.48.19.19,0,0,1-.23-.24c.06-.23.48-.2.46-.51s-.11-.31-.36-.38c.55.12.42-.49.81-.62s.13.13.11.23S24.45,13.75,24.34,14Z"/><path class="cls-5" d="M25.16,12.42a1.92,1.92,0,0,0-.25.12c.2-.14,0-.35.36-.53.08,0,.05-.26-.11-.34l.13-.13a2.19,2.19,0,0,0,.12.88A1,1,0,0,0,25.16,12.42Z"/><path class="cls-5" d="M26.06,11.87a.62.62,0,0,1-.11.25L25.84,12A.93.93,0,0,0,26,11.5,1.3,1.3,0,0,1,26.06,11.87Z"/><path class="cls-5" d="M25.89,10.92c-.21.06-.23-.14-.23-.24s.14-.19.22-.12,0,.29.39.24C26.14,10.84,26,10.89,25.89,10.92Z"/><path class="cls-5" d="M26.56,11c-.12.13-.18.49-.34.33S26.41,11.1,26.56,11Z"/><path class="cls-5" d="M26.55,14.33c0,.15-.08.46-.34.35,0,0,0-.14,0-.22.22,0,.46-.05.47-.38,0,0-.18-.07-.19-.13s-.18-.24.22-.37C26.53,13.81,26.61,14.08,26.55,14.33Z"/><path class="cls-5" d="M18.76,7.7c0,.41,0,.28-.44.41.09,0,.33-.16.35-.22s0-.19.06-.31-.25-.12-.14-.29,0-.63.36-.76c.07,0,0,.08.12.08C19.07,7,18.78,7.34,18.76,7.7Z"/><path class="cls-5" d="M26.79,11.84c.06-.65-.09-1,.6-.75.16.21-.3,0-.35.13s.28.18.26.24-.35.07-.39.13,0,.25.11.37C26.93,11.92,26.79,11.87,26.79,11.84Z"/><path class="cls-5" d="M26.52,12.58c-.22,0-.23.14-.24.26s.1.1.09.11c-.12.26-.4.09-.61.14.09,0,.21,0,.23,0,.16-.23.48-.59.15-.86.16.21.53.07.63.38Z"/><path class="cls-5" d="M25.92,13.75a2.75,2.75,0,0,1-.81,0,.53.53,0,0,1,.22-.12c.08,0,.08.12.14.1s.09-.2.14-.2c.26,0,.49-.13.75-.15-.05.08-.07.2-.14.23A.6.6,0,0,1,25.92,13.75Z"/><path class="cls-5" d="M27.08,13.15c0,.07-.16,0-.22-.12.22-.15,0-.54.25-.59.11,0,.23.12.37.09C27.36,12.81,27.21,12.86,27.08,13.15Z"/><path class="cls-5" d="M22.28,9.93c-.21,0-.22.14-.23.26s.1.09.09.11c-.12.26-.4.09-.61.14.09,0,.21,0,.23,0,.16-.23.48-.59.15-.86.16.21.52.07.62.38Z"/><path class="cls-5" d="M21.45,11.27c.09-.24.3-.23.5-.25A.8.8,0,0,1,21.45,11.27Z"/><path class="cls-5" d="M19.1,10.6s-.08-.07-.12-.11c.13-.07.22-.35.35-.22S19.23,10.64,19.1,10.6Z"/><path class="cls-5" d="M19.07,12.65c.08-.18.24-.12.38-.13C19.36,12.68,19.22,12.67,19.07,12.65Z"/><path class="cls-5" d="M23.26,12.58c-.08.08-.07.1-.12.12s-.26,0-.38-.12c.43.09.6-.25.5-.62.09,0,.23.08.23.12A1.08,1.08,0,0,1,23.26,12.58Z"/><path class="cls-5" d="M25.41,7.19c-.08.08-.07.1-.12.12s-.26,0-.38-.12c.43.09.6-.26.5-.62.09,0,.23.08.23.12A1.12,1.12,0,0,1,25.41,7.19Z"/><path class="cls-5" d="M21.32,12.77a.53.53,0,0,0-.12-.38.18.18,0,0,1,.23.13A.51.51,0,0,1,21.32,12.77Z"/><path class="cls-5" d="M20.61,6.36A.58.58,0,0,0,20.48,6a.18.18,0,0,1,.23.13A.6.6,0,0,1,20.61,6.36Z"/><path class="cls-5" d="M18.45,12.36c.08-.24.3-.22.5-.25C18.83,12.29,18.63,12.31,18.45,12.36Z"/><path class="cls-5" d="M19.07,6.33c-.3,0,0-.27-.12-.38C19.31,6,18.85,6.26,19.07,6.33Z"/><path class="cls-5" d="M27.8,9.86c0,.14-.29.18-.3.26,0,.31-.15.37-.3.62,0,0-.11-.09-.11-.13s.25-.26.3-.4c.14-.4.12-1,.21-1.19,0,0,.23-.21.29-.27Z"/><path class="cls-5" d="M21,6.51c.27-.21.37-.82.69-1-.26.19-.28.81-.48,1-.39.42-.93.64-1.22,1.15-.1.19.12.46-.14.62a1.19,1.19,0,0,1,.28-1.09C20.43,7,20.63,6.76,21,6.51Z"/><path class="cls-5" d="M24.37,6.35c-.12.13-.18.49-.34.33S24.22,6.46,24.37,6.35Z"/><path class="cls-5" d="M24.79,6.43c-.08.08-.2,0-.22-.11s-.21-.43,0-.5a.61.61,0,0,0,.5.13C24.62,5.94,24.9,6.3,24.79,6.43Z"/><path class="cls-5" d="M26,6.55s.13,0,.17-.08c-.17-.1,0-.36-.2-.39s-.17.08-.28.06C25.81,6.32,25.93,6.36,26,6.55Z"/><path class="cls-5" d="M22.16,8.31c.08-.25.3-.23.5-.25A.8.8,0,0,1,22.16,8.31Z"/><path class="cls-5" d="M27.2,8.77c.08-.18.24-.12.38-.13C27.49,8.8,27.35,8.79,27.2,8.77Z"/><path class="cls-5" d="M28,14.58c-.13,0-.35.05-.34-.12s.16-.33.08-.49-.15-.09-.24-.14c-.13.38-.55.56-.63,1,0,.13-.09.35-.21.23s.18-.16.18-.23a1.86,1.86,0,0,1,.63-1.15c.07-.07,0-.28.16-.34s.29.12.36.08v.06a.61.61,0,0,0-.31.37c0,.09.19.21.33.22Z"/><path class="cls-5" d="M23.16,7.23A.58.58,0,0,0,23,6.85c.13,0,.23,0,.24.13S23.2,7.14,23.16,7.23Z"/><path class="cls-5" d="M22.74,10c.28,0,0,.19.09.27Z"/><path class="cls-5" d="M27.08,9.77A.58.58,0,0,0,27,9.39a.19.19,0,0,1,.24.13C27.19,9.61,27.12,9.68,27.08,9.77Z"/><path class="cls-5" d="M26,7.39A.57.57,0,0,1,26.17,7a.18.18,0,0,0-.25.09A.63.63,0,0,0,26,7.39Z"/><path class="cls-5" d="M20.24,6.63c.13.27-.2.17-.25.3C19.81,6.61,20.3,6.85,20.24,6.63Z"/><path class="cls-5" d="M24.62,7.64c-.27,0-.12-.15-.13-.25Z"/><path class="cls-5" d="M23,14.54c.21-.06.15-.22.11-.33s-.13-.05-.13-.07c0-.29.33-.24.51-.36-.08,0-.2.05-.21.1-.05.27-.2.73.21.85-.23-.13-.51.15-.72-.1A1.57,1.57,0,0,1,23,14.54Z"/><path class="cls-5" d="M20.57,10.23c-.26,0-.11-.15-.12-.25Z"/><path class="cls-5" d="M21,9.31c.08-.18.24-.12.37-.13C21.24,9.34,21.1,9.34,21,9.31Z"/><path class="cls-5" d="M24.54,11.23c-.27,0-.12-.15-.13-.25Z"/><path class="cls-5" d="M23.78,13.65a.33.33,0,0,0-.1-.26.15.15,0,0,1,.19.09C23.87,13.54,23.82,13.59,23.78,13.65Z"/><path class="cls-5" d="M22.88,13.69c-.08.72-.1,0-.14,0,.12,0,.29,0,.25-.25A.8.8,0,0,0,22.88,13.69Z"/><path class="cls-5" d="M20.3,12.69c.41-.13,0-.23.52-.33.2.11.2.38.16.61a2.85,2.85,0,0,0-.12.29,2.68,2.68,0,0,1-.07-.27c0-.09,0-.3,0-.31A.64.64,0,0,0,20.3,12.69Z"/><path class="cls-5" d="M20.42,13.77c.06.21.24.13.33.08s.1-.22,0-.25-.25.14-.4-.22C20.37,13.51,20.39,13.64,20.42,13.77Z"/><path class="cls-5" d="M17.82,7a.17.17,0,0,1-.12.23c-.15,0-.34.07-.34.14a.55.55,0,0,1-.41.5A2.44,2.44,0,0,1,17.81,7s0-.16,0-.23c.11-.22.45,0,.48-.38,0,0-.07-.08-.11-.12.35.1.31-.36.62-.38v.25c-.14,0-.25.06-.37.12C18.06,6.42,18.46,6.91,17.82,7Z"/><path class="cls-5" d="M18.8,9.86c0,.14-.3.18-.31.26,0,.31-.15.37-.29.62,0,0-.11-.09-.11-.13s.24-.26.29-.4c.15-.4.12-1,.21-1.19,0,0,.23-.21.3-.27Z"/><path class="cls-5" d="M19,14.58c-.14,0-.36.05-.35-.12s.17-.33.08-.49-.15-.09-.23-.14c-.14.38-.56.56-.64,1,0,.13-.08.35-.21.23s.18-.16.19-.23a1.82,1.82,0,0,1,.63-1.15c.06-.07,0-.28.16-.34s.28.12.35.08v.06a.64.64,0,0,0-.31.37c0,.09.19.21.34.22Z"/></g><g class="cls-6"><path class="cls-5" d="M13.46,15.39c-.13.09-.22.79-.35.88s-.12.11-.12.16-.05.07-.05.15-.12.39-.35.34c-.06,0-.11-.17.23-.36,0,0,0-.15,0-.22.34-.88.65-1.6.74-1.38Z"/><path class="cls-5" d="M14.42,15.56a.9.9,0,0,1-.08-.21l-.54.12c-.15-.17.18-.23.41-.35a4.78,4.78,0,0,1,.45-.23C14.63,15.07,14.47,15.34,14.42,15.56Z"/><path class="cls-5" d="M17.82,16a.18.18,0,0,1-.12.24c-.15,0-.34.06-.34.14a.57.57,0,0,1-.41.5,2.39,2.39,0,0,1,.86-.9s0-.16,0-.22c.11-.22.45,0,.48-.39,0,0-.07-.08-.11-.12.35.1.31-.35.62-.37v.25c-.14,0-.25.06-.37.12C18.06,15.43,18.46,15.91,17.82,16Z"/><path class="cls-5" d="M10.35,16.24c-.06-.32.44-1,.59-1.25.09.08.06.21.05.28-.07.33-.44.55-.44,1-.09.15-.08.26-.36.24Z"/><path class="cls-5" d="M11.6,15.37a.53.53,0,0,0-.13-.38c.13,0,.23,0,.24.13S11.64,15.28,11.6,15.37Z"/><path class="cls-5" d="M10.07,15.33c-.3,0,0-.26-.13-.37C10.31,15,9.85,15.27,10.07,15.33Z"/><path class="cls-5" d="M12,15.51c.28-.2.38-.82.69-.95-.25.2-.28.82-.48,1-.38.41-.93.63-1.21,1.15-.11.19.11.45-.14.62a1.21,1.21,0,0,1,.27-1.1C11.42,16,11.63,15.76,12,15.51Z"/><path class="cls-5" d="M15.78,15.44c-.07.08-.2,0-.22-.11s-.2-.44,0-.5a.63.63,0,0,0,.5.12C15.62,15,15.9,15.31,15.78,15.44Z"/><path class="cls-5" d="M17,15.56s.12,0,.17-.08c-.18-.1,0-.36-.2-.4s-.18.08-.29.06C16.8,15.33,16.92,15.37,17,15.56Z"/><path class="cls-5" d="M8.82,16a.18.18,0,0,1-.13.24c-.14,0-.33.06-.34.14a.56.56,0,0,1-.41.5A2.47,2.47,0,0,1,8.8,16s0-.16,0-.22c.11-.22.44,0,.47-.39,0,0-.07-.08-.11-.12.35.1.31-.35.63-.37v.25c-.15,0-.26.06-.38.12C9.06,15.43,9.46,15.91,8.82,16Z"/><path class="cls-5" d="M18.58,13.34c.14-.05.28.12.35.08.36-.17.33-.59.78-.23,0,0,.1-.07.1-.1s-.15-.24-.1-.38.13-.12.23-.15c.31-.1-.08-.42.37-.64.05,0,.05-.23,0-.33s-.39-.13-.6-.13a.62.62,0,0,0,.5-.25l-.13.25c.17.08.34.16.5.25-.08,0-.2.06-.23.13s0,.35,0,.48-.17,0-.21,0c-.2.23-.1.66-.3.8s-1,.16-1.18.7c0,.09.19.21.34.22s.31-.12.37-.36a.34.34,0,0,0,.14.35c.24.09.23-.41.48-.33a.22.22,0,0,1,.11.22c0,.07-.14.12-.23.12s-.09-.1-.11-.09c-.26.11-.6.07-.75.36a.64.64,0,0,0,0,.24c-.14,0-.36.05-.35-.12s.17-.33.08-.49-.15-.09-.23-.14Z"/><path class="cls-5" d="M18.82,11.83c-.26,0-.11-.15-.12-.25Z"/><path class="cls-5" d="M18.76,7.7c0,.41,0,.28-.44.41.09,0,.33-.16.35-.22s0-.19.06-.31-.25-.12-.14-.29,0-.63.36-.76c.07,0,0,.08.12.08C19.07,7,18.78,7.34,18.76,7.7Z"/><path class="cls-5" d="M18.45,12.36c.08-.24.3-.22.5-.25C18.83,12.29,18.63,12.31,18.45,12.36Z"/><path class="cls-5" d="M10.63,11h-.12a.79.79,0,0,1,.25-.37c0,.08.12.18.1.24S10.72,11,10.63,11Z"/><path class="cls-5" d="M13.46,6.39c-.13.08-.22.78-.35.87s-.12.12-.12.16-.05.07-.05.16-.12.38-.35.33c-.06,0-.11-.16.23-.35,0,0,0-.16,0-.23.34-.88.65-1.6.74-1.38Z"/><path class="cls-5" d="M12.07,7.81c-.12,0-.28-.18-.26-.22.15-.39.3-.56.45-.56s-.2.24-.28.41.33.41.25.52S12.16,7.9,12.07,7.81Z"/><path class="cls-5" d="M11.69,8c-.09.32-.06.35-.5.5.13,0,.1,0,.13-.38C11.32,8.06,11.61,8,11.69,8Z"/><path class="cls-5" d="M11.32,9.49c0,.08-.08.22-.13.22-.33,0-.4.29-.5.53.22.06.38.28.63.25-.12.06-.25.19-.36.1s0-.19,0-.2c-.47-.17-.35-.53-.09-.76,0,0,.17.11.22.08s-.09-.75.13-.6.28.24.48,0c.08-.11,0-.31,0-.48s.35,0,.35.13C12.06,9.17,11.47,9.1,11.32,9.49Z"/><path class="cls-5" d="M12.82,9.11c0,.05-.08.11-.13.11s-.08-.07-.12-.11.22-.08.22-.13a.54.54,0,0,0-.35-.62C13,8.21,13.09,8.77,12.82,9.11Z"/><path class="cls-5" d="M13.35,9.36c.05-.65-.09-1,.6-.75.15.22-.31,0-.36.14s.28.17.26.24-.35.06-.39.13,0,.25.11.37C13.49,9.45,13.35,9.4,13.35,9.36Z"/><path class="cls-5" d="M14.06,9.47S14,9.4,14,9.36c.13-.07.21-.35.34-.22S14.2,9.52,14.06,9.47Z"/><path class="cls-5" d="M12.28,10.6c-.08.08-.2,0-.22-.11s-.2-.44,0-.5a.66.66,0,0,0,.5.13C12.11,10.11,12.4,10.47,12.28,10.6Z"/><path class="cls-5" d="M14.86,8.83c.47-.06.51-.46.77-.7,0-.05.17,0,.22,0A.49.49,0,0,0,16,7.61c.21.28.44-.1.59,0s.25.66.66.84c-.07.31-.35.49-.5.75.13-.44.47-.91-.13-1.13.05,0,.11-.08.11-.12a.31.31,0,0,0-.11-.24.38.38,0,0,0-.48.12,1.54,1.54,0,0,1-.48.53c-.11.1,0,.4-.16.59,0-.05-.11-.14-.12-.11-.16.29-.38.26-.44.08Z"/><path class="cls-5" d="M14.77,8.2h0s-.21.06-.21.11c0,.27-.07.55-.41.5a3.28,3.28,0,0,0,.74-1.26c.07-.15-.44-.52-.24-.65l.38.16c.11-.12.24-.19.5,0-.18,0-.39,0-.48.13s0,.43-.05.74c0,.05-.18.07-.2.14A.5.5,0,0,0,14.77,8.2Z"/><path class="cls-5" d="M14.42,6.56a.9.9,0,0,1-.08-.21l-.54.11c-.15-.17.18-.23.41-.34a4.92,4.92,0,0,1,.45-.24C14.63,6.07,14.47,6.34,14.42,6.56Z"/><path class="cls-5" d="M16.07,13c.08-.18.24-.12.38-.13C16.36,13,16.22,13,16.07,13Z"/><path class="cls-5" d="M17.63,6.49c-.08.71-.1,0-.14,0,.12,0,.29,0,.25-.25A.62.62,0,0,0,17.63,6.49Z"/><path class="cls-5" d="M17.82,7a.17.17,0,0,1-.12.23c-.15,0-.34.07-.34.14a.55.55,0,0,1-.41.5A2.44,2.44,0,0,1,17.81,7s0-.16,0-.23c.11-.22.45,0,.48-.38,0,0-.07-.08-.11-.12.35.1.31-.36.62-.38v.25c-.14,0-.25.06-.37.12C18.06,6.42,18.46,6.91,17.82,7Z"/><path class="cls-5" d="M18.19,8c0,.16-.1.33-.25.36s-.24.18-.37-.23c.39.13.5-.2.63-.5A1.51,1.51,0,0,1,18.19,8Z"/><path class="cls-5" d="M17.58,9.24a.68.68,0,0,0,0,.25c-.13-.15-.19-.36-.09-.48s.22,0,.34,0A1.13,1.13,0,0,0,17.58,9.24Z"/><path class="cls-5" d="M15.49,9.86c0-.08,0-.21,0-.23A1.26,1.26,0,0,0,15,9.56c.05,0,.09-.09.14-.1s.29.15.34.12c.33-.19.69-.79,1-1.06,0,.05-.17.44-.17.45C16,9.34,15.78,9.5,15.49,9.86Z"/><path class="cls-5" d="M16.16,10.18c-.11-.07-.33-.06-.22-.24.21-.36.68-.37,1-.64.07.35.52.27.73.51,0,0,0,.16,0,.24s0,.29.25.25a.8.8,0,0,0-.13.13c-.22-.33-.27,0-.5,0,.08,0,.21-.07.23-.14a.56.56,0,0,0-.11-.61c-.07-.06-.18-.13-.23-.11a.45.45,0,0,0-.14.48c-.2-.19-.3-.63-.6-.46a1.41,1.41,0,0,0-.36.37c-.18.22.4.15.34.47A2,2,0,0,0,16.16,10.18Z"/><path class="cls-5" d="M15,10.23s.18-.05.21,0,.31.19.33.31c.08,0,.2-.11.2-.17s-.41-.19-.65-.27a.36.36,0,0,1-.2-.33A1.17,1.17,0,0,0,15,10.23Z"/><path class="cls-5" d="M14.43,10.16c.08.27-.14.18-.23,0s-.16-.63.25-.65c0,0,.08.07.12.11S14.14,9.23,14.43,10.16Z"/><path class="cls-5" d="M10.35,7.24c-.06-.33.44-1,.59-1.26a.32.32,0,0,1,.05.29c-.07.33-.44.54-.44,1-.09.16-.08.26-.36.25Z"/><path class="cls-5" d="M9.9,8.54c.38-.21,0-.23.45-.43.22.06.27.33.28.56,0,.06-.06.23-.06.32a2,2,0,0,0-.13-.25c0-.09-.07-.3-.1-.31A.66.66,0,0,0,9.9,8.54Z"/><path class="cls-5" d="M12.55,6.54V6.29c.12.06.23.15.37.12Z"/><path class="cls-5" d="M10.33,9.71c.09.27-.14.18-.23,0s-.15-.63.25-.64c0,0,.08.06.12.11S10.05,8.78,10.33,9.71Z"/><path class="cls-5" d="M9.57,13.34c.14-.05.29.12.36.08.35-.17.32-.59.78-.23,0,0,.1-.07.09-.1s-.15-.24-.1-.38.14-.12.24-.15c.31-.1-.08-.42.36-.64,0,0,.06-.23,0-.33s-.39-.13-.61-.13a.6.6,0,0,0,.5-.25l-.12.25.5.25c-.08,0-.21.06-.23.13s0,.35,0,.48-.18,0-.21,0c-.21.23-.1.66-.31.8s-1,.16-1.17.7c0,.09.19.21.33.22s.31-.12.38-.36a.32.32,0,0,0,.13.35c.25.09.23-.41.49-.33a.24.24,0,0,1,.11.22c0,.07-.15.12-.23.12s-.1-.1-.12-.09c-.26.11-.6.07-.75.36a.64.64,0,0,0,0,.24c-.13,0-.36.05-.34-.12s.16-.33.08-.49-.15-.09-.24-.14Z"/><path class="cls-5" d="M11.39,14.58c.07,0,.1-.14.14-.23l.25.13c.22-.54.6-1.24,1.25-1.25v.25a.33.33,0,0,0-.36.14c-.11.19.26.31,0,.61,0-.22.07-.52-.13-.58s-.42.31-.37.58c-.08,0-.21,0-.22,0-.16.33-.55.4-.65.74-.21-.23-.57-.27-.63-.63C11,14.27,11.12,14.68,11.39,14.58Z"/><path class="cls-5" d="M9.82,11.83c-.27,0-.12-.15-.13-.25C9.73,11.67,9.78,11.75,9.82,11.83Z"/><path class="cls-5" d="M10.46,11.82a.42.42,0,0,1,.11.39c-.09,0-.23-.09-.22-.13,0-.27-.25-.47-.16-.75C10.37,11.45,10.35,11.67,10.46,11.82Z"/><path class="cls-5" d="M9.82,11.08c0-.28.18,0,.25-.12Z"/><path class="cls-5" d="M12.08,11.33c0,.43.31.66.61.88a.56.56,0,0,0-.37-.24s-.08.1-.13.1S12,12,12,12c0-.24-.13-.49.08-.76,0,0-.06-.15-.11-.23l-.25.12-.25-.5c.38.05.44.5.75.63C12.15,11.25,12.08,11.29,12.08,11.33Z"/><path class="cls-5" d="M12.89,11.91c.21,0,.2-.16.2-.27s-.07-.17.2-.43c.06-.05.07-.23.12-.36l.14.12c-.08,0-.19.08-.22.15s.05.28,0,.35-.3.18-.3.43c0,0,.12.09.11.1a1,1,0,0,0-.06.52C12.81,12.38,12.9,12.13,12.89,11.91Z"/><path class="cls-5" d="M14.11,11.44c-.21.26-.48,0-.63.32.22-.08.09.06.49.13,0-.09-.05-.24,0-.25.41-.24.2-.75.51-1.07l-.17,0a1.33,1.33,0,0,1-.16.51C13.85,11.23,14.29,11.22,14.11,11.44Z"/><path class="cls-5" d="M13.22,12.93c-.3-.25-.3.06-.53,0l.13-.25c.21.27.43-.1.6,0S13.26,13,13.22,12.93Z"/><path class="cls-5" d="M13.47,13.6s-.18.06-.21.13c-.17.36,0,.46.12.74a.16.16,0,0,1-.23-.13c0-.21.1-.19-.12-.4-.07-.06.22-.23.27-.37s.33-.35.47-.58c.05-.08.21,0,.2.1C13.92,13.37,13.5,13,13.47,13.6Z"/><path class="cls-5" d="M13.54,7.48c-.07-.05.05-.16.14-.2.11.25.54.07.54.36,0,.1-.15.19-.15.34C13.82,7.81,13.79,7.65,13.54,7.48Z"/><path class="cls-5" d="M14.57,12.9c.13.27-.2.17-.25.3C14.14,12.88,14.63,13.12,14.57,12.9Z"/><path class="cls-5" d="M14.88,13l.25.12c0-.09.12-.19.1-.24-.17-.36,0-.73.16-1.07a.26.26,0,0,0,.36-.13,3.91,3.91,0,0,0,.51-1.12c-.09,0-.24,0-.25.06-.15.54-.59,1.36-1.19,1.49,0,0,0,.11,0,.16s.25.14.29.24S15,12.88,14.88,13Z"/><path class="cls-5" d="M14.59,11.46c0,.08-.05.18,0,.27.15-.36.15-.77.55-1-.16-.12-.27,0-.39.08C15,11.06,14.51,11.15,14.59,11.46Z"/><path class="cls-5" d="M15.33,14c-.1.2.24.49.36.46A.34.34,0,0,0,16,14c.51,0,1.13.54.72,1-.09.09-.31,0-.47-.1a.45.45,0,0,0,.35-.61.36.36,0,0,0-.35-.14c-.34,0-.19.33-.38.5a.38.38,0,0,1-.25.11c-.14,0-.26-.15-.39-.21a.25.25,0,0,0-.22.11.26.26,0,0,0,.11.37c-.21,0-.24-.15-.22-.24s.47-.2.46-.51-.12-.31-.36-.38c.54.12.41-.49.81-.62s.13.13.1.23S15.44,13.75,15.33,14Z"/><path class="cls-5" d="M16.16,12.42c-.09,0-.17.08-.26.12.21-.14,0-.35.36-.53.08,0,0-.26-.1-.34l.12-.13a2.19,2.19,0,0,0,.13.88A1,1,0,0,0,16.16,12.42Z"/><path class="cls-5" d="M17.06,11.87a.62.62,0,0,1-.11.25c-.05,0-.12-.1-.11-.11A1,1,0,0,0,17,11.5,1.3,1.3,0,0,1,17.06,11.87Z"/><path class="cls-5" d="M16.88,10.92c-.21.06-.23-.14-.23-.24s.14-.19.22-.12,0,.29.39.24C17.13,10.84,17,10.89,16.88,10.92Z"/><path class="cls-5" d="M17.55,11c-.12.13-.17.49-.33.33S17.4,11.1,17.55,11Z"/><path class="cls-5" d="M17.54,14.33c0,.15-.08.46-.33.35,0,0,0-.14,0-.22.21,0,.45-.05.47-.38,0,0-.19-.07-.2-.13s-.18-.24.23-.37C17.52,13.81,17.6,14.08,17.54,14.33Z"/><path class="cls-5" d="M9.76,7.7c0,.41,0,.28-.44.41.08,0,.33-.16.35-.22s0-.19.05-.31-.25-.12-.13-.29,0-.63.35-.76c.08,0,0,.08.13.08C10.07,7,9.77,7.34,9.76,7.7Z"/><path class="cls-5" d="M17.79,11.84c.05-.65-.09-1,.59-.75.16.21-.3,0-.35.13s.28.18.26.24-.35.07-.39.13,0,.25.11.37C17.93,11.92,17.79,11.87,17.79,11.84Z"/><path class="cls-5" d="M17.51,12.58c-.22,0-.22.14-.24.26s.11.1.1.11c-.12.26-.4.09-.61.14.08,0,.2,0,.23,0,.16-.23.47-.59.14-.86.16.21.53.07.63.38Z"/><path class="cls-5" d="M16.91,13.75a2.73,2.73,0,0,1-.81,0,.6.6,0,0,1,.22-.12c.08,0,.09.12.15.1s.09-.2.13-.2c.27,0,.5-.13.75-.15,0,.08-.06.2-.13.23A.64.64,0,0,1,16.91,13.75Z"/><path class="cls-5" d="M18.07,13.15c0,.07-.16,0-.22-.12.23-.15,0-.54.26-.59.1,0,.22.12.37.09C18.36,12.81,18.2,12.86,18.07,13.15Z"/><path class="cls-5" d="M13.28,9.93c-.22,0-.22.14-.24.26s.1.09.1.11c-.12.26-.4.09-.61.14.08,0,.2,0,.23,0,.16-.23.47-.59.14-.86.16.21.53.07.63.38Z"/><path class="cls-5" d="M12.44,11.27c.09-.24.31-.23.5-.25A.78.78,0,0,1,12.44,11.27Z"/><path class="cls-5" d="M10.09,10.6s-.07-.07-.12-.11c.14-.07.22-.35.35-.22S10.22,10.64,10.09,10.6Z"/><path class="cls-5" d="M10.07,12.65c.08-.18.24-.12.37-.13C10.36,12.68,10.22,12.67,10.07,12.65Z"/><path class="cls-5" d="M14.25,12.58c-.07.08-.07.1-.12.12s-.26,0-.37-.12c.43.09.6-.25.5-.62.08,0,.22.08.22.12A1.08,1.08,0,0,1,14.25,12.58Z"/><path class="cls-5" d="M16.4,7.19c-.07.08-.07.1-.12.12s-.26,0-.37-.12c.43.09.6-.26.5-.62.08,0,.22.08.22.12A1.12,1.12,0,0,1,16.4,7.19Z"/><path class="cls-5" d="M12.32,12.77a.58.58,0,0,0-.13-.38.18.18,0,0,1,.24.13A.62.62,0,0,1,12.32,12.77Z"/><path class="cls-5" d="M11.6,6.36A.53.53,0,0,0,11.47,6a.18.18,0,0,1,.24.13A.62.62,0,0,1,11.6,6.36Z"/><path class="cls-5" d="M9.44,12.36c.09-.24.31-.22.5-.25C9.82,12.29,9.63,12.31,9.44,12.36Z"/><path class="cls-5" d="M10.07,6.33c-.3,0,0-.27-.13-.38C10.31,6,9.85,6.26,10.07,6.33Z"/><path class="cls-5" d="M18.8,9.86c0,.14-.3.18-.31.26,0,.31-.15.37-.29.62,0,0-.11-.09-.11-.13s.24-.26.29-.4c.15-.4.12-1,.21-1.19,0,0,.23-.21.3-.27Z"/><path class="cls-5" d="M12,6.51c.28-.21.38-.82.69-1-.25.19-.28.81-.48,1-.38.42-.93.64-1.21,1.15-.11.19.11.46-.14.62a1.19,1.19,0,0,1,.27-1.09C11.42,7,11.63,6.76,12,6.51Z"/><path class="cls-5" d="M15.36,6.35c-.12.13-.17.49-.33.33S15.22,6.46,15.36,6.35Z"/><path class="cls-5" d="M15.78,6.43c-.07.08-.2,0-.22-.11s-.2-.43,0-.5a.6.6,0,0,0,.5.13C15.62,5.94,15.9,6.3,15.78,6.43Z"/><path class="cls-5" d="M17,6.55s.12,0,.17-.08c-.18-.1,0-.36-.2-.39s-.18.08-.29.06C16.8,6.32,16.92,6.36,17,6.55Z"/><path class="cls-5" d="M13.15,8.31c.09-.25.31-.23.5-.25A.78.78,0,0,1,13.15,8.31Z"/><path class="cls-5" d="M18.2,8.77c.08-.18.24-.12.37-.13C18.49,8.8,18.35,8.79,18.2,8.77Z"/><path class="cls-5" d="M19,14.58c-.14,0-.36.05-.35-.12s.17-.33.08-.49-.15-.09-.23-.14c-.14.38-.56.56-.64,1,0,.13-.08.35-.21.23s.18-.16.19-.23a1.82,1.82,0,0,1,.63-1.15c.06-.07,0-.28.16-.34s.28.12.35.08v.06a.64.64,0,0,0-.31.37c0,.09.19.21.34.22Z"/><path class="cls-5" d="M14.15,7.23A.53.53,0,0,0,14,6.85a.17.17,0,0,1,.23.13A.55.55,0,0,1,14.15,7.23Z"/><path class="cls-5" d="M13.73,10c.28,0,0,.19.09.27Z"/><path class="cls-5" d="M18.07,9.77A.53.53,0,0,0,18,9.39a.18.18,0,0,1,.23.13C18.18,9.61,18.11,9.68,18.07,9.77Z"/><path class="cls-5" d="M17,7.39A.48.48,0,0,1,17.17,7a.17.17,0,0,0-.25.09C16.9,7.22,17,7.3,17,7.39Z"/><path class="cls-5" d="M11.24,6.63c.12.27-.21.17-.25.3C10.81,6.61,11.3,6.85,11.24,6.63Z"/><path class="cls-5" d="M15.61,7.64c-.26,0-.11-.15-.12-.25Z"/><path class="cls-5" d="M14,14.54c.21-.06.15-.22.12-.33s-.13-.05-.13-.07c0-.29.33-.24.5-.36-.07,0-.19.05-.2.1-.06.27-.2.73.2.85-.22-.13-.51.15-.72-.1A2.18,2.18,0,0,1,14,14.54Z"/><path class="cls-5" d="M11.57,10.23c-.27,0-.12-.15-.13-.25A2,2,0,0,1,11.57,10.23Z"/><path class="cls-5" d="M11.94,9.31c.08-.18.24-.12.38-.13C12.23,9.34,12.09,9.34,11.94,9.31Z"/><path class="cls-5" d="M15.53,11.23c-.27,0-.11-.15-.13-.25A2,2,0,0,1,15.53,11.23Z"/><path class="cls-5" d="M14.78,13.65c0-.1,0-.18-.1-.26a.14.14,0,0,1,.18.09C14.86,13.54,14.81,13.59,14.78,13.65Z"/><path class="cls-5" d="M13.87,13.69c-.07.72-.09,0-.13,0,.12,0,.29,0,.25-.25A.64.64,0,0,0,13.87,13.69Z"/><path class="cls-5" d="M11.29,12.69c.42-.13.05-.23.53-.33.2.11.19.38.16.61,0,0-.11.21-.13.29,0-.09,0-.18-.07-.27s0-.3,0-.31A.65.65,0,0,0,11.29,12.69Z"/><path class="cls-5" d="M11.42,13.77c.06.21.23.13.33.08s.09-.22,0-.25-.25.14-.4-.22A2.7,2.7,0,0,0,11.42,13.77Z"/><path class="cls-5" d="M8.82,7a.17.17,0,0,1-.13.23c-.14,0-.33.07-.34.14a.54.54,0,0,1-.41.5A2.52,2.52,0,0,1,8.8,7s0-.16,0-.23c.11-.22.44,0,.47-.38,0,0-.07-.08-.11-.12.35.1.31-.36.63-.38v.25c-.15,0-.26.06-.38.12C9.06,6.42,9.46,6.91,8.82,7Z"/><path class="cls-5" d="M9.79,9.86c0,.14-.29.18-.3.26,0,.31-.15.37-.3.62,0,0-.11-.09-.11-.13s.25-.26.3-.4c.14-.4.11-1,.21-1.19,0,0,.23-.21.29-.27Z"/><path class="cls-5" d="M9.94,14.58c-.13,0-.36.05-.34-.12s.16-.33.08-.49-.15-.09-.24-.14c-.13.38-.55.56-.63,1,0,.13-.09.35-.21.23s.18-.16.18-.23a1.86,1.86,0,0,1,.63-1.15c.07-.07,0-.28.16-.34s.29.12.36.08v.06a.61.61,0,0,0-.31.37c0,.09.19.21.33.22Z"/></g><g class="cls-7"><path class="cls-5" d="M4.45,15.39c-.12.09-.22.79-.34.88s-.13.11-.13.16,0,.07,0,.15-.13.39-.36.34c-.06,0-.11-.17.23-.36,0,0,0-.15,0-.22.33-.88.64-1.6.74-1.38Z"/><path class="cls-5" d="M5.41,15.56a.58.58,0,0,1-.07-.21l-.55.12c-.15-.17.19-.23.42-.35a3.81,3.81,0,0,1,.45-.23C5.63,15.07,5.46,15.34,5.41,15.56Z"/><path class="cls-5" d="M8.82,16a.18.18,0,0,1-.13.24c-.14,0-.33.06-.34.14a.56.56,0,0,1-.41.5A2.47,2.47,0,0,1,8.8,16s0-.16,0-.22c.11-.22.44,0,.47-.39,0,0-.07-.08-.11-.12.35.1.31-.35.63-.37v.25c-.15,0-.26.06-.38.12C9.06,15.43,9.46,15.91,8.82,16Z"/><path class="cls-5" d="M1.34,16.24c-.05-.32.45-1,.6-1.25.08.08.05.21,0,.28-.06.33-.44.55-.44,1-.09.15-.08.26-.35.24Z"/><path class="cls-5" d="M2.59,15.37A.53.53,0,0,0,2.47,15a.17.17,0,0,1,.23.13A.55.55,0,0,1,2.59,15.37Z"/><path class="cls-5" d="M1.06,15.33c-.3,0,0-.26-.12-.37C1.3,15,.84,15.27,1.06,15.33Z"/><path class="cls-5" d="M3,15.51c.27-.2.37-.82.69-.95-.26.2-.28.82-.48,1-.39.41-.93.63-1.22,1.15-.1.19.12.45-.14.62a1.18,1.18,0,0,1,.28-1.1C2.42,16,2.62,15.76,3,15.51Z"/><path class="cls-5" d="M6.77,15.44c-.07.08-.19,0-.22-.11s-.2-.44,0-.5A.63.63,0,0,0,7,15C6.61,15,6.89,15.31,6.77,15.44Z"/><path class="cls-5" d="M8,15.56s.12,0,.17-.08c-.18-.1,0-.36-.2-.4s-.17.08-.29.06C7.8,15.33,7.92,15.37,8,15.56Z"/><path class="cls-5" d="M-.19,16a.18.18,0,0,1-.13.24c-.14,0-.33.06-.33.14a.57.57,0,0,1-.41.5A2.39,2.39,0,0,1-.2,16s0-.16,0-.22c.11-.22.45,0,.48-.39,0,0-.07-.08-.11-.12.35.1.31-.35.62-.37v.25c-.15,0-.25.06-.37.12C.05,15.43.45,15.91-.19,16Z"/><path class="cls-5" d="M9.57,13.34c.14-.05.29.12.36.08.35-.17.32-.59.78-.23,0,0,.1-.07.09-.1s-.15-.24-.1-.38.14-.12.24-.15c.31-.1-.08-.42.36-.64,0,0,.06-.23,0-.33s-.39-.13-.61-.13a.6.6,0,0,0,.5-.25l-.12.25.5.25c-.08,0-.21.06-.23.13s0,.35,0,.48-.18,0-.21,0c-.21.23-.1.66-.31.8s-1,.16-1.17.7c0,.09.19.21.33.22s.31-.12.38-.36a.32.32,0,0,0,.13.35c.25.09.23-.41.49-.33a.24.24,0,0,1,.11.22c0,.07-.15.12-.23.12s-.1-.1-.12-.09c-.26.11-.6.07-.75.36a.64.64,0,0,0,0,.24c-.13,0-.36.05-.34-.12s.16-.33.08-.49-.15-.09-.24-.14Z"/><path class="cls-5" d="M9.82,11.83c-.27,0-.12-.15-.13-.25C9.73,11.67,9.78,11.75,9.82,11.83Z"/><path class="cls-5" d="M9.76,7.7c0,.41,0,.28-.44.41.08,0,.33-.16.35-.22s0-.19.05-.31-.25-.12-.13-.29,0-.63.35-.76c.08,0,0,.08.13.08C10.07,7,9.77,7.34,9.76,7.7Z"/><path class="cls-5" d="M9.44,12.36c.09-.24.31-.22.5-.25C9.82,12.29,9.63,12.31,9.44,12.36Z"/><path class="cls-5" d="M1.63,11H1.5a.79.79,0,0,1,.25-.37c0,.08.13.18.11.24S1.71,11,1.63,11Z"/><path class="cls-5" d="M4.45,6.39c-.12.08-.22.78-.34.87S4,7.38,4,7.42s0,.07,0,.16a.31.31,0,0,1-.36.33c-.06,0-.11-.16.23-.35,0,0,0-.16,0-.23.33-.88.64-1.6.74-1.38Z"/><path class="cls-5" d="M3.07,7.81c-.12,0-.29-.18-.27-.22C3,7.2,3.1,7,3.26,7s-.2.24-.28.41.32.41.25.52S3.15,7.9,3.07,7.81Z"/><path class="cls-5" d="M2.69,8c-.1.32-.07.35-.5.5.12,0,.09,0,.12-.38C2.32,8.06,2.6,8,2.69,8Z"/><path class="cls-5" d="M2.31,9.49c0,.08-.07.22-.12.22-.34,0-.4.29-.5.53.22.06.37.28.62.25-.11.06-.25.19-.36.1s0-.19,0-.2c-.48-.17-.36-.53-.1-.76,0,0,.17.11.22.08.21-.11-.08-.75.14-.6s.28.24.47,0c.08-.11,0-.31,0-.48s.34,0,.35.13C3.05,9.17,2.46,9.1,2.31,9.49Z"/><path class="cls-5" d="M3.81,9.11c0,.05-.08.11-.12.11s-.08-.07-.13-.11S3.78,9,3.79,9a.54.54,0,0,0-.35-.62C4,8.21,4.09,8.77,3.81,9.11Z"/><path class="cls-5" d="M4.34,9.36c0-.65-.09-1,.6-.75.16.22-.3,0-.35.14s.28.17.26.24-.36.06-.4.13,0,.25.11.37C4.48,9.45,4.34,9.4,4.34,9.36Z"/><path class="cls-5" d="M5.06,9.47S5,9.4,4.94,9.36c.13-.07.22-.35.35-.22S5.19,9.52,5.06,9.47Z"/><path class="cls-5" d="M3.27,10.6c-.07.08-.19,0-.22-.11s-.2-.44,0-.5a.64.64,0,0,0,.5.13C3.11,10.11,3.39,10.47,3.27,10.6Z"/><path class="cls-5" d="M5.86,8.83c.46-.06.51-.46.76-.7,0-.05.17,0,.23,0A.48.48,0,0,0,7,7.61c.22.28.44-.1.6,0s.25.66.65.84c-.06.31-.34.49-.5.75.14-.44.48-.91-.12-1.13,0,0,.11-.08.11-.12a.28.28,0,0,0-.12-.24.37.37,0,0,0-.47.12c-.16.3-.26.32-.49.53s0,.4-.16.59c0-.05-.1-.14-.12-.11-.16.29-.38.26-.44.08Z"/><path class="cls-5" d="M5.76,8.2h0s-.21.06-.21.11c0,.27-.06.55-.4.5a3.39,3.39,0,0,0,.73-1.26C6,7.4,5.44,7,5.65,6.9L6,7.06c.11-.12.24-.19.5,0-.18,0-.38,0-.48.13s0,.43,0,.74c0,.05-.18.07-.21.14A.5.5,0,0,0,5.76,8.2Z"/><path class="cls-5" d="M5.41,6.56a.58.58,0,0,1-.07-.21l-.55.11c-.15-.17.19-.23.42-.34a3.88,3.88,0,0,1,.45-.24C5.63,6.07,5.46,6.34,5.41,6.56Z"/><path class="cls-5" d="M7.07,13c.08-.18.24-.12.37-.13A.3.3,0,0,1,7.07,13Z"/><path class="cls-5" d="M8.62,6.49c-.08.71-.09,0-.14,0,.12,0,.3,0,.25-.25A.8.8,0,0,0,8.62,6.49Z"/><path class="cls-5" d="M8.82,7a.17.17,0,0,1-.13.23c-.14,0-.33.07-.34.14a.54.54,0,0,1-.41.5A2.52,2.52,0,0,1,8.8,7s0-.16,0-.23c.11-.22.44,0,.47-.38,0,0-.07-.08-.11-.12.35.1.31-.36.63-.38v.25c-.15,0-.26.06-.38.12C9.06,6.42,9.46,6.91,8.82,7Z"/><path class="cls-5" d="M9.18,8c0,.16-.1.33-.24.36s-.25.18-.37-.23c.39.13.5-.2.62-.5A1.51,1.51,0,0,1,9.18,8Z"/><path class="cls-5" d="M8.58,9.24c0,.07,0,.16,0,.25A.4.4,0,0,1,8.47,9c0-.06.22,0,.35,0A.94.94,0,0,0,8.58,9.24Z"/><path class="cls-5" d="M6.48,9.86c0-.08,0-.21,0-.23A1.24,1.24,0,0,0,6,9.56s.08-.09.14-.1.28.15.33.12c.33-.19.7-.79,1-1.06,0,.05-.16.44-.17.45C7,9.34,6.77,9.5,6.48,9.86Z"/><path class="cls-5" d="M7.16,10.18c-.12-.07-.34-.06-.23-.24.21-.36.69-.37,1-.64.07.35.53.27.74.51,0,0,0,.16,0,.24s0,.29.24.25l-.12.13c-.23-.33-.27,0-.5,0,.08,0,.2-.07.22-.14a.54.54,0,0,0-.11-.61c-.06-.06-.18-.13-.23-.11a.43.43,0,0,0-.13.48c-.21-.19-.3-.63-.61-.46a1.81,1.81,0,0,0-.36.37c-.18.22.41.15.34.47A1.48,1.48,0,0,0,7.16,10.18Z"/><path class="cls-5" d="M6,10.23s.17-.05.21,0,.3.19.33.31c.07,0,.19-.11.19-.17s-.41-.19-.65-.27a.37.37,0,0,1-.2-.33A1.17,1.17,0,0,0,6,10.23Z"/><path class="cls-5" d="M5.42,10.16c.09.27-.14.18-.23,0s-.15-.63.25-.65c0,0,.08.07.13.11S5.14,9.23,5.42,10.16Z"/><path class="cls-5" d="M1.34,7.24c-.05-.33.45-1,.6-1.26a.34.34,0,0,1,0,.29c-.06.33-.44.54-.44,1-.09.16-.08.26-.35.25Z"/><path class="cls-5" d="M.9,8.54c.38-.21,0-.23.44-.43.22.06.27.33.29.56,0,.06-.07.23-.07.32l-.12-.25c-.05-.09-.08-.3-.11-.31A.62.62,0,0,0,.9,8.54Z"/><path class="cls-5" d="M3.54,6.54V6.29c.12.06.23.15.38.12Z"/><path class="cls-5" d="M1.33,9.71c.08.27-.14.18-.24,0s-.15-.63.25-.64c0,0,.09.06.13.11S1,8.78,1.33,9.71Z"/><path class="cls-5" d="M.57,13.34c.13-.05.28.12.35.08.36-.17.33-.59.78-.23,0,0,.1-.07.1-.1s-.15-.24-.1-.38.13-.12.23-.15c.31-.1-.08-.42.37-.64.05,0,.05-.23,0-.33s-.39-.13-.6-.13a.62.62,0,0,0,.5-.25c0,.08-.09.16-.13.25.17.08.34.16.5.25-.08,0-.2.06-.23.13s0,.35,0,.48-.17,0-.21,0c-.2.23-.1.66-.3.8s-1,.16-1.18.7c0,.09.19.21.34.22s.31-.12.37-.36a.34.34,0,0,0,.14.35c.24.09.22-.41.48-.33A.24.24,0,0,1,2,14c0,.07-.14.12-.23.12S1.72,14,1.69,14c-.25.11-.59.07-.74.36,0,.07,0,.16,0,.24s-.36.05-.35-.12.17-.33.08-.49-.15-.09-.23-.14Z"/><path class="cls-5" d="M2.39,14.58c.06,0,.09-.14.13-.23l.25.13c.22-.54.6-1.24,1.25-1.25v.25a.33.33,0,0,0-.35.14c-.12.19.26.31,0,.61,0-.22.07-.52-.14-.58s-.41.31-.36.58c-.09,0-.21,0-.23,0-.15.33-.55.4-.65.74-.2-.23-.56-.27-.62-.63C2,14.27,2.12,14.68,2.39,14.58Z"/><path class="cls-5" d="M.81,11.83c-.26,0-.11-.15-.12-.25Z"/><path class="cls-5" d="M1.46,11.82a.44.44,0,0,1,.1.39c-.08,0-.22-.09-.22-.13,0-.27-.25-.47-.15-.75C1.36,11.45,1.35,11.67,1.46,11.82Z"/><path class="cls-5" d="M.81,11.08c0-.28.19,0,.25-.12Z"/><path class="cls-5" d="M3.08,11.33c0,.43.3.66.61.88A.58.58,0,0,0,3.31,12s-.08.1-.12.1S3,12,3,12c0-.24-.13-.49.07-.76,0,0-.06-.15-.1-.23l-.25.12-.25-.5c.38.05.43.5.75.63C3.15,11.25,3.08,11.29,3.08,11.33Z"/><path class="cls-5" d="M3.88,11.91c.21,0,.21-.16.21-.27s-.08-.17.2-.43c0-.05.06-.23.12-.36l.13.12c-.08,0-.19.08-.22.15s.06.28,0,.35-.3.18-.3.43c0,0,.11.09.1.1a1,1,0,0,0-.06.52C3.81,12.38,3.9,12.13,3.88,11.91Z"/><path class="cls-5" d="M5.1,11.44c-.21.26-.48,0-.63.32.22-.08.09.06.49.13,0-.09,0-.24,0-.25.4-.24.19-.75.51-1.07l-.18,0a1.54,1.54,0,0,1-.15.51C4.84,11.23,5.28,11.22,5.1,11.44Z"/><path class="cls-5" d="M4.21,12.93c-.3-.25-.29.06-.52,0l.12-.25c.22.27.43-.1.6,0S4.25,13,4.21,12.93Z"/><path class="cls-5" d="M4.46,13.6s-.17.06-.21.13c-.17.36,0,.46.13.74a.18.18,0,0,1-.24-.13c0-.21.1-.19-.12-.4-.06-.06.22-.23.28-.37s.32-.35.46-.58c0-.08.22,0,.2.1C4.91,13.37,4.49,13,4.46,13.6Z"/><path class="cls-5" d="M4.53,7.48c-.07-.05,0-.16.15-.2.11.25.53.07.54.36,0,.1-.16.19-.16.34C4.81,7.81,4.78,7.65,4.53,7.48Z"/><path class="cls-5" d="M5.57,12.9c.12.27-.21.17-.26.3C5.13,12.88,5.63,13.12,5.57,12.9Z"/><path class="cls-5" d="M5.87,13l.25.12c0-.09.13-.19.1-.24-.17-.36,0-.73.16-1.07a.26.26,0,0,0,.36-.13,3.66,3.66,0,0,0,.51-1.12c-.09,0-.23,0-.24.06-.16.54-.6,1.36-1.19,1.49,0,0,0,.11,0,.16s.24.14.29.24S6,12.88,5.87,13Z"/><path class="cls-5" d="M5.58,11.46c0,.08,0,.18,0,.27.15-.36.16-.77.55-1-.16-.12-.26,0-.38.08C6,11.06,5.51,11.15,5.58,11.46Z"/><path class="cls-5" d="M6.33,14c-.1.2.24.49.35.46A.33.33,0,0,0,6.94,14c.51,0,1.13.54.72,1-.09.09-.31,0-.47-.1a.45.45,0,0,0,.35-.61.36.36,0,0,0-.35-.14c-.34,0-.19.33-.38.5a.35.35,0,0,1-.24.11c-.15,0-.26-.15-.39-.21a.25.25,0,0,0-.11.48.19.19,0,0,1-.23-.24c0-.23.47-.2.46-.51s-.11-.31-.36-.38c.55.12.42-.49.81-.62s.13.13.11.23S6.44,13.75,6.33,14Z"/><path class="cls-5" d="M7.15,12.42a1.92,1.92,0,0,0-.25.12c.2-.14,0-.35.36-.53.08,0,0-.26-.11-.34l.12-.13a2.38,2.38,0,0,0,.13.88A1,1,0,0,0,7.15,12.42Z"/><path class="cls-5" d="M8.05,11.87a.62.62,0,0,1-.11.25L7.83,12a.93.93,0,0,0,.11-.51A1.3,1.3,0,0,1,8.05,11.87Z"/><path class="cls-5" d="M7.88,10.92c-.21.06-.23-.14-.23-.24s.13-.19.21-.12,0,.29.39.24C8.13,10.84,8,10.89,7.88,10.92Z"/><path class="cls-5" d="M8.55,11c-.12.13-.18.49-.34.33S8.4,11.1,8.55,11Z"/><path class="cls-5" d="M8.54,14.33c0,.15-.08.46-.34.35,0,0,0-.14,0-.22.21,0,.46-.05.47-.38,0,0-.18-.07-.19-.13s-.18-.24.22-.37C8.52,13.81,8.6,14.08,8.54,14.33Z"/><path class="cls-5" d="M.75,7.7c0,.41,0,.28-.44.41.09,0,.33-.16.35-.22s0-.19.06-.31S.47,7.46.58,7.29s0-.63.36-.76c.07,0,0,.08.12.08C1.06,7,.76,7.34.75,7.7Z"/><path class="cls-5" d="M8.78,11.84c.05-.65-.09-1,.6-.75.16.21-.3,0-.35.13s.28.18.26.24-.36.07-.4.13,0,.25.11.37C8.92,11.92,8.78,11.87,8.78,11.84Z"/><path class="cls-5" d="M8.5,12.58c-.21,0-.22.14-.23.26s.1.1.09.11c-.12.26-.4.09-.61.14.09,0,.21,0,.23,0,.16-.23.48-.59.15-.86.16.21.52.07.62.38Z"/><path class="cls-5" d="M7.91,13.75a2.75,2.75,0,0,1-.81,0,.57.57,0,0,1,.21-.12c.09,0,.09.12.15.1s.09-.2.14-.2c.26,0,.49-.13.75-.15,0,.08-.07.2-.14.23A.64.64,0,0,1,7.91,13.75Z"/><path class="cls-5" d="M9.07,13.15c0,.07-.16,0-.22-.12.22-.15,0-.54.25-.59.11,0,.22.12.37.09C9.35,12.81,9.2,12.86,9.07,13.15Z"/><path class="cls-5" d="M4.27,9.93c-.21,0-.22.14-.23.26s.1.09.09.11c-.12.26-.4.09-.61.14.09,0,.2,0,.23,0,.16-.23.48-.59.15-.86.16.21.52.07.62.38Z"/><path class="cls-5" d="M3.44,11.27c.09-.24.3-.23.5-.25A.8.8,0,0,1,3.44,11.27Z"/><path class="cls-5" d="M1.09,10.6S1,10.53,1,10.49c.13-.07.22-.35.35-.22S1.22,10.64,1.09,10.6Z"/><path class="cls-5" d="M1.06,12.65c.08-.18.24-.12.38-.13C1.35,12.68,1.21,12.67,1.06,12.65Z"/><path class="cls-5" d="M5.25,12.58c-.08.08-.07.1-.13.12s-.25,0-.37-.12c.43.09.6-.25.5-.62.09,0,.22.08.22.12A1.06,1.06,0,0,1,5.25,12.58Z"/><path class="cls-5" d="M7.4,7.19c-.08.08-.07.1-.13.12s-.25,0-.37-.12c.43.09.6-.26.5-.62.09,0,.22.08.22.12A1.1,1.1,0,0,1,7.4,7.19Z"/><path class="cls-5" d="M3.31,12.77a.53.53,0,0,0-.12-.38.18.18,0,0,1,.23.13A.51.51,0,0,1,3.31,12.77Z"/><path class="cls-5" d="M2.59,6.36A.53.53,0,0,0,2.47,6a.18.18,0,0,1,.23.13A.51.51,0,0,1,2.59,6.36Z"/><path class="cls-5" d="M.44,12.36c.08-.24.3-.22.5-.25C.82,12.29.62,12.31.44,12.36Z"/><path class="cls-5" d="M1.06,6.33c-.3,0,0-.27-.12-.38C1.3,6,.84,6.26,1.06,6.33Z"/><path class="cls-5" d="M9.79,9.86c0,.14-.29.18-.3.26,0,.31-.15.37-.3.62,0,0-.11-.09-.11-.13s.25-.26.3-.4c.14-.4.11-1,.21-1.19,0,0,.23-.21.29-.27Z"/><path class="cls-5" d="M3,6.51c.27-.21.37-.82.69-1-.26.19-.28.81-.48,1C2.78,7,2.24,7.23,2,7.74c-.1.19.12.46-.14.62a1.16,1.16,0,0,1,.28-1.09C2.42,7,2.62,6.76,3,6.51Z"/><path class="cls-5" d="M6.36,6.35c-.12.13-.18.49-.34.33S6.21,6.46,6.36,6.35Z"/><path class="cls-5" d="M6.77,6.43c-.07.08-.19,0-.22-.11s-.2-.43,0-.5A.6.6,0,0,0,7,6C6.61,5.94,6.89,6.3,6.77,6.43Z"/><path class="cls-5" d="M8,6.55s.12,0,.17-.08c-.18-.1,0-.36-.2-.39s-.17.08-.29.06C7.8,6.32,7.92,6.36,8,6.55Z"/><path class="cls-5" d="M4.15,8.31c.08-.25.3-.23.5-.25A.8.8,0,0,1,4.15,8.31Z"/><path class="cls-5" d="M9.19,8.77c.08-.18.24-.12.38-.13C9.48,8.8,9.34,8.79,9.19,8.77Z"/><path class="cls-5" d="M9.94,14.58c-.13,0-.36.05-.34-.12s.16-.33.08-.49-.15-.09-.24-.14c-.13.38-.55.56-.63,1,0,.13-.09.35-.21.23s.18-.16.18-.23a1.86,1.86,0,0,1,.63-1.15c.07-.07,0-.28.16-.34s.29.12.36.08v.06a.61.61,0,0,0-.31.37c0,.09.19.21.33.22Z"/><path class="cls-5" d="M5.15,7.23A.58.58,0,0,0,5,6.85.18.18,0,0,1,5.26,7C5.26,7.07,5.19,7.14,5.15,7.23Z"/><path class="cls-5" d="M4.73,10c.28,0,0,.19.08.27A2.76,2.76,0,0,0,4.73,10Z"/><path class="cls-5" d="M9.07,9.77a.58.58,0,0,0-.13-.38.19.19,0,0,1,.24.13C9.18,9.61,9.11,9.68,9.07,9.77Z"/><path class="cls-5" d="M8,7.39A.57.57,0,0,1,8.16,7a.17.17,0,0,0-.25.09A.63.63,0,0,0,8,7.39Z"/><path class="cls-5" d="M2.23,6.63c.13.27-.2.17-.25.3C1.8,6.61,2.29,6.85,2.23,6.63Z"/><path class="cls-5" d="M6.61,7.64c-.27,0-.12-.15-.13-.25C6.52,7.48,6.57,7.56,6.61,7.64Z"/><path class="cls-5" d="M5,14.54c.21-.06.15-.22.11-.33S5,14.16,5,14.14c0-.29.33-.24.51-.36-.08,0-.2.05-.21.1,0,.27-.2.73.21.85-.23-.13-.51.15-.72-.1A1.57,1.57,0,0,1,5,14.54Z"/><path class="cls-5" d="M2.56,10.23c-.26,0-.11-.15-.12-.25Z"/><path class="cls-5" d="M2.94,9.31c.08-.18.24-.12.37-.13C3.23,9.34,3.09,9.34,2.94,9.31Z"/><path class="cls-5" d="M6.52,11.23c-.26,0-.11-.15-.12-.25Z"/><path class="cls-5" d="M5.77,13.65c0-.1,0-.18-.1-.26a.15.15,0,0,1,.19.09C5.86,13.54,5.8,13.59,5.77,13.65Z"/><path class="cls-5" d="M4.87,13.69c-.08.72-.1,0-.14,0,.12,0,.29,0,.25-.25A.8.8,0,0,0,4.87,13.69Z"/><path class="cls-5" d="M2.29,12.69c.41-.13,0-.23.52-.33.2.11.2.38.16.61a2.85,2.85,0,0,0-.12.29c0-.09-.05-.18-.08-.27s0-.3,0-.31A.64.64,0,0,0,2.29,12.69Z"/><path class="cls-5" d="M2.41,13.77c.06.21.24.13.33.08s.1-.22,0-.25-.25.14-.4-.22C2.36,13.51,2.38,13.64,2.41,13.77Z"/><path class="cls-5" d="M-.19,7a.16.16,0,0,1-.13.23c-.14,0-.33.07-.33.14a.55.55,0,0,1-.41.5A2.44,2.44,0,0,1-.2,7s0-.16,0-.23c.11-.22.45,0,.48-.38,0,0-.07-.08-.11-.12.35.1.31-.36.62-.38v.25c-.15,0-.25.06-.37.12C.05,6.42.45,6.91-.19,7Z"/><path class="cls-5" d="M.79,9.86c0,.14-.3.18-.31.26,0,.31-.15.37-.29.62,0,0-.11-.09-.11-.13s.24-.26.29-.4c.15-.4.12-1,.21-1.19,0,0,.23-.21.29-.27Z"/><path class="cls-5" d="M.94,14.58c-.14,0-.36.05-.35-.12s.17-.33.08-.49-.15-.09-.23-.14c-.14.38-.56.56-.64,1,0,.13-.08.35-.21.23s.18-.16.19-.23a1.77,1.77,0,0,1,.63-1.15c.06-.07,0-.28.16-.34s.28.12.35.08v.06a.64.64,0,0,0-.31.37c0,.09.19.21.34.22Z"/></g></g><polygon class="cls-8" points="27 10.08 13.01 10.08 1 4.39 14.99 4.39 27 10.08"/><g class="cls-9"><circle class="cls-10" cx="3.84" cy="4.63" r="0.22"/><circle class="cls-10" cx="2.35" cy="4.63" r="0.22"/><circle class="cls-10" cx="6.82" cy="4.63" r="0.22"/><circle class="cls-10" cx="5.33" cy="4.63" r="0.22"/><circle class="cls-10" cx="3.84" cy="4.63" r="0.22"/><circle class="cls-10" cx="9.79" cy="4.63" r="0.22"/><circle class="cls-10" cx="8.3" cy="4.63" r="0.22"/><circle class="cls-10" cx="6.82" cy="4.63" r="0.22"/><circle class="cls-10" cx="12.77" cy="4.63" r="0.22"/><circle class="cls-10" cx="11.28" cy="4.63" r="0.22"/><circle class="cls-10" cx="9.79" cy="4.63" r="0.22"/><circle class="cls-10" cx="15.75" cy="4.63" r="0.22"/><circle class="cls-10" cx="14.26" cy="4.63" r="0.22"/><circle class="cls-10" cx="12.77" cy="4.63" r="0.22"/><circle class="cls-10" cx="18.73" cy="4.63" r="0.22"/><circle class="cls-10" cx="17.24" cy="4.63" r="0.22"/><circle class="cls-10" cx="15.75" cy="4.63" r="0.22"/><circle class="cls-10" cx="3.84" cy="6.12" r="0.22"/><circle class="cls-10" cx="3.84" cy="4.63" r="0.22"/><circle class="cls-10" cx="2.35" cy="6.12" r="0.22"/><circle class="cls-10" cx="2.35" cy="4.63" r="0.22"/><circle class="cls-10" cx="3.09" cy="5.37" r="0.22"/><circle class="cls-10" cx="3.09" cy="6.86" r="0.22"/><circle class="cls-10" cx="1.6" cy="5.37" r="0.22"/><circle class="cls-10" cx="1.6" cy="6.86" r="0.22"/><circle class="cls-10" cx="6.82" cy="6.12" r="0.22"/><circle class="cls-10" cx="6.82" cy="4.63" r="0.22"/><circle class="cls-10" cx="5.33" cy="6.12" r="0.22"/><circle class="cls-10" cx="5.33" cy="4.63" r="0.22"/><circle class="cls-10" cx="6.07" cy="5.37" r="0.22"/><circle class="cls-10" cx="6.07" cy="6.86" r="0.22"/><circle class="cls-10" cx="4.58" cy="5.37" r="0.22"/><circle class="cls-10" cx="4.58" cy="6.86" r="0.22"/><circle class="cls-10" cx="3.84" cy="6.12" r="0.22"/><circle class="cls-10" cx="3.84" cy="4.63" r="0.22"/><circle class="cls-10" cx="9.79" cy="6.12" r="0.22"/><circle class="cls-10" cx="9.79" cy="4.63" r="0.22"/><circle class="cls-10" cx="8.3" cy="6.12" r="0.22"/><circle class="cls-10" cx="8.3" cy="4.63" r="0.22"/><circle class="cls-10" cx="9.05" cy="5.37" r="0.22"/><circle class="cls-10" cx="9.05" cy="6.86" r="0.22"/><circle class="cls-10" cx="7.56" cy="5.37" r="0.22"/><circle class="cls-10" cx="7.56" cy="6.86" r="0.22"/><circle class="cls-10" cx="9.79" cy="7.61" r="0.22"/><circle class="cls-10" cx="8.3" cy="7.61" r="0.22"/><circle class="cls-10" cx="6.82" cy="6.12" r="0.22"/><circle class="cls-10" cx="6.82" cy="4.63" r="0.22"/><circle class="cls-10" cx="12.77" cy="6.12" r="0.22"/><circle class="cls-10" cx="12.77" cy="4.63" r="0.22"/><circle class="cls-10" cx="11.28" cy="6.12" r="0.22"/><circle class="cls-10" cx="11.28" cy="4.63" r="0.22"/><circle class="cls-10" cx="12.03" cy="5.37" r="0.22"/><circle class="cls-10" cx="12.03" cy="6.86" r="0.22"/><circle class="cls-10" cx="10.54" cy="5.37" r="0.22"/><circle class="cls-10" cx="10.54" cy="6.86" r="0.22"/><circle class="cls-10" cx="12.77" cy="7.61" r="0.22"/><circle class="cls-10" cx="11.28" cy="7.61" r="0.22"/><circle class="cls-10" cx="9.79" cy="6.12" r="0.22"/><circle class="cls-10" cx="9.79" cy="4.63" r="0.22"/><circle class="cls-10" cx="9.79" cy="7.61" r="0.22"/><circle class="cls-10" cx="15.75" cy="6.12" r="0.22"/><circle class="cls-10" cx="15.75" cy="4.63" r="0.22"/><circle class="cls-10" cx="14.26" cy="6.12" r="0.22"/><circle class="cls-10" cx="14.26" cy="4.63" r="0.22"/><circle class="cls-10" cx="15" cy="5.37" r="0.22"/><circle class="cls-10" cx="15" cy="6.86" r="0.22"/><circle class="cls-10" cx="13.52" cy="5.37" r="0.22"/><circle class="cls-10" cx="13.52" cy="6.86" r="0.22"/><circle class="cls-10" cx="15.75" cy="7.61" r="0.22"/><circle class="cls-10" cx="14.26" cy="7.61" r="0.22"/><circle class="cls-10" cx="12.77" cy="6.12" r="0.22"/><circle class="cls-10" cx="12.77" cy="4.63" r="0.22"/><circle class="cls-10" cx="12.77" cy="7.61" r="0.22"/><circle class="cls-10" cx="18.73" cy="6.12" r="0.22"/><circle class="cls-10" cx="18.73" cy="4.63" r="0.22"/><circle class="cls-10" cx="17.24" cy="6.12" r="0.22"/><circle class="cls-10" cx="17.24" cy="4.63" r="0.22"/><circle class="cls-10" cx="17.98" cy="5.37" r="0.22"/><circle class="cls-10" cx="17.98" cy="6.86" r="0.22"/><circle class="cls-10" cx="16.49" cy="5.37" r="0.22"/><circle class="cls-10" cx="16.49" cy="6.86" r="0.22"/><circle class="cls-10" cx="18.73" cy="7.61" r="0.22"/><circle class="cls-10" cx="17.24" cy="7.61" r="0.22"/><circle class="cls-10" cx="15.75" cy="6.12" r="0.22"/><circle class="cls-10" cx="15.75" cy="4.63" r="0.22"/><circle class="cls-10" cx="15.75" cy="7.61" r="0.22"/><circle class="cls-10" cx="21.7" cy="6.12" r="0.22"/><circle class="cls-10" cx="21.7" cy="4.63" r="0.22"/><circle class="cls-10" cx="20.22" cy="6.12" r="0.22"/><circle class="cls-10" cx="20.22" cy="4.63" r="0.22"/><circle class="cls-10" cx="20.96" cy="5.37" r="0.22"/><circle class="cls-10" cx="20.96" cy="6.86" r="0.22"/><circle class="cls-10" cx="19.47" cy="5.37" r="0.22"/><circle class="cls-10" cx="19.47" cy="6.86" r="0.22"/><circle class="cls-10" cx="21.7" cy="7.61" r="0.22"/><circle class="cls-10" cx="20.22" cy="7.61" r="0.22"/><circle class="cls-10" cx="18.73" cy="6.12" r="0.22"/><circle class="cls-10" cx="18.73" cy="4.63" r="0.22"/><circle class="cls-10" cx="18.73" cy="7.61" r="0.22"/><circle class="cls-10" cx="24.68" cy="7.61" r="0.22"/><circle class="cls-10" cx="23.19" cy="7.61" r="0.22"/><circle class="cls-10" cx="21.7" cy="6.12" r="0.22"/><circle class="cls-10" cx="21.7" cy="4.63" r="0.22"/><circle class="cls-10" cx="21.7" cy="7.61" r="0.22"/><circle class="cls-10" cx="9.79" cy="9.1" r="0.22"/><circle class="cls-10" cx="9.79" cy="7.61" r="0.22"/><circle class="cls-10" cx="8.3" cy="9.1" r="0.22"/><circle class="cls-10" cx="8.3" cy="7.61" r="0.22"/><circle class="cls-10" cx="9.05" cy="8.35" r="0.22"/><circle class="cls-10" cx="9.05" cy="9.84" r="0.22"/><circle class="cls-10" cx="7.56" cy="8.35" r="0.22"/><circle class="cls-10" cx="7.56" cy="9.84" r="0.22"/><circle class="cls-10" cx="12.77" cy="9.1" r="0.22"/><circle class="cls-10" cx="12.77" cy="7.61" r="0.22"/><circle class="cls-10" cx="11.28" cy="9.1" r="0.22"/><circle class="cls-10" cx="11.28" cy="7.61" r="0.22"/><circle class="cls-10" cx="12.03" cy="8.35" r="0.22"/><circle class="cls-10" cx="12.03" cy="9.84" r="0.22"/><circle class="cls-10" cx="10.54" cy="8.35" r="0.22"/><circle class="cls-10" cx="10.54" cy="9.84" r="0.22"/><circle class="cls-10" cx="9.79" cy="9.1" r="0.22"/><circle class="cls-10" cx="9.79" cy="7.61" r="0.22"/><circle class="cls-10" cx="15.75" cy="9.1" r="0.22"/><circle class="cls-10" cx="15.75" cy="7.61" r="0.22"/><circle class="cls-10" cx="14.26" cy="9.1" r="0.22"/><circle class="cls-10" cx="14.26" cy="7.61" r="0.22"/><circle class="cls-10" cx="15" cy="8.35" r="0.22"/><circle class="cls-10" cx="15" cy="9.84" r="0.22"/><circle class="cls-10" cx="13.52" cy="8.35" r="0.22"/><circle class="cls-10" cx="13.52" cy="9.84" r="0.22"/><circle class="cls-10" cx="12.77" cy="9.1" r="0.22"/><circle class="cls-10" cx="12.77" cy="7.61" r="0.22"/><circle class="cls-10" cx="18.73" cy="9.1" r="0.22"/><circle class="cls-10" cx="18.73" cy="7.61" r="0.22"/><circle class="cls-10" cx="17.24" cy="9.1" r="0.22"/><circle class="cls-10" cx="17.24" cy="7.61" r="0.22"/><circle class="cls-10" cx="17.98" cy="8.35" r="0.22"/><circle class="cls-10" cx="17.98" cy="9.84" r="0.22"/><circle class="cls-10" cx="16.49" cy="8.35" r="0.22"/><circle class="cls-10" cx="16.49" cy="9.84" r="0.22"/><circle class="cls-10" cx="15.75" cy="9.1" r="0.22"/><circle class="cls-10" cx="15.75" cy="7.61" r="0.22"/><circle class="cls-10" cx="21.7" cy="9.1" r="0.22"/><circle class="cls-10" cx="21.7" cy="7.61" r="0.22"/><circle class="cls-10" cx="20.22" cy="9.1" r="0.22"/><circle class="cls-10" cx="20.22" cy="7.61" r="0.22"/><circle class="cls-10" cx="20.96" cy="8.35" r="0.22"/><circle class="cls-10" cx="20.96" cy="9.84" r="0.22"/><circle class="cls-10" cx="19.47" cy="8.35" r="0.22"/><circle class="cls-10" cx="19.47" cy="9.84" r="0.22"/><circle class="cls-10" cx="18.73" cy="9.1" r="0.22"/><circle class="cls-10" cx="18.73" cy="7.61" r="0.22"/><circle class="cls-10" cx="24.68" cy="9.1" r="0.22"/><circle class="cls-10" cx="24.68" cy="7.61" r="0.22"/><circle class="cls-10" cx="23.19" cy="9.1" r="0.22"/><circle class="cls-10" cx="23.19" cy="7.61" r="0.22"/><circle class="cls-10" cx="23.94" cy="8.35" r="0.22"/><circle class="cls-10" cx="23.94" cy="9.84" r="0.22"/><circle class="cls-10" cx="22.45" cy="8.35" r="0.22"/><circle class="cls-10" cx="22.45" cy="9.84" r="0.22"/><circle class="cls-10" cx="21.7" cy="9.1" r="0.22"/><circle class="cls-10" cx="21.7" cy="7.61" r="0.22"/><circle class="cls-10" cx="27.66" cy="9.1" r="0.22"/><circle class="cls-10" cx="27.66" cy="7.61" r="0.22"/><circle class="cls-10" cx="26.17" cy="9.1" r="0.22"/><circle class="cls-10" cx="26.17" cy="7.61" r="0.22"/><circle class="cls-10" cx="26.92" cy="8.35" r="0.22"/><circle class="cls-10" cx="26.92" cy="9.84" r="0.22"/><circle class="cls-10" cx="25.43" cy="8.35" r="0.22"/><circle class="cls-10" cx="25.43" cy="9.84" r="0.22"/><circle class="cls-10" cx="24.68" cy="9.1" r="0.22"/><circle class="cls-10" cx="24.68" cy="7.61" r="0.22"/></g><rect class="cls-8" x="13.01" y="10.08" width="13.99" height="1.32"/><polygon class="cls-8" points="13.01 11.39 1 5.71 1 4.39 13.01 10.08 13.01 11.39"/></svg>