<svg id="Layer_1" data-name="Layer 1" xmlns="http://www.w3.org/2000/svg" xmlns:xlink="http://www.w3.org/1999/xlink" viewBox="0 0 28 18"><defs><style>.cls-1{fill:none;}.cls-2{fill:#c6c6c5;}.cls-2,.cls-8{stroke:#3c3c3b;stroke-linecap:round;stroke-linejoin:round;stroke-width:0.7px;}.cls-3{clip-path:url(#clip-path);}.cls-4{clip-path:url(#clip-path-2);}.cls-5{fill:#1d1d1b;}.cls-6{clip-path:url(#clip-path-3);}.cls-7{clip-path:url(#clip-path-4);}.cls-8{fill:#fff;}</style><clipPath id="clip-path"><polygon class="cls-1" points="13.18 14.82 24.84 14.82 14.82 10.07 3.16 10.07 13.18 14.82"/></clipPath><clipPath id="clip-path-2"><rect class="cls-1" x="18.35" y="8.17" width="8.33" height="8.33"/></clipPath><clipPath id="clip-path-3"><rect class="cls-1" x="10.02" y="8.17" width="8.33" height="8.33"/></clipPath><clipPath id="clip-path-4"><rect class="cls-1" x="1.69" y="8.17" width="8.33" height="8.33"/></clipPath></defs><polygon class="cls-2" points="13.09 15.07 26.02 15.07 14.91 9.82 1.98 9.82 13.09 15.07"/><g class="cls-3"><g class="cls-4"><path class="cls-5" d="M21.83,16.73c-.12.07-.21.72-.32.81s-.12.1-.12.14,0,.07,0,.15-.11.35-.32.31-.11-.16.21-.33c0,0,0-.14,0-.21.31-.81.6-1.48.68-1.28Z"/><path class="cls-5" d="M22.71,16.88c0-.07-.06-.11-.06-.19l-.51.11c-.14-.16.17-.22.38-.32a4.23,4.23,0,0,1,.42-.22C22.91,16.43,22.76,16.68,22.71,16.88Z"/><path class="cls-5" d="M25.86,17.28a.16.16,0,0,1-.11.22c-.14,0-.31.06-.31.13a.54.54,0,0,1-.39.46,2.44,2.44,0,0,1,.8-.83s0-.14,0-.21.41,0,.44-.35c0,0-.06-.08-.1-.11.33.09.29-.33.58-.35v.23a.61.61,0,0,0-.35.11C26.08,16.76,26.46,17.21,25.86,17.28Z"/><path class="cls-5" d="M19,17.51c-.05-.3.41-.9.55-1.16a.28.28,0,0,1,0,.26c-.06.31-.41.51-.4.91-.09.14-.08.24-.33.22Z"/><path class="cls-5" d="M20.11,16.7a.5.5,0,0,0-.12-.35c.12,0,.21,0,.22.12S20.15,16.62,20.11,16.7Z"/><path class="cls-5" d="M18.69,16.67c-.27,0,0-.24-.11-.34C18.91,16.34,18.49,16.61,18.69,16.67Z"/><path class="cls-5" d="M20.44,16.84c.26-.19.35-.76.64-.88-.23.18-.25.75-.44.95-.36.39-.86.59-1.13,1.07-.09.17.11.42-.12.57a1.09,1.09,0,0,1,.25-1C19.94,17.3,20.14,17.07,20.44,16.84Z"/><path class="cls-5" d="M24,16.77c-.07.07-.19,0-.21-.11s-.18-.4,0-.46a.55.55,0,0,0,.46.12C23.82,16.31,24.09,16.65,24,16.77Z"/><path class="cls-5" d="M25.13,16.88s.11,0,.16-.07c-.17-.1,0-.34-.19-.37s-.16.07-.26.06C24.92,16.67,25,16.7,25.13,16.88Z"/><path class="cls-5" d="M17.54,17.28a.17.17,0,0,1-.12.22c-.14,0-.31.06-.31.13a.53.53,0,0,1-.38.46,2.32,2.32,0,0,1,.79-.83s0-.14,0-.21.41,0,.43-.35c0,0-.06-.08-.1-.11.33.09.29-.33.58-.35v.23c-.14,0-.23.06-.35.11C17.76,16.76,18.13,17.21,17.54,17.28Z"/><path class="cls-5" d="M26.56,14.83c.13-.05.27.11.33.08.33-.16.3-.55.72-.22,0,0,.1-.06.09-.1s-.14-.22-.09-.34.12-.11.21-.14c.29-.1-.07-.39.34-.59.05,0,.05-.22,0-.31s-.36-.12-.56-.12a.56.56,0,0,0,.46-.24l-.11.24.46.23c-.08,0-.19.06-.21.12s0,.32,0,.45-.16,0-.2,0c-.19.22-.09.61-.28.75s-.93.14-1.08.64c0,.08.17.19.31.2s.28-.1.34-.33c0,.13,0,.29.13.32s.21-.38.44-.3a.21.21,0,0,1,.11.2c0,.06-.14.11-.21.11s-.09-.09-.11-.08c-.24.1-.56.07-.69.33,0,.06,0,.15,0,.23s-.34,0-.32-.11.15-.31.07-.46-.14-.09-.22-.13Z"/><path class="cls-5" d="M26.79,13.43c-.25,0-.11-.14-.12-.23Z"/><path class="cls-5" d="M26.73,9.62c0,.37,0,.25-.4.37.07,0,.3-.14.32-.2s0-.18.05-.29-.23-.11-.12-.27,0-.58.33-.7c.06,0,0,.07.11.07C27,8.92,26.75,9.27,26.73,9.62Z"/><path class="cls-5" d="M26.44,13.92c.08-.22.28-.2.47-.23A.73.73,0,0,1,26.44,13.92Z"/><path class="cls-5" d="M19.21,12.65H19.1a.74.74,0,0,1,.23-.35c0,.08.12.17.1.22S19.29,12.62,19.21,12.65Z"/><path class="cls-5" d="M21.83,8.4c-.12.08-.21.72-.32.81s-.12.1-.12.14,0,.07,0,.15-.11.35-.32.31-.11-.15.21-.33c0,0,0-.14,0-.21.31-.81.6-1.48.68-1.28Z"/><path class="cls-5" d="M20.55,9.71c-.12,0-.27-.17-.25-.2.14-.36.28-.51.42-.52s-.18.22-.26.38.3.38.24.48S20.62,9.8,20.55,9.71Z"/><path class="cls-5" d="M20.2,9.88c-.09.29-.06.32-.47.46.12,0,.09,0,.12-.35C19.85,10,20.12,9.91,20.2,9.88Z"/><path class="cls-5" d="M19.85,11.26c0,.08-.07.21-.12.21-.31,0-.37.27-.46.49.2,0,.35.25.58.23-.11.06-.23.17-.34.1s0-.18,0-.19c-.44-.15-.33-.49-.09-.7,0,0,.16.1.21.07s-.08-.7.12-.55.26.22.44,0,0-.29,0-.45.31,0,.32.12C20.53,11,20,10.91,19.85,11.26Z"/><path class="cls-5" d="M21.24,10.92s-.08.1-.12.1S21,11,21,10.92s.2-.08.2-.12a.49.49,0,0,0-.32-.58C21.36,10.08,21.49,10.6,21.24,10.92Z"/><path class="cls-5" d="M21.73,11.15c0-.6-.09-.93.55-.7.14.21-.28,0-.33.13s.26.16.24.22-.32.06-.36.13,0,.23.1.33S21.72,11.18,21.73,11.15Z"/><path class="cls-5" d="M22.39,11.25s-.07-.06-.11-.1c.12-.07.2-.33.32-.21S22.51,11.29,22.39,11.25Z"/><path class="cls-5" d="M20.74,12.3c-.07.07-.19,0-.21-.11s-.18-.4,0-.46a.59.59,0,0,0,.46.12C20.58,11.84,20.85,12.17,20.74,12.3Z"/><path class="cls-5" d="M23.13,10.66c.43-.06.47-.43.7-.66,0,0,.16,0,.21,0a.44.44,0,0,0,.13-.45c.2.25.4-.1.55,0s.23.62.6.78c-.06.29-.32.45-.46.69.13-.4.44-.84-.11-1,0,0,.1-.08.1-.11a.28.28,0,0,0-.11-.22.34.34,0,0,0-.44.11,1.51,1.51,0,0,1-.45.49c-.1.09,0,.37-.14.54,0,0-.1-.13-.12-.1-.15.27-.35.25-.41.07Z"/><path class="cls-5" d="M23,10.07h0s-.19.06-.2.11c0,.25-.06.5-.37.46a3.06,3.06,0,0,0,.68-1.17c.07-.13-.41-.48-.22-.6l.35.15c.1-.11.22-.18.46,0-.16,0-.36,0-.44.12s0,.4,0,.69c0,0-.17.06-.19.12A.53.53,0,0,0,23,10.07Z"/><path class="cls-5" d="M22.71,8.55c0-.07-.06-.11-.06-.19l-.51.11c-.14-.16.17-.22.38-.32a4.23,4.23,0,0,1,.42-.22C22.91,8.1,22.76,8.35,22.71,8.55Z"/><path class="cls-5" d="M24.25,14.5c.07-.16.22-.1.34-.11A.27.27,0,0,1,24.25,14.5Z"/><path class="cls-5" d="M25.68,8.49c-.07.66-.09,0-.12,0s.27,0,.23-.23A.7.7,0,0,0,25.68,8.49Z"/><path class="cls-5" d="M25.86,9a.16.16,0,0,1-.11.22c-.14,0-.31.06-.31.13a.54.54,0,0,1-.39.46,2.44,2.44,0,0,1,.8-.83s0-.14,0-.21.41,0,.44-.35c0,0-.06-.07-.1-.11.33.09.29-.33.58-.35v.23a.61.61,0,0,0-.35.11C26.08,8.43,26.46,8.88,25.86,9Z"/><path class="cls-5" d="M26.2,9.87c0,.15-.09.31-.22.33s-.23.17-.35-.21c.36.12.46-.18.58-.46A1.28,1.28,0,0,1,26.2,9.87Z"/><path class="cls-5" d="M25.64,11a.54.54,0,0,0,0,.22.38.38,0,0,1-.09-.44c.05-.06.21,0,.32,0A1.26,1.26,0,0,0,25.64,11Z"/><path class="cls-5" d="M23.71,11.61c0-.08,0-.19,0-.21a1,1,0,0,0-.44-.06s.08-.09.12-.1.27.13.32.11a7,7,0,0,0,.89-1s-.15.4-.16.41C24.17,11.13,24,11.28,23.71,11.61Z"/><path class="cls-5" d="M24.33,11.91c-.1-.07-.31-.07-.21-.23.2-.33.64-.34.91-.59.06.33.48.25.68.47,0,0,0,.15,0,.22s0,.27.22.24l-.11.11c-.21-.3-.25,0-.47,0,.08,0,.2-.06.21-.12a.51.51,0,0,0-.1-.57c-.06,0-.17-.12-.21-.1a.41.41,0,0,0-.13.44c-.19-.17-.27-.58-.56-.42a1.79,1.79,0,0,0-.33.34c-.17.2.38.14.31.43A1.2,1.2,0,0,0,24.33,11.91Z"/><path class="cls-5" d="M23.26,12s.16,0,.19,0,.28.17.31.28c.06-.05.18-.1.18-.16s-.38-.17-.6-.25a.31.31,0,0,1-.19-.3A1,1,0,0,0,23.26,12Z"/><path class="cls-5" d="M22.73,11.89c.07.24-.13.16-.22,0s-.14-.58.23-.59c0,0,.08.06.12.1S22.46,11,22.73,11.89Z"/><path class="cls-5" d="M19,9.18c-.05-.3.41-.9.55-1.15.08.07.05.19,0,.26-.06.3-.41.5-.4.9-.09.14-.08.24-.33.22Z"/><path class="cls-5" d="M18.54,10.39c.35-.2,0-.22.41-.4.21.06.25.31.26.52,0,.05-.05.21-.05.29L19,10.57c0-.08-.07-.27-.1-.28A.57.57,0,0,0,18.54,10.39Z"/><path class="cls-5" d="M21,8.54V8.3a.47.47,0,0,0,.34.12Z"/><path class="cls-5" d="M18.94,11.47c.07.25-.13.17-.22,0s-.14-.58.23-.6c0,0,.08.07.12.1S18.67,10.61,18.94,11.47Z"/><path class="cls-5" d="M18.23,14.83c.13-.05.27.11.33.08.33-.16.3-.55.72-.22,0,0,.1-.06.09-.1s-.14-.22-.09-.34.12-.11.22-.14c.28-.1-.08-.39.33-.59.05,0,.06-.22,0-.31s-.36-.12-.56-.12a.56.56,0,0,0,.46-.24l-.11.24.46.23c-.08,0-.19.06-.21.12s0,.32,0,.45-.16,0-.2,0c-.18.22-.09.61-.28.75s-.93.14-1.08.64c0,.08.17.19.31.2s.28-.1.34-.33c0,.13,0,.29.13.32s.21-.38.45-.3a.22.22,0,0,1,.1.2c0,.06-.14.11-.21.11s-.09-.09-.11-.08c-.24.1-.55.07-.69.33a.58.58,0,0,0,0,.23c-.13,0-.34,0-.32-.11s.15-.31.07-.46-.14-.09-.22-.13Z"/><path class="cls-5" d="M19.92,16c.06,0,.08-.14.12-.21l.23.11c.21-.5.56-1.14,1.16-1.16V15a.32.32,0,0,0-.33.12c-.1.19.24.29,0,.57,0-.2.07-.48-.12-.54s-.39.29-.34.54c-.08,0-.2,0-.21,0-.14.3-.51.37-.6.68-.19-.2-.52-.25-.58-.57C19.51,15.69,19.67,16.07,19.92,16Z"/><path class="cls-5" d="M18.46,13.43c-.24,0-.1-.14-.11-.23A1.63,1.63,0,0,0,18.46,13.43Z"/><path class="cls-5" d="M19.06,13.42a.44.44,0,0,1,.1.36c-.08,0-.21-.08-.21-.11,0-.26-.23-.45-.14-.7C19,13.08,19,13.28,19.06,13.42Z"/><path class="cls-5" d="M18.46,12.74c0-.26.17,0,.23-.12Z"/><path class="cls-5" d="M20.56,13c0,.39.28.61.56.81a.53.53,0,0,0-.35-.22s-.07.09-.11.09-.2-.06-.21-.1c0-.23-.12-.46.07-.71,0,0-.05-.14-.09-.22l-.23.12L20,12.28c.36.05.4.46.7.57C20.62,12.89,20.56,12.93,20.56,13Z"/><path class="cls-5" d="M21.3,13.5c.19,0,.19-.14.19-.25s-.07-.15.18-.4c0,0,.06-.21.11-.32l.13.1c-.07,0-.18.08-.2.15s.05.25,0,.32-.28.16-.27.39c0,0,.1.08.09.1a1,1,0,0,0-.05.48C21.23,13.94,21.31,13.71,21.3,13.5Z"/><path class="cls-5" d="M22.43,13.07c-.2.24-.45,0-.58.29.2-.07.08.06.45.13,0-.09,0-.22,0-.24.37-.22.18-.69.47-1l-.16,0a1.37,1.37,0,0,1-.15.47C22.19,12.88,22.59,12.86,22.43,13.07Z"/><path class="cls-5" d="M21.61,14.45c-.28-.23-.28.06-.49,0l.12-.23c.19.26.39-.09.55,0S21.64,14.47,21.61,14.45Z"/><path class="cls-5" d="M21.84,15.07s-.17.06-.2.12c-.16.33-.05.43.12.68a.16.16,0,0,1-.22-.11c0-.2.09-.18-.11-.38s.21-.21.26-.34.3-.32.43-.54c0-.07.19,0,.18.1C22.26,14.86,21.86,14.51,21.84,15.07Z"/><path class="cls-5" d="M21.9,9.4c-.06,0,.05-.14.14-.18.1.23.49.07.5.33,0,.1-.15.18-.15.32C22.16,9.72,22.13,9.57,21.9,9.4Z"/><path class="cls-5" d="M22.86,14.42c.11.25-.19.16-.24.28C22.46,14.4,22.91,14.62,22.86,14.42Z"/><path class="cls-5" d="M23.14,14.54l.23.11c0-.08.12-.17.1-.22-.16-.33,0-.68.14-1a.25.25,0,0,0,.34-.12,3.68,3.68,0,0,0,.47-1c-.09,0-.22,0-.23.05-.14.5-.55,1.26-1.1,1.38,0,0,0,.1,0,.15s.23.13.27.21S23.25,14.4,23.14,14.54Z"/><path class="cls-5" d="M22.87,13.09c0,.07,0,.17,0,.25.14-.33.14-.72.51-1-.15-.1-.25,0-.36.08C23.24,12.72,22.8,12.81,22.87,13.09Z"/><path class="cls-5" d="M23.56,15.4c-.09.18.23.45.33.43a.32.32,0,0,0,.24-.43c.47,0,1.05.5.66.9-.08.08-.28,0-.43-.09a.43.43,0,0,0,.33-.57.35.35,0,0,0-.33-.13c-.31,0-.17.31-.35.46a.38.38,0,0,1-.23.11c-.13,0-.24-.14-.36-.2s-.17,0-.2.11a.24.24,0,0,0,.1.34.18.18,0,0,1-.21-.23c.05-.21.44-.18.43-.47a.4.4,0,0,0-.34-.35c.51.11.39-.45.75-.57s.12.12.1.21S23.66,15.2,23.56,15.4Z"/><path class="cls-5" d="M24.32,14a1.2,1.2,0,0,0-.23.11c.19-.13,0-.33.33-.5.08,0,0-.23-.1-.31l.12-.12a2,2,0,0,0,.11.81A.91.91,0,0,0,24.32,14Z"/><path class="cls-5" d="M25.16,13.47c0,.08-.07.16-.11.23l-.1-.1a.91.91,0,0,0,.1-.48A1.28,1.28,0,0,1,25.16,13.47Z"/><path class="cls-5" d="M25,12.59c-.2.05-.22-.13-.22-.23s.13-.17.2-.1,0,.26.36.22Z"/><path class="cls-5" d="M25.61,12.66c-.11.13-.16.46-.3.31S25.48,12.76,25.61,12.66Z"/><path class="cls-5" d="M25.61,15.74c0,.15-.08.43-.31.33,0,0,0-.13,0-.21.19,0,.42,0,.43-.35,0,0-.17-.06-.18-.11s-.17-.23.21-.35C25.59,15.26,25.66,15.51,25.61,15.74Z"/><path class="cls-5" d="M18.4,9.62c0,.37,0,.25-.4.37.08,0,.31-.14.32-.2s0-.18.05-.29-.23-.11-.12-.27,0-.58.33-.7c.06,0,0,.07.11.07C18.69,8.92,18.42,9.27,18.4,9.62Z"/><path class="cls-5" d="M25.83,13.44c.05-.6-.08-.93.55-.7.15.21-.28,0-.32.13s.26.16.24.22-.33.06-.36.12,0,.23.1.34C26,13.51,25.83,13.47,25.83,13.44Z"/><path class="cls-5" d="M25.58,14.13c-.2,0-.21.13-.22.23s.09.09.08.11c-.11.24-.37.08-.56.12.08,0,.19,0,.21,0,.15-.21.44-.55.14-.8.15.19.48.07.58.35Z"/><path class="cls-5" d="M25,15.21a2.67,2.67,0,0,1-.75,0,.62.62,0,0,1,.2-.12c.08,0,.08.12.14.1s.08-.19.13-.19c.24,0,.45-.12.69-.14,0,.08-.06.19-.12.22A.91.91,0,0,1,25,15.21Z"/><path class="cls-5" d="M26.1,14.65c0,.07-.15,0-.21-.11.21-.13,0-.49.24-.55.09,0,.2.12.34.09C26.36,14.33,26.22,14.39,26.1,14.65Z"/><path class="cls-5" d="M21.66,11.67c-.2,0-.2.14-.22.24s.1.09.09.11c-.11.24-.37.08-.56.12.07,0,.18,0,.21,0,.15-.21.44-.55.13-.8.15.19.49.06.58.35A.91.91,0,0,1,21.66,11.67Z"/><path class="cls-5" d="M20.89,12.91c.08-.22.28-.21.46-.23A.68.68,0,0,1,20.89,12.91Z"/><path class="cls-5" d="M18.71,12.29s-.07-.06-.1-.1c.12-.07.2-.33.32-.21S18.84,12.33,18.71,12.29Z"/><path class="cls-5" d="M18.69,14.18c.08-.16.22-.1.35-.11C19,14.21,18.83,14.21,18.69,14.18Z"/><path class="cls-5" d="M22.56,14.12c-.07.08-.06.1-.11.12s-.24-.05-.35-.11c.4.08.56-.24.47-.58.07,0,.2.08.2.11A.91.91,0,0,1,22.56,14.12Z"/><path class="cls-5" d="M24.55,9.14c-.07.07-.07.09-.11.11s-.24-.05-.35-.11c.4.08.56-.24.47-.58.07,0,.2.08.2.12A1.05,1.05,0,0,1,24.55,9.14Z"/><path class="cls-5" d="M20.77,14.3a.49.49,0,0,0-.11-.35.16.16,0,0,1,.21.12C20.87,14.16,20.81,14.22,20.77,14.3Z"/><path class="cls-5" d="M20.11,8.37A.47.47,0,0,0,20,8a.16.16,0,0,1,.22.11A.48.48,0,0,1,20.11,8.37Z"/><path class="cls-5" d="M18.11,13.92c.08-.22.29-.2.47-.23A.73.73,0,0,1,18.11,13.92Z"/><path class="cls-5" d="M18.69,8.34c-.27,0,0-.24-.11-.34C18.91,8,18.49,8.28,18.69,8.34Z"/><path class="cls-5" d="M26.77,11.61c0,.13-.28.17-.29.24,0,.28-.14.34-.27.57,0,0-.1-.08-.1-.11s.23-.25.27-.37c.14-.38.11-1,.2-1.11a1.82,1.82,0,0,0,.27-.25Z"/><path class="cls-5" d="M20.44,8.51c.26-.19.35-.76.64-.88-.23.18-.25.75-.44,1-.36.39-.86.59-1.13,1.07-.09.17.11.42-.12.57a1.09,1.09,0,0,1,.25-1C19.94,9,20.14,8.74,20.44,8.51Z"/><path class="cls-5" d="M23.59,8.36c-.11.13-.16.46-.31.31S23.45,8.46,23.59,8.36Z"/><path class="cls-5" d="M24,8.44c-.07.07-.19,0-.21-.1s-.18-.41,0-.46a.58.58,0,0,0,.46.11C23.82,8,24.09,8.32,24,8.44Z"/><path class="cls-5" d="M25.13,8.55s.11,0,.16-.07c-.17-.1,0-.34-.19-.37s-.16.07-.26.06C24.92,8.34,25,8.37,25.13,8.55Z"/><path class="cls-5" d="M21.55,10.17c.08-.22.28-.2.46-.23A.68.68,0,0,1,21.55,10.17Z"/><path class="cls-5" d="M26.21,10.6c.08-.16.22-.11.35-.12C26.48,10.63,26.35,10.62,26.21,10.6Z"/><path class="cls-5" d="M26.91,16c-.13,0-.34,0-.32-.11s.15-.31.07-.46-.14-.09-.22-.13c-.12.35-.51.52-.58.93,0,.12-.08.32-.2.2s.17-.14.17-.2a1.67,1.67,0,0,1,.59-1.07c0-.06,0-.25.14-.31s.27.11.33.08V15a.54.54,0,0,0-.28.34c0,.08.17.19.31.2Z"/><path class="cls-5" d="M22.47,9.17a.51.51,0,0,0-.11-.34.15.15,0,0,1,.21.11A.48.48,0,0,1,22.47,9.17Z"/><path class="cls-5" d="M22.08,11.7c.26,0,0,.18.08.25A2.41,2.41,0,0,0,22.08,11.7Z"/><path class="cls-5" d="M26.1,11.52a.54.54,0,0,0-.12-.34.17.17,0,0,1,.22.11C26.2,11.38,26.13,11.45,26.1,11.52Z"/><path class="cls-5" d="M25.09,9.33A.53.53,0,0,1,25.26,9a.16.16,0,0,0-.23.08A.76.76,0,0,0,25.09,9.33Z"/><path class="cls-5" d="M19.77,8.62c.12.25-.19.16-.23.28C19.37,8.61,19.83,8.82,19.77,8.62Z"/><path class="cls-5" d="M23.82,9.56c-.24,0-.1-.14-.11-.23Z"/><path class="cls-5" d="M22.36,15.94c.19-.06.14-.21.11-.31s-.13,0-.13-.06c0-.27.31-.23.47-.34-.07,0-.18,0-.19.1-.05.25-.18.68.19.78-.21-.11-.47.14-.66-.09A1.31,1.31,0,0,1,22.36,15.94Z"/><path class="cls-5" d="M20.08,12c-.25,0-.1-.14-.12-.23Z"/><path class="cls-5" d="M20.43,11.1c.07-.16.22-.11.34-.12A.27.27,0,0,1,20.43,11.1Z"/><path class="cls-5" d="M23.74,12.87c-.24,0-.1-.14-.11-.23C23.67,12.72,23.7,12.8,23.74,12.87Z"/><path class="cls-5" d="M23.05,15.11c0-.09-.05-.16-.1-.23s.17,0,.18.08S23.08,15.06,23.05,15.11Z"/><path class="cls-5" d="M22.21,15.15c-.07.66-.09,0-.12,0s.27,0,.23-.23A.8.8,0,0,0,22.21,15.15Z"/><path class="cls-5" d="M19.82,14.22c.39-.11,0-.21.49-.3.19.1.18.35.15.57,0,0-.1.19-.12.27l-.06-.25c0-.09,0-.29,0-.3A.63.63,0,0,0,19.82,14.22Z"/><path class="cls-5" d="M19.94,15.22c0,.2.22.13.3.08s.09-.2,0-.23-.22.13-.36-.21C19.89,15,19.91,15.1,19.94,15.22Z"/><path class="cls-5" d="M17.54,9a.17.17,0,0,1-.12.22c-.14,0-.31.06-.31.13a.53.53,0,0,1-.38.46,2.32,2.32,0,0,1,.79-.83s0-.14,0-.21.41,0,.43-.35c0,0-.06-.07-.1-.11.33.09.29-.33.58-.35v.23c-.14,0-.23.06-.35.11C17.76,8.43,18.13,8.88,17.54,9Z"/><path class="cls-5" d="M18.44,11.61c0,.13-.28.17-.28.24,0,.28-.14.34-.28.57,0,0-.1-.08-.1-.11s.23-.25.27-.37c.14-.38.11-1,.2-1.11a1.82,1.82,0,0,0,.27-.25Z"/><path class="cls-5" d="M18.58,16c-.13,0-.34,0-.32-.11s.15-.31.07-.46-.14-.09-.22-.13c-.12.35-.51.52-.58.93,0,.12-.08.32-.2.2s.17-.14.17-.2a1.67,1.67,0,0,1,.59-1.07c.05-.06,0-.25.14-.31s.27.11.33.08V15a.54.54,0,0,0-.28.34c0,.08.17.19.31.2Z"/></g><g class="cls-6"><path class="cls-5" d="M13.5,16.73c-.12.07-.2.72-.32.81s-.12.1-.12.14,0,.07,0,.15-.11.35-.32.31c-.06,0-.11-.16.21-.33,0,0,0-.14,0-.21.31-.81.6-1.48.68-1.28Z"/><path class="cls-5" d="M14.39,16.88a.44.44,0,0,1-.07-.19l-.51.11c-.14-.16.17-.22.39-.32a3.23,3.23,0,0,1,.41-.22C14.58,16.43,14.43,16.68,14.39,16.88Z"/><path class="cls-5" d="M17.54,17.28a.17.17,0,0,1-.12.22c-.14,0-.31.06-.31.13a.53.53,0,0,1-.38.46,2.32,2.32,0,0,1,.79-.83s0-.14,0-.21.41,0,.43-.35c0,0-.06-.08-.1-.11.33.09.29-.33.58-.35v.23c-.14,0-.23.06-.35.11C17.76,16.76,18.13,17.21,17.54,17.28Z"/><path class="cls-5" d="M10.62,17.51c0-.3.41-.9.55-1.16a.28.28,0,0,1,0,.26c-.06.31-.4.51-.4.91-.09.14-.08.24-.33.22Z"/><path class="cls-5" d="M11.78,16.7a.5.5,0,0,0-.12-.35c.12,0,.21,0,.22.12S11.82,16.62,11.78,16.7Z"/><path class="cls-5" d="M10.36,16.67c-.27,0,0-.24-.11-.34C10.59,16.34,10.16,16.61,10.36,16.67Z"/><path class="cls-5" d="M12.11,16.84c.26-.19.35-.76.64-.88-.23.18-.25.75-.44.95-.36.39-.86.59-1.12,1.07-.1.17.1.42-.13.57a1.09,1.09,0,0,1,.25-1C11.61,17.3,11.81,17.07,12.11,16.84Z"/><path class="cls-5" d="M15.65,16.77c-.07.07-.19,0-.21-.11s-.18-.4,0-.46a.55.55,0,0,0,.46.12C15.49,16.31,15.76,16.65,15.65,16.77Z"/><path class="cls-5" d="M16.8,16.88s.11,0,.16-.07c-.17-.1,0-.34-.19-.37s-.16.07-.26.06C16.59,16.67,16.7,16.7,16.8,16.88Z"/><path class="cls-5" d="M9.21,17.28a.17.17,0,0,1-.12.22c-.13,0-.31.06-.31.13a.53.53,0,0,1-.38.46,2.32,2.32,0,0,1,.79-.83s0-.14,0-.21.41,0,.44-.35c0,0-.07-.08-.11-.11.33.09.29-.33.58-.35v.23c-.13,0-.23.06-.35.11C9.43,16.76,9.8,17.21,9.21,17.28Z"/><path class="cls-5" d="M18.23,14.83c.13-.05.27.11.33.08.33-.16.3-.55.72-.22,0,0,.1-.06.09-.1s-.14-.22-.09-.34.12-.11.22-.14c.28-.1-.08-.39.33-.59.05,0,.06-.22,0-.31s-.36-.12-.56-.12a.56.56,0,0,0,.46-.24l-.11.24.46.23c-.08,0-.19.06-.21.12s0,.32,0,.45-.16,0-.2,0c-.18.22-.09.61-.28.75s-.93.14-1.08.64c0,.08.17.19.31.2s.28-.1.34-.33c0,.13,0,.29.13.32s.21-.38.45-.3a.22.22,0,0,1,.1.2c0,.06-.14.11-.21.11s-.09-.09-.11-.08c-.24.1-.55.07-.69.33a.58.58,0,0,0,0,.23c-.13,0-.34,0-.32-.11s.15-.31.07-.46-.14-.09-.22-.13Z"/><path class="cls-5" d="M18.46,13.43c-.24,0-.1-.14-.11-.23A1.63,1.63,0,0,0,18.46,13.43Z"/><path class="cls-5" d="M18.4,9.62c0,.37,0,.25-.4.37.08,0,.31-.14.32-.2s0-.18.05-.29-.23-.11-.12-.27,0-.58.33-.7c.06,0,0,.07.11.07C18.69,8.92,18.42,9.27,18.4,9.62Z"/><path class="cls-5" d="M18.11,13.92c.08-.22.29-.2.47-.23A.73.73,0,0,1,18.11,13.92Z"/><path class="cls-5" d="M10.88,12.65h-.11a.74.74,0,0,1,.23-.35c0,.08.12.17.1.22S11,12.62,10.88,12.65Z"/><path class="cls-5" d="M13.5,8.4c-.12.08-.2.72-.32.81s-.12.1-.12.14,0,.07,0,.15-.11.35-.32.31c-.06,0-.11-.15.21-.33,0,0,0-.14,0-.21.31-.81.6-1.48.68-1.28Z"/><path class="cls-5" d="M12.22,9.71c-.11,0-.26-.17-.25-.2.14-.36.28-.51.42-.52s-.18.22-.26.38.3.38.24.48S12.3,9.8,12.22,9.71Z"/><path class="cls-5" d="M11.87,9.88c-.09.29-.06.32-.47.46.12,0,.09,0,.12-.35C11.52,10,11.79,9.91,11.87,9.88Z"/><path class="cls-5" d="M11.52,11.26c0,.08-.07.21-.12.21-.31,0-.37.27-.46.49.2,0,.35.25.58.23-.11.06-.23.17-.33.1s0-.18,0-.19c-.45-.15-.34-.49-.09-.7,0,0,.15.1.2.07s-.08-.7.12-.55.26.22.44,0,0-.29,0-.45.32,0,.32.12C12.21,11,11.66,10.91,11.52,11.26Z"/><path class="cls-5" d="M12.91,10.92s-.08.1-.12.1-.07-.06-.11-.1.2-.08.2-.12a.49.49,0,0,0-.32-.58C13,10.08,13.16,10.6,12.91,10.92Z"/><path class="cls-5" d="M13.4,11.15c0-.6-.09-.93.55-.7.14.21-.28,0-.33.13s.26.16.24.22-.32.06-.36.13,0,.23.1.33S13.4,11.18,13.4,11.15Z"/><path class="cls-5" d="M14.06,11.25s-.07-.06-.11-.1c.12-.07.2-.33.32-.21S14.18,11.29,14.06,11.25Z"/><path class="cls-5" d="M12.41,12.3c-.07.07-.18,0-.21-.11s-.18-.4,0-.46a.59.59,0,0,0,.46.12C12.26,11.84,12.52,12.17,12.41,12.3Z"/><path class="cls-5" d="M14.8,10.66c.43-.06.47-.43.7-.66.05,0,.16,0,.21,0a.44.44,0,0,0,.13-.45c.2.25.4-.1.55,0s.23.62.61.78c-.06.29-.33.45-.47.69.13-.4.44-.84-.11-1,0,0,.1-.08.1-.11a.28.28,0,0,0-.11-.22.34.34,0,0,0-.44.11c-.14.27-.23.29-.44.49s0,.37-.15.54c0,0-.1-.13-.12-.1-.14.27-.35.25-.4.07Z"/><path class="cls-5" d="M14.71,10.07h0s-.19.06-.2.11c0,.25,0,.5-.37.46a3.06,3.06,0,0,0,.68-1.17c.07-.13-.41-.48-.22-.6L15,9c.1-.11.22-.18.46,0-.16,0-.35,0-.44.12s0,.4,0,.69c0,0-.17.06-.19.12A.53.53,0,0,0,14.71,10.07Z"/><path class="cls-5" d="M14.39,8.55a.44.44,0,0,1-.07-.19l-.51.11c-.14-.16.17-.22.39-.32a3.23,3.23,0,0,1,.41-.22C14.58,8.1,14.43,8.35,14.39,8.55Z"/><path class="cls-5" d="M15.92,14.5c.07-.16.22-.1.34-.11A.27.27,0,0,1,15.92,14.5Z"/><path class="cls-5" d="M17.35,8.49c-.07.66-.08,0-.12,0s.27,0,.23-.23A.7.7,0,0,0,17.35,8.49Z"/><path class="cls-5" d="M17.54,9a.17.17,0,0,1-.12.22c-.14,0-.31.06-.31.13a.53.53,0,0,1-.38.46,2.32,2.32,0,0,1,.79-.83s0-.14,0-.21.41,0,.43-.35c0,0-.06-.07-.1-.11.33.09.29-.33.58-.35v.23c-.14,0-.23.06-.35.11C17.76,8.43,18.13,8.88,17.54,9Z"/><path class="cls-5" d="M17.87,9.87c0,.15-.09.31-.22.33s-.23.17-.35-.21c.36.12.46-.18.58-.46A1.28,1.28,0,0,1,17.87,9.87Z"/><path class="cls-5" d="M17.31,11a.54.54,0,0,0,0,.22.38.38,0,0,1-.09-.44c.05-.06.21,0,.33,0A1,1,0,0,0,17.31,11Z"/><path class="cls-5" d="M15.38,11.61c0-.08,0-.19,0-.21a1.09,1.09,0,0,0-.45-.06s.08-.09.13-.1.26.13.31.11a7,7,0,0,0,.89-1s-.15.4-.15.41C15.84,11.13,15.64,11.28,15.38,11.61Z"/><path class="cls-5" d="M16,11.91c-.1-.07-.31-.07-.21-.23.2-.33.64-.34.91-.59.06.33.48.25.68.47,0,0,0,.15,0,.22s0,.27.22.24l-.11.11c-.21-.3-.25,0-.47,0,.08,0,.2-.06.22-.12a.53.53,0,0,0-.11-.57c-.06,0-.17-.12-.21-.1a.41.41,0,0,0-.13.44c-.19-.17-.27-.58-.56-.42a1.79,1.79,0,0,0-.33.34c-.17.2.38.14.31.43A1.2,1.2,0,0,0,16,11.91Z"/><path class="cls-5" d="M14.93,12s.16,0,.19,0,.28.17.31.28c.06-.05.18-.1.18-.16s-.38-.17-.6-.25a.31.31,0,0,1-.19-.3A1,1,0,0,0,14.93,12Z"/><path class="cls-5" d="M14.4,11.89c.07.24-.13.16-.22,0s-.14-.58.23-.59c0,0,.08.06.12.1S14.13,11,14.4,11.89Z"/><path class="cls-5" d="M10.62,9.18c0-.3.41-.9.55-1.15.08.07.05.19,0,.26-.06.3-.4.5-.4.9-.09.14-.08.24-.33.22Z"/><path class="cls-5" d="M10.21,10.39c.35-.2,0-.22.41-.4.21.06.25.31.26.52,0,.05-.05.21-.05.29l-.12-.23c0-.08-.07-.27-.1-.28A.57.57,0,0,0,10.21,10.39Z"/><path class="cls-5" d="M12.66,8.54V8.3a.49.49,0,0,0,.34.12Z"/><path class="cls-5" d="M10.61,11.47c.07.25-.13.17-.22,0s-.14-.58.23-.6c0,0,.08.07.12.1S10.35,10.61,10.61,11.47Z"/><path class="cls-5" d="M9.9,14.83c.13-.05.27.11.33.08.33-.16.31-.55.72-.22,0,0,.1-.06.09-.1s-.14-.22-.09-.34.12-.11.22-.14c.28-.1-.08-.39.33-.59.05,0,.06-.22,0-.31s-.36-.12-.56-.12a.56.56,0,0,0,.46-.24,2.56,2.56,0,0,1-.11.24l.46.23c-.08,0-.19.06-.21.12s0,.32,0,.45-.16,0-.2,0c-.18.22-.09.61-.28.75s-.93.14-1.08.64c0,.08.17.19.31.2s.28-.1.34-.33c0,.13,0,.29.13.32s.21-.38.45-.3a.2.2,0,0,1,.1.2c0,.06-.14.11-.21.11s-.09-.09-.11-.08c-.24.1-.55.07-.69.33a.58.58,0,0,0,0,.23c-.13,0-.33,0-.32-.11s.15-.31.07-.46-.14-.09-.22-.13Z"/><path class="cls-5" d="M11.59,16c.06,0,.08-.14.12-.21l.23.11c.21-.5.56-1.14,1.16-1.16V15a.32.32,0,0,0-.33.12c-.1.19.24.29,0,.57,0-.2.07-.48-.12-.54s-.39.29-.34.54c-.08,0-.19,0-.21,0-.14.3-.51.37-.6.68-.19-.2-.52-.25-.58-.57C11.19,15.69,11.34,16.07,11.59,16Z"/><path class="cls-5" d="M10.13,13.43c-.24,0-.1-.14-.11-.23C10.06,13.28,10.09,13.36,10.13,13.43Z"/><path class="cls-5" d="M10.73,13.42a.44.44,0,0,1,.1.36c-.08,0-.21-.08-.21-.11,0-.26-.23-.45-.14-.7C10.64,13.08,10.63,13.28,10.73,13.42Z"/><path class="cls-5" d="M10.13,12.74c0-.26.17,0,.23-.12Z"/><path class="cls-5" d="M12.23,13c0,.39.28.61.56.81a.51.51,0,0,0-.35-.22s-.07.09-.11.09-.2-.06-.21-.1c0-.23-.12-.46.07-.71,0,0,0-.14-.09-.22l-.23.12-.23-.46c.35.05.4.46.69.57C12.29,12.89,12.23,12.93,12.23,13Z"/><path class="cls-5" d="M13,13.5c.2,0,.19-.14.19-.25s-.07-.15.18-.4c.05,0,.06-.21.12-.32l.12.1c-.07,0-.18.08-.2.15s0,.25,0,.32-.28.16-.27.39c0,0,.1.08.09.1a1,1,0,0,0,0,.48C12.9,13.94,13,13.71,13,13.5Z"/><path class="cls-5" d="M14.1,13.07c-.19.24-.44,0-.58.29.2-.07.08.06.45.13,0-.09,0-.22,0-.24.37-.22.18-.69.47-1l-.16,0a1.18,1.18,0,0,1-.15.47C13.86,12.88,14.27,12.86,14.1,13.07Z"/><path class="cls-5" d="M13.28,14.45c-.28-.23-.27.06-.49,0l.12-.23c.2.26.4-.09.55,0S13.31,14.47,13.28,14.45Z"/><path class="cls-5" d="M13.51,15.07s-.16.06-.19.12c-.16.33-.05.43.11.68a.16.16,0,0,1-.22-.11c0-.2.09-.18-.11-.38s.21-.21.26-.34.3-.32.43-.54c0-.07.19,0,.18.1C13.93,14.86,13.54,14.51,13.51,15.07Z"/><path class="cls-5" d="M13.57,9.4c-.06,0,0-.14.14-.18.1.23.49.07.5.33,0,.1-.15.18-.15.32C13.83,9.72,13.8,9.57,13.57,9.4Z"/><path class="cls-5" d="M14.53,14.42c.11.25-.19.16-.23.28C14.13,14.4,14.58,14.62,14.53,14.42Z"/><path class="cls-5" d="M14.81,14.54l.23.11c0-.08.12-.17.1-.22-.16-.33,0-.68.14-1a.24.24,0,0,0,.34-.12,3.68,3.68,0,0,0,.47-1c-.09,0-.22,0-.23.05-.14.5-.55,1.26-1.1,1.38,0,0,0,.1,0,.15s.23.13.27.21S14.92,14.4,14.81,14.54Z"/><path class="cls-5" d="M14.55,13.09c0,.07-.05.17,0,.25.14-.33.15-.72.51-1-.15-.1-.25,0-.36.08C14.91,12.72,14.47,12.81,14.55,13.09Z"/><path class="cls-5" d="M15.23,15.4c-.09.18.23.45.33.43a.32.32,0,0,0,.24-.43c.47,0,1.05.5.67.9-.09.08-.29,0-.44-.09a.43.43,0,0,0,.33-.57.35.35,0,0,0-.33-.13c-.31,0-.17.31-.35.46a.38.38,0,0,1-.23.11c-.13,0-.23-.14-.35-.2s-.17,0-.21.11a.24.24,0,0,0,.1.34.18.18,0,0,1-.21-.23c.05-.21.44-.18.43-.47s-.11-.29-.34-.35c.51.11.39-.45.75-.57s.13.12.1.21S15.33,15.2,15.23,15.4Z"/><path class="cls-5" d="M16,14a1.2,1.2,0,0,0-.23.11c.19-.13,0-.33.33-.5.08,0,.05-.23-.1-.31l.12-.12a2.18,2.18,0,0,0,.11.81A.91.91,0,0,0,16,14Z"/><path class="cls-5" d="M16.83,13.47c0,.08-.07.16-.1.23s-.11-.09-.1-.1a1,1,0,0,0,.1-.48A1.69,1.69,0,0,1,16.83,13.47Z"/><path class="cls-5" d="M16.67,12.59c-.2.05-.22-.13-.22-.23s.13-.17.2-.1,0,.26.36.22Z"/><path class="cls-5" d="M17.28,12.66c-.1.13-.16.46-.3.31S17.15,12.76,17.28,12.66Z"/><path class="cls-5" d="M17.28,15.74c0,.15-.08.43-.31.33,0,0,0-.13,0-.21.19,0,.42,0,.43-.35,0,0-.17-.06-.18-.11s-.16-.23.21-.35C17.26,15.26,17.33,15.51,17.28,15.74Z"/><path class="cls-5" d="M10.07,9.62c0,.37,0,.25-.4.37.08,0,.31-.14.32-.2s0-.18,0-.29-.23-.11-.12-.27,0-.58.33-.7c.07,0,0,.07.11.07C10.36,8.92,10.09,9.27,10.07,9.62Z"/><path class="cls-5" d="M17.5,13.44c.05-.6-.08-.93.56-.7.14.21-.28,0-.33.13s.26.16.24.22-.33.06-.36.12,0,.23.1.34C17.63,13.51,17.5,13.47,17.5,13.44Z"/><path class="cls-5" d="M17.25,14.13c-.2,0-.21.13-.22.23s.09.09.08.11c-.11.24-.37.08-.56.12.08,0,.19,0,.21,0,.15-.21.44-.55.14-.8.15.19.49.07.58.35Z"/><path class="cls-5" d="M16.69,15.21a2.67,2.67,0,0,1-.75,0,.57.57,0,0,1,.21-.12c.07,0,.08.12.13.1s.08-.19.13-.19c.24,0,.46-.12.69-.14,0,.08-.06.19-.12.22A.91.91,0,0,1,16.69,15.21Z"/><path class="cls-5" d="M17.77,14.65c0,.07-.15,0-.21-.11.21-.13,0-.49.24-.55.09,0,.2.12.34.09C18,14.33,17.89,14.39,17.77,14.65Z"/><path class="cls-5" d="M13.33,11.67c-.2,0-.2.14-.21.24s.09.09.08.11c-.11.24-.37.08-.56.12.08,0,.19,0,.21,0,.15-.21.44-.55.14-.8.14.19.48.06.57.35A.91.91,0,0,1,13.33,11.67Z"/><path class="cls-5" d="M12.56,12.91c.08-.22.28-.21.46-.23A.68.68,0,0,1,12.56,12.91Z"/><path class="cls-5" d="M10.39,12.29s-.07-.06-.11-.1c.12-.07.2-.33.32-.21S10.51,12.33,10.39,12.29Z"/><path class="cls-5" d="M10.36,14.18c.08-.16.22-.1.35-.11C10.63,14.21,10.5,14.21,10.36,14.18Z"/><path class="cls-5" d="M14.23,14.12c-.07.08-.06.1-.11.12s-.24-.05-.34-.11c.39.08.55-.24.46-.58.08,0,.2.08.2.11A.91.91,0,0,1,14.23,14.12Z"/><path class="cls-5" d="M16.22,9.14c-.07.07-.06.09-.11.11s-.24-.05-.35-.11c.4.08.56-.24.47-.58.07,0,.2.08.2.12A1.05,1.05,0,0,1,16.22,9.14Z"/><path class="cls-5" d="M12.45,14.3a.55.55,0,0,0-.12-.35.16.16,0,0,1,.22.12C12.55,14.16,12.48,14.22,12.45,14.3Z"/><path class="cls-5" d="M11.78,8.37A.47.47,0,0,0,11.66,8a.16.16,0,0,1,.22.11A.48.48,0,0,1,11.78,8.37Z"/><path class="cls-5" d="M9.78,13.92c.08-.22.29-.2.47-.23A.73.73,0,0,1,9.78,13.92Z"/><path class="cls-5" d="M10.36,8.34c-.27,0,0-.24-.11-.34C10.59,8,10.16,8.28,10.36,8.34Z"/><path class="cls-5" d="M18.44,11.61c0,.13-.28.17-.28.24,0,.28-.14.34-.28.57,0,0-.1-.08-.1-.11s.23-.25.27-.37c.14-.38.11-1,.2-1.11a1.82,1.82,0,0,0,.27-.25Z"/><path class="cls-5" d="M12.11,8.51c.26-.19.35-.76.64-.88-.23.18-.25.75-.44,1-.36.39-.86.59-1.12,1.07-.1.17.1.42-.13.57a1.09,1.09,0,0,1,.25-1C11.61,9,11.81,8.74,12.11,8.51Z"/><path class="cls-5" d="M15.26,8.36c-.11.13-.16.46-.31.31S15.12,8.46,15.26,8.36Z"/><path class="cls-5" d="M15.65,8.44c-.07.07-.19,0-.21-.1s-.18-.41,0-.46a.58.58,0,0,0,.46.11C15.49,8,15.76,8.32,15.65,8.44Z"/><path class="cls-5" d="M16.8,8.55s.11,0,.16-.07c-.17-.1,0-.34-.19-.37s-.16.07-.26.06C16.59,8.34,16.7,8.37,16.8,8.55Z"/><path class="cls-5" d="M13.22,10.17c.08-.22.28-.2.46-.23A.68.68,0,0,1,13.22,10.17Z"/><path class="cls-5" d="M17.88,10.6c.08-.16.22-.11.35-.12C18.15,10.63,18,10.62,17.88,10.6Z"/><path class="cls-5" d="M18.58,16c-.13,0-.34,0-.32-.11s.15-.31.07-.46-.14-.09-.22-.13c-.12.35-.51.52-.58.93,0,.12-.08.32-.2.2s.17-.14.17-.2a1.67,1.67,0,0,1,.59-1.07c.05-.06,0-.25.14-.31s.27.11.33.08V15a.54.54,0,0,0-.28.34c0,.08.17.19.31.2Z"/><path class="cls-5" d="M14.14,9.17A.47.47,0,0,0,14,8.83a.15.15,0,0,1,.21.11A.48.48,0,0,1,14.14,9.17Z"/><path class="cls-5" d="M13.75,11.7c.26,0,0,.18.08.25A2.41,2.41,0,0,0,13.75,11.7Z"/><path class="cls-5" d="M17.77,11.52a.54.54,0,0,0-.12-.34.17.17,0,0,1,.22.11A.48.48,0,0,1,17.77,11.52Z"/><path class="cls-5" d="M16.76,9.33A.53.53,0,0,1,16.93,9a.16.16,0,0,0-.23.08A.76.76,0,0,0,16.76,9.33Z"/><path class="cls-5" d="M11.44,8.62c.12.25-.18.16-.23.28C11.05,8.61,11.5,8.82,11.44,8.62Z"/><path class="cls-5" d="M15.49,9.56c-.24,0-.1-.14-.11-.23C15.42,9.4,15.45,9.48,15.49,9.56Z"/><path class="cls-5" d="M14,15.94c.19-.06.14-.21.11-.31s-.12,0-.12-.06c0-.27.3-.23.46-.34-.07,0-.18,0-.19.1,0,.25-.18.68.2.78-.22-.11-.48.14-.67-.09Z"/><path class="cls-5" d="M11.75,12c-.24,0-.1-.14-.11-.23Z"/><path class="cls-5" d="M12.1,11.1c.07-.16.22-.11.35-.12A.28.28,0,0,1,12.1,11.1Z"/><path class="cls-5" d="M15.41,12.87c-.24,0-.1-.14-.11-.23Z"/><path class="cls-5" d="M14.72,15.11c0-.09,0-.16-.09-.23s.16,0,.17.08S14.75,15.06,14.72,15.11Z"/><path class="cls-5" d="M13.88,15.15c-.07.66-.08,0-.12,0,.11,0,.27,0,.23-.23A.8.8,0,0,0,13.88,15.15Z"/><path class="cls-5" d="M11.49,14.22c.39-.11,0-.21.49-.3.19.1.18.35.15.57,0,0-.1.19-.12.27L12,14.51c0-.09,0-.29,0-.3A.63.63,0,0,0,11.49,14.22Z"/><path class="cls-5" d="M11.61,15.22c.06.2.22.13.3.08s.1-.2,0-.23-.23.13-.37-.21C11.56,15,11.58,15.1,11.61,15.22Z"/><path class="cls-5" d="M9.21,9a.17.17,0,0,1-.12.22c-.13,0-.31.06-.31.13a.53.53,0,0,1-.38.46,2.32,2.32,0,0,1,.79-.83s0-.14,0-.21.41,0,.44-.35c0,0-.07-.07-.11-.11.33.09.29-.33.58-.35v.23c-.13,0-.23.06-.35.11C9.43,8.43,9.8,8.88,9.21,9Z"/><path class="cls-5" d="M10.11,11.61c0,.13-.28.17-.28.24,0,.28-.14.34-.28.57,0,0-.1-.08-.1-.11s.23-.25.27-.37c.14-.38.11-1,.2-1.11,0,0,.21-.19.27-.25Z"/><path class="cls-5" d="M10.25,16c-.13,0-.33,0-.32-.11s.15-.31.07-.46-.14-.09-.22-.13c-.12.35-.51.52-.58.93,0,.12-.08.32-.2.2s.17-.14.17-.2a1.67,1.67,0,0,1,.59-1.07c.06-.06,0-.25.14-.31s.27.11.33.08V15a.54.54,0,0,0-.28.34c0,.08.17.19.31.2Z"/></g><g class="cls-7"><path class="cls-5" d="M5.17,16.73c-.12.07-.2.72-.32.81s-.11.1-.11.14,0,.07,0,.15-.11.35-.32.31-.11-.16.21-.33c0,0,0-.14,0-.21.31-.81.6-1.48.69-1.28Z"/><path class="cls-5" d="M6.06,16.88A.44.44,0,0,1,6,16.69l-.51.11c-.13-.16.18-.22.39-.32a3.23,3.23,0,0,1,.41-.22C6.26,16.43,6.11,16.68,6.06,16.88Z"/><path class="cls-5" d="M9.21,17.28a.17.17,0,0,1-.12.22c-.13,0-.31.06-.31.13a.53.53,0,0,1-.38.46,2.32,2.32,0,0,1,.79-.83s0-.14,0-.21.41,0,.44-.35c0,0-.07-.08-.11-.11.33.09.29-.33.58-.35v.23c-.13,0-.23.06-.35.11C9.43,16.76,9.8,17.21,9.21,17.28Z"/><path class="cls-5" d="M2.29,17.51c0-.3.41-.9.55-1.16a.28.28,0,0,1,0,.26c-.06.31-.4.51-.4.91-.09.14-.08.24-.33.22Z"/><path class="cls-5" d="M3.45,16.7a.54.54,0,0,0-.11-.35.16.16,0,0,1,.21.12C3.55,16.56,3.49,16.62,3.45,16.7Z"/><path class="cls-5" d="M2,16.67c-.27,0,0-.24-.11-.34C2.26,16.34,1.83,16.61,2,16.67Z"/><path class="cls-5" d="M3.79,16.84c.25-.19.34-.76.64-.88-.24.18-.26.75-.45.95-.36.39-.86.59-1.12,1.07-.1.17.1.42-.13.57a1.09,1.09,0,0,1,.25-1C3.29,17.3,3.48,17.07,3.79,16.84Z"/><path class="cls-5" d="M7.32,16.77c-.07.07-.18,0-.21-.11s-.18-.4,0-.46a.55.55,0,0,0,.46.12C7.17,16.31,7.43,16.65,7.32,16.77Z"/><path class="cls-5" d="M8.47,16.88s.11,0,.16-.07c-.17-.1,0-.34-.19-.37s-.16.07-.26.06C8.27,16.67,8.38,16.7,8.47,16.88Z"/><path class="cls-5" d="M.88,17.28a.17.17,0,0,1-.12.22c-.13,0-.31.06-.31.13a.51.51,0,0,1-.38.46,2.32,2.32,0,0,1,.79-.83s0-.14,0-.21.41,0,.44-.35c0,0-.07-.08-.11-.11.33.09.29-.33.58-.35v.23c-.13,0-.23.06-.35.11C1.1,16.76,1.47,17.21.88,17.28Z"/><path class="cls-5" d="M9.9,14.83c.13-.05.27.11.33.08.33-.16.31-.55.72-.22,0,0,.1-.06.09-.1s-.14-.22-.09-.34.12-.11.22-.14c.28-.1-.08-.39.33-.59.05,0,.06-.22,0-.31s-.36-.12-.56-.12a.56.56,0,0,0,.46-.24,2.56,2.56,0,0,1-.11.24l.46.23c-.08,0-.19.06-.21.12s0,.32,0,.45-.16,0-.2,0c-.18.22-.09.61-.28.75s-.93.14-1.08.64c0,.08.17.19.31.2s.28-.1.34-.33c0,.13,0,.29.13.32s.21-.38.45-.3a.2.2,0,0,1,.1.2c0,.06-.14.11-.21.11s-.09-.09-.11-.08c-.24.1-.55.07-.69.33a.58.58,0,0,0,0,.23c-.13,0-.33,0-.32-.11s.15-.31.07-.46-.14-.09-.22-.13Z"/><path class="cls-5" d="M10.13,13.43c-.24,0-.1-.14-.11-.23C10.06,13.28,10.09,13.36,10.13,13.43Z"/><path class="cls-5" d="M10.07,9.62c0,.37,0,.25-.4.37.08,0,.31-.14.32-.2s0-.18,0-.29-.23-.11-.12-.27,0-.58.33-.7c.07,0,0,.07.11.07C10.36,8.92,10.09,9.27,10.07,9.62Z"/><path class="cls-5" d="M9.78,13.92c.08-.22.29-.2.47-.23A.73.73,0,0,1,9.78,13.92Z"/><path class="cls-5" d="M2.55,12.65H2.44a.82.82,0,0,1,.23-.35c0,.08.12.17.1.22S2.64,12.62,2.55,12.65Z"/><path class="cls-5" d="M5.17,8.4c-.12.08-.2.72-.32.81s-.11.1-.11.14,0,.07,0,.15-.11.35-.32.31-.11-.15.21-.33c0,0,0-.14,0-.21.31-.81.6-1.48.69-1.28Z"/><path class="cls-5" d="M3.89,9.71c-.11,0-.26-.17-.25-.2.14-.36.28-.51.43-.52s-.19.22-.27.38.3.38.24.48S4,9.8,3.89,9.71Z"/><path class="cls-5" d="M3.54,9.88c-.09.29-.06.32-.46.46.11,0,.08,0,.11-.35C3.19,10,3.46,9.91,3.54,9.88Z"/><path class="cls-5" d="M3.19,11.26c0,.08-.07.21-.12.21-.31,0-.37.27-.46.49.2,0,.35.25.58.23-.11.06-.23.17-.33.1s0-.18,0-.19c-.45-.15-.34-.49-.09-.7,0,0,.15.1.2.07s-.08-.7.13-.55.25.22.43,0,0-.29,0-.45.32,0,.32.12C3.88,11,3.33,10.91,3.19,11.26Z"/><path class="cls-5" d="M4.58,10.92s-.08.1-.12.1-.07-.06-.11-.1.2-.08.2-.12a.49.49,0,0,0-.32-.58C4.7,10.08,4.83,10.6,4.58,10.92Z"/><path class="cls-5" d="M5.07,11.15c0-.6-.09-.93.55-.7.14.21-.28,0-.33.13s.26.16.24.22-.32.06-.36.13,0,.23.1.33S5.07,11.18,5.07,11.15Z"/><path class="cls-5" d="M5.73,11.25s-.07-.06-.11-.1c.12-.07.2-.33.32-.21S5.85,11.29,5.73,11.25Z"/><path class="cls-5" d="M4.08,12.3c-.07.07-.18,0-.21-.11s-.18-.4,0-.46a.61.61,0,0,0,.47.12C3.93,11.84,4.19,12.17,4.08,12.3Z"/><path class="cls-5" d="M6.47,10.66c.43-.06.47-.43.71-.66,0,0,.15,0,.2,0a.44.44,0,0,0,.13-.45c.2.25.41-.1.55,0s.23.62.61.78c-.06.29-.33.45-.47.69.13-.4.44-.84-.11-1,0,0,.1-.08.1-.11a.28.28,0,0,0-.11-.22.35.35,0,0,0-.44.11c-.14.27-.23.29-.44.49s0,.37-.15.54c0,0-.1-.13-.12-.1-.14.27-.35.25-.4.07Z"/><path class="cls-5" d="M6.38,10.07h0s-.19.06-.19.11c0,.25-.06.5-.38.46a3.06,3.06,0,0,0,.68-1.17c.07-.13-.41-.48-.21-.6L6.62,9c.1-.11.22-.18.47,0-.17,0-.36,0-.45.12s0,.4,0,.69c0,0-.17.06-.19.12A.53.53,0,0,0,6.38,10.07Z"/><path class="cls-5" d="M6.06,8.55A.44.44,0,0,1,6,8.36l-.51.11c-.13-.16.18-.22.39-.32a3.23,3.23,0,0,1,.41-.22C6.26,8.1,6.11,8.35,6.06,8.55Z"/><path class="cls-5" d="M7.59,14.5c.07-.16.22-.1.34-.11A.27.27,0,0,1,7.59,14.5Z"/><path class="cls-5" d="M9,8.49c-.07.66-.08,0-.12,0s.27,0,.23-.23A.7.7,0,0,0,9,8.49Z"/><path class="cls-5" d="M9.21,9a.17.17,0,0,1-.12.22c-.13,0-.31.06-.31.13a.53.53,0,0,1-.38.46,2.32,2.32,0,0,1,.79-.83s0-.14,0-.21.41,0,.44-.35c0,0-.07-.07-.11-.11.33.09.29-.33.58-.35v.23c-.13,0-.23.06-.35.11C9.43,8.43,9.8,8.88,9.21,9Z"/><path class="cls-5" d="M9.54,9.87c0,.15-.09.31-.22.33S9.09,10.37,9,10c.35.12.46-.18.57-.46A1.28,1.28,0,0,1,9.54,9.87Z"/><path class="cls-5" d="M9,11c0,.06,0,.15,0,.22a.35.35,0,0,1-.09-.44c0-.06.2,0,.32,0C9.13,10.88,9,10.94,9,11Z"/><path class="cls-5" d="M7.05,11.61c0-.08,0-.19,0-.21a1.09,1.09,0,0,0-.45-.06s.08-.09.13-.1.26.13.31.11a7,7,0,0,0,.89-1s-.15.4-.15.41C7.51,11.13,7.31,11.28,7.05,11.61Z"/><path class="cls-5" d="M7.67,11.91c-.1-.07-.31-.07-.21-.23.2-.33.64-.34.91-.59.07.33.48.25.68.47,0,0,0,.15,0,.22s0,.27.22.24l-.11.11c-.21-.3-.25,0-.47,0,.08,0,.2-.06.22-.12a.55.55,0,0,0-.1-.57c-.07,0-.18-.12-.22-.1a.41.41,0,0,0-.13.44c-.18-.17-.27-.58-.56-.42a1.79,1.79,0,0,0-.33.34c-.16.2.38.14.31.43A1.2,1.2,0,0,0,7.67,11.91Z"/><path class="cls-5" d="M6.6,12s.16,0,.19,0,.28.17.31.28c.07-.05.18-.1.18-.16s-.38-.17-.6-.25a.33.33,0,0,1-.19-.3A1,1,0,0,0,6.6,12Z"/><path class="cls-5" d="M6.07,11.89c.07.24-.13.16-.22,0s-.14-.58.23-.59c0,0,.08.06.12.1S5.81,11,6.07,11.89Z"/><path class="cls-5" d="M2.29,9.18c0-.3.41-.9.55-1.15.08.07.05.19,0,.26-.06.3-.4.5-.4.9-.09.14-.08.24-.33.22Z"/><path class="cls-5" d="M1.88,10.39c.35-.2,0-.22.41-.4.21.06.25.31.26.52,0,.05,0,.21,0,.29l-.12-.23c0-.08-.07-.27-.1-.28A.57.57,0,0,0,1.88,10.39Z"/><path class="cls-5" d="M4.33,8.54V8.3a.5.5,0,0,0,.35.12Z"/><path class="cls-5" d="M2.28,11.47c.08.25-.13.17-.22,0s-.14-.58.24-.6c0,0,.07.07.11.1S2,10.61,2.28,11.47Z"/><path class="cls-5" d="M1.57,14.83c.13-.05.27.11.33.08.33-.16.31-.55.72-.22,0,0,.1-.06.09-.1s-.14-.22-.09-.34.12-.11.22-.14c.28-.1-.07-.39.34-.59a.34.34,0,0,0,0-.31c-.12-.19-.36-.12-.56-.12a.59.59,0,0,0,.47-.24L3,13.09l.46.23c-.07,0-.19.06-.21.12s0,.32,0,.45-.16,0-.2,0c-.18.22-.09.61-.28.75s-.93.14-1.08.64c0,.08.18.19.31.2s.29-.1.35-.33a.29.29,0,0,0,.12.32c.23.09.21-.38.45-.3a.2.2,0,0,1,.1.2.25.25,0,0,1-.21.11s-.09-.09-.11-.08c-.24.1-.55.07-.69.33a.58.58,0,0,0,0,.23c-.13,0-.33,0-.32-.11s.15-.31.07-.46-.14-.09-.21-.13Z"/><path class="cls-5" d="M3.26,16c.06,0,.09-.14.12-.21l.24.11c.2-.5.55-1.14,1.15-1.16V15a.33.33,0,0,0-.33.12c-.1.19.24.29,0,.57,0-.2.06-.48-.13-.54s-.39.29-.34.54c-.07,0-.19,0-.21,0-.14.3-.51.37-.6.68-.19-.2-.52-.25-.58-.57C2.86,15.69,3,16.07,3.26,16Z"/><path class="cls-5" d="M1.8,13.43c-.24,0-.1-.14-.11-.23C1.73,13.28,1.76,13.36,1.8,13.43Z"/><path class="cls-5" d="M2.4,13.42a.44.44,0,0,1,.1.36c-.08,0-.21-.08-.21-.11,0-.26-.23-.45-.14-.7C2.31,13.08,2.3,13.28,2.4,13.42Z"/><path class="cls-5" d="M1.8,12.74c0-.26.17,0,.23-.12Z"/><path class="cls-5" d="M3.9,13c0,.39.28.61.56.81a.51.51,0,0,0-.34-.22s-.08.09-.12.09-.2-.06-.21-.1c0-.23-.12-.46.07-.71,0,0,0-.14-.09-.22l-.23.12-.23-.46c.35.05.4.46.69.57C4,12.89,3.9,12.93,3.9,13Z"/><path class="cls-5" d="M4.64,13.5c.2,0,.19-.14.19-.25s-.07-.15.19-.4c.05,0,.05-.21.11-.32l.12.1c-.07,0-.18.08-.2.15s0,.25,0,.32-.28.16-.28.39c0,0,.1.08.09.1a1,1,0,0,0-.05.48C4.57,13.94,4.66,13.71,4.64,13.5Z"/><path class="cls-5" d="M5.77,13.07c-.19.24-.44,0-.58.29.2-.07.08.06.45.13,0-.09,0-.22,0-.24.37-.22.18-.69.47-1l-.16,0a1.18,1.18,0,0,1-.15.47C5.53,12.88,5.94,12.86,5.77,13.07Z"/><path class="cls-5" d="M5,14.45c-.28-.23-.27.06-.49,0l.12-.23c.2.26.4-.09.55,0S5,14.47,5,14.45Z"/><path class="cls-5" d="M5.18,15.07s-.16.06-.19.12c-.16.33,0,.43.11.68a.16.16,0,0,1-.22-.11c0-.2.09-.18-.11-.38S5,15.17,5,15s.3-.32.43-.54c0-.07.19,0,.18.1C5.6,14.86,5.21,14.51,5.18,15.07Z"/><path class="cls-5" d="M5.24,9.4c-.06,0,0-.14.14-.18.1.23.49.07.5.33,0,.1-.15.18-.15.32C5.5,9.72,5.48,9.57,5.24,9.4Z"/><path class="cls-5" d="M6.2,14.42c.11.25-.19.16-.23.28C5.8,14.4,6.25,14.62,6.2,14.42Z"/><path class="cls-5" d="M6.48,14.54l.24.11c0-.08.11-.17.09-.22-.16-.33,0-.68.15-1a.24.24,0,0,0,.33-.12,3.68,3.68,0,0,0,.47-1c-.09,0-.22,0-.23.05-.14.5-.55,1.26-1.1,1.38,0,0,0,.1,0,.15s.23.13.27.21S6.59,14.4,6.48,14.54Z"/><path class="cls-5" d="M6.22,13.09c0,.07,0,.17,0,.25.14-.33.15-.72.51-1-.15-.1-.24,0-.36.08C6.58,12.72,6.15,12.81,6.22,13.09Z"/><path class="cls-5" d="M6.9,15.4c-.09.18.23.45.33.43a.32.32,0,0,0,.24-.43c.48,0,1,.5.67.9-.08.08-.29,0-.44-.09A.43.43,0,0,0,8,15.64a.35.35,0,0,0-.33-.13c-.31,0-.17.31-.35.46a.36.36,0,0,1-.22.11c-.14,0-.24-.14-.36-.2s-.17,0-.21.11a.24.24,0,0,0,.1.34c-.19,0-.22-.14-.2-.23s.43-.18.42-.47-.11-.29-.33-.35c.5.11.38-.45.75-.57s.12.12.09.21S7,15.2,6.9,15.4Z"/><path class="cls-5" d="M7.67,14a1,1,0,0,0-.24.11c.19-.13,0-.33.33-.5.08,0,0-.23-.1-.31l.12-.12A2,2,0,0,0,7.9,14,.87.87,0,0,0,7.67,14Z"/><path class="cls-5" d="M8.5,13.47a.52.52,0,0,1-.1.23s-.11-.09-.1-.1a1,1,0,0,0,.1-.48A1.24,1.24,0,0,1,8.5,13.47Z"/><path class="cls-5" d="M8.34,12.59c-.2.05-.22-.13-.21-.23s.12-.17.2-.1,0,.26.36.22Z"/><path class="cls-5" d="M9,12.66c-.1.13-.16.46-.3.31S8.82,12.76,9,12.66Z"/><path class="cls-5" d="M9,15.74c0,.15-.08.43-.31.33,0,0,0-.13,0-.21.19,0,.42,0,.43-.35,0,0-.17-.06-.18-.11s-.16-.23.21-.35C8.93,15.26,9,15.51,9,15.74Z"/><path class="cls-5" d="M1.75,9.62c0,.37,0,.25-.41.37.08,0,.31-.14.32-.2s0-.18.05-.29-.22-.11-.12-.27,0-.58.33-.7C2,8.5,2,8.6,2,8.6,2,8.92,1.76,9.27,1.75,9.62Z"/><path class="cls-5" d="M9.17,13.44c.05-.6-.08-.93.56-.7.14.21-.28,0-.33.13s.26.16.24.22-.33.06-.36.12,0,.23.1.34C9.3,13.51,9.17,13.47,9.17,13.44Z"/><path class="cls-5" d="M8.92,14.13c-.2,0-.21.13-.22.23s.09.09.09.11c-.12.24-.37.08-.57.12.08,0,.19,0,.22,0,.14-.21.43-.55.13-.8.15.19.49.07.58.35Z"/><path class="cls-5" d="M8.37,15.21a2.75,2.75,0,0,1-.76,0,.57.57,0,0,1,.21-.12c.07,0,.08.12.13.1S8,15,8.08,15c.24,0,.46-.12.69-.14,0,.08-.06.19-.12.22A.94.94,0,0,1,8.37,15.21Z"/><path class="cls-5" d="M9.44,14.65c0,.07-.15,0-.21-.11.21-.13,0-.49.24-.55.1,0,.21.12.34.09C9.7,14.33,9.56,14.39,9.44,14.65Z"/><path class="cls-5" d="M5,11.67c-.2,0-.2.14-.21.24s.09.09.08.11c-.11.24-.37.08-.56.12.08,0,.19,0,.21,0,.15-.21.44-.55.14-.8.14.19.48.06.57.35A.91.91,0,0,1,5,11.67Z"/><path class="cls-5" d="M4.23,12.91c.08-.22.28-.21.46-.23A.68.68,0,0,1,4.23,12.91Z"/><path class="cls-5" d="M2.06,12.29S2,12.23,2,12.19c.12-.07.2-.33.32-.21S2.18,12.33,2.06,12.29Z"/><path class="cls-5" d="M2,14.18c.08-.16.23-.1.35-.11C2.3,14.21,2.17,14.21,2,14.18Z"/><path class="cls-5" d="M5.91,14.12c-.08.08-.07.1-.12.12s-.24-.05-.34-.11c.39.08.55-.24.46-.58.08,0,.21.08.21.11A1,1,0,0,1,5.91,14.12Z"/><path class="cls-5" d="M7.89,9.14c-.07.07-.06.09-.11.11s-.24-.05-.34-.11c.39.08.55-.24.46-.58.08,0,.2.08.2.12A1,1,0,0,1,7.89,9.14Z"/><path class="cls-5" d="M4.12,14.3A.55.55,0,0,0,4,14a.16.16,0,0,1,.22.12C4.22,14.16,4.16,14.22,4.12,14.3Z"/><path class="cls-5" d="M3.45,8.37A.51.51,0,0,0,3.34,8a.15.15,0,0,1,.21.11A.48.48,0,0,1,3.45,8.37Z"/><path class="cls-5" d="M1.46,13.92c.08-.22.28-.2.46-.23A.68.68,0,0,1,1.46,13.92Z"/><path class="cls-5" d="M2,8.34c-.27,0,0-.24-.11-.34C2.26,8,1.83,8.28,2,8.34Z"/><path class="cls-5" d="M10.11,11.61c0,.13-.28.17-.28.24,0,.28-.14.34-.28.57,0,0-.1-.08-.1-.11s.23-.25.27-.37c.14-.38.11-1,.2-1.11,0,0,.21-.19.27-.25Z"/><path class="cls-5" d="M3.79,8.51c.25-.19.34-.76.64-.88-.24.18-.26.75-.45,1-.36.39-.86.59-1.12,1.07-.1.17.1.42-.13.57a1.09,1.09,0,0,1,.25-1C3.29,9,3.48,8.74,3.79,8.51Z"/><path class="cls-5" d="M6.93,8.36c-.11.13-.16.46-.31.31S6.8,8.46,6.93,8.36Z"/><path class="cls-5" d="M7.32,8.44c-.07.07-.18,0-.21-.1s-.18-.41,0-.46A.58.58,0,0,0,7.56,8C7.17,8,7.43,8.32,7.32,8.44Z"/><path class="cls-5" d="M8.47,8.55s.11,0,.16-.07c-.17-.1,0-.34-.19-.37s-.16.07-.26.06C8.27,8.34,8.38,8.37,8.47,8.55Z"/><path class="cls-5" d="M4.89,10.17c.08-.22.28-.2.46-.23A.68.68,0,0,1,4.89,10.17Z"/><path class="cls-5" d="M9.55,10.6c.08-.16.22-.11.35-.12C9.82,10.63,9.69,10.62,9.55,10.6Z"/><path class="cls-5" d="M10.25,16c-.13,0-.33,0-.32-.11s.15-.31.07-.46-.14-.09-.22-.13c-.12.35-.51.52-.58.93,0,.12-.08.32-.2.2s.17-.14.17-.2a1.67,1.67,0,0,1,.59-1.07c.06-.06,0-.25.14-.31s.27.11.33.08V15a.54.54,0,0,0-.28.34c0,.08.17.19.31.2Z"/><path class="cls-5" d="M5.81,9.17a.47.47,0,0,0-.11-.34.15.15,0,0,1,.21.11A.48.48,0,0,1,5.81,9.17Z"/><path class="cls-5" d="M5.42,11.7c.26,0,0,.18.08.25A2.41,2.41,0,0,0,5.42,11.7Z"/><path class="cls-5" d="M9.44,11.52a.54.54,0,0,0-.12-.34.17.17,0,0,1,.22.11A.48.48,0,0,1,9.44,11.52Z"/><path class="cls-5" d="M8.44,9.33A.47.47,0,0,1,8.6,9a.16.16,0,0,0-.23.08A.59.59,0,0,0,8.44,9.33Z"/><path class="cls-5" d="M3.12,8.62c.11.25-.19.16-.24.28C2.72,8.61,3.17,8.82,3.12,8.62Z"/><path class="cls-5" d="M7.16,9.56c-.24,0-.1-.14-.11-.23C7.09,9.4,7.12,9.48,7.16,9.56Z"/><path class="cls-5" d="M5.7,15.94c.2-.06.14-.21.11-.31s-.12,0-.12-.06c0-.27.3-.23.46-.34-.07,0-.18,0-.19.1,0,.25-.18.68.2.78C6,16,5.68,16.25,5.49,16Z"/><path class="cls-5" d="M3.42,12c-.24,0-.1-.14-.11-.23C3.35,11.79,3.38,11.87,3.42,12Z"/><path class="cls-5" d="M3.77,11.1c.07-.16.22-.11.35-.12C4,11.13,3.91,11.13,3.77,11.1Z"/><path class="cls-5" d="M7.09,12.87c-.25,0-.11-.14-.12-.23Z"/><path class="cls-5" d="M6.39,15.11c0-.09,0-.16-.09-.23s.16,0,.17.08S6.42,15.06,6.39,15.11Z"/><path class="cls-5" d="M5.55,15.15c-.07.66-.08,0-.12,0,.11,0,.27,0,.23-.23A.8.8,0,0,0,5.55,15.15Z"/><path class="cls-5" d="M3.17,14.22c.38-.11,0-.21.48-.3.19.1.18.35.15.57,0,0-.1.19-.12.27l-.06-.25c0-.09,0-.29,0-.3A.59.59,0,0,0,3.17,14.22Z"/><path class="cls-5" d="M3.28,15.22c.06.2.22.13.31.08s.09-.2,0-.23-.23.13-.37-.21C3.23,15,3.25,15.1,3.28,15.22Z"/><path class="cls-5" d="M.88,9a.17.17,0,0,1-.12.22c-.13,0-.31.06-.31.13a.51.51,0,0,1-.38.46,2.32,2.32,0,0,1,.79-.83s0-.14,0-.21.41,0,.44-.35c0,0-.07-.07-.11-.11.33.09.29-.33.58-.35v.23c-.13,0-.23.06-.35.11C1.1,8.43,1.47,8.88.88,9Z"/><path class="cls-5" d="M1.78,11.61c0,.13-.27.17-.28.24,0,.28-.14.34-.28.57,0,0-.1-.08-.1-.11s.23-.25.27-.37c.14-.38.11-1,.2-1.11,0,0,.21-.19.27-.25Z"/><path class="cls-5" d="M1.92,16c-.13,0-.33,0-.32-.11s.15-.31.07-.46-.14-.09-.21-.13c-.13.35-.52.52-.59.93,0,.12-.08.32-.2.2s.17-.14.18-.2a1.66,1.66,0,0,1,.58-1.07c.06-.06,0-.25.14-.31s.27.11.33.08V15a.57.57,0,0,0-.28.34c0,.08.18.19.31.2Z"/></g></g><path class="cls-8" d="M16,8.7c-2.51-1.88-3.9-4.25-3.12-5.29-2.21,2.94-2,6.84.53,8.73s6.32,1,8.54-1.91C21.11,11.27,18.45,10.59,16,8.7Z"/><path class="cls-8" d="M18.78,4.94a.71.71,0,0,0-.14-.1l-.36.67,0,0C20,6.82,21,8.44,20.45,9.14s-2.35.25-4.05-1-2.65-2.89-2.12-3.6,1.66-.38,3,.37l.37-.69c-2.13-1.29-4.16-1.65-4.83-.77-.78,1,.61,3.41,3.12,5.29s5.16,2.57,5.94,1.53S21.28,6.82,18.78,4.94Z"/><path class="cls-8" d="M17.29,4.87l-.11,1.39.11-1.39c-1.35-.75-2.59-.93-3-.37s.42,2.32,2.12,3.6,3.52,1.75,4.05,1S20,6.82,18.33,5.54l0,0-1.1.75,1.1-.75"/><path class="cls-8" d="M17.66,4.18l-.15,1.33c.33.18-.33,0,0,.25l1.13-.92"/></svg>