<svg id="Layer_1" data-name="Layer 1" xmlns="http://www.w3.org/2000/svg" xmlns:xlink="http://www.w3.org/1999/xlink" viewBox="0 0 28 18"><defs><style>.cls-1{fill:none;}.cls-2{fill:#c6c6c5;}.cls-12,.cls-2{stroke:#3c3c3b;stroke-linecap:round;stroke-linejoin:round;stroke-width:0.7px;}.cls-3{clip-path:url(#clip-path);}.cls-4{clip-path:url(#clip-path-2);}.cls-5{fill:#1d1d1b;}.cls-6{clip-path:url(#clip-path-3);}.cls-7{clip-path:url(#clip-path-4);}.cls-8{clip-path:url(#clip-path-5);}.cls-9{clip-path:url(#clip-path-6);}.cls-10{clip-path:url(#clip-path-7);}.cls-11{clip-path:url(#clip-path-8);}.cls-12{fill:#fff;}</style><clipPath id="clip-path"><polygon class="cls-1" points="13.18 16.01 24.84 16.01 14.82 11.27 3.16 11.27 13.18 16.01"/></clipPath><clipPath id="clip-path-2"><rect class="cls-1" x="18.35" y="9.36" width="8.33" height="8.33"/></clipPath><clipPath id="clip-path-3"><rect class="cls-1" x="10.02" y="9.36" width="8.33" height="8.33"/></clipPath><clipPath id="clip-path-4"><rect class="cls-1" x="1.69" y="9.36" width="8.33" height="8.33"/></clipPath><clipPath id="clip-path-5"><polygon class="cls-1" points="13.18 13.62 24.84 13.62 14.82 8.88 3.16 8.88 13.18 13.62"/></clipPath><clipPath id="clip-path-6"><rect class="cls-1" x="18.35" y="6.98" width="8.33" height="8.33"/></clipPath><clipPath id="clip-path-7"><rect class="cls-1" x="10.02" y="6.98" width="8.33" height="8.33"/></clipPath><clipPath id="clip-path-8"><rect class="cls-1" x="1.69" y="6.98" width="8.33" height="8.33"/></clipPath></defs><polygon class="cls-2" points="13.09 16.27 26.02 16.27 14.91 11.01 1.98 11.01 13.09 16.27"/><g class="cls-3"><g class="cls-4"><path class="cls-5" d="M21.83,17.92c-.12.08-.21.72-.32.81s-.12.1-.12.14,0,.07,0,.15-.11.35-.32.31-.11-.15.21-.33c0,0,0-.14,0-.21.31-.81.6-1.48.68-1.28Z"/><path class="cls-5" d="M22.71,18.07c0-.07-.06-.11-.06-.19l-.51.11c-.14-.16.17-.22.38-.32a4.23,4.23,0,0,1,.42-.22C22.91,17.62,22.76,17.87,22.71,18.07Z"/><path class="cls-5" d="M25.86,18.47a.16.16,0,0,1-.11.22c-.14,0-.31.06-.31.13a.54.54,0,0,1-.39.46,2.44,2.44,0,0,1,.8-.83s0-.14,0-.2c.11-.21.41,0,.44-.36,0,0-.06-.07-.1-.11.33.09.29-.33.58-.35v.23a.61.61,0,0,0-.35.11C26.08,18,26.46,18.4,25.86,18.47Z"/><path class="cls-5" d="M19,18.7c-.05-.3.41-.9.55-1.15.08.07.05.19,0,.26-.06.3-.41.5-.4.9-.09.14-.08.24-.33.22Z"/><path class="cls-5" d="M20.11,17.89a.47.47,0,0,0-.12-.34.16.16,0,0,1,.22.11A.48.48,0,0,1,20.11,17.89Z"/><path class="cls-5" d="M18.69,17.86c-.27,0,0-.24-.11-.34C18.91,17.53,18.49,17.8,18.69,17.86Z"/><path class="cls-5" d="M20.44,18c.26-.19.35-.76.64-.88-.23.18-.25.75-.44,1-.36.38-.86.58-1.13,1.06-.09.18.11.42-.12.57a1.09,1.09,0,0,1,.25-1C19.94,18.49,20.14,18.26,20.44,18Z"/><path class="cls-5" d="M24,18c-.07.08-.19,0-.21-.1s-.18-.41,0-.46a.58.58,0,0,0,.46.11C23.82,17.51,24.09,17.84,24,18Z"/><path class="cls-5" d="M25.13,18.07s.11,0,.16-.07c-.17-.09,0-.34-.19-.37s-.16.07-.26.06C24.92,17.86,25,17.89,25.13,18.07Z"/><path class="cls-5" d="M17.54,18.47a.17.17,0,0,1-.12.22c-.14,0-.31.06-.31.13a.53.53,0,0,1-.38.46,2.32,2.32,0,0,1,.79-.83s0-.14,0-.2c.1-.21.41,0,.43-.36,0,0-.06-.07-.1-.11.33.09.29-.33.58-.35v.23c-.14,0-.23.06-.35.11C17.76,18,18.13,18.4,17.54,18.47Z"/><path class="cls-5" d="M26.56,16c.13,0,.27.11.33.08.33-.16.3-.55.72-.22,0,0,.1-.06.09-.1s-.14-.21-.09-.34.12-.11.21-.14c.29-.1-.07-.39.34-.59.05,0,.05-.22,0-.3s-.36-.13-.56-.13a.55.55,0,0,0,.46-.23c0,.07-.07.15-.11.23l.46.23c-.08,0-.19.06-.21.12s0,.32,0,.45-.16,0-.2,0c-.19.22-.09.61-.28.75s-.93.14-1.08.64c0,.08.17.19.31.2s.28-.1.34-.33c0,.14,0,.29.13.32s.21-.38.44-.3a.22.22,0,0,1,.11.2c0,.06-.14.11-.21.11s-.09-.09-.11-.08c-.24.1-.56.07-.69.33,0,.07,0,.15,0,.23s-.34,0-.32-.11.15-.31.07-.46-.14-.09-.22-.12Z"/><path class="cls-5" d="M26.79,14.62c-.25,0-.11-.13-.12-.23Z"/><path class="cls-5" d="M26.73,10.81c0,.37,0,.25-.4.37.07,0,.3-.14.32-.2s0-.18.05-.28-.23-.12-.12-.28,0-.58.33-.7c.06,0,0,.08.11.08C27,10.11,26.75,10.47,26.73,10.81Z"/><path class="cls-5" d="M26.44,15.12c.08-.23.28-.21.47-.23A.78.78,0,0,1,26.44,15.12Z"/><path class="cls-5" d="M19.21,13.84s-.07,0-.11,0a.74.74,0,0,1,.23-.35c0,.08.12.17.1.23S19.29,13.82,19.21,13.84Z"/><path class="cls-5" d="M21.83,9.59c-.12.08-.21.72-.32.81s-.12.11-.12.14,0,.07,0,.15-.11.36-.32.31-.11-.15.21-.33c0,0,0-.14,0-.21.31-.81.6-1.48.68-1.27Z"/><path class="cls-5" d="M20.55,10.9c-.12,0-.27-.16-.25-.2.14-.36.28-.51.42-.52s-.18.22-.26.38.3.38.24.48S20.62,11,20.55,10.9Z"/><path class="cls-5" d="M20.2,11.07c-.09.29-.06.32-.47.46.12,0,.09,0,.12-.35C19.85,11.14,20.12,11.11,20.2,11.07Z"/><path class="cls-5" d="M19.85,12.46c0,.08-.07.2-.12.2-.31,0-.37.27-.46.49.2.06.35.26.58.23-.11.06-.23.18-.34.1s0-.18,0-.19c-.44-.15-.33-.48-.09-.7,0,0,.16.1.21.08s-.08-.71.12-.56a.25.25,0,0,0,.44,0c.08-.11,0-.29,0-.44s.31-.05.32.11C20.53,12.16,20,12.1,19.85,12.46Z"/><path class="cls-5" d="M21.24,12.11s-.08.1-.12.1-.08-.06-.11-.1.2-.07.2-.12a.5.5,0,0,0-.32-.58C21.36,11.27,21.49,11.79,21.24,12.11Z"/><path class="cls-5" d="M21.73,12.34c0-.6-.09-.93.55-.69.14.2-.28,0-.33.12s.26.16.24.22-.32.06-.36.13,0,.23.1.34C21.85,12.42,21.72,12.38,21.73,12.34Z"/><path class="cls-5" d="M22.39,12.44s-.07-.06-.11-.1c.12-.07.2-.33.32-.2S22.51,12.48,22.39,12.44Z"/><path class="cls-5" d="M20.74,13.49c-.07.07-.19,0-.21-.11s-.18-.4,0-.46A.55.55,0,0,0,21,13C20.58,13,20.85,13.36,20.74,13.49Z"/><path class="cls-5" d="M23.13,11.85c.43-.06.47-.43.7-.65,0,0,.16,0,.21,0a.43.43,0,0,0,.13-.45c.2.26.4-.09.55,0s.23.62.6.78c-.06.29-.32.45-.46.69.13-.4.44-.83-.11-1,0,0,.1-.07.1-.11a.28.28,0,0,0-.11-.22.35.35,0,0,0-.44.11,1.42,1.42,0,0,1-.45.49c-.1.1,0,.37-.14.54,0,0-.1-.12-.12-.1-.15.28-.35.25-.41.07Z"/><path class="cls-5" d="M23,11.26h0s-.19.07-.2.11c0,.25-.06.5-.37.46a3.09,3.09,0,0,0,.68-1.16c.07-.14-.41-.49-.22-.6l.35.14c.1-.11.22-.18.46,0-.16,0-.36,0-.44.12s0,.4,0,.69c0,0-.17.06-.19.12A.7.7,0,0,0,23,11.26Z"/><path class="cls-5" d="M22.71,9.74c0-.07-.06-.11-.06-.19l-.51.11c-.14-.16.17-.22.38-.32a4.23,4.23,0,0,1,.42-.22C22.91,9.29,22.76,9.54,22.71,9.74Z"/><path class="cls-5" d="M24.25,15.7c.07-.17.22-.11.34-.12A.29.29,0,0,1,24.25,15.7Z"/><path class="cls-5" d="M25.68,9.68c-.07.66-.09,0-.12,0s.27,0,.23-.23A.8.8,0,0,0,25.68,9.68Z"/><path class="cls-5" d="M25.86,10.14a.15.15,0,0,1-.11.22c-.14,0-.31.06-.31.13a.53.53,0,0,1-.39.46,2.44,2.44,0,0,1,.8-.83s0-.14,0-.2.41,0,.44-.36c0,0-.06-.07-.1-.11.33.09.29-.33.58-.35v.23a.55.55,0,0,0-.35.12C26.08,9.62,26.46,10.07,25.86,10.14Z"/><path class="cls-5" d="M26.2,11.07c0,.14-.09.3-.22.32s-.23.17-.35-.21c.36.12.46-.18.58-.46A1.37,1.37,0,0,1,26.2,11.07Z"/><path class="cls-5" d="M25.64,12.23a.58.58,0,0,0,0,.23.4.4,0,0,1-.09-.45c.05-.06.21,0,.32,0A1.65,1.65,0,0,0,25.64,12.23Z"/><path class="cls-5" d="M23.71,12.8c0-.07,0-.19,0-.21a1,1,0,0,0-.44-.06s.08-.09.12-.1.27.14.32.11c.3-.17.64-.73.89-1,0,0-.15.4-.16.41C24.17,12.32,24,12.47,23.71,12.8Z"/><path class="cls-5" d="M24.33,13.1c-.1-.07-.31-.06-.21-.23.2-.33.64-.33.91-.59.06.33.48.25.68.48,0,0,0,.14,0,.22s0,.27.22.23l-.11.11c-.21-.3-.25,0-.47,0,.08,0,.2-.06.21-.12a.49.49,0,0,0-.1-.56c-.06-.06-.17-.13-.21-.1s-.16.26-.13.44c-.19-.18-.27-.59-.56-.43a1.79,1.79,0,0,0-.33.34c-.17.21.38.14.31.43A1.61,1.61,0,0,0,24.33,13.1Z"/><path class="cls-5" d="M23.26,13.14s.16,0,.19,0,.28.17.31.28c.06-.05.18-.1.18-.15s-.38-.18-.6-.26a.31.31,0,0,1-.19-.3A1,1,0,0,0,23.26,13.14Z"/><path class="cls-5" d="M22.73,13.08c.07.25-.13.17-.22,0s-.14-.58.23-.59c0,0,.08.06.12.1S22.46,12.22,22.73,13.08Z"/><path class="cls-5" d="M19,10.37c-.05-.3.41-.9.55-1.15.08.07.05.19,0,.26-.06.3-.41.5-.4.9-.09.14-.08.24-.33.23Z"/><path class="cls-5" d="M18.54,11.58c.35-.2,0-.22.41-.4.21.06.25.31.26.52,0,.05-.05.22-.05.29L19,11.76c0-.08-.07-.27-.1-.28A.57.57,0,0,0,18.54,11.58Z"/><path class="cls-5" d="M21,9.73V9.5a.47.47,0,0,0,.34.11Z"/><path class="cls-5" d="M18.94,12.66c.07.25-.13.17-.22,0s-.14-.58.23-.6c0,0,.08.07.12.11S18.67,11.8,18.94,12.66Z"/><path class="cls-5" d="M18.23,16c.13,0,.27.11.33.08.33-.16.3-.55.72-.22,0,0,.1-.06.09-.1s-.14-.21-.09-.34.12-.11.22-.14c.28-.1-.08-.39.33-.59.05,0,.06-.22,0-.3s-.36-.13-.56-.13a.55.55,0,0,0,.46-.23c0,.07-.07.15-.11.23l.46.23c-.08,0-.19.06-.21.12s0,.32,0,.45-.16,0-.2,0c-.18.22-.09.61-.28.75s-.93.14-1.08.64c0,.08.17.19.31.2s.28-.1.34-.33c0,.14,0,.29.13.32s.21-.38.45-.3a.23.23,0,0,1,.1.2c0,.06-.14.11-.21.11s-.09-.09-.11-.08c-.24.1-.55.07-.69.33a.59.59,0,0,0,0,.23c-.13,0-.34,0-.32-.11s.15-.31.07-.46-.14-.09-.22-.12Z"/><path class="cls-5" d="M19.92,17.17C20,17.15,20,17,20,17l.23.11c.21-.5.56-1.14,1.16-1.15v.23a.32.32,0,0,0-.33.12c-.1.19.24.29,0,.57,0-.2.07-.48-.12-.54s-.39.29-.34.54c-.08,0-.2,0-.21,0-.14.3-.51.37-.6.69-.19-.21-.52-.26-.58-.58C19.51,16.88,19.67,17.26,19.92,17.17Z"/><path class="cls-5" d="M18.46,14.62c-.24,0-.1-.13-.11-.23A1.63,1.63,0,0,0,18.46,14.62Z"/><path class="cls-5" d="M19.06,14.61a.45.45,0,0,1,.1.36c-.08,0-.21-.08-.21-.11,0-.26-.23-.44-.14-.7C19,14.28,19,14.48,19.06,14.61Z"/><path class="cls-5" d="M18.46,13.93c0-.26.17,0,.23-.11Z"/><path class="cls-5" d="M20.56,14.16c0,.4.28.61.56.81a.53.53,0,0,0-.35-.22s-.07.09-.11.09-.2-.06-.21-.1c0-.23-.12-.46.07-.71,0,0-.05-.14-.09-.21l-.23.11L20,13.47c.36,0,.4.46.7.58C20.62,14.09,20.56,14.12,20.56,14.16Z"/><path class="cls-5" d="M21.3,14.7c.19,0,.19-.15.19-.26s-.07-.15.18-.39c0-.05.06-.22.11-.33l.13.1c-.07,0-.18.08-.2.15s.05.25,0,.32-.28.16-.27.4c0,0,.1.08.09.09a1,1,0,0,0-.05.48C21.23,15.13,21.31,14.9,21.3,14.7Z"/><path class="cls-5" d="M22.43,14.26c-.2.24-.45,0-.58.3.2-.07.08,0,.45.12,0-.09,0-.22,0-.24.37-.21.18-.69.47-1l-.16,0a1.51,1.51,0,0,1-.15.48C22.19,14.07,22.59,14.05,22.43,14.26Z"/><path class="cls-5" d="M21.61,15.64c-.28-.23-.28.06-.49,0l.12-.24c.19.26.39-.09.55,0S21.64,15.67,21.61,15.64Z"/><path class="cls-5" d="M21.84,16.26s-.17.06-.2.12c-.16.33-.05.43.12.69a.17.17,0,0,1-.22-.12c0-.2.09-.18-.11-.38s.21-.2.26-.33.3-.33.43-.55c0-.07.19,0,.18.1C22.26,16.05,21.86,15.7,21.84,16.26Z"/><path class="cls-5" d="M21.9,10.6c-.06,0,.05-.15.14-.19.1.24.49.07.5.33,0,.1-.15.19-.15.32C22.16,10.91,22.13,10.76,21.9,10.6Z"/><path class="cls-5" d="M22.86,15.61c.11.25-.19.16-.24.28C22.46,15.6,22.91,15.81,22.86,15.61Z"/><path class="cls-5" d="M23.14,15.73l.23.11c0-.08.12-.17.1-.22-.16-.33,0-.68.14-1a.26.26,0,0,0,.34-.13,3.68,3.68,0,0,0,.47-1c-.09,0-.22,0-.23.06-.14.49-.55,1.25-1.1,1.37,0,0,0,.1,0,.15s.23.13.27.22S23.25,15.59,23.14,15.73Z"/><path class="cls-5" d="M22.87,14.28c0,.07,0,.17,0,.25.14-.33.14-.71.51-1-.15-.1-.25,0-.36.08C23.24,13.91,22.8,14,22.87,14.28Z"/><path class="cls-5" d="M23.56,16.6c-.09.17.23.44.33.42a.32.32,0,0,0,.24-.43c.47,0,1.05.51.66.9-.08.08-.28,0-.43-.09a.43.43,0,0,0,.33-.57.35.35,0,0,0-.33-.13c-.31,0-.17.31-.35.46a.33.33,0,0,1-.23.11c-.13,0-.24-.14-.36-.19s-.17,0-.2.1a.24.24,0,0,0,.1.34c-.19,0-.23-.14-.21-.23s.44-.18.43-.47-.11-.28-.34-.34c.51.1.39-.46.75-.58s.12.12.1.21S23.66,16.39,23.56,16.6Z"/><path class="cls-5" d="M24.32,15.17a1.2,1.2,0,0,0-.23.11c.19-.13,0-.32.33-.5.08,0,0-.23-.1-.31l.12-.12a2,2,0,0,0,.11.81A.91.91,0,0,0,24.32,15.17Z"/><path class="cls-5" d="M25.16,14.66c0,.08-.07.16-.11.23a.91.91,0,0,1-.1-.1.89.89,0,0,0,.1-.47A1.12,1.12,0,0,1,25.16,14.66Z"/><path class="cls-5" d="M25,13.78c-.2.05-.22-.13-.22-.22s.13-.18.2-.11,0,.27.36.22Z"/><path class="cls-5" d="M25.61,13.85c-.11.13-.16.46-.3.31S25.48,14,25.61,13.85Z"/><path class="cls-5" d="M25.61,16.93c0,.15-.08.43-.31.33,0,0,0-.13,0-.21.19,0,.42-.05.43-.34,0,0-.17-.07-.18-.12s-.17-.23.21-.35C25.59,16.46,25.66,16.7,25.61,16.93Z"/><path class="cls-5" d="M18.4,10.81c0,.37,0,.25-.4.37.08,0,.31-.14.32-.2s0-.18.05-.28-.23-.12-.12-.28,0-.58.33-.7c.06,0,0,.08.11.08C18.69,10.11,18.42,10.47,18.4,10.81Z"/><path class="cls-5" d="M25.83,14.63c.05-.6-.08-.93.55-.7.15.21-.28,0-.32.13s.26.16.24.22-.33.06-.36.13,0,.23.1.33S25.83,14.66,25.83,14.63Z"/><path class="cls-5" d="M25.58,15.32c-.2,0-.21.13-.22.24s.09.09.08.1c-.11.24-.37.09-.56.13.08,0,.19,0,.21,0,.15-.21.44-.55.14-.79.15.19.48.06.58.34Z"/><path class="cls-5" d="M25,16.4a2.67,2.67,0,0,1-.75,0,.62.62,0,0,1,.2-.12c.08,0,.08.12.14.1s.08-.18.13-.19c.24,0,.45-.12.69-.14,0,.08-.06.19-.12.22A.59.59,0,0,1,25,16.4Z"/><path class="cls-5" d="M26.1,15.84c0,.07-.15,0-.21-.1.21-.14,0-.5.24-.55.09,0,.2.11.34.08C26.36,15.53,26.22,15.58,26.1,15.84Z"/><path class="cls-5" d="M21.66,12.87c-.2,0-.2.13-.22.23s.1.09.09.11c-.11.24-.37.08-.56.12.07,0,.18,0,.21,0,.15-.21.44-.55.13-.8.15.19.49.07.58.35A1.76,1.76,0,0,1,21.66,12.87Z"/><path class="cls-5" d="M20.89,14.1c.08-.22.28-.2.46-.23A.68.68,0,0,1,20.89,14.1Z"/><path class="cls-5" d="M18.71,13.48s-.07-.06-.1-.1c.12-.06.2-.32.32-.2S18.84,13.53,18.71,13.48Z"/><path class="cls-5" d="M18.69,15.38c.08-.17.22-.11.35-.12C19,15.41,18.83,15.4,18.69,15.38Z"/><path class="cls-5" d="M22.56,15.32c-.07.07-.06.09-.11.11s-.24,0-.35-.11c.4.08.56-.24.47-.58.07,0,.2.08.2.12A1,1,0,0,1,22.56,15.32Z"/><path class="cls-5" d="M24.55,10.33c-.07.07-.07.09-.11.11s-.24,0-.35-.11c.4.09.56-.24.47-.58.07,0,.2.08.2.12A1.05,1.05,0,0,1,24.55,10.33Z"/><path class="cls-5" d="M20.77,15.49a.47.47,0,0,0-.11-.34.15.15,0,0,1,.21.11A.48.48,0,0,1,20.77,15.49Z"/><path class="cls-5" d="M20.11,9.56A.47.47,0,0,0,20,9.22c.12,0,.21,0,.22.11A.48.48,0,0,1,20.11,9.56Z"/><path class="cls-5" d="M18.11,15.12c.08-.23.29-.21.47-.23A.78.78,0,0,1,18.11,15.12Z"/><path class="cls-5" d="M18.69,9.53c-.27,0,0-.24-.11-.34C18.91,9.2,18.49,9.47,18.69,9.53Z"/><path class="cls-5" d="M26.77,12.8c0,.13-.28.17-.29.24,0,.28-.14.34-.27.57,0,0-.1-.07-.1-.11s.23-.25.27-.37c.14-.38.11-1,.2-1.11,0,0,.21-.19.27-.25Z"/><path class="cls-5" d="M20.44,9.7c.26-.19.35-.76.64-.88-.23.18-.25.76-.44,1-.36.38-.86.59-1.13,1.06-.09.18.11.42-.12.57a1.09,1.09,0,0,1,.25-1C19.94,10.16,20.14,9.93,20.44,9.7Z"/><path class="cls-5" d="M23.59,9.56c-.11.12-.16.45-.31.3S23.45,9.65,23.59,9.56Z"/><path class="cls-5" d="M24,9.63c-.07.08-.19,0-.21-.1s-.18-.41,0-.46a.58.58,0,0,0,.46.11C23.82,9.18,24.09,9.51,24,9.63Z"/><path class="cls-5" d="M25.13,9.74s.11,0,.16-.07c-.17-.09,0-.33-.19-.37s-.16.08-.26.06C24.92,9.53,25,9.56,25.13,9.74Z"/><path class="cls-5" d="M21.55,11.37c.08-.23.28-.21.46-.23A.78.78,0,0,1,21.55,11.37Z"/><path class="cls-5" d="M26.21,11.79c.08-.16.22-.11.35-.12C26.48,11.82,26.35,11.82,26.21,11.79Z"/><path class="cls-5" d="M26.91,17.17c-.13,0-.34,0-.32-.11s.15-.31.07-.46-.14-.09-.22-.12c-.12.35-.51.51-.58.92,0,.12-.08.32-.2.21s.17-.15.17-.21a1.69,1.69,0,0,1,.59-1.07c0-.06,0-.25.14-.31s.27.11.33.08v0a.54.54,0,0,0-.28.34c0,.08.17.19.31.2Z"/><path class="cls-5" d="M22.47,10.36a.51.51,0,0,0-.11-.34.16.16,0,0,1,.21.11A.48.48,0,0,1,22.47,10.36Z"/><path class="cls-5" d="M22.08,12.89c.26,0,0,.18.08.25C22.14,13.06,22.11,13,22.08,12.89Z"/><path class="cls-5" d="M26.1,12.72a.55.55,0,0,0-.12-.35.16.16,0,0,1,.22.12C26.2,12.57,26.13,12.64,26.1,12.72Z"/><path class="cls-5" d="M25.09,10.52a.53.53,0,0,1,.17-.33.15.15,0,0,0-.23.09A.71.71,0,0,0,25.09,10.52Z"/><path class="cls-5" d="M19.77,9.81c.12.26-.19.16-.23.28C19.37,9.8,19.83,10,19.77,9.81Z"/><path class="cls-5" d="M23.82,10.75c-.24,0-.1-.14-.11-.23A2.4,2.4,0,0,0,23.82,10.75Z"/><path class="cls-5" d="M22.36,17.13c.19-.06.14-.2.11-.31s-.13,0-.13-.06c0-.26.31-.22.47-.34-.07,0-.18,0-.19.1-.05.25-.18.68.19.78-.21-.11-.47.14-.66-.09A1.31,1.31,0,0,1,22.36,17.13Z"/><path class="cls-5" d="M20.08,13.14c-.25,0-.1-.14-.12-.23Z"/><path class="cls-5" d="M20.43,12.29c.07-.16.22-.11.34-.11A.27.27,0,0,1,20.43,12.29Z"/><path class="cls-5" d="M23.74,14.07c-.24,0-.1-.14-.11-.24Z"/><path class="cls-5" d="M23.05,16.3c0-.09-.05-.16-.1-.23s.17,0,.18.08S23.08,16.25,23.05,16.3Z"/><path class="cls-5" d="M22.21,16.34c-.07.67-.09,0-.12,0s.27,0,.23-.23A.8.8,0,0,0,22.21,16.34Z"/><path class="cls-5" d="M19.82,15.42c.39-.12,0-.22.49-.31.19.1.18.35.15.57,0,.05-.1.19-.12.27l-.06-.25c0-.09,0-.28,0-.3A.6.6,0,0,0,19.82,15.42Z"/><path class="cls-5" d="M19.94,16.41c0,.2.22.13.3.08s.09-.2,0-.23-.22.13-.36-.2C19.89,16.18,19.91,16.29,19.94,16.41Z"/><path class="cls-5" d="M17.54,10.14a.16.16,0,0,1-.12.22c-.14,0-.31.06-.31.13a.52.52,0,0,1-.38.46,2.32,2.32,0,0,1,.79-.83s0-.14,0-.2.41,0,.43-.36c0,0-.06-.07-.1-.11.33.09.29-.33.58-.35v.23c-.14,0-.23.06-.35.12C17.76,9.62,18.13,10.07,17.54,10.14Z"/><path class="cls-5" d="M18.44,12.8c0,.13-.28.17-.28.24,0,.28-.14.34-.28.57,0,0-.1-.07-.1-.11s.23-.25.27-.37c.14-.38.11-1,.2-1.11,0,0,.21-.19.27-.25Z"/><path class="cls-5" d="M18.58,17.17c-.13,0-.34,0-.32-.11s.15-.31.07-.46-.14-.09-.22-.12c-.12.35-.51.51-.58.92,0,.12-.08.32-.2.21s.17-.15.17-.21a1.69,1.69,0,0,1,.59-1.07c.05-.06,0-.25.14-.31s.27.11.33.08v0a.54.54,0,0,0-.28.34c0,.08.17.19.31.2Z"/></g><g class="cls-6"><path class="cls-5" d="M13.5,17.92c-.12.08-.2.72-.32.81s-.12.1-.12.14,0,.07,0,.15-.11.35-.32.31c-.06,0-.11-.15.21-.33,0,0,0-.14,0-.21.31-.81.6-1.48.68-1.28Z"/><path class="cls-5" d="M14.39,18.07a.44.44,0,0,1-.07-.19l-.51.11c-.14-.16.17-.22.39-.32a3.23,3.23,0,0,1,.41-.22C14.58,17.62,14.43,17.87,14.39,18.07Z"/><path class="cls-5" d="M17.54,18.47a.17.17,0,0,1-.12.22c-.14,0-.31.06-.31.13a.53.53,0,0,1-.38.46,2.32,2.32,0,0,1,.79-.83s0-.14,0-.2c.1-.21.41,0,.43-.36,0,0-.06-.07-.1-.11.33.09.29-.33.58-.35v.23c-.14,0-.23.06-.35.11C17.76,18,18.13,18.4,17.54,18.47Z"/><path class="cls-5" d="M10.62,18.7c0-.3.41-.9.55-1.15.08.07.05.19,0,.26-.06.3-.4.5-.4.9-.09.14-.08.24-.33.22Z"/><path class="cls-5" d="M11.78,17.89a.47.47,0,0,0-.12-.34.16.16,0,0,1,.22.11A.48.48,0,0,1,11.78,17.89Z"/><path class="cls-5" d="M10.36,17.86c-.27,0,0-.24-.11-.34C10.59,17.53,10.16,17.8,10.36,17.86Z"/><path class="cls-5" d="M12.11,18c.26-.19.35-.76.64-.88-.23.18-.25.75-.44,1-.36.38-.86.58-1.12,1.06-.1.18.1.42-.13.57a1.09,1.09,0,0,1,.25-1C11.61,18.49,11.81,18.26,12.11,18Z"/><path class="cls-5" d="M15.65,18c-.07.08-.19,0-.21-.1s-.18-.41,0-.46a.58.58,0,0,0,.46.11C15.49,17.51,15.76,17.84,15.65,18Z"/><path class="cls-5" d="M16.8,18.07s.11,0,.16-.07c-.17-.09,0-.34-.19-.37s-.16.07-.26.06C16.59,17.86,16.7,17.89,16.8,18.07Z"/><path class="cls-5" d="M9.21,18.47a.17.17,0,0,1-.12.22c-.13,0-.31.06-.31.13a.53.53,0,0,1-.38.46,2.32,2.32,0,0,1,.79-.83s0-.14,0-.2c.1-.21.41,0,.44-.36,0,0-.07-.07-.11-.11.33.09.29-.33.58-.35v.23c-.13,0-.23.06-.35.11C9.43,18,9.8,18.4,9.21,18.47Z"/><path class="cls-5" d="M18.23,16c.13,0,.27.11.33.08.33-.16.3-.55.72-.22,0,0,.1-.06.09-.1s-.14-.21-.09-.34.12-.11.22-.14c.28-.1-.08-.39.33-.59.05,0,.06-.22,0-.3s-.36-.13-.56-.13a.55.55,0,0,0,.46-.23c0,.07-.07.15-.11.23l.46.23c-.08,0-.19.06-.21.12s0,.32,0,.45-.16,0-.2,0c-.18.22-.09.61-.28.75s-.93.14-1.08.64c0,.08.17.19.31.2s.28-.1.34-.33c0,.14,0,.29.13.32s.21-.38.45-.3a.23.23,0,0,1,.1.2c0,.06-.14.11-.21.11s-.09-.09-.11-.08c-.24.1-.55.07-.69.33a.59.59,0,0,0,0,.23c-.13,0-.34,0-.32-.11s.15-.31.07-.46-.14-.09-.22-.12Z"/><path class="cls-5" d="M18.46,14.62c-.24,0-.1-.13-.11-.23A1.63,1.63,0,0,0,18.46,14.62Z"/><path class="cls-5" d="M18.4,10.81c0,.37,0,.25-.4.37.08,0,.31-.14.32-.2s0-.18.05-.28-.23-.12-.12-.28,0-.58.33-.7c.06,0,0,.08.11.08C18.69,10.11,18.42,10.47,18.4,10.81Z"/><path class="cls-5" d="M18.11,15.12c.08-.23.29-.21.47-.23A.78.78,0,0,1,18.11,15.12Z"/><path class="cls-5" d="M10.88,13.84s-.07,0-.11,0A.74.74,0,0,1,11,13.5c0,.08.12.17.1.23S11,13.82,10.88,13.84Z"/><path class="cls-5" d="M13.5,9.59c-.12.08-.2.72-.32.81s-.12.11-.12.14,0,.07,0,.15-.11.36-.32.31c-.06,0-.11-.15.21-.33,0,0,0-.14,0-.21.31-.81.6-1.48.68-1.27Z"/><path class="cls-5" d="M12.22,10.9c-.11,0-.26-.16-.25-.2.14-.36.28-.51.42-.52s-.18.22-.26.38.3.38.24.48S12.3,11,12.22,10.9Z"/><path class="cls-5" d="M11.87,11.07c-.09.29-.06.32-.47.46.12,0,.09,0,.12-.35C11.52,11.14,11.79,11.11,11.87,11.07Z"/><path class="cls-5" d="M11.52,12.46c0,.08-.07.2-.12.2-.31,0-.37.27-.46.49.2.06.35.26.58.23-.11.06-.23.18-.33.1s0-.18,0-.19c-.45-.15-.34-.48-.09-.7,0,0,.15.1.2.08s-.08-.71.12-.56a.25.25,0,0,0,.44,0c.08-.11,0-.29,0-.44s.32-.05.32.11C12.21,12.16,11.66,12.1,11.52,12.46Z"/><path class="cls-5" d="M12.91,12.11s-.08.1-.12.1-.07-.06-.11-.1.2-.07.2-.12a.5.5,0,0,0-.32-.58C13,11.27,13.16,11.79,12.91,12.11Z"/><path class="cls-5" d="M13.4,12.34c0-.6-.09-.93.55-.69.14.2-.28,0-.33.12s.26.16.24.22-.32.06-.36.13,0,.23.1.34C13.52,12.42,13.4,12.38,13.4,12.34Z"/><path class="cls-5" d="M14.06,12.44s-.07-.06-.11-.1c.12-.07.2-.33.32-.2S14.18,12.48,14.06,12.44Z"/><path class="cls-5" d="M12.41,13.49c-.07.07-.18,0-.21-.11s-.18-.4,0-.46a.55.55,0,0,0,.46.12C12.26,13,12.52,13.36,12.41,13.49Z"/><path class="cls-5" d="M14.8,11.85c.43-.06.47-.43.7-.65.05,0,.16,0,.21,0a.43.43,0,0,0,.13-.45c.2.26.4-.09.55,0s.23.62.61.78c-.06.29-.33.45-.47.69.13-.4.44-.83-.11-1,0,0,.1-.07.1-.11a.28.28,0,0,0-.11-.22A.36.36,0,0,0,16,11a1.39,1.39,0,0,1-.44.49c-.11.1,0,.37-.15.54,0,0-.1-.12-.12-.1-.14.28-.35.25-.4.07Z"/><path class="cls-5" d="M14.71,11.26h0s-.19.07-.2.11c0,.25,0,.5-.37.46a3.09,3.09,0,0,0,.68-1.16c.07-.14-.41-.49-.22-.6l.35.14c.1-.11.22-.18.46,0-.16,0-.35,0-.44.12s0,.4,0,.69c0,0-.17.06-.19.12A.7.7,0,0,0,14.71,11.26Z"/><path class="cls-5" d="M14.39,9.74a.44.44,0,0,1-.07-.19l-.51.11c-.14-.16.17-.22.39-.32a3.23,3.23,0,0,1,.41-.22C14.58,9.29,14.43,9.54,14.39,9.74Z"/><path class="cls-5" d="M15.92,15.7c.07-.17.22-.11.34-.12A.29.29,0,0,1,15.92,15.7Z"/><path class="cls-5" d="M17.35,9.68c-.07.66-.08,0-.12,0s.27,0,.23-.23A.8.8,0,0,0,17.35,9.68Z"/><path class="cls-5" d="M17.54,10.14a.16.16,0,0,1-.12.22c-.14,0-.31.06-.31.13a.52.52,0,0,1-.38.46,2.32,2.32,0,0,1,.79-.83s0-.14,0-.2.41,0,.43-.36c0,0-.06-.07-.1-.11.33.09.29-.33.58-.35v.23c-.14,0-.23.06-.35.12C17.76,9.62,18.13,10.07,17.54,10.14Z"/><path class="cls-5" d="M17.87,11.07c0,.14-.09.3-.22.32s-.23.17-.35-.21c.36.12.46-.18.58-.46A1.37,1.37,0,0,1,17.87,11.07Z"/><path class="cls-5" d="M17.31,12.23a.58.58,0,0,0,0,.23.4.4,0,0,1-.09-.45c.05-.06.21,0,.33,0A1.29,1.29,0,0,0,17.31,12.23Z"/><path class="cls-5" d="M15.38,12.8c0-.07,0-.19,0-.21a1.09,1.09,0,0,0-.45-.06s.08-.09.13-.1.26.14.31.11c.3-.17.64-.73.89-1,0,0-.15.4-.15.41C15.84,12.32,15.64,12.47,15.38,12.8Z"/><path class="cls-5" d="M16,13.1c-.1-.07-.31-.06-.21-.23.2-.33.64-.33.91-.59.06.33.48.25.68.48,0,0,0,.14,0,.22s0,.27.22.23l-.11.11c-.21-.3-.25,0-.47,0,.08,0,.2-.06.22-.12a.51.51,0,0,0-.11-.56c-.06-.06-.17-.13-.21-.1s-.16.26-.13.44c-.19-.18-.27-.59-.56-.43a1.79,1.79,0,0,0-.33.34c-.17.21.38.14.31.43A1.61,1.61,0,0,0,16,13.1Z"/><path class="cls-5" d="M14.93,13.14s.16,0,.19,0,.28.17.31.28c.06-.05.18-.1.18-.15s-.38-.18-.6-.26a.31.31,0,0,1-.19-.3A1,1,0,0,0,14.93,13.14Z"/><path class="cls-5" d="M14.4,13.08c.07.25-.13.17-.22,0s-.14-.58.23-.59c0,0,.08.06.12.1S14.13,12.22,14.4,13.08Z"/><path class="cls-5" d="M10.62,10.37c0-.3.41-.9.55-1.15.08.07.05.19,0,.26-.06.3-.4.5-.4.9-.09.14-.08.24-.33.23Z"/><path class="cls-5" d="M10.21,11.58c.35-.2,0-.22.41-.4.21.06.25.31.26.52,0,.05-.05.22-.05.29l-.12-.23c0-.08-.07-.27-.1-.28A.57.57,0,0,0,10.21,11.58Z"/><path class="cls-5" d="M12.66,9.73V9.5c.11.06.21.14.34.11Z"/><path class="cls-5" d="M10.61,12.66c.07.25-.13.17-.22,0s-.14-.58.23-.6c0,0,.08.07.12.11S10.35,11.8,10.61,12.66Z"/><path class="cls-5" d="M9.9,16c.13,0,.27.11.33.08.33-.16.31-.55.72-.22,0,0,.1-.06.09-.1s-.14-.21-.09-.34.12-.11.22-.14c.28-.1-.08-.39.33-.59.05,0,.06-.22,0-.3s-.36-.13-.56-.13a.55.55,0,0,0,.46-.23l-.11.23.46.23c-.08,0-.19.06-.21.12s0,.32,0,.45-.16,0-.2,0c-.18.22-.09.61-.28.75s-.93.14-1.08.64c0,.08.17.19.31.2s.28-.1.34-.33c0,.14,0,.29.13.32s.21-.38.45-.3a.21.21,0,0,1,.1.2c0,.06-.14.11-.21.11S11,16.6,11,16.61c-.24.1-.55.07-.69.33a.59.59,0,0,0,0,.23c-.13,0-.33,0-.32-.11s.15-.31.07-.46-.14-.09-.22-.12Z"/><path class="cls-5" d="M11.59,17.17c.06,0,.08-.14.12-.21l.23.11c.21-.5.56-1.14,1.16-1.15v.23a.32.32,0,0,0-.33.12c-.1.19.24.29,0,.57,0-.2.07-.48-.12-.54s-.39.29-.34.54c-.08,0-.19,0-.21,0-.14.3-.51.37-.6.69-.19-.21-.52-.26-.58-.58C11.19,16.88,11.34,17.26,11.59,17.17Z"/><path class="cls-5" d="M10.13,14.62c-.24,0-.1-.13-.11-.23C10.06,14.47,10.09,14.55,10.13,14.62Z"/><path class="cls-5" d="M10.73,14.61a.45.45,0,0,1,.1.36c-.08,0-.21-.08-.21-.11,0-.26-.23-.44-.14-.7C10.64,14.28,10.63,14.48,10.73,14.61Z"/><path class="cls-5" d="M10.13,13.93c0-.26.17,0,.23-.11Z"/><path class="cls-5" d="M12.23,14.16c0,.4.28.61.56.81a.51.51,0,0,0-.35-.22s-.07.09-.11.09-.2-.06-.21-.1c0-.23-.12-.46.07-.71,0,0,0-.14-.09-.21l-.23.11-.23-.46c.35,0,.4.46.69.58C12.29,14.09,12.23,14.12,12.23,14.16Z"/><path class="cls-5" d="M13,14.7c.2,0,.19-.15.19-.26s-.07-.15.18-.39c.05-.05.06-.22.12-.33l.12.1c-.07,0-.18.08-.2.15s0,.25,0,.32-.28.16-.27.4c0,0,.1.08.09.09a1,1,0,0,0,0,.48C12.9,15.13,13,14.9,13,14.7Z"/><path class="cls-5" d="M14.1,14.26c-.19.24-.44,0-.58.3.2-.07.08,0,.45.12,0-.09,0-.22,0-.24.37-.21.18-.69.47-1l-.16,0a1.29,1.29,0,0,1-.15.48C13.86,14.07,14.27,14.05,14.1,14.26Z"/><path class="cls-5" d="M13.28,15.64c-.28-.23-.27.06-.49,0l.12-.24c.2.26.4-.09.55,0S13.31,15.67,13.28,15.64Z"/><path class="cls-5" d="M13.51,16.26s-.16.06-.19.12c-.16.33-.05.43.11.69a.17.17,0,0,1-.22-.12c0-.2.09-.18-.11-.38s.21-.2.26-.33.3-.33.43-.55c0-.07.19,0,.18.1C13.93,16.05,13.54,15.7,13.51,16.26Z"/><path class="cls-5" d="M13.57,10.6c-.06,0,0-.15.14-.19.1.24.49.07.5.33,0,.1-.15.19-.15.32C13.83,10.91,13.8,10.76,13.57,10.6Z"/><path class="cls-5" d="M14.53,15.61c.11.25-.19.16-.23.28C14.13,15.6,14.58,15.81,14.53,15.61Z"/><path class="cls-5" d="M14.81,15.73l.23.11c0-.08.12-.17.1-.22-.16-.33,0-.68.14-1a.25.25,0,0,0,.34-.13,3.68,3.68,0,0,0,.47-1c-.09,0-.22,0-.23.06-.14.49-.55,1.25-1.1,1.37,0,0,0,.1,0,.15s.23.13.27.22S14.92,15.59,14.81,15.73Z"/><path class="cls-5" d="M14.55,14.28c0,.07-.05.17,0,.25.14-.33.15-.71.51-1-.15-.1-.25,0-.36.08C14.91,13.91,14.47,14,14.55,14.28Z"/><path class="cls-5" d="M15.23,16.6c-.09.17.23.44.33.42a.32.32,0,0,0,.24-.43c.47,0,1.05.51.67.9-.09.08-.29,0-.44-.09a.43.43,0,0,0,.33-.57A.35.35,0,0,0,16,16.7c-.31,0-.17.31-.35.46a.33.33,0,0,1-.23.11c-.13,0-.23-.14-.35-.19s-.17,0-.21.1a.24.24,0,0,0,.1.34c-.19,0-.23-.14-.21-.23s.44-.18.43-.47-.11-.28-.34-.34c.51.1.39-.46.75-.58s.13.12.1.21S15.33,16.39,15.23,16.6Z"/><path class="cls-5" d="M16,15.17a1.2,1.2,0,0,0-.23.11c.19-.13,0-.32.33-.5.08,0,.05-.23-.1-.31l.12-.12a2.18,2.18,0,0,0,.11.81A.91.91,0,0,0,16,15.17Z"/><path class="cls-5" d="M16.83,14.66c0,.08-.07.16-.1.23s-.11-.09-.1-.1a1,1,0,0,0,.1-.47A1.46,1.46,0,0,1,16.83,14.66Z"/><path class="cls-5" d="M16.67,13.78c-.2.05-.22-.13-.22-.22s.13-.18.2-.11,0,.27.36.22Z"/><path class="cls-5" d="M17.28,13.85c-.1.13-.16.46-.3.31S17.15,14,17.28,13.85Z"/><path class="cls-5" d="M17.28,16.93c0,.15-.08.43-.31.33,0,0,0-.13,0-.21.19,0,.42-.05.43-.34,0,0-.17-.07-.18-.12s-.16-.23.21-.35C17.26,16.46,17.33,16.7,17.28,16.93Z"/><path class="cls-5" d="M10.07,10.81c0,.37,0,.25-.4.37.08,0,.31-.14.32-.2s0-.18,0-.28-.23-.12-.12-.28,0-.58.33-.7c.07,0,0,.08.11.08C10.36,10.11,10.09,10.47,10.07,10.81Z"/><path class="cls-5" d="M17.5,14.63c.05-.6-.08-.93.56-.7.14.21-.28,0-.33.13s.26.16.24.22-.33.06-.36.13,0,.23.1.33S17.5,14.66,17.5,14.63Z"/><path class="cls-5" d="M17.25,15.32c-.2,0-.21.13-.22.24s.09.09.08.1c-.11.24-.37.09-.56.13.08,0,.19,0,.21,0,.15-.21.44-.55.14-.79.15.19.49.06.58.34Z"/><path class="cls-5" d="M16.69,16.4a2.67,2.67,0,0,1-.75,0,.57.57,0,0,1,.21-.12c.07,0,.08.12.13.1s.08-.18.13-.19c.24,0,.46-.12.69-.14,0,.08-.06.19-.12.22A.59.59,0,0,1,16.69,16.4Z"/><path class="cls-5" d="M17.77,15.84c0,.07-.15,0-.21-.1.21-.14,0-.5.24-.55.09,0,.2.11.34.08C18,15.53,17.89,15.58,17.77,15.84Z"/><path class="cls-5" d="M13.33,12.87c-.2,0-.2.13-.21.23s.09.09.08.11c-.11.24-.37.08-.56.12.08,0,.19,0,.21,0,.15-.21.44-.55.14-.8.14.19.48.07.57.35A1.76,1.76,0,0,1,13.33,12.87Z"/><path class="cls-5" d="M12.56,14.1c.08-.22.28-.2.46-.23A.68.68,0,0,1,12.56,14.1Z"/><path class="cls-5" d="M10.39,13.48s-.07-.06-.11-.1c.12-.06.2-.32.32-.2S10.51,13.53,10.39,13.48Z"/><path class="cls-5" d="M10.36,15.38c.08-.17.22-.11.35-.12C10.63,15.41,10.5,15.4,10.36,15.38Z"/><path class="cls-5" d="M14.23,15.32c-.07.07-.06.09-.11.11s-.24,0-.34-.11c.39.08.55-.24.46-.58.08,0,.2.08.2.12A1,1,0,0,1,14.23,15.32Z"/><path class="cls-5" d="M16.22,10.33c-.07.07-.06.09-.11.11s-.24,0-.35-.11c.4.09.56-.24.47-.58.07,0,.2.08.2.12A1.05,1.05,0,0,1,16.22,10.33Z"/><path class="cls-5" d="M12.45,15.49a.52.52,0,0,0-.12-.34.16.16,0,0,1,.22.11C12.55,15.35,12.48,15.42,12.45,15.49Z"/><path class="cls-5" d="M11.78,9.56a.47.47,0,0,0-.12-.34c.12,0,.21,0,.22.11A.48.48,0,0,1,11.78,9.56Z"/><path class="cls-5" d="M9.78,15.12c.08-.23.29-.21.47-.23A.78.78,0,0,1,9.78,15.12Z"/><path class="cls-5" d="M10.36,9.53c-.27,0,0-.24-.11-.34C10.59,9.2,10.16,9.47,10.36,9.53Z"/><path class="cls-5" d="M18.44,12.8c0,.13-.28.17-.28.24,0,.28-.14.34-.28.57,0,0-.1-.07-.1-.11s.23-.25.27-.37c.14-.38.11-1,.2-1.11,0,0,.21-.19.27-.25Z"/><path class="cls-5" d="M12.11,9.7c.26-.19.35-.76.64-.88-.23.18-.25.76-.44,1-.36.38-.86.59-1.12,1.06-.1.18.1.42-.13.57a1.09,1.09,0,0,1,.25-1C11.61,10.16,11.81,9.93,12.11,9.7Z"/><path class="cls-5" d="M15.26,9.56c-.11.12-.16.45-.31.3S15.12,9.65,15.26,9.56Z"/><path class="cls-5" d="M15.65,9.63c-.07.08-.19,0-.21-.1s-.18-.41,0-.46a.58.58,0,0,0,.46.11C15.49,9.18,15.76,9.51,15.65,9.63Z"/><path class="cls-5" d="M16.8,9.74s.11,0,.16-.07c-.17-.09,0-.33-.19-.37s-.16.08-.26.06C16.59,9.53,16.7,9.56,16.8,9.74Z"/><path class="cls-5" d="M13.22,11.37c.08-.23.28-.21.46-.23A.78.78,0,0,1,13.22,11.37Z"/><path class="cls-5" d="M17.88,11.79c.08-.16.22-.11.35-.12C18.15,11.82,18,11.82,17.88,11.79Z"/><path class="cls-5" d="M18.58,17.17c-.13,0-.34,0-.32-.11s.15-.31.07-.46-.14-.09-.22-.12c-.12.35-.51.51-.58.92,0,.12-.08.32-.2.21s.17-.15.17-.21a1.69,1.69,0,0,1,.59-1.07c.05-.06,0-.25.14-.31s.27.11.33.08v0a.54.54,0,0,0-.28.34c0,.08.17.19.31.2Z"/><path class="cls-5" d="M14.14,10.36A.47.47,0,0,0,14,10a.16.16,0,0,1,.21.11A.48.48,0,0,1,14.14,10.36Z"/><path class="cls-5" d="M13.75,12.89c.26,0,0,.18.08.25C13.81,13.06,13.78,13,13.75,12.89Z"/><path class="cls-5" d="M17.77,12.72a.55.55,0,0,0-.12-.35.16.16,0,0,1,.22.12A.58.58,0,0,1,17.77,12.72Z"/><path class="cls-5" d="M16.76,10.52a.53.53,0,0,1,.17-.33.15.15,0,0,0-.23.09A.71.71,0,0,0,16.76,10.52Z"/><path class="cls-5" d="M11.44,9.81c.12.26-.18.16-.23.28C11.05,9.8,11.5,10,11.44,9.81Z"/><path class="cls-5" d="M15.49,10.75c-.24,0-.1-.14-.11-.23Z"/><path class="cls-5" d="M14,17.13c.19-.06.14-.2.11-.31s-.12,0-.12-.06c0-.26.3-.22.46-.34-.07,0-.18,0-.19.1,0,.25-.18.68.2.78-.22-.11-.48.14-.67-.09Z"/><path class="cls-5" d="M11.75,13.14c-.24,0-.1-.14-.11-.23A2.4,2.4,0,0,0,11.75,13.14Z"/><path class="cls-5" d="M12.1,12.29c.07-.16.22-.11.35-.11A.29.29,0,0,1,12.1,12.29Z"/><path class="cls-5" d="M15.41,14.07c-.24,0-.1-.14-.11-.24A2.56,2.56,0,0,1,15.41,14.07Z"/><path class="cls-5" d="M14.72,16.3c0-.09,0-.16-.09-.23s.16,0,.17.08S14.75,16.25,14.72,16.3Z"/><path class="cls-5" d="M13.88,16.34c-.07.67-.08,0-.12,0,.11,0,.27,0,.23-.23A.8.8,0,0,0,13.88,16.34Z"/><path class="cls-5" d="M11.49,15.42c.39-.12,0-.22.49-.31.19.1.18.35.15.57,0,.05-.1.19-.12.27L12,15.7c0-.09,0-.28,0-.3A.6.6,0,0,0,11.49,15.42Z"/><path class="cls-5" d="M11.61,16.41c.06.2.22.13.3.08s.1-.2,0-.23-.23.13-.37-.2C11.56,16.18,11.58,16.29,11.61,16.41Z"/><path class="cls-5" d="M9.21,10.14a.16.16,0,0,1-.12.22c-.13,0-.31.06-.31.13A.52.52,0,0,1,8.4,11a2.32,2.32,0,0,1,.79-.83s0-.14,0-.2.41,0,.44-.36c0,0-.07-.07-.11-.11.33.09.29-.33.58-.35v.23c-.13,0-.23.06-.35.12C9.43,9.62,9.8,10.07,9.21,10.14Z"/><path class="cls-5" d="M10.11,12.8c0,.13-.28.17-.28.24,0,.28-.14.34-.28.57,0,0-.1-.07-.1-.11s.23-.25.27-.37c.14-.38.11-1,.2-1.11,0,0,.21-.19.27-.25Z"/><path class="cls-5" d="M10.25,17.17c-.13,0-.33,0-.32-.11s.15-.31.07-.46-.14-.09-.22-.12c-.12.35-.51.51-.58.92,0,.12-.08.32-.2.21s.17-.15.17-.21a1.69,1.69,0,0,1,.59-1.07c.06-.06,0-.25.14-.31s.27.11.33.08v0a.54.54,0,0,0-.28.34c0,.08.17.19.31.2Z"/></g><g class="cls-7"><path class="cls-5" d="M5.17,17.92c-.12.08-.2.72-.32.81s-.11.1-.11.14,0,.07,0,.15-.11.35-.32.31-.11-.15.21-.33c0,0,0-.14,0-.21.31-.81.6-1.48.69-1.28Z"/><path class="cls-5" d="M6.06,18.07A.44.44,0,0,1,6,17.88L5.48,18c-.13-.16.18-.22.39-.32a3.23,3.23,0,0,1,.41-.22C6.26,17.62,6.11,17.87,6.06,18.07Z"/><path class="cls-5" d="M9.21,18.47a.17.17,0,0,1-.12.22c-.13,0-.31.06-.31.13a.53.53,0,0,1-.38.46,2.32,2.32,0,0,1,.79-.83s0-.14,0-.2c.1-.21.41,0,.44-.36,0,0-.07-.07-.11-.11.33.09.29-.33.58-.35v.23c-.13,0-.23.06-.35.11C9.43,18,9.8,18.4,9.21,18.47Z"/><path class="cls-5" d="M2.29,18.7c0-.3.41-.9.55-1.15.08.07.05.19,0,.26-.06.3-.4.5-.4.9-.09.14-.08.24-.33.22Z"/><path class="cls-5" d="M3.45,17.89a.51.51,0,0,0-.11-.34.15.15,0,0,1,.21.11A.48.48,0,0,1,3.45,17.89Z"/><path class="cls-5" d="M2,17.86c-.27,0,0-.24-.11-.34C2.26,17.53,1.83,17.8,2,17.86Z"/><path class="cls-5" d="M3.79,18c.25-.19.34-.76.64-.88-.24.18-.26.75-.45,1-.36.38-.86.58-1.12,1.06-.1.18.1.42-.13.57a1.09,1.09,0,0,1,.25-1C3.29,18.49,3.48,18.26,3.79,18Z"/><path class="cls-5" d="M7.32,18c-.07.08-.18,0-.21-.1s-.18-.41,0-.46a.58.58,0,0,0,.46.11C7.17,17.51,7.43,17.84,7.32,18Z"/><path class="cls-5" d="M8.47,18.07s.11,0,.16-.07c-.17-.09,0-.34-.19-.37s-.16.07-.26.06C8.27,17.86,8.38,17.89,8.47,18.07Z"/><path class="cls-5" d="M.88,18.47a.17.17,0,0,1-.12.22c-.13,0-.31.06-.31.13a.51.51,0,0,1-.38.46,2.32,2.32,0,0,1,.79-.83s0-.14,0-.2c.1-.21.41,0,.44-.36,0,0-.07-.07-.11-.11.33.09.29-.33.58-.35v.23c-.13,0-.23.06-.35.11C1.1,18,1.47,18.4.88,18.47Z"/><path class="cls-5" d="M9.9,16c.13,0,.27.11.33.08.33-.16.31-.55.72-.22,0,0,.1-.06.09-.1s-.14-.21-.09-.34.12-.11.22-.14c.28-.1-.08-.39.33-.59.05,0,.06-.22,0-.3s-.36-.13-.56-.13a.55.55,0,0,0,.46-.23l-.11.23.46.23c-.08,0-.19.06-.21.12s0,.32,0,.45-.16,0-.2,0c-.18.22-.09.61-.28.75s-.93.14-1.08.64c0,.08.17.19.31.2s.28-.1.34-.33c0,.14,0,.29.13.32s.21-.38.45-.3a.21.21,0,0,1,.1.2c0,.06-.14.11-.21.11S11,16.6,11,16.61c-.24.1-.55.07-.69.33a.59.59,0,0,0,0,.23c-.13,0-.33,0-.32-.11s.15-.31.07-.46-.14-.09-.22-.12Z"/><path class="cls-5" d="M10.13,14.62c-.24,0-.1-.13-.11-.23C10.06,14.47,10.09,14.55,10.13,14.62Z"/><path class="cls-5" d="M10.07,10.81c0,.37,0,.25-.4.37.08,0,.31-.14.32-.2s0-.18,0-.28-.23-.12-.12-.28,0-.58.33-.7c.07,0,0,.08.11.08C10.36,10.11,10.09,10.47,10.07,10.81Z"/><path class="cls-5" d="M9.78,15.12c.08-.23.29-.21.47-.23A.78.78,0,0,1,9.78,15.12Z"/><path class="cls-5" d="M2.55,13.84s-.07,0-.11,0a.82.82,0,0,1,.23-.35c0,.08.12.17.1.23S2.64,13.82,2.55,13.84Z"/><path class="cls-5" d="M5.17,9.59c-.12.08-.2.72-.32.81s-.11.11-.11.14,0,.07,0,.15-.11.36-.32.31-.11-.15.21-.33c0,0,0-.14,0-.21.31-.81.6-1.48.69-1.27Z"/><path class="cls-5" d="M3.89,10.9c-.11,0-.26-.16-.25-.2.14-.36.28-.51.43-.52s-.19.22-.27.38.3.38.24.48S4,11,3.89,10.9Z"/><path class="cls-5" d="M3.54,11.07c-.09.29-.06.32-.46.46.11,0,.08,0,.11-.35C3.19,11.14,3.46,11.11,3.54,11.07Z"/><path class="cls-5" d="M3.19,12.46c0,.08-.07.2-.12.2-.31,0-.37.27-.46.49.2.06.35.26.58.23-.11.06-.23.18-.33.1s0-.18,0-.19c-.45-.15-.34-.48-.09-.7,0,0,.15.1.2.08s-.08-.71.13-.56.25.22.43,0,0-.29,0-.44.32-.05.32.11C3.88,12.16,3.33,12.1,3.19,12.46Z"/><path class="cls-5" d="M4.58,12.11s-.08.1-.12.1-.07-.06-.11-.1.2-.07.2-.12a.5.5,0,0,0-.32-.58C4.7,11.27,4.83,11.79,4.58,12.11Z"/><path class="cls-5" d="M5.07,12.34c0-.6-.09-.93.55-.69.14.2-.28,0-.33.12s.26.16.24.22-.32.06-.36.13,0,.23.1.34C5.2,12.42,5.07,12.38,5.07,12.34Z"/><path class="cls-5" d="M5.73,12.44s-.07-.06-.11-.1c.12-.07.2-.33.32-.2S5.85,12.48,5.73,12.44Z"/><path class="cls-5" d="M4.08,13.49c-.07.07-.18,0-.21-.11s-.18-.4,0-.46a.58.58,0,0,0,.47.12C3.93,13,4.19,13.36,4.08,13.49Z"/><path class="cls-5" d="M6.47,11.85c.43-.06.47-.43.71-.65,0,0,.15,0,.2,0a.43.43,0,0,0,.13-.45c.2.26.41-.09.55,0s.23.62.61.78c-.06.29-.33.45-.47.69.13-.4.44-.83-.11-1,0,0,.1-.07.1-.11a.28.28,0,0,0-.11-.22.36.36,0,0,0-.44.11,1.39,1.39,0,0,1-.44.49c-.11.1,0,.37-.15.54,0,0-.1-.12-.12-.1-.14.28-.35.25-.4.07Z"/><path class="cls-5" d="M6.38,11.26h0s-.19.07-.19.11c0,.25-.06.5-.38.46a3.09,3.09,0,0,0,.68-1.16c.07-.14-.41-.49-.21-.6l.34.14c.1-.11.22-.18.47,0-.17,0-.36,0-.45.12s0,.4,0,.69c0,0-.17.06-.19.12A.7.7,0,0,0,6.38,11.26Z"/><path class="cls-5" d="M6.06,9.74A.44.44,0,0,1,6,9.55l-.51.11c-.13-.16.18-.22.39-.32a3.23,3.23,0,0,1,.41-.22C6.26,9.29,6.11,9.54,6.06,9.74Z"/><path class="cls-5" d="M7.59,15.7c.07-.17.22-.11.34-.12A.29.29,0,0,1,7.59,15.7Z"/><path class="cls-5" d="M9,9.68c-.07.66-.08,0-.12,0s.27,0,.23-.23A.8.8,0,0,0,9,9.68Z"/><path class="cls-5" d="M9.21,10.14a.16.16,0,0,1-.12.22c-.13,0-.31.06-.31.13A.52.52,0,0,1,8.4,11a2.32,2.32,0,0,1,.79-.83s0-.14,0-.2.41,0,.44-.36c0,0-.07-.07-.11-.11.33.09.29-.33.58-.35v.23c-.13,0-.23.06-.35.12C9.43,9.62,9.8,10.07,9.21,10.14Z"/><path class="cls-5" d="M9.54,11.07c0,.14-.09.3-.22.32s-.23.17-.34-.21c.35.12.46-.18.57-.46A1.37,1.37,0,0,1,9.54,11.07Z"/><path class="cls-5" d="M9,12.23c0,.06,0,.15,0,.23A.37.37,0,0,1,8.89,12c0-.06.2,0,.32,0A1,1,0,0,0,9,12.23Z"/><path class="cls-5" d="M7.05,12.8c0-.07,0-.19,0-.21a1.09,1.09,0,0,0-.45-.06s.08-.09.13-.1.26.14.31.11c.3-.17.64-.73.89-1,0,0-.15.4-.15.41C7.51,12.32,7.31,12.47,7.05,12.8Z"/><path class="cls-5" d="M7.67,13.1c-.1-.07-.31-.06-.21-.23.2-.33.64-.33.91-.59.07.33.48.25.68.48,0,0,0,.14,0,.22s0,.27.22.23l-.11.11c-.21-.3-.25,0-.47,0,.08,0,.2-.06.22-.12a.53.53,0,0,0-.1-.56c-.07-.06-.18-.13-.22-.1s-.16.26-.13.44c-.18-.18-.27-.59-.56-.43a1.79,1.79,0,0,0-.33.34c-.16.21.38.14.31.43A1.61,1.61,0,0,0,7.67,13.1Z"/><path class="cls-5" d="M6.6,13.14s.16,0,.19,0,.28.17.31.28c.07-.05.18-.1.18-.15s-.38-.18-.6-.26a.33.33,0,0,1-.19-.3A1,1,0,0,0,6.6,13.14Z"/><path class="cls-5" d="M6.07,13.08c.07.25-.13.17-.22,0s-.14-.58.23-.59c0,0,.08.06.12.1S5.81,12.22,6.07,13.08Z"/><path class="cls-5" d="M2.29,10.37c0-.3.41-.9.55-1.15.08.07.05.19,0,.26-.06.3-.4.5-.4.9-.09.14-.08.24-.33.23Z"/><path class="cls-5" d="M1.88,11.58c.35-.2,0-.22.41-.4.21.06.25.31.26.52,0,.05,0,.22,0,.29l-.12-.23c0-.08-.07-.27-.1-.28A.57.57,0,0,0,1.88,11.58Z"/><path class="cls-5" d="M4.33,9.73V9.5a.49.49,0,0,0,.35.11Z"/><path class="cls-5" d="M2.28,12.66c.08.25-.13.17-.22,0s-.14-.58.24-.6c0,0,.07.07.11.11S2,11.8,2.28,12.66Z"/><path class="cls-5" d="M1.57,16c.13,0,.27.11.33.08.33-.16.31-.55.72-.22,0,0,.1-.06.09-.1s-.14-.21-.09-.34.12-.11.22-.14c.28-.1-.07-.39.34-.59,0,0,0-.22,0-.3s-.36-.13-.56-.13a.58.58,0,0,0,.47-.23L3,14.28l.46.23c-.07,0-.19.06-.21.12s0,.32,0,.45-.16,0-.2,0c-.18.22-.09.61-.28.75s-.93.14-1.08.64c0,.08.18.19.31.2s.29-.1.35-.33a.28.28,0,0,0,.12.32c.23.09.21-.38.45-.3a.21.21,0,0,1,.1.2.25.25,0,0,1-.21.11s-.09-.09-.11-.08c-.24.1-.55.07-.69.33a.59.59,0,0,0,0,.23c-.13,0-.33,0-.32-.11s.15-.31.07-.46-.14-.09-.21-.12Z"/><path class="cls-5" d="M3.26,17.17c.06,0,.09-.14.12-.21l.24.11c.2-.5.55-1.14,1.15-1.15v.23a.33.33,0,0,0-.33.12c-.1.19.24.29,0,.57,0-.2.06-.48-.13-.54s-.39.29-.34.54c-.07,0-.19,0-.21,0-.14.3-.51.37-.6.69-.19-.21-.52-.26-.58-.58C2.86,16.88,3,17.26,3.26,17.17Z"/><path class="cls-5" d="M1.8,14.62c-.24,0-.1-.13-.11-.23C1.73,14.47,1.76,14.55,1.8,14.62Z"/><path class="cls-5" d="M2.4,14.61a.45.45,0,0,1,.1.36c-.08,0-.21-.08-.21-.11,0-.26-.23-.44-.14-.7C2.31,14.28,2.3,14.48,2.4,14.61Z"/><path class="cls-5" d="M1.8,13.93c0-.26.17,0,.23-.11Z"/><path class="cls-5" d="M3.9,14.16c0,.4.28.61.56.81a.51.51,0,0,0-.34-.22s-.08.09-.12.09-.2-.06-.21-.1c0-.23-.12-.46.07-.71,0,0,0-.14-.09-.21l-.23.11-.23-.46c.35,0,.4.46.69.58C4,14.09,3.9,14.12,3.9,14.16Z"/><path class="cls-5" d="M4.64,14.7c.2,0,.19-.15.19-.26s-.07-.15.19-.39c.05-.05.05-.22.11-.33l.12.1c-.07,0-.18.08-.2.15s0,.25,0,.32-.28.16-.28.4c0,0,.1.08.09.09a1,1,0,0,0-.05.48C4.57,15.13,4.66,14.9,4.64,14.7Z"/><path class="cls-5" d="M5.77,14.26c-.19.24-.44,0-.58.3.2-.07.08,0,.45.12,0-.09,0-.22,0-.24.37-.21.18-.69.47-1l-.16,0a1.29,1.29,0,0,1-.15.48C5.53,14.07,5.94,14.05,5.77,14.26Z"/><path class="cls-5" d="M5,15.64c-.28-.23-.27.06-.49,0l.12-.24c.2.26.4-.09.55,0S5,15.67,5,15.64Z"/><path class="cls-5" d="M5.18,16.26s-.16.06-.19.12c-.16.33,0,.43.11.69A.17.17,0,0,1,4.88,17c0-.2.09-.18-.11-.38s.21-.2.26-.33.3-.33.43-.55c0-.07.19,0,.18.1C5.6,16.05,5.21,15.7,5.18,16.26Z"/><path class="cls-5" d="M5.24,10.6c-.06,0,0-.15.14-.19.1.24.49.07.5.33,0,.1-.15.19-.15.32C5.5,10.91,5.48,10.76,5.24,10.6Z"/><path class="cls-5" d="M6.2,15.61c.11.25-.19.16-.23.28C5.8,15.6,6.25,15.81,6.2,15.61Z"/><path class="cls-5" d="M6.48,15.73l.24.11c0-.08.11-.17.09-.22-.16-.33,0-.68.15-1a.25.25,0,0,0,.33-.13,3.68,3.68,0,0,0,.47-1c-.09,0-.22,0-.23.06-.14.49-.55,1.25-1.1,1.37,0,0,0,.1,0,.15s.23.13.27.22S6.59,15.59,6.48,15.73Z"/><path class="cls-5" d="M6.22,14.28c0,.07,0,.17,0,.25.14-.33.15-.71.51-1-.15-.1-.24,0-.36.08C6.58,13.91,6.15,14,6.22,14.28Z"/><path class="cls-5" d="M6.9,16.6c-.09.17.23.44.33.42a.32.32,0,0,0,.24-.43c.48,0,1,.51.67.9-.08.08-.29,0-.44-.09A.43.43,0,0,0,8,16.83a.35.35,0,0,0-.33-.13c-.31,0-.17.31-.35.46a.31.31,0,0,1-.22.11c-.14,0-.24-.14-.36-.19s-.17,0-.21.1a.24.24,0,0,0,.1.34c-.19,0-.22-.14-.2-.23s.43-.18.42-.47-.11-.28-.33-.34c.5.1.38-.46.75-.58s.12.12.09.21S7,16.39,6.9,16.6Z"/><path class="cls-5" d="M7.67,15.17a1,1,0,0,0-.24.11c.19-.13,0-.32.33-.5.08,0,0-.23-.1-.31l.12-.12a2,2,0,0,0,.12.81A.87.87,0,0,0,7.67,15.17Z"/><path class="cls-5" d="M8.5,14.66a.52.52,0,0,1-.1.23s-.11-.09-.1-.1a1,1,0,0,0,.1-.47A1.1,1.1,0,0,1,8.5,14.66Z"/><path class="cls-5" d="M8.34,13.78c-.2.05-.22-.13-.21-.22s.12-.18.2-.11,0,.27.36.22Z"/><path class="cls-5" d="M9,13.85c-.1.13-.16.46-.3.31S8.82,14,9,13.85Z"/><path class="cls-5" d="M9,16.93c0,.15-.08.43-.31.33,0,0,0-.13,0-.21.19,0,.42-.05.43-.34,0,0-.17-.07-.18-.12s-.16-.23.21-.35C8.93,16.46,9,16.7,9,16.93Z"/><path class="cls-5" d="M1.75,10.81c0,.37,0,.25-.41.37.08,0,.31-.14.32-.2s0-.18.05-.28-.22-.12-.12-.28,0-.58.33-.7C2,9.7,2,9.8,2,9.8,2,10.11,1.76,10.47,1.75,10.81Z"/><path class="cls-5" d="M9.17,14.63c.05-.6-.08-.93.56-.7.14.21-.28,0-.33.13s.26.16.24.22-.33.06-.36.13,0,.23.1.33S9.17,14.66,9.17,14.63Z"/><path class="cls-5" d="M8.92,15.32c-.2,0-.21.13-.22.24s.09.09.09.1c-.12.24-.37.09-.57.13.08,0,.19,0,.22,0,.14-.21.43-.55.13-.79.15.19.49.06.58.34Z"/><path class="cls-5" d="M8.37,16.4a2.75,2.75,0,0,1-.76,0,.57.57,0,0,1,.21-.12c.07,0,.08.12.13.1s.09-.18.13-.19c.24,0,.46-.12.69-.14,0,.08-.06.19-.12.22A.59.59,0,0,1,8.37,16.4Z"/><path class="cls-5" d="M9.44,15.84c0,.07-.15,0-.21-.1.21-.14,0-.5.24-.55.1,0,.21.11.34.08C9.7,15.53,9.56,15.58,9.44,15.84Z"/><path class="cls-5" d="M5,12.87c-.2,0-.2.13-.21.23s.09.09.08.11c-.11.24-.37.08-.56.12.08,0,.19,0,.21,0,.15-.21.44-.55.14-.8.14.19.48.07.57.35A1.76,1.76,0,0,1,5,12.87Z"/><path class="cls-5" d="M4.23,14.1c.08-.22.28-.2.46-.23A.68.68,0,0,1,4.23,14.1Z"/><path class="cls-5" d="M2.06,13.48S2,13.42,2,13.38c.12-.06.2-.32.32-.2S2.18,13.53,2.06,13.48Z"/><path class="cls-5" d="M2,15.38c.08-.17.23-.11.35-.12C2.3,15.41,2.17,15.4,2,15.38Z"/><path class="cls-5" d="M5.91,15.32c-.08.07-.07.09-.12.11s-.24,0-.34-.11c.39.08.55-.24.46-.58.08,0,.21.08.21.12A1.11,1.11,0,0,1,5.91,15.32Z"/><path class="cls-5" d="M7.89,10.33c-.07.07-.06.09-.11.11s-.24,0-.34-.11c.39.09.55-.24.46-.58.08,0,.2.08.2.12A1,1,0,0,1,7.89,10.33Z"/><path class="cls-5" d="M4.12,15.49A.52.52,0,0,0,4,15.15a.16.16,0,0,1,.22.11A.48.48,0,0,1,4.12,15.49Z"/><path class="cls-5" d="M3.45,9.56a.51.51,0,0,0-.11-.34.16.16,0,0,1,.21.11A.48.48,0,0,1,3.45,9.56Z"/><path class="cls-5" d="M1.46,15.12c.08-.23.28-.21.46-.23C1.81,15.05,1.63,15.07,1.46,15.12Z"/><path class="cls-5" d="M2,9.53c-.27,0,0-.24-.11-.34C2.26,9.2,1.83,9.47,2,9.53Z"/><path class="cls-5" d="M10.11,12.8c0,.13-.28.17-.28.24,0,.28-.14.34-.28.57,0,0-.1-.07-.1-.11s.23-.25.27-.37c.14-.38.11-1,.2-1.11,0,0,.21-.19.27-.25Z"/><path class="cls-5" d="M3.79,9.7c.25-.19.34-.76.64-.88-.24.18-.26.76-.45,1-.36.38-.86.59-1.12,1.06-.1.18.1.42-.13.57a1.09,1.09,0,0,1,.25-1C3.29,10.16,3.48,9.93,3.79,9.7Z"/><path class="cls-5" d="M6.93,9.56c-.11.12-.16.45-.31.3S6.8,9.65,6.93,9.56Z"/><path class="cls-5" d="M7.32,9.63c-.07.08-.18,0-.21-.1s-.18-.41,0-.46a.58.58,0,0,0,.46.11C7.17,9.18,7.43,9.51,7.32,9.63Z"/><path class="cls-5" d="M8.47,9.74s.11,0,.16-.07c-.17-.09,0-.33-.19-.37s-.16.08-.26.06C8.27,9.53,8.38,9.56,8.47,9.74Z"/><path class="cls-5" d="M4.89,11.37c.08-.23.28-.21.46-.23A.78.78,0,0,1,4.89,11.37Z"/><path class="cls-5" d="M9.55,11.79c.08-.16.22-.11.35-.12C9.82,11.82,9.69,11.82,9.55,11.79Z"/><path class="cls-5" d="M10.25,17.17c-.13,0-.33,0-.32-.11s.15-.31.07-.46-.14-.09-.22-.12c-.12.35-.51.51-.58.92,0,.12-.08.32-.2.21s.17-.15.17-.21a1.69,1.69,0,0,1,.59-1.07c.06-.06,0-.25.14-.31s.27.11.33.08v0a.54.54,0,0,0-.28.34c0,.08.17.19.31.2Z"/><path class="cls-5" d="M5.81,10.36A.47.47,0,0,0,5.7,10a.16.16,0,0,1,.21.11A.48.48,0,0,1,5.81,10.36Z"/><path class="cls-5" d="M5.42,12.89c.26,0,0,.18.08.25C5.48,13.06,5.45,13,5.42,12.89Z"/><path class="cls-5" d="M9.44,12.72a.55.55,0,0,0-.12-.35.16.16,0,0,1,.22.12A.58.58,0,0,1,9.44,12.72Z"/><path class="cls-5" d="M8.44,10.52a.47.47,0,0,1,.16-.33.15.15,0,0,0-.23.09A.55.55,0,0,0,8.44,10.52Z"/><path class="cls-5" d="M3.12,9.81c.11.26-.19.16-.24.28C2.72,9.8,3.17,10,3.12,9.81Z"/><path class="cls-5" d="M7.16,10.75c-.24,0-.1-.14-.11-.23Z"/><path class="cls-5" d="M5.7,17.13c.2-.06.14-.2.11-.31s-.12,0-.12-.06c0-.26.3-.22.46-.34-.07,0-.18,0-.19.1,0,.25-.18.68.2.78-.21-.11-.48.14-.67-.09Z"/><path class="cls-5" d="M3.42,13.14c-.24,0-.1-.14-.11-.23Z"/><path class="cls-5" d="M3.77,12.29c.07-.16.22-.11.35-.11C4,12.32,3.91,12.32,3.77,12.29Z"/><path class="cls-5" d="M7.09,14.07c-.25,0-.11-.14-.12-.24Z"/><path class="cls-5" d="M6.39,16.3c0-.09,0-.16-.09-.23s.16,0,.17.08S6.42,16.25,6.39,16.3Z"/><path class="cls-5" d="M5.55,16.34c-.07.67-.08,0-.12,0,.11,0,.27,0,.23-.23A.8.8,0,0,0,5.55,16.34Z"/><path class="cls-5" d="M3.17,15.42c.38-.12,0-.22.48-.31.19.1.18.35.15.57,0,.05-.1.19-.12.27l-.06-.25c0-.09,0-.28,0-.3A.57.57,0,0,0,3.17,15.42Z"/><path class="cls-5" d="M3.28,16.41c.06.2.22.13.31.08s.09-.2,0-.23-.23.13-.37-.2C3.23,16.18,3.25,16.29,3.28,16.41Z"/><path class="cls-5" d="M.88,10.14a.16.16,0,0,1-.12.22c-.13,0-.31.06-.31.13A.5.5,0,0,1,.07,11a2.32,2.32,0,0,1,.79-.83s0-.14,0-.2.41,0,.44-.36c0,0-.07-.07-.11-.11.33.09.29-.33.58-.35v.23c-.13,0-.23.06-.35.12C1.1,9.62,1.47,10.07.88,10.14Z"/><path class="cls-5" d="M1.78,12.8c0,.13-.27.17-.28.24,0,.28-.14.34-.28.57,0,0-.1-.07-.1-.11s.23-.25.27-.37c.14-.38.11-1,.2-1.11,0,0,.21-.19.27-.25Z"/><path class="cls-5" d="M1.92,17.17c-.13,0-.33,0-.32-.11s.15-.31.07-.46-.14-.09-.21-.12c-.13.35-.52.51-.59.92,0,.12-.08.32-.2.21s.17-.15.18-.21a1.68,1.68,0,0,1,.58-1.07c.06-.06,0-.25.14-.31s.27.11.33.08v0a.57.57,0,0,0-.28.34c0,.08.18.19.31.2Z"/></g></g><polygon class="cls-2" points="13.09 13.88 26.02 13.88 14.91 8.63 1.98 8.63 13.09 13.88"/><g class="cls-8"><g class="cls-9"><path class="cls-5" d="M21.83,15.54c-.12.07-.21.72-.32.81s-.12.1-.12.14,0,.07,0,.14S21.24,17,21,17s-.11-.16.21-.34c0,0,0-.14,0-.2.31-.82.6-1.48.68-1.28Z"/><path class="cls-5" d="M22.71,15.69a.7.7,0,0,1-.06-.19l-.51.1c-.14-.15.17-.21.38-.31a4.23,4.23,0,0,1,.42-.22C22.91,15.24,22.76,15.49,22.71,15.69Z"/><path class="cls-5" d="M25.86,16.09a.15.15,0,0,1-.11.21c-.14,0-.31.07-.31.14a.54.54,0,0,1-.39.46,2.35,2.35,0,0,1,.8-.83s0-.15,0-.21.41,0,.44-.35c0,0-.06-.08-.1-.12.33.1.29-.32.58-.34v.23c-.14,0-.24.06-.35.11C26.08,15.57,26.46,16,25.86,16.09Z"/><path class="cls-5" d="M19,16.32c-.05-.3.41-.9.55-1.16a.28.28,0,0,1,0,.26c-.06.31-.41.51-.4.9-.09.15-.08.25-.33.23Z"/><path class="cls-5" d="M20.11,15.51a.5.5,0,0,0-.12-.35c.12,0,.21,0,.22.12A.58.58,0,0,1,20.11,15.51Z"/><path class="cls-5" d="M18.69,15.48c-.27,0,0-.24-.11-.35C18.91,15.15,18.49,15.42,18.69,15.48Z"/><path class="cls-5" d="M20.44,15.65c.26-.19.35-.76.64-.88-.23.17-.25.75-.44,1-.36.39-.86.59-1.13,1.07-.09.17.11.42-.12.57a1.08,1.08,0,0,1,.25-1C19.94,16.11,20.14,15.88,20.44,15.65Z"/><path class="cls-5" d="M24,15.58c-.07.07-.19,0-.21-.11s-.18-.4,0-.46a.55.55,0,0,0,.46.12C23.82,15.12,24.09,15.45,24,15.58Z"/><path class="cls-5" d="M25.13,15.68c0,.05.11,0,.16-.06-.17-.1,0-.34-.19-.37s-.16.07-.26.05C24.92,15.47,25,15.51,25.13,15.68Z"/><path class="cls-5" d="M17.54,16.09a.16.16,0,0,1-.12.21c-.14,0-.31.07-.31.14a.53.53,0,0,1-.38.46,2.24,2.24,0,0,1,.79-.83s0-.15,0-.21.41,0,.43-.35c0,0-.06-.08-.1-.12.33.1.29-.32.58-.34v.23c-.14,0-.23.06-.35.11C17.76,15.57,18.13,16,17.54,16.09Z"/><path class="cls-5" d="M26.56,13.64c.13-.05.27.1.33.07.33-.16.3-.55.72-.21,0,0,.1-.07.09-.1s-.14-.22-.09-.35.12-.1.21-.14c.29-.09-.07-.38.34-.58.05,0,.05-.22,0-.31s-.36-.12-.56-.13a.53.53,0,0,0,.46-.23c0,.08-.07.16-.11.23l.46.24c-.08,0-.19.06-.21.12s0,.32,0,.44-.16,0-.2,0c-.19.22-.09.61-.28.74s-.93.15-1.08.64c0,.09.17.2.31.21s.28-.11.34-.33a.32.32,0,0,0,.13.32c.22.09.21-.38.44-.3a.21.21,0,0,1,.11.2c0,.06-.14.11-.21.11s-.09-.09-.11-.09c-.24.11-.56.08-.69.34,0,.06,0,.15,0,.23s-.34,0-.32-.12.15-.3.07-.45-.14-.09-.22-.13Z"/><path class="cls-5" d="M26.79,12.24c-.25,0-.11-.14-.12-.23Z"/><path class="cls-5" d="M26.73,8.42c0,.38,0,.26-.4.38.07,0,.3-.15.32-.2s0-.18.05-.29-.23-.11-.12-.27,0-.58.33-.7c.06,0,0,.07.11.07C27,7.73,26.75,8.08,26.73,8.42Z"/><path class="cls-5" d="M26.44,12.73c.08-.22.28-.2.47-.23A.73.73,0,0,1,26.44,12.73Z"/><path class="cls-5" d="M19.21,11.46H19.1a.67.67,0,0,1,.23-.34c0,.07.12.16.1.22S19.29,11.43,19.21,11.46Z"/><path class="cls-5" d="M21.83,7.21c-.12.07-.21.72-.32.81s-.12.1-.12.14,0,.07,0,.15-.11.35-.32.31-.11-.16.21-.33c0,0,0-.15,0-.21.31-.82.6-1.48.68-1.28Z"/><path class="cls-5" d="M20.55,8.52c-.12,0-.27-.17-.25-.21.14-.35.28-.51.42-.51s-.18.22-.26.38.3.38.24.48S20.62,8.61,20.55,8.52Z"/><path class="cls-5" d="M20.2,8.68c-.09.3-.06.33-.47.47.12,0,.09,0,.12-.35C19.85,8.75,20.12,8.72,20.2,8.68Z"/><path class="cls-5" d="M19.85,10.07c0,.08-.07.21-.12.21-.31,0-.37.26-.46.49.2.05.35.25.58.23-.11.06-.23.17-.34.1s0-.19,0-.19c-.44-.16-.33-.49-.09-.7,0,0,.16.1.21.07s-.08-.7.12-.55.26.22.44,0,0-.29,0-.45.31,0,.32.12C20.53,9.78,20,9.72,19.85,10.07Z"/><path class="cls-5" d="M21.24,9.72s-.08.11-.12.11S21,9.76,21,9.73s.2-.08.2-.12A.49.49,0,0,0,20.89,9C21.36,8.89,21.49,9.41,21.24,9.72Z"/><path class="cls-5" d="M21.73,10c0-.6-.09-.93.55-.7.14.2-.28,0-.33.13s.26.16.24.22-.32.06-.36.12,0,.23.1.34C21.85,10,21.72,10,21.73,10Z"/><path class="cls-5" d="M22.39,10.06s-.07-.06-.11-.1c.12-.07.2-.33.32-.21S22.51,10.1,22.39,10.06Z"/><path class="cls-5" d="M20.74,11.1c-.07.08-.19,0-.21-.1s-.18-.4,0-.46a.63.63,0,0,0,.46.12C20.58,10.65,20.85,11,20.74,11.1Z"/><path class="cls-5" d="M23.13,9.46c.43-.05.47-.42.7-.65,0,0,.16,0,.21,0a.44.44,0,0,0,.13-.45c.2.25.4-.1.55,0s.23.62.6.78c-.06.29-.32.45-.46.69.13-.4.44-.84-.11-1,0,0,.1-.08.1-.12a.27.27,0,0,0-.11-.21.34.34,0,0,0-.44.11,1.51,1.51,0,0,1-.45.49c-.1.09,0,.37-.14.54,0,0-.1-.13-.12-.1-.15.27-.35.24-.41.07Z"/><path class="cls-5" d="M23,8.88h0s-.19.06-.2.1c0,.25-.06.51-.37.47a3.13,3.13,0,0,0,.68-1.17c.07-.14-.41-.48-.22-.6l.35.15c.1-.11.22-.18.46,0-.16,0-.36,0-.44.12s0,.4,0,.68c0,0-.17.07-.19.13A.53.53,0,0,0,23,8.88Z"/><path class="cls-5" d="M22.71,7.36a.7.7,0,0,1-.06-.19l-.51.1c-.14-.15.17-.21.38-.31a4.23,4.23,0,0,1,.42-.22C22.91,6.91,22.76,7.16,22.71,7.36Z"/><path class="cls-5" d="M24.25,13.31c.07-.16.22-.11.34-.11A.27.27,0,0,1,24.25,13.31Z"/><path class="cls-5" d="M25.68,7.3c-.07.66-.09,0-.12,0s.27,0,.23-.24A.86.86,0,0,0,25.68,7.3Z"/><path class="cls-5" d="M25.86,7.76a.16.16,0,0,1-.11.22c-.14,0-.31.06-.31.13a.54.54,0,0,1-.39.46,2.35,2.35,0,0,1,.8-.83s0-.14,0-.21.41,0,.44-.35c0,0-.06-.08-.1-.12.33.1.29-.32.58-.34V7a.61.61,0,0,0-.35.11C26.08,7.24,26.46,7.69,25.86,7.76Z"/><path class="cls-5" d="M26.2,8.68c0,.14-.09.3-.22.33s-.23.16-.35-.21c.36.11.46-.19.58-.46A1.29,1.29,0,0,1,26.2,8.68Z"/><path class="cls-5" d="M25.64,9.85a.54.54,0,0,0,0,.22.38.38,0,0,1-.09-.44c.05-.06.21,0,.32,0A1.26,1.26,0,0,0,25.64,9.85Z"/><path class="cls-5" d="M23.71,10.42c0-.08,0-.19,0-.21s-.29-.05-.44-.07c0,0,.08-.08.12-.09s.27.13.32.1c.3-.17.64-.72.89-1,0,0-.15.4-.16.41C24.17,9.94,24,10.09,23.71,10.42Z"/><path class="cls-5" d="M24.33,10.72c-.1-.07-.31-.07-.21-.23.2-.33.64-.34.91-.59.06.32.48.25.68.47,0,.05,0,.15,0,.22s0,.27.22.23l-.11.12c-.21-.3-.25,0-.47,0,.08,0,.2-.06.21-.12a.51.51,0,0,0-.1-.57c-.06-.06-.17-.12-.21-.1a.41.41,0,0,0-.13.44c-.19-.17-.27-.58-.56-.42a1.79,1.79,0,0,0-.33.34c-.17.2.38.14.31.43A1.2,1.2,0,0,0,24.33,10.72Z"/><path class="cls-5" d="M23.26,10.76s.16,0,.19,0,.28.18.31.29c.06,0,.18-.1.18-.16s-.38-.18-.6-.25a.31.31,0,0,1-.19-.3A1,1,0,0,0,23.26,10.76Z"/><path class="cls-5" d="M22.73,10.69c.07.25-.13.17-.22,0s-.14-.58.23-.6c0,0,.08.07.12.11S22.46,9.83,22.73,10.69Z"/><path class="cls-5" d="M19,8c-.05-.3.41-.9.55-1.16a.28.28,0,0,1,0,.26c-.06.31-.41.51-.4.91-.09.14-.08.24-.33.22Z"/><path class="cls-5" d="M18.54,9.19c.35-.19,0-.21.41-.39.21.06.25.31.26.52,0,0-.05.21-.05.29L19,9.38c0-.08-.07-.28-.1-.28A.59.59,0,0,0,18.54,9.19Z"/><path class="cls-5" d="M21,7.34V7.11a.47.47,0,0,0,.34.12Z"/><path class="cls-5" d="M18.94,10.28c.07.25-.13.17-.22,0s-.14-.57.23-.59c0,0,.08.06.12.1S18.67,9.42,18.94,10.28Z"/><path class="cls-5" d="M18.23,13.64c.13-.05.27.1.33.07.33-.16.3-.55.72-.21,0,0,.1-.07.09-.1s-.14-.22-.09-.35.12-.1.22-.14c.28-.09-.08-.38.33-.58.05,0,.06-.22,0-.31s-.36-.12-.56-.13a.53.53,0,0,0,.46-.23c0,.08-.07.16-.11.23l.46.24c-.08,0-.19.06-.21.12s0,.32,0,.44-.16,0-.2,0c-.18.22-.09.61-.28.74s-.93.15-1.08.64c0,.09.17.2.31.21s.28-.11.34-.33a.32.32,0,0,0,.13.32c.22.09.21-.38.45-.3a.22.22,0,0,1,.1.2c0,.06-.14.11-.21.11s-.09-.09-.11-.09c-.24.11-.55.08-.69.34a.58.58,0,0,0,0,.23c-.13,0-.34,0-.32-.12s.15-.3.07-.45-.14-.09-.22-.13Z"/><path class="cls-5" d="M19.92,14.79c.06,0,.08-.14.12-.22l.23.12c.21-.5.56-1.15,1.16-1.16v.23a.32.32,0,0,0-.33.13c-.1.18.24.29,0,.57,0-.2.07-.48-.12-.54s-.39.29-.34.54c-.08,0-.2,0-.21,0-.14.3-.51.37-.6.68-.19-.21-.52-.25-.58-.58C19.51,14.5,19.67,14.88,19.92,14.79Z"/><path class="cls-5" d="M18.46,12.24c-.24,0-.1-.14-.11-.23A2.4,2.4,0,0,0,18.46,12.24Z"/><path class="cls-5" d="M19.06,12.23a.44.44,0,0,1,.1.36c-.08,0-.21-.08-.21-.12,0-.25-.23-.44-.14-.69C19,11.89,19,12.09,19.06,12.23Z"/><path class="cls-5" d="M18.46,11.55c0-.26.17-.05.23-.12Z"/><path class="cls-5" d="M20.56,11.78c0,.39.28.61.56.81a.5.5,0,0,0-.35-.22s-.07.09-.11.09-.2-.06-.21-.11c0-.22-.12-.45.07-.7,0,0-.05-.14-.09-.22l-.23.12L20,11.08c.36.05.4.47.7.58C20.62,11.7,20.56,11.74,20.56,11.78Z"/><path class="cls-5" d="M21.3,12.31c.19,0,.19-.14.19-.25s-.07-.15.18-.4c0,0,.06-.21.11-.32l.13.1c-.07.05-.18.08-.2.14s.05.26,0,.33-.28.16-.27.39c0,0,.1.08.09.1a1,1,0,0,0-.05.48C21.23,12.74,21.31,12.51,21.3,12.31Z"/><path class="cls-5" d="M22.43,11.88c-.2.24-.45,0-.58.29.2-.07.08.06.45.12,0-.08,0-.21,0-.23.37-.22.18-.69.47-1l-.16,0a1.37,1.37,0,0,1-.15.47C22.19,11.69,22.59,11.67,22.43,11.88Z"/><path class="cls-5" d="M21.61,13.25c-.28-.22-.28.07-.49,0l.12-.23c.19.26.39-.09.55,0S21.64,13.28,21.61,13.25Z"/><path class="cls-5" d="M21.84,13.87c0,.05-.17.07-.2.13-.16.33-.05.42.12.68a.17.17,0,0,1-.22-.12c0-.19.09-.17-.11-.37s.21-.21.26-.34.3-.32.43-.54.19,0,.18.1C22.26,13.67,21.86,13.32,21.84,13.87Z"/><path class="cls-5" d="M21.9,8.21c-.06,0,.05-.14.14-.18.1.23.49.07.5.33,0,.1-.15.18-.15.32C22.16,8.53,22.13,8.38,21.9,8.21Z"/><path class="cls-5" d="M22.86,13.22c.11.26-.19.16-.24.29C22.46,13.21,22.91,13.43,22.86,13.22Z"/><path class="cls-5" d="M23.14,13.35l.23.11c0-.08.12-.17.1-.22-.16-.34,0-.68.14-1a.25.25,0,0,0,.34-.12,3.68,3.68,0,0,0,.47-1c-.09,0-.22,0-.23.05-.14.5-.55,1.26-1.1,1.38,0,0,0,.1,0,.14s.23.14.27.22S23.25,13.21,23.14,13.35Z"/><path class="cls-5" d="M22.87,11.89c0,.08,0,.18,0,.26.14-.34.14-.72.51-1-.15-.1-.25,0-.36.08C23.24,11.53,22.8,11.61,22.87,11.89Z"/><path class="cls-5" d="M23.56,14.21c-.09.18.23.45.33.42a.31.31,0,0,0,.24-.42c.47,0,1.05.5.66.9-.08.08-.28,0-.43-.09a.43.43,0,0,0,.33-.57.35.35,0,0,0-.33-.13c-.31,0-.17.31-.35.46a.38.38,0,0,1-.23.11c-.13,0-.24-.14-.36-.2s-.17,0-.2.1a.24.24,0,0,0,.1.34.17.17,0,0,1-.21-.22c.05-.21.44-.19.43-.47s-.11-.29-.34-.35c.51.11.39-.45.75-.58s.12.13.1.22S23.66,14,23.56,14.21Z"/><path class="cls-5" d="M24.32,12.79a1.2,1.2,0,0,0-.23.11c.19-.13,0-.33.33-.5.08,0,0-.23-.1-.31l.12-.12a2,2,0,0,0,.11.81A.91.91,0,0,0,24.32,12.79Z"/><path class="cls-5" d="M25.16,12.28c0,.08-.07.15-.11.23s-.1-.09-.1-.11a.85.85,0,0,0,.1-.47A1.18,1.18,0,0,1,25.16,12.28Z"/><path class="cls-5" d="M25,11.4c-.2,0-.22-.13-.22-.23s.13-.17.2-.1,0,.26.36.22Z"/><path class="cls-5" d="M25.61,11.47c-.11.12-.16.46-.3.31S25.48,11.57,25.61,11.47Z"/><path class="cls-5" d="M25.61,14.55c0,.14-.08.43-.31.33,0,0,0-.13,0-.21.19,0,.42-.05.43-.35,0,0-.17-.06-.18-.12s-.17-.22.21-.34C25.59,14.07,25.66,14.32,25.61,14.55Z"/><path class="cls-5" d="M18.4,8.42c0,.38,0,.26-.4.38.08,0,.31-.15.32-.2s0-.18.05-.29-.23-.11-.12-.27,0-.58.33-.7c.06,0,0,.07.11.07C18.69,7.73,18.42,8.08,18.4,8.42Z"/><path class="cls-5" d="M25.83,12.25c.05-.6-.08-.93.55-.7.15.2-.28,0-.32.13s.26.16.24.22S26,12,25.94,12s0,.23.1.34S25.83,12.28,25.83,12.25Z"/><path class="cls-5" d="M25.58,12.94c-.2,0-.21.13-.22.23s.09.09.08.11c-.11.24-.37.08-.56.12.08,0,.19,0,.21,0,.15-.21.44-.55.14-.8.15.19.48.07.58.35Z"/><path class="cls-5" d="M25,14a2.67,2.67,0,0,1-.75,0,.62.62,0,0,1,.2-.12c.08,0,.08.12.14.1s.08-.19.13-.19c.24,0,.45-.12.69-.14,0,.08-.06.18-.12.22A.91.91,0,0,1,25,14Z"/><path class="cls-5" d="M26.1,13.46c0,.07-.15,0-.21-.11.21-.14,0-.5.24-.55.09,0,.2.11.34.09C26.36,13.14,26.22,13.2,26.1,13.46Z"/><path class="cls-5" d="M21.66,10.48c-.2,0-.2.13-.22.24s.1.09.09.11c-.11.24-.37.08-.56.12.07,0,.18,0,.21,0,.15-.22.44-.55.13-.8.15.19.49.06.58.35Z"/><path class="cls-5" d="M20.89,11.72c.08-.23.28-.21.46-.23A.68.68,0,0,1,20.89,11.72Z"/><path class="cls-5" d="M18.71,11.1s-.07-.06-.1-.1c.12-.07.2-.33.32-.21S18.84,11.14,18.71,11.1Z"/><path class="cls-5" d="M18.69,13c.08-.16.22-.1.35-.11C19,13,18.83,13,18.69,13Z"/><path class="cls-5" d="M22.56,12.93c-.07.07-.06.1-.11.11s-.24,0-.35-.1c.4.08.56-.24.47-.58.07,0,.2.07.2.11A.91.91,0,0,1,22.56,12.93Z"/><path class="cls-5" d="M24.55,8c-.07.07-.07.09-.11.11S24.2,8,24.09,8c.4.08.56-.24.47-.58.07,0,.2.08.2.12A1.11,1.11,0,0,1,24.55,8Z"/><path class="cls-5" d="M20.77,13.11a.49.49,0,0,0-.11-.35.16.16,0,0,1,.21.12A.58.58,0,0,1,20.77,13.11Z"/><path class="cls-5" d="M20.11,7.18A.5.5,0,0,0,20,6.83c.12,0,.21,0,.22.12S20.15,7.1,20.11,7.18Z"/><path class="cls-5" d="M18.11,12.73c.08-.22.29-.2.47-.23A.73.73,0,0,1,18.11,12.73Z"/><path class="cls-5" d="M18.69,7.15c-.27,0,0-.24-.11-.35C18.91,6.82,18.49,7.09,18.69,7.15Z"/><path class="cls-5" d="M26.77,10.42c0,.13-.28.17-.29.24,0,.28-.14.34-.27.57,0,0-.1-.08-.1-.12s.23-.24.27-.37c.14-.37.11-1,.2-1.1a1.82,1.82,0,0,0,.27-.25Z"/><path class="cls-5" d="M20.44,7.32c.26-.19.35-.76.64-.88-.23.18-.25.75-.44.95-.36.39-.86.59-1.13,1.07-.09.17.11.42-.12.57a1.09,1.09,0,0,1,.25-1C19.94,7.78,20.14,7.55,20.44,7.32Z"/><path class="cls-5" d="M23.59,7.17c-.11.12-.16.46-.31.31S23.45,7.27,23.59,7.17Z"/><path class="cls-5" d="M24,7.25c-.07.07-.19,0-.21-.11s-.18-.4,0-.46a.55.55,0,0,0,.46.12C23.82,6.79,24.09,7.12,24,7.25Z"/><path class="cls-5" d="M25.13,7.36s.11,0,.16-.07c-.17-.1,0-.34-.19-.37s-.16.07-.26.06C24.92,7.15,25,7.18,25.13,7.36Z"/><path class="cls-5" d="M21.55,9c.08-.22.28-.2.46-.23A.68.68,0,0,1,21.55,9Z"/><path class="cls-5" d="M26.21,9.41c.08-.17.22-.11.35-.12C26.48,9.44,26.35,9.43,26.21,9.41Z"/><path class="cls-5" d="M26.91,14.79c-.13,0-.34,0-.32-.12s.15-.3.07-.45-.14-.09-.22-.13c-.12.35-.51.52-.58.93,0,.11-.08.32-.2.2s.17-.14.17-.2A1.67,1.67,0,0,1,26.42,14c0-.06,0-.26.14-.31s.27.1.33.07v0a.6.6,0,0,0-.28.34c0,.09.17.2.31.21Z"/><path class="cls-5" d="M22.47,8a.54.54,0,0,0-.11-.35.16.16,0,0,1,.21.12C22.57,7.84,22.51,7.9,22.47,8Z"/><path class="cls-5" d="M22.08,10.51c.26,0,0,.18.08.25A1.83,1.83,0,0,0,22.08,10.51Z"/><path class="cls-5" d="M26.1,10.33A.52.52,0,0,0,26,10a.16.16,0,0,1,.22.11C26.2,10.19,26.13,10.26,26.1,10.33Z"/><path class="cls-5" d="M25.09,8.13a.53.53,0,0,1,.17-.32.16.16,0,0,0-.23.08A.65.65,0,0,0,25.09,8.13Z"/><path class="cls-5" d="M19.77,7.43c.12.25-.19.16-.23.28C19.37,7.42,19.83,7.63,19.77,7.43Z"/><path class="cls-5" d="M23.82,8.37c-.24,0-.1-.14-.11-.24A2.56,2.56,0,0,0,23.82,8.37Z"/><path class="cls-5" d="M22.36,14.74c.19-.05.14-.2.11-.3s-.13,0-.13-.06c0-.27.31-.23.47-.34-.07,0-.18.05-.19.1-.05.25-.18.67.19.78-.21-.12-.47.14-.66-.09A1.33,1.33,0,0,1,22.36,14.74Z"/><path class="cls-5" d="M20.08,10.76c-.25,0-.1-.14-.12-.23Z"/><path class="cls-5" d="M20.43,9.91c.07-.17.22-.11.34-.12C20.69,9.94,20.56,9.93,20.43,9.91Z"/><path class="cls-5" d="M23.74,11.68c-.24,0-.1-.14-.11-.23C23.67,11.53,23.7,11.61,23.74,11.68Z"/><path class="cls-5" d="M23.05,13.92c0-.09-.05-.16-.1-.23a.14.14,0,0,1,.18.07C23.13,13.82,23.08,13.87,23.05,13.92Z"/><path class="cls-5" d="M22.21,14c-.07.66-.09,0-.12,0s.27,0,.23-.23A.7.7,0,0,0,22.21,14Z"/><path class="cls-5" d="M19.82,13c.39-.12,0-.21.49-.3.19.1.18.35.15.56,0,.05-.1.2-.12.27l-.06-.25c0-.08,0-.28,0-.29A.63.63,0,0,0,19.82,13Z"/><path class="cls-5" d="M19.94,14c0,.2.22.12.3.07s.09-.19,0-.22-.22.13-.36-.21C19.89,13.79,19.91,13.91,19.94,14Z"/><path class="cls-5" d="M17.54,7.76a.17.17,0,0,1-.12.22c-.14,0-.31.06-.31.13a.53.53,0,0,1-.38.46,2.24,2.24,0,0,1,.79-.83s0-.14,0-.21.41,0,.43-.35c0,0-.06-.08-.1-.12.33.1.29-.32.58-.34V7c-.14,0-.23.06-.35.11C17.76,7.24,18.13,7.69,17.54,7.76Z"/><path class="cls-5" d="M18.44,10.42c0,.13-.28.17-.28.24,0,.28-.14.34-.28.57,0,0-.1-.08-.1-.12s.23-.24.27-.37c.14-.37.11-1,.2-1.1a1.82,1.82,0,0,0,.27-.25Z"/><path class="cls-5" d="M18.58,14.79c-.13,0-.34,0-.32-.12s.15-.3.07-.45-.14-.09-.22-.13c-.12.35-.51.52-.58.93,0,.11-.08.32-.2.2s.17-.14.17-.2A1.67,1.67,0,0,1,18.09,14c.05-.06,0-.26.14-.31s.27.1.33.07v0a.6.6,0,0,0-.28.34c0,.09.17.2.31.21Z"/></g><g class="cls-10"><path class="cls-5" d="M13.5,15.54c-.12.07-.2.72-.32.81s-.12.1-.12.14,0,.07,0,.14-.11.36-.32.32c-.06,0-.11-.16.21-.34,0,0,0-.14,0-.2.31-.82.6-1.48.68-1.28Z"/><path class="cls-5" d="M14.39,15.69a.49.49,0,0,1-.07-.19l-.51.1c-.14-.15.17-.21.39-.31a3.23,3.23,0,0,1,.41-.22C14.58,15.24,14.43,15.49,14.39,15.69Z"/><path class="cls-5" d="M17.54,16.09a.16.16,0,0,1-.12.21c-.14,0-.31.07-.31.14a.53.53,0,0,1-.38.46,2.24,2.24,0,0,1,.79-.83s0-.15,0-.21.41,0,.43-.35c0,0-.06-.08-.1-.12.33.1.29-.32.58-.34v.23c-.14,0-.23.06-.35.11C17.76,15.57,18.13,16,17.54,16.09Z"/><path class="cls-5" d="M10.62,16.32c0-.3.41-.9.55-1.16a.28.28,0,0,1,0,.26c-.06.31-.4.51-.4.9-.09.15-.08.25-.33.23Z"/><path class="cls-5" d="M11.78,15.51a.5.5,0,0,0-.12-.35c.12,0,.21,0,.22.12A.58.58,0,0,1,11.78,15.51Z"/><path class="cls-5" d="M10.36,15.48c-.27,0,0-.24-.11-.35C10.59,15.15,10.16,15.42,10.36,15.48Z"/><path class="cls-5" d="M12.11,15.65c.26-.19.35-.76.64-.88-.23.17-.25.75-.44,1-.36.39-.86.59-1.12,1.07-.1.17.1.42-.13.57a1.08,1.08,0,0,1,.25-1C11.61,16.11,11.81,15.88,12.11,15.65Z"/><path class="cls-5" d="M15.65,15.58c-.07.07-.19,0-.21-.11s-.18-.4,0-.46a.55.55,0,0,0,.46.12C15.49,15.12,15.76,15.45,15.65,15.58Z"/><path class="cls-5" d="M16.8,15.68c0,.05.11,0,.16-.06-.17-.1,0-.34-.19-.37s-.16.07-.26.05C16.59,15.47,16.7,15.51,16.8,15.68Z"/><path class="cls-5" d="M9.21,16.09a.16.16,0,0,1-.12.21c-.13,0-.31.07-.31.14a.53.53,0,0,1-.38.46,2.24,2.24,0,0,1,.79-.83s0-.15,0-.21.41,0,.44-.35c0,0-.07-.08-.11-.12.33.1.29-.32.58-.34v.23c-.13,0-.23.06-.35.11C9.43,15.57,9.8,16,9.21,16.09Z"/><path class="cls-5" d="M18.23,13.64c.13-.05.27.1.33.07.33-.16.3-.55.72-.21,0,0,.1-.07.09-.1s-.14-.22-.09-.35.12-.1.22-.14c.28-.09-.08-.38.33-.58.05,0,.06-.22,0-.31s-.36-.12-.56-.13a.53.53,0,0,0,.46-.23c0,.08-.07.16-.11.23l.46.24c-.08,0-.19.06-.21.12s0,.32,0,.44-.16,0-.2,0c-.18.22-.09.61-.28.74s-.93.15-1.08.64c0,.09.17.2.31.21s.28-.11.34-.33a.32.32,0,0,0,.13.32c.22.09.21-.38.45-.3a.22.22,0,0,1,.1.2c0,.06-.14.11-.21.11s-.09-.09-.11-.09c-.24.11-.55.08-.69.34a.58.58,0,0,0,0,.23c-.13,0-.34,0-.32-.12s.15-.3.07-.45-.14-.09-.22-.13Z"/><path class="cls-5" d="M18.46,12.24c-.24,0-.1-.14-.11-.23A2.4,2.4,0,0,0,18.46,12.24Z"/><path class="cls-5" d="M18.4,8.42c0,.38,0,.26-.4.38.08,0,.31-.15.32-.2s0-.18.05-.29-.23-.11-.12-.27,0-.58.33-.7c.06,0,0,.07.11.07C18.69,7.73,18.42,8.08,18.4,8.42Z"/><path class="cls-5" d="M18.11,12.73c.08-.22.29-.2.47-.23A.73.73,0,0,1,18.11,12.73Z"/><path class="cls-5" d="M10.88,11.46h-.11a.67.67,0,0,1,.23-.34c0,.07.12.16.1.22S11,11.43,10.88,11.46Z"/><path class="cls-5" d="M13.5,7.21c-.12.07-.2.72-.32.81s-.12.1-.12.14,0,.07,0,.15-.11.35-.32.31c-.06,0-.11-.16.21-.33,0,0,0-.15,0-.21.31-.82.6-1.48.68-1.28Z"/><path class="cls-5" d="M12.22,8.52c-.11,0-.26-.17-.25-.21.14-.35.28-.51.42-.51s-.18.22-.26.38.3.38.24.48S12.3,8.61,12.22,8.52Z"/><path class="cls-5" d="M11.87,8.68c-.09.3-.06.33-.47.47.12,0,.09,0,.12-.35C11.52,8.75,11.79,8.72,11.87,8.68Z"/><path class="cls-5" d="M11.52,10.07c0,.08-.07.21-.12.21-.31,0-.37.26-.46.49.2.05.35.25.58.23-.11.06-.23.17-.33.1s0-.19,0-.19c-.45-.16-.34-.49-.09-.7,0,0,.15.1.2.07s-.08-.7.12-.55.26.22.44,0,0-.29,0-.45.32,0,.32.12C12.21,9.78,11.66,9.72,11.52,10.07Z"/><path class="cls-5" d="M12.91,9.72s-.08.11-.12.11-.07-.07-.11-.1.2-.08.2-.12A.49.49,0,0,0,12.56,9C13,8.89,13.16,9.41,12.91,9.72Z"/><path class="cls-5" d="M13.4,10c0-.6-.09-.93.55-.7.14.2-.28,0-.33.13s.26.16.24.22-.32.06-.36.12,0,.23.1.34C13.52,10,13.4,10,13.4,10Z"/><path class="cls-5" d="M14.06,10.06S14,10,14,10c.12-.07.2-.33.32-.21S14.18,10.1,14.06,10.06Z"/><path class="cls-5" d="M12.41,11.1c-.07.08-.18,0-.21-.1s-.18-.4,0-.46a.63.63,0,0,0,.46.12C12.26,10.65,12.52,11,12.41,11.1Z"/><path class="cls-5" d="M14.8,9.46c.43-.05.47-.42.7-.65.05,0,.16,0,.21,0a.44.44,0,0,0,.13-.45c.2.25.4-.1.55,0s.23.62.61.78c-.06.29-.33.45-.47.69.13-.4.44-.84-.11-1,0,0,.1-.08.1-.12a.27.27,0,0,0-.11-.21.34.34,0,0,0-.44.11c-.14.27-.23.29-.44.49s0,.37-.15.54c0,0-.1-.13-.12-.1-.14.27-.35.24-.4.07Z"/><path class="cls-5" d="M14.71,8.88h0s-.19.06-.2.1c0,.25,0,.51-.37.47a3.13,3.13,0,0,0,.68-1.17c.07-.14-.41-.48-.22-.6l.35.15c.1-.11.22-.18.46,0-.16,0-.35,0-.44.12s0,.4,0,.68c0,0-.17.07-.19.13A.53.53,0,0,0,14.71,8.88Z"/><path class="cls-5" d="M14.39,7.36a.49.49,0,0,1-.07-.19l-.51.1c-.14-.15.17-.21.39-.31a3.23,3.23,0,0,1,.41-.22C14.58,6.91,14.43,7.16,14.39,7.36Z"/><path class="cls-5" d="M15.92,13.31c.07-.16.22-.11.34-.11A.27.27,0,0,1,15.92,13.31Z"/><path class="cls-5" d="M17.35,7.3c-.07.66-.08,0-.12,0s.27,0,.23-.24A.86.86,0,0,0,17.35,7.3Z"/><path class="cls-5" d="M17.54,7.76a.17.17,0,0,1-.12.22c-.14,0-.31.06-.31.13a.53.53,0,0,1-.38.46,2.24,2.24,0,0,1,.79-.83s0-.14,0-.21.41,0,.43-.35c0,0-.06-.08-.1-.12.33.1.29-.32.58-.34V7c-.14,0-.23.06-.35.11C17.76,7.24,18.13,7.69,17.54,7.76Z"/><path class="cls-5" d="M17.87,8.68c0,.14-.09.3-.22.33s-.23.16-.35-.21c.36.11.46-.19.58-.46A1.29,1.29,0,0,1,17.87,8.68Z"/><path class="cls-5" d="M17.31,9.85a.54.54,0,0,0,0,.22.38.38,0,0,1-.09-.44c.05-.06.21,0,.33,0A1,1,0,0,0,17.31,9.85Z"/><path class="cls-5" d="M15.38,10.42c0-.08,0-.19,0-.21s-.3-.05-.45-.07c0,0,.08-.08.13-.09s.26.13.31.1c.3-.17.64-.72.89-1,0,0-.15.4-.15.41C15.84,9.94,15.64,10.09,15.38,10.42Z"/><path class="cls-5" d="M16,10.72c-.1-.07-.31-.07-.21-.23.2-.33.64-.34.91-.59.06.32.48.25.68.47,0,.05,0,.15,0,.22s0,.27.22.23l-.11.12c-.21-.3-.25,0-.47,0,.08,0,.2-.06.22-.12a.53.53,0,0,0-.11-.57c-.06-.06-.17-.12-.21-.1a.41.41,0,0,0-.13.44c-.19-.17-.27-.58-.56-.42a1.79,1.79,0,0,0-.33.34c-.17.2.38.14.31.43A1.2,1.2,0,0,0,16,10.72Z"/><path class="cls-5" d="M14.93,10.76s.16,0,.19,0,.28.18.31.29c.06,0,.18-.1.18-.16s-.38-.18-.6-.25a.31.31,0,0,1-.19-.3A1,1,0,0,0,14.93,10.76Z"/><path class="cls-5" d="M14.4,10.69c.07.25-.13.17-.22,0s-.14-.58.23-.6c0,0,.08.07.12.11S14.13,9.83,14.4,10.69Z"/><path class="cls-5" d="M10.62,8c0-.3.41-.9.55-1.16a.28.28,0,0,1,0,.26c-.06.31-.4.51-.4.91-.09.14-.08.24-.33.22Z"/><path class="cls-5" d="M10.21,9.19c.35-.19,0-.21.41-.39.21.06.25.31.26.52,0,0-.05.21-.05.29l-.12-.23c0-.08-.07-.28-.1-.28A.59.59,0,0,0,10.21,9.19Z"/><path class="cls-5" d="M12.66,7.34V7.11a.49.49,0,0,0,.34.12Z"/><path class="cls-5" d="M10.61,10.28c.07.25-.13.17-.22,0s-.14-.57.23-.59c0,0,.08.06.12.1S10.35,9.42,10.61,10.28Z"/><path class="cls-5" d="M9.9,13.64c.13-.05.27.1.33.07.33-.16.31-.55.72-.21,0,0,.1-.07.09-.1s-.14-.22-.09-.35.12-.1.22-.14c.28-.09-.08-.38.33-.58.05,0,.06-.22,0-.31s-.36-.12-.56-.13a.53.53,0,0,0,.46-.23,1.63,1.63,0,0,1-.11.23l.46.24c-.08,0-.19.06-.21.12s0,.32,0,.44-.16,0-.2,0c-.18.22-.09.61-.28.74s-.93.15-1.08.64c0,.09.17.2.31.21s.28-.11.34-.33a.32.32,0,0,0,.13.32c.23.09.21-.38.45-.3a.2.2,0,0,1,.1.2c0,.06-.14.11-.21.11s-.09-.09-.11-.09c-.24.11-.55.08-.69.34a.58.58,0,0,0,0,.23c-.13,0-.33,0-.32-.12s.15-.3.07-.45-.14-.09-.22-.13Z"/><path class="cls-5" d="M11.59,14.79c.06,0,.08-.14.12-.22l.23.12c.21-.5.56-1.15,1.16-1.16v.23a.32.32,0,0,0-.33.13c-.1.18.24.29,0,.57,0-.2.07-.48-.12-.54s-.39.29-.34.54c-.08,0-.19,0-.21,0-.14.3-.51.37-.6.68-.19-.21-.52-.25-.58-.58C11.19,14.5,11.34,14.88,11.59,14.79Z"/><path class="cls-5" d="M10.13,12.24c-.24,0-.1-.14-.11-.23Z"/><path class="cls-5" d="M10.73,12.23a.44.44,0,0,1,.1.36c-.08,0-.21-.08-.21-.12,0-.25-.23-.44-.14-.69C10.64,11.89,10.63,12.09,10.73,12.23Z"/><path class="cls-5" d="M10.13,11.55c0-.26.17-.05.23-.12Z"/><path class="cls-5" d="M12.23,11.78c0,.39.28.61.56.81a.48.48,0,0,0-.35-.22s-.07.09-.11.09-.2-.06-.21-.11c0-.22-.12-.45.07-.7,0,0,0-.14-.09-.22l-.23.12c-.08-.16-.16-.31-.23-.47.35.05.4.47.69.58C12.29,11.7,12.23,11.74,12.23,11.78Z"/><path class="cls-5" d="M13,12.31c.2,0,.19-.14.19-.25s-.07-.15.18-.4c.05,0,.06-.21.12-.32l.12.1c-.07.05-.18.08-.2.14s0,.26,0,.33-.28.16-.27.39c0,0,.1.08.09.1a1,1,0,0,0,0,.48C12.9,12.74,13,12.51,13,12.31Z"/><path class="cls-5" d="M14.1,11.88c-.19.24-.44,0-.58.29.2-.07.08.06.45.12,0-.08,0-.21,0-.23.37-.22.18-.69.47-1l-.16,0a1.18,1.18,0,0,1-.15.47C13.86,11.69,14.27,11.67,14.1,11.88Z"/><path class="cls-5" d="M13.28,13.25c-.28-.22-.27.07-.49,0l.12-.23c.2.26.4-.09.55,0S13.31,13.28,13.28,13.25Z"/><path class="cls-5" d="M13.51,13.87c0,.05-.16.07-.19.13-.16.33-.05.42.11.68a.17.17,0,0,1-.22-.12c0-.19.09-.17-.11-.37s.21-.21.26-.34.3-.32.43-.54.19,0,.18.1C13.93,13.67,13.54,13.32,13.51,13.87Z"/><path class="cls-5" d="M13.57,8.21c-.06,0,0-.14.14-.18.1.23.49.07.5.33,0,.1-.15.18-.15.32C13.83,8.53,13.8,8.38,13.57,8.21Z"/><path class="cls-5" d="M14.53,13.22c.11.26-.19.16-.23.29C14.13,13.21,14.58,13.43,14.53,13.22Z"/><path class="cls-5" d="M14.81,13.35l.23.11c0-.08.12-.17.1-.22-.16-.34,0-.68.14-1a.24.24,0,0,0,.34-.12,3.68,3.68,0,0,0,.47-1c-.09,0-.22,0-.23.05-.14.5-.55,1.26-1.1,1.38,0,0,0,.1,0,.14s.23.14.27.22S14.92,13.21,14.81,13.35Z"/><path class="cls-5" d="M14.55,11.89c0,.08-.05.18,0,.26.14-.34.15-.72.51-1-.15-.1-.25,0-.36.08C14.91,11.53,14.47,11.61,14.55,11.89Z"/><path class="cls-5" d="M15.23,14.21c-.09.18.23.45.33.42a.31.31,0,0,0,.24-.42c.47,0,1.05.5.67.9-.09.08-.29,0-.44-.09a.43.43,0,0,0,.33-.57.35.35,0,0,0-.33-.13c-.31,0-.17.31-.35.46a.38.38,0,0,1-.23.11c-.13,0-.23-.14-.35-.2s-.17,0-.21.1a.24.24,0,0,0,.1.34.17.17,0,0,1-.21-.22c.05-.21.44-.19.43-.47s-.11-.29-.34-.35c.51.11.39-.45.75-.58s.13.13.1.22S15.33,14,15.23,14.21Z"/><path class="cls-5" d="M16,12.79a1.2,1.2,0,0,0-.23.11c.19-.13,0-.33.33-.5.08,0,.05-.23-.1-.31l.12-.12a2.24,2.24,0,0,0,.11.81A.91.91,0,0,0,16,12.79Z"/><path class="cls-5" d="M16.83,12.28c0,.08-.07.15-.1.23s-.11-.09-.1-.11a1,1,0,0,0,.1-.47A1.54,1.54,0,0,1,16.83,12.28Z"/><path class="cls-5" d="M16.67,11.4c-.2,0-.22-.13-.22-.23s.13-.17.2-.1,0,.26.36.22Z"/><path class="cls-5" d="M17.28,11.47c-.1.12-.16.46-.3.31S17.15,11.57,17.28,11.47Z"/><path class="cls-5" d="M17.28,14.55c0,.14-.08.43-.31.33,0,0,0-.13,0-.21.19,0,.42-.05.43-.35,0,0-.17-.06-.18-.12s-.16-.22.21-.34C17.26,14.07,17.33,14.32,17.28,14.55Z"/><path class="cls-5" d="M10.07,8.42c0,.38,0,.26-.4.38.08,0,.31-.15.32-.2s0-.18,0-.29S9.81,8.2,9.92,8s0-.58.33-.7c.07,0,0,.07.11.07C10.36,7.73,10.09,8.08,10.07,8.42Z"/><path class="cls-5" d="M17.5,12.25c.05-.6-.08-.93.56-.7.14.2-.28,0-.33.13s.26.16.24.22-.33.06-.36.12,0,.23.1.34S17.5,12.28,17.5,12.25Z"/><path class="cls-5" d="M17.25,12.94c-.2,0-.21.13-.22.23s.09.09.08.11c-.11.24-.37.08-.56.12.08,0,.19,0,.21,0,.15-.21.44-.55.14-.8.15.19.49.07.58.35Z"/><path class="cls-5" d="M16.69,14a2.67,2.67,0,0,1-.75,0,.57.57,0,0,1,.21-.12c.07,0,.08.12.13.1s.08-.19.13-.19c.24,0,.46-.12.69-.14,0,.08-.06.18-.12.22A.91.91,0,0,1,16.69,14Z"/><path class="cls-5" d="M17.77,13.46c0,.07-.15,0-.21-.11.21-.14,0-.5.24-.55.09,0,.2.11.34.09C18,13.14,17.89,13.2,17.77,13.46Z"/><path class="cls-5" d="M13.33,10.48c-.2,0-.2.13-.21.24s.09.09.08.11c-.11.24-.37.08-.56.12.08,0,.19,0,.21,0,.15-.22.44-.55.14-.8.14.19.48.06.57.35Z"/><path class="cls-5" d="M12.56,11.72c.08-.23.28-.21.46-.23A.68.68,0,0,1,12.56,11.72Z"/><path class="cls-5" d="M10.39,11.1s-.07-.06-.11-.1c.12-.07.2-.33.32-.21S10.51,11.14,10.39,11.1Z"/><path class="cls-5" d="M10.36,13c.08-.16.22-.1.35-.11C10.63,13,10.5,13,10.36,13Z"/><path class="cls-5" d="M14.23,12.93c-.07.07-.06.1-.11.11s-.24,0-.34-.1c.39.08.55-.24.46-.58.08,0,.2.07.2.11A.91.91,0,0,1,14.23,12.93Z"/><path class="cls-5" d="M16.22,8c-.07.07-.06.09-.11.11S15.87,8,15.76,8c.4.08.56-.24.47-.58.07,0,.2.08.2.12A1.11,1.11,0,0,1,16.22,8Z"/><path class="cls-5" d="M12.45,13.11a.55.55,0,0,0-.12-.35.16.16,0,0,1,.22.12C12.55,13,12.48,13,12.45,13.11Z"/><path class="cls-5" d="M11.78,7.18a.5.5,0,0,0-.12-.35c.12,0,.21,0,.22.12S11.82,7.1,11.78,7.18Z"/><path class="cls-5" d="M9.78,12.73c.08-.22.29-.2.47-.23A.73.73,0,0,1,9.78,12.73Z"/><path class="cls-5" d="M10.36,7.15c-.27,0,0-.24-.11-.35C10.59,6.82,10.16,7.09,10.36,7.15Z"/><path class="cls-5" d="M18.44,10.42c0,.13-.28.17-.28.24,0,.28-.14.34-.28.57,0,0-.1-.08-.1-.12s.23-.24.27-.37c.14-.37.11-1,.2-1.1a1.82,1.82,0,0,0,.27-.25Z"/><path class="cls-5" d="M12.11,7.32c.26-.19.35-.76.64-.88-.23.18-.25.75-.44.95-.36.39-.86.59-1.12,1.07-.1.17.1.42-.13.57a1.09,1.09,0,0,1,.25-1C11.61,7.78,11.81,7.55,12.11,7.32Z"/><path class="cls-5" d="M15.26,7.17c-.11.12-.16.46-.31.31S15.12,7.27,15.26,7.17Z"/><path class="cls-5" d="M15.65,7.25c-.07.07-.19,0-.21-.11s-.18-.4,0-.46a.55.55,0,0,0,.46.12C15.49,6.79,15.76,7.12,15.65,7.25Z"/><path class="cls-5" d="M16.8,7.36s.11,0,.16-.07c-.17-.1,0-.34-.19-.37s-.16.07-.26.06C16.59,7.15,16.7,7.18,16.8,7.36Z"/><path class="cls-5" d="M13.22,9c.08-.22.28-.2.46-.23A.68.68,0,0,1,13.22,9Z"/><path class="cls-5" d="M17.88,9.41c.08-.17.22-.11.35-.12C18.15,9.44,18,9.43,17.88,9.41Z"/><path class="cls-5" d="M18.58,14.79c-.13,0-.34,0-.32-.12s.15-.3.07-.45-.14-.09-.22-.13c-.12.35-.51.52-.58.93,0,.11-.08.32-.2.2s.17-.14.17-.2A1.67,1.67,0,0,1,18.09,14c.05-.06,0-.26.14-.31s.27.1.33.07v0a.6.6,0,0,0-.28.34c0,.09.17.2.31.21Z"/><path class="cls-5" d="M14.14,8A.49.49,0,0,0,14,7.63a.16.16,0,0,1,.21.12C14.24,7.84,14.18,7.9,14.14,8Z"/><path class="cls-5" d="M13.75,10.51c.26,0,0,.18.08.25A1.83,1.83,0,0,0,13.75,10.51Z"/><path class="cls-5" d="M17.77,10.33a.52.52,0,0,0-.12-.34.16.16,0,0,1,.22.11A.48.48,0,0,1,17.77,10.33Z"/><path class="cls-5" d="M16.76,8.13a.53.53,0,0,1,.17-.32.16.16,0,0,0-.23.08A.65.65,0,0,0,16.76,8.13Z"/><path class="cls-5" d="M11.44,7.43c.12.25-.18.16-.23.28C11.05,7.42,11.5,7.63,11.44,7.43Z"/><path class="cls-5" d="M15.49,8.37c-.24,0-.1-.14-.11-.24Z"/><path class="cls-5" d="M14,14.74c.19-.05.14-.2.11-.3s-.12,0-.12-.06c0-.27.3-.23.46-.34-.07,0-.18.05-.19.1,0,.25-.18.67.2.78-.22-.12-.48.14-.67-.09Z"/><path class="cls-5" d="M11.75,10.76c-.24,0-.1-.14-.11-.23Z"/><path class="cls-5" d="M12.1,9.91c.07-.17.22-.11.35-.12C12.36,9.94,12.24,9.93,12.1,9.91Z"/><path class="cls-5" d="M15.41,11.68c-.24,0-.1-.14-.11-.23Z"/><path class="cls-5" d="M14.72,13.92c0-.09,0-.16-.09-.23a.13.13,0,0,1,.17.07C14.8,13.82,14.75,13.87,14.72,13.92Z"/><path class="cls-5" d="M13.88,14c-.07.66-.08,0-.12,0,.11-.05.27,0,.23-.23A.7.7,0,0,0,13.88,14Z"/><path class="cls-5" d="M11.49,13c.39-.12,0-.21.49-.3.19.1.18.35.15.56,0,.05-.1.2-.12.27L12,13.31c0-.08,0-.28,0-.29A.63.63,0,0,0,11.49,13Z"/><path class="cls-5" d="M11.61,14c.06.2.22.12.3.07s.1-.19,0-.22-.23.13-.37-.21C11.56,13.79,11.58,13.91,11.61,14Z"/><path class="cls-5" d="M9.21,7.76A.17.17,0,0,1,9.09,8C9,8,8.78,8,8.78,8.11a.53.53,0,0,1-.38.46,2.24,2.24,0,0,1,.79-.83s0-.14,0-.21.41,0,.44-.35c0,0-.07-.08-.11-.12.33.1.29-.32.58-.34V7c-.13,0-.23.06-.35.11C9.43,7.24,9.8,7.69,9.21,7.76Z"/><path class="cls-5" d="M10.11,10.42c0,.13-.28.17-.28.24,0,.28-.14.34-.28.57,0,0-.1-.08-.1-.12s.23-.24.27-.37c.14-.37.11-1,.2-1.1s.21-.19.27-.25Z"/><path class="cls-5" d="M10.25,14.79c-.13,0-.33,0-.32-.12s.15-.3.07-.45-.14-.09-.22-.13c-.12.35-.51.52-.58.93,0,.11-.08.32-.2.2s.17-.14.17-.2A1.67,1.67,0,0,1,9.76,14c.06-.06,0-.26.14-.31s.27.1.33.07v0a.6.6,0,0,0-.28.34c0,.09.17.2.31.21Z"/></g><g class="cls-11"><path class="cls-5" d="M5.17,15.54c-.12.07-.2.72-.32.81s-.11.1-.11.14,0,.07,0,.14-.11.36-.32.32-.11-.16.21-.34c0,0,0-.14,0-.2.31-.82.6-1.48.69-1.28Z"/><path class="cls-5" d="M6.06,15.69A.49.49,0,0,1,6,15.5l-.51.1c-.13-.15.18-.21.39-.31a3.23,3.23,0,0,1,.41-.22C6.26,15.24,6.11,15.49,6.06,15.69Z"/><path class="cls-5" d="M9.21,16.09a.16.16,0,0,1-.12.21c-.13,0-.31.07-.31.14a.53.53,0,0,1-.38.46,2.24,2.24,0,0,1,.79-.83s0-.15,0-.21.41,0,.44-.35c0,0-.07-.08-.11-.12.33.1.29-.32.58-.34v.23c-.13,0-.23.06-.35.11C9.43,15.57,9.8,16,9.21,16.09Z"/><path class="cls-5" d="M2.29,16.32c0-.3.41-.9.55-1.16a.28.28,0,0,1,0,.26c-.06.31-.4.51-.4.9-.09.15-.08.25-.33.23Z"/><path class="cls-5" d="M3.45,15.51a.54.54,0,0,0-.11-.35.16.16,0,0,1,.21.12A.58.58,0,0,1,3.45,15.51Z"/><path class="cls-5" d="M2,15.48c-.27,0,0-.24-.11-.35C2.26,15.15,1.83,15.42,2,15.48Z"/><path class="cls-5" d="M3.79,15.65c.25-.19.34-.76.64-.88-.24.17-.26.75-.45,1-.36.39-.86.59-1.12,1.07-.1.17.1.42-.13.57a1.08,1.08,0,0,1,.25-1C3.29,16.11,3.48,15.88,3.79,15.65Z"/><path class="cls-5" d="M7.32,15.58c-.07.07-.18,0-.21-.11s-.18-.4,0-.46a.55.55,0,0,0,.46.12C7.17,15.12,7.43,15.45,7.32,15.58Z"/><path class="cls-5" d="M8.47,15.68c0,.05.11,0,.16-.06-.17-.1,0-.34-.19-.37s-.16.07-.26.05C8.27,15.47,8.38,15.51,8.47,15.68Z"/><path class="cls-5" d="M.88,16.09a.16.16,0,0,1-.12.21c-.13,0-.31.07-.31.14a.51.51,0,0,1-.38.46,2.24,2.24,0,0,1,.79-.83s0-.15,0-.21.41,0,.44-.35c0,0-.07-.08-.11-.12.33.1.29-.32.58-.34v.23c-.13,0-.23.06-.35.11C1.1,15.57,1.47,16,.88,16.09Z"/><path class="cls-5" d="M9.9,13.64c.13-.05.27.1.33.07.33-.16.31-.55.72-.21,0,0,.1-.07.09-.1s-.14-.22-.09-.35.12-.1.22-.14c.28-.09-.08-.38.33-.58.05,0,.06-.22,0-.31s-.36-.12-.56-.13a.53.53,0,0,0,.46-.23,1.63,1.63,0,0,1-.11.23l.46.24c-.08,0-.19.06-.21.12s0,.32,0,.44-.16,0-.2,0c-.18.22-.09.61-.28.74s-.93.15-1.08.64c0,.09.17.2.31.21s.28-.11.34-.33a.32.32,0,0,0,.13.32c.23.09.21-.38.45-.3a.2.2,0,0,1,.1.2c0,.06-.14.11-.21.11s-.09-.09-.11-.09c-.24.11-.55.08-.69.34a.58.58,0,0,0,0,.23c-.13,0-.33,0-.32-.12s.15-.3.07-.45-.14-.09-.22-.13Z"/><path class="cls-5" d="M10.13,12.24c-.24,0-.1-.14-.11-.23Z"/><path class="cls-5" d="M10.07,8.42c0,.38,0,.26-.4.38.08,0,.31-.15.32-.2s0-.18,0-.29S9.81,8.2,9.92,8s0-.58.33-.7c.07,0,0,.07.11.07C10.36,7.73,10.09,8.08,10.07,8.42Z"/><path class="cls-5" d="M9.78,12.73c.08-.22.29-.2.47-.23A.73.73,0,0,1,9.78,12.73Z"/><path class="cls-5" d="M2.55,11.46H2.44a.74.74,0,0,1,.23-.34c0,.07.12.16.1.22S2.64,11.43,2.55,11.46Z"/><path class="cls-5" d="M5.17,7.21c-.12.07-.2.72-.32.81s-.11.1-.11.14,0,.07,0,.15-.11.35-.32.31-.11-.16.21-.33c0,0,0-.15,0-.21.31-.82.6-1.48.69-1.28Z"/><path class="cls-5" d="M3.89,8.52c-.11,0-.26-.17-.25-.21.14-.35.28-.51.43-.51s-.19.22-.27.38.3.38.24.48S4,8.61,3.89,8.52Z"/><path class="cls-5" d="M3.54,8.68c-.09.3-.06.33-.46.47.11,0,.08,0,.11-.35C3.19,8.75,3.46,8.72,3.54,8.68Z"/><path class="cls-5" d="M3.19,10.07c0,.08-.07.21-.12.21-.31,0-.37.26-.46.49.2.05.35.25.58.23-.11.06-.23.17-.33.1s0-.19,0-.19c-.45-.16-.34-.49-.09-.7,0,0,.15.1.2.07s-.08-.7.13-.55.25.22.43,0,0-.29,0-.45.32,0,.32.12C3.88,9.78,3.33,9.72,3.19,10.07Z"/><path class="cls-5" d="M4.58,9.72s-.08.11-.12.11-.07-.07-.11-.1.2-.08.2-.12A.49.49,0,0,0,4.23,9C4.7,8.89,4.83,9.41,4.58,9.72Z"/><path class="cls-5" d="M5.07,10c0-.6-.09-.93.55-.7.14.2-.28,0-.33.13s.26.16.24.22-.32.06-.36.12,0,.23.1.34C5.2,10,5.07,10,5.07,10Z"/><path class="cls-5" d="M5.73,10.06S5.66,10,5.62,10c.12-.07.2-.33.32-.21S5.85,10.1,5.73,10.06Z"/><path class="cls-5" d="M4.08,11.1c-.07.08-.18,0-.21-.1s-.18-.4,0-.46a.66.66,0,0,0,.47.12C3.93,10.65,4.19,11,4.08,11.1Z"/><path class="cls-5" d="M6.47,9.46c.43-.05.47-.42.71-.65,0,0,.15,0,.2,0a.44.44,0,0,0,.13-.45c.2.25.41-.1.55,0s.23.62.61.78c-.06.29-.33.45-.47.69.13-.4.44-.84-.11-1,0,0,.1-.08.1-.12a.27.27,0,0,0-.11-.21.35.35,0,0,0-.44.11c-.14.27-.23.29-.44.49s0,.37-.15.54c0,0-.1-.13-.12-.1-.14.27-.35.24-.4.07Z"/><path class="cls-5" d="M6.38,8.88h0s-.19.06-.19.1c0,.25-.06.51-.38.47a3.13,3.13,0,0,0,.68-1.17c.07-.14-.41-.48-.21-.6l.34.15c.1-.11.22-.18.47,0-.17,0-.36,0-.45.12s0,.4,0,.68c0,0-.17.07-.19.13A.53.53,0,0,0,6.38,8.88Z"/><path class="cls-5" d="M6.06,7.36A.49.49,0,0,1,6,7.17l-.51.1c-.13-.15.18-.21.39-.31a3.23,3.23,0,0,1,.41-.22C6.26,6.91,6.11,7.16,6.06,7.36Z"/><path class="cls-5" d="M7.59,13.31c.07-.16.22-.11.34-.11A.27.27,0,0,1,7.59,13.31Z"/><path class="cls-5" d="M9,7.3c-.07.66-.08,0-.12,0s.27,0,.23-.24A.86.86,0,0,0,9,7.3Z"/><path class="cls-5" d="M9.21,7.76A.17.17,0,0,1,9.09,8C9,8,8.78,8,8.78,8.11a.53.53,0,0,1-.38.46,2.24,2.24,0,0,1,.79-.83s0-.14,0-.21.41,0,.44-.35c0,0-.07-.08-.11-.12.33.1.29-.32.58-.34V7c-.13,0-.23.06-.35.11C9.43,7.24,9.8,7.69,9.21,7.76Z"/><path class="cls-5" d="M9.54,8.68c0,.14-.09.3-.22.33S9.09,9.17,9,8.8c.35.11.46-.19.57-.46A1.29,1.29,0,0,1,9.54,8.68Z"/><path class="cls-5" d="M9,9.85c0,.06,0,.15,0,.22a.35.35,0,0,1-.09-.44c0-.06.2,0,.32,0C9.13,9.69,9,9.75,9,9.85Z"/><path class="cls-5" d="M7.05,10.42c0-.08,0-.19,0-.21s-.3-.05-.45-.07c0,0,.08-.08.13-.09s.26.13.31.1c.3-.17.64-.72.89-1,0,0-.15.4-.15.41C7.51,9.94,7.31,10.09,7.05,10.42Z"/><path class="cls-5" d="M7.67,10.72c-.1-.07-.31-.07-.21-.23.2-.33.64-.34.91-.59.07.32.48.25.68.47,0,.05,0,.15,0,.22s0,.27.22.23l-.11.12c-.21-.3-.25,0-.47,0,.08,0,.2-.06.22-.12a.54.54,0,0,0-.1-.57c-.07-.06-.18-.12-.22-.1a.41.41,0,0,0-.13.44c-.18-.17-.27-.58-.56-.42a1.79,1.79,0,0,0-.33.34c-.16.2.38.14.31.43A1.2,1.2,0,0,0,7.67,10.72Z"/><path class="cls-5" d="M6.6,10.76s.16,0,.19,0,.28.18.31.29c.07,0,.18-.1.18-.16s-.38-.18-.6-.25a.33.33,0,0,1-.19-.3A1,1,0,0,0,6.6,10.76Z"/><path class="cls-5" d="M6.07,10.69c.07.25-.13.17-.22,0s-.14-.58.23-.6c0,0,.08.07.12.11S5.81,9.83,6.07,10.69Z"/><path class="cls-5" d="M2.29,8c0-.3.41-.9.55-1.16a.28.28,0,0,1,0,.26c-.06.31-.4.51-.4.91-.09.14-.08.24-.33.22Z"/><path class="cls-5" d="M1.88,9.19c.35-.19,0-.21.41-.39.21.06.25.31.26.52,0,0,0,.21,0,.29l-.12-.23c0-.08-.07-.28-.1-.28A.59.59,0,0,0,1.88,9.19Z"/><path class="cls-5" d="M4.33,7.34V7.11a.5.5,0,0,0,.35.12Z"/><path class="cls-5" d="M2.28,10.28c.08.25-.13.17-.22,0s-.14-.57.24-.59c0,0,.07.06.11.1S2,9.42,2.28,10.28Z"/><path class="cls-5" d="M1.57,13.64c.13-.05.27.1.33.07.33-.16.31-.55.72-.21,0,0,.1-.07.09-.1s-.14-.22-.09-.35.12-.1.22-.14c.28-.09-.07-.38.34-.58a.34.34,0,0,0,0-.31c-.12-.19-.36-.12-.56-.13a.56.56,0,0,0,.47-.23L3,11.89l.46.24c-.07,0-.19.06-.21.12s0,.32,0,.44-.16,0-.2,0c-.18.22-.09.61-.28.74s-.93.15-1.08.64c0,.09.18.2.31.21s.29-.11.35-.33a.3.3,0,0,0,.12.32c.23.09.21-.38.45-.3a.2.2,0,0,1,.1.2.25.25,0,0,1-.21.11s-.09-.09-.11-.09c-.24.11-.55.08-.69.34a.58.58,0,0,0,0,.23c-.13,0-.33,0-.32-.12s.15-.3.07-.45-.14-.09-.21-.13Z"/><path class="cls-5" d="M3.26,14.79c.06,0,.09-.14.12-.22l.24.12c.2-.5.55-1.15,1.15-1.16v.23a.33.33,0,0,0-.33.13c-.1.18.24.29,0,.57,0-.2.06-.48-.13-.54s-.39.29-.34.54c-.07,0-.19,0-.21,0-.14.3-.51.37-.6.68-.19-.21-.52-.25-.58-.58C2.86,14.5,3,14.88,3.26,14.79Z"/><path class="cls-5" d="M1.8,12.24c-.24,0-.1-.14-.11-.23Z"/><path class="cls-5" d="M2.4,12.23a.44.44,0,0,1,.1.36c-.08,0-.21-.08-.21-.12,0-.25-.23-.44-.14-.69C2.31,11.89,2.3,12.09,2.4,12.23Z"/><path class="cls-5" d="M1.8,11.55c0-.26.17-.05.23-.12Z"/><path class="cls-5" d="M3.9,11.78c0,.39.28.61.56.81a.48.48,0,0,0-.34-.22s-.08.09-.12.09-.2-.06-.21-.11c0-.22-.12-.45.07-.7,0,0,0-.14-.09-.22l-.23.12c-.08-.16-.16-.31-.23-.47.35.05.4.47.69.58C4,11.7,3.9,11.74,3.9,11.78Z"/><path class="cls-5" d="M4.64,12.31c.2,0,.19-.14.19-.25s-.07-.15.19-.4c.05,0,.05-.21.11-.32l.12.1c-.07.05-.18.08-.2.14s0,.26,0,.33-.28.16-.28.39c0,0,.1.08.09.1a1,1,0,0,0-.05.48C4.57,12.74,4.66,12.51,4.64,12.31Z"/><path class="cls-5" d="M5.77,11.88c-.19.24-.44,0-.58.29.2-.07.08.06.45.12,0-.08,0-.21,0-.23.37-.22.18-.69.47-1l-.16,0a1.18,1.18,0,0,1-.15.47C5.53,11.69,5.94,11.67,5.77,11.88Z"/><path class="cls-5" d="M5,13.25c-.28-.22-.27.07-.49,0l.12-.23c.2.26.4-.09.55,0S5,13.28,5,13.25Z"/><path class="cls-5" d="M5.18,13.87c0,.05-.16.07-.19.13-.16.33,0,.42.11.68a.17.17,0,0,1-.22-.12c0-.19.09-.17-.11-.37S5,14,5,13.85s.3-.32.43-.54.19,0,.18.1C5.6,13.67,5.21,13.32,5.18,13.87Z"/><path class="cls-5" d="M5.24,8.21c-.06,0,0-.14.14-.18.1.23.49.07.5.33,0,.1-.15.18-.15.32C5.5,8.53,5.48,8.38,5.24,8.21Z"/><path class="cls-5" d="M6.2,13.22c.11.26-.19.16-.23.29C5.8,13.21,6.25,13.43,6.2,13.22Z"/><path class="cls-5" d="M6.48,13.35l.24.11c0-.08.11-.17.09-.22-.16-.34,0-.68.15-1a.24.24,0,0,0,.33-.12,3.68,3.68,0,0,0,.47-1c-.09,0-.22,0-.23.05-.14.5-.55,1.26-1.1,1.38,0,0,0,.1,0,.14s.23.14.27.22S6.59,13.21,6.48,13.35Z"/><path class="cls-5" d="M6.22,11.89c0,.08,0,.18,0,.26.14-.34.15-.72.51-1-.15-.1-.24,0-.36.08C6.58,11.53,6.15,11.61,6.22,11.89Z"/><path class="cls-5" d="M6.9,14.21c-.09.18.23.45.33.42a.31.31,0,0,0,.24-.42c.48,0,1,.5.67.9-.08.08-.29,0-.44-.09A.43.43,0,0,0,8,14.45a.35.35,0,0,0-.33-.13c-.31,0-.17.31-.35.46a.36.36,0,0,1-.22.11c-.14,0-.24-.14-.36-.2s-.17,0-.21.1a.24.24,0,0,0,.1.34c-.19,0-.22-.14-.2-.22s.43-.19.42-.47-.11-.29-.33-.35c.5.11.38-.45.75-.58s.12.13.09.22S7,14,6.9,14.21Z"/><path class="cls-5" d="M7.67,12.79a1,1,0,0,0-.24.11c.19-.13,0-.33.33-.5.08,0,0-.23-.1-.31L7.78,12a2,2,0,0,0,.12.81A.87.87,0,0,0,7.67,12.79Z"/><path class="cls-5" d="M8.5,12.28a.58.58,0,0,1-.1.23s-.11-.09-.1-.11a1,1,0,0,0,.1-.47A1.15,1.15,0,0,1,8.5,12.28Z"/><path class="cls-5" d="M8.34,11.4c-.2,0-.22-.13-.21-.23s.12-.17.2-.1,0,.26.36.22Z"/><path class="cls-5" d="M9,11.47c-.1.12-.16.46-.3.31S8.82,11.57,9,11.47Z"/><path class="cls-5" d="M9,14.55c0,.14-.08.43-.31.33,0,0,0-.13,0-.21.19,0,.42-.05.43-.35,0,0-.17-.06-.18-.12s-.16-.22.21-.34C8.93,14.07,9,14.32,9,14.55Z"/><path class="cls-5" d="M1.75,8.42c0,.38,0,.26-.41.38.08,0,.31-.15.32-.2s0-.18.05-.29S1.49,8.2,1.59,8s0-.58.33-.7c.07,0,0,.07.11.07C2,7.73,1.76,8.08,1.75,8.42Z"/><path class="cls-5" d="M9.17,12.25c.05-.6-.08-.93.56-.7.14.2-.28,0-.33.13s.26.16.24.22-.33.06-.36.12,0,.23.1.34S9.17,12.28,9.17,12.25Z"/><path class="cls-5" d="M8.92,12.94c-.2,0-.21.13-.22.23s.09.09.09.11c-.12.24-.37.08-.57.12.08,0,.19,0,.22,0,.14-.21.43-.55.13-.8.15.19.49.07.58.35Z"/><path class="cls-5" d="M8.37,14a2.75,2.75,0,0,1-.76,0,.57.57,0,0,1,.21-.12c.07,0,.08.12.13.1s.09-.19.13-.19c.24,0,.46-.12.69-.14,0,.08-.06.18-.12.22A.94.94,0,0,1,8.37,14Z"/><path class="cls-5" d="M9.44,13.46c0,.07-.15,0-.21-.11.21-.14,0-.5.24-.55.1,0,.21.11.34.09C9.7,13.14,9.56,13.2,9.44,13.46Z"/><path class="cls-5" d="M5,10.48c-.2,0-.2.13-.21.24s.09.09.08.11c-.11.24-.37.08-.56.12.08,0,.19,0,.21,0,.15-.22.44-.55.14-.8.14.19.48.06.57.35Z"/><path class="cls-5" d="M4.23,11.72c.08-.23.28-.21.46-.23A.68.68,0,0,1,4.23,11.72Z"/><path class="cls-5" d="M2.06,11.1S2,11,2,11c.12-.07.2-.33.32-.21S2.18,11.14,2.06,11.1Z"/><path class="cls-5" d="M2,13c.08-.16.23-.1.35-.11C2.3,13,2.17,13,2,13Z"/><path class="cls-5" d="M5.91,12.93c-.08.07-.07.1-.12.11s-.24,0-.34-.1c.39.08.55-.24.46-.58.08,0,.21.07.21.11A1,1,0,0,1,5.91,12.93Z"/><path class="cls-5" d="M7.89,8c-.07.07-.06.09-.11.11S7.54,8,7.44,8c.39.08.55-.24.46-.58.08,0,.2.08.2.12A1,1,0,0,1,7.89,8Z"/><path class="cls-5" d="M4.12,13.11A.55.55,0,0,0,4,12.76a.16.16,0,0,1,.22.12A.58.58,0,0,1,4.12,13.11Z"/><path class="cls-5" d="M3.45,7.18a.54.54,0,0,0-.11-.35A.16.16,0,0,1,3.55,7C3.55,7,3.49,7.1,3.45,7.18Z"/><path class="cls-5" d="M1.46,12.73c.08-.22.28-.2.46-.23A.68.68,0,0,1,1.46,12.73Z"/><path class="cls-5" d="M2,7.15c-.27,0,0-.24-.11-.35C2.26,6.82,1.83,7.09,2,7.15Z"/><path class="cls-5" d="M10.11,10.42c0,.13-.28.17-.28.24,0,.28-.14.34-.28.57,0,0-.1-.08-.1-.12s.23-.24.27-.37c.14-.37.11-1,.2-1.1s.21-.19.27-.25Z"/><path class="cls-5" d="M3.79,7.32c.25-.19.34-.76.64-.88-.24.18-.26.75-.45.95-.36.39-.86.59-1.12,1.07-.1.17.1.42-.13.57A1.09,1.09,0,0,1,3,8C3.29,7.78,3.48,7.55,3.79,7.32Z"/><path class="cls-5" d="M6.93,7.17c-.11.12-.16.46-.31.31S6.8,7.27,6.93,7.17Z"/><path class="cls-5" d="M7.32,7.25c-.07.07-.18,0-.21-.11s-.18-.4,0-.46a.55.55,0,0,0,.46.12C7.17,6.79,7.43,7.12,7.32,7.25Z"/><path class="cls-5" d="M8.47,7.36s.11,0,.16-.07c-.17-.1,0-.34-.19-.37S8.28,7,8.18,7C8.27,7.15,8.38,7.18,8.47,7.36Z"/><path class="cls-5" d="M4.89,9c.08-.22.28-.2.46-.23A.68.68,0,0,1,4.89,9Z"/><path class="cls-5" d="M9.55,9.41c.08-.17.22-.11.35-.12C9.82,9.44,9.69,9.43,9.55,9.41Z"/><path class="cls-5" d="M10.25,14.79c-.13,0-.33,0-.32-.12s.15-.3.07-.45-.14-.09-.22-.13c-.12.35-.51.52-.58.93,0,.11-.08.32-.2.2s.17-.14.17-.2A1.67,1.67,0,0,1,9.76,14c.06-.06,0-.26.14-.31s.27.1.33.07v0a.6.6,0,0,0-.28.34c0,.09.17.2.31.21Z"/><path class="cls-5" d="M5.81,8a.49.49,0,0,0-.11-.35.16.16,0,0,1,.21.12C5.91,7.84,5.85,7.9,5.81,8Z"/><path class="cls-5" d="M5.42,10.51c.26,0,0,.18.08.25A1.83,1.83,0,0,0,5.42,10.51Z"/><path class="cls-5" d="M9.44,10.33A.52.52,0,0,0,9.32,10a.16.16,0,0,1,.22.11A.48.48,0,0,1,9.44,10.33Z"/><path class="cls-5" d="M8.44,8.13c0-.13.08-.22.16-.32a.16.16,0,0,0-.23.08A.51.51,0,0,0,8.44,8.13Z"/><path class="cls-5" d="M3.12,7.43c.11.25-.19.16-.24.28C2.72,7.42,3.17,7.63,3.12,7.43Z"/><path class="cls-5" d="M7.16,8.37c-.24,0-.1-.14-.11-.24Z"/><path class="cls-5" d="M5.7,14.74c.2-.05.14-.2.11-.3s-.12,0-.12-.06c0-.27.3-.23.46-.34-.07,0-.18.05-.19.1,0,.25-.18.67.2.78-.21-.12-.48.14-.67-.09Z"/><path class="cls-5" d="M3.42,10.76c-.24,0-.1-.14-.11-.23C3.35,10.6,3.38,10.68,3.42,10.76Z"/><path class="cls-5" d="M3.77,9.91c.07-.17.22-.11.35-.12C4,9.94,3.91,9.93,3.77,9.91Z"/><path class="cls-5" d="M7.09,11.68c-.25,0-.11-.14-.12-.23Z"/><path class="cls-5" d="M6.39,13.92c0-.09,0-.16-.09-.23a.13.13,0,0,1,.17.07C6.47,13.82,6.42,13.87,6.39,13.92Z"/><path class="cls-5" d="M5.55,14c-.07.66-.08,0-.12,0,.11-.05.27,0,.23-.23A.7.7,0,0,0,5.55,14Z"/><path class="cls-5" d="M3.17,13c.38-.12,0-.21.48-.3.19.1.18.35.15.56,0,.05-.1.2-.12.27l-.06-.25c0-.08,0-.28,0-.29A.59.59,0,0,0,3.17,13Z"/><path class="cls-5" d="M3.28,14c.06.2.22.12.31.07s.09-.19,0-.22-.23.13-.37-.21C3.23,13.79,3.25,13.91,3.28,14Z"/><path class="cls-5" d="M.88,7.76A.17.17,0,0,1,.76,8C.63,8,.45,8,.45,8.11a.51.51,0,0,1-.38.46,2.24,2.24,0,0,1,.79-.83s0-.14,0-.21.41,0,.44-.35c0,0-.07-.08-.11-.12.33.1.29-.32.58-.34V7c-.13,0-.23.06-.35.11C1.1,7.24,1.47,7.69.88,7.76Z"/><path class="cls-5" d="M1.78,10.42c0,.13-.27.17-.28.24,0,.28-.14.34-.28.57,0,0-.1-.08-.1-.12s.23-.24.27-.37c.14-.37.11-1,.2-1.1s.21-.19.27-.25Z"/><path class="cls-5" d="M1.92,14.79c-.13,0-.33,0-.32-.12s.15-.3.07-.45-.14-.09-.21-.13c-.13.35-.52.52-.59.93,0,.11-.08.32-.2.2s.17-.14.18-.2A1.66,1.66,0,0,1,1.43,14c.06-.06,0-.26.14-.31s.27.1.33.07v0a.64.64,0,0,0-.28.34c0,.09.18.2.31.21Z"/></g></g><path class="cls-12" d="M16,7.51c-2.51-1.88-3.9-4.25-3.12-5.29-2.21,2.94-2,6.84.53,8.73S19.68,12,21.9,9C21.11,10.08,18.45,9.4,16,7.51Z"/><path class="cls-12" d="M18.78,3.75a.71.71,0,0,0-.14-.1l-.36.67,0,0C20,5.63,21,7.24,20.45,8s-2.35.24-4.05-1S13.75,4,14.28,3.31s1.66-.38,3,.37L17.66,3c-2.13-1.29-4.16-1.66-4.83-.77S13.44,5.63,16,7.51,21.11,10.08,21.89,9,21.28,5.63,18.78,3.75Z"/><path class="cls-12" d="M17.29,3.68l-.11,1.39.11-1.39c-1.35-.75-2.59-.94-3-.37s.42,2.32,2.12,3.6,3.52,1.75,4.05,1S20,5.63,18.33,4.35l0,0-1.1.75,1.1-.75"/><path class="cls-12" d="M17.66,3l-.15,1.33c.33.18-.33,0,0,.25l1.13-.92"/></svg>