<svg width="28" height="18" viewBox="0 0 28 18" fill="none" xmlns="http://www.w3.org/2000/svg">
<g clip-path="url(#clip0_21_28)">
<path d="M19.552 0.885871C20.2666 0.885871 20.9268 1.26707 21.2841 1.88587L24.9175 8.17909C25.2747 8.79789 25.2747 9.56029 24.9175 10.1791L21.2841 16.4723C20.9268 17.0911 20.2666 17.4723 19.552 17.4723L12.2852 17.4723C11.5707 17.4723 10.9105 17.0911 10.5532 16.4723L6.91981 10.1791C6.56254 9.56029 6.56254 8.79789 6.91981 8.17909L10.5532 1.88587C10.9105 1.26707 11.5707 0.885871 12.2852 0.885871L19.552 0.885871Z" fill="#03554D"/>
<path d="M16.7147 0.885871C17.4292 0.885871 18.0895 1.26707 18.4467 1.88587L22.0801 8.17909C22.4374 8.79789 22.4374 9.56029 22.0801 10.1791L18.4467 16.4723C18.0895 17.0911 17.4292 17.4723 16.7147 17.4723L9.44791 17.4723C8.73338 17.4723 8.07312 17.0911 7.71586 16.4723L4.08246 10.1791C3.7252 9.56029 3.7252 8.79789 4.08246 8.17909L7.71586 1.88587C8.07312 1.26707 8.73338 0.885871 9.44791 0.885871L16.7147 0.885871Z" fill="#F09100"/>
</g>
<defs>
<clipPath id="clip0_21_28">
<rect width="28" height="18" fill="white"/>
</clipPath>
</defs>
</svg>
