<svg id="Layer_1" data-name="Layer 1" xmlns="http://www.w3.org/2000/svg" viewBox="0 0 28 18"><defs><style>.cls-1{fill:#3c3c3b;}.cls-2{fill:#fff;stroke:#3c3c3b;stroke-linecap:round;stroke-linejoin:round;stroke-width:0.7px;}</style></defs><path class="cls-1" d="M12.2,17.53l-.3-9.69a.35.35,0,1,1,.7,0v0l-.29,9.69s0,.06-.06.06A.06.06,0,0,1,12.2,17.53Z"/><path class="cls-1" d="M6.36,17.48a14.23,14.23,0,0,0,2.11-4.6,14.17,14.17,0,0,0,.41-2.5,16.16,16.16,0,0,0,0-2.51v0a.36.36,0,0,1,.33-.38.35.35,0,0,1,.37.33h0a15.39,15.39,0,0,1-.09,2.63A14.66,14.66,0,0,1,8.89,13,14.78,14.78,0,0,1,6.5,17.58a.09.09,0,0,1-.12,0A.11.11,0,0,1,6.36,17.48Z"/><path class="cls-1" d="M17.64,17.58A14.81,14.81,0,0,1,15.24,13a15.64,15.64,0,0,1-.55-2.55,16.48,16.48,0,0,1-.09-2.63A.36.36,0,0,1,15,7.47a.35.35,0,0,1,.34.36v0a14.46,14.46,0,0,0,.36,5,14.44,14.44,0,0,0,2.11,4.6.08.08,0,0,1,0,.12S17.66,17.62,17.64,17.58Z"/><rect class="cls-2" x="3" y="5.91" width="11.83" height="5.25"/><polygon class="cls-2" points="22.22 14.6 14.84 11.16 14.84 5.91 22.22 9.35 22.22 14.6"/><polygon class="cls-2" points="13.16 15.97 3 11.16 3 5.91 13.16 10.72 13.16 15.97"/><rect class="cls-2" x="13.17" y="13.45" width="11.83" height="2.52"/><polygon class="cls-2" points="10.39 9.35 22.22 9.35 14.84 5.91 3 5.91 10.39 9.35"/><rect class="cls-2" x="10.39" y="9.35" width="11.83" height="2.74"/><polygon class="cls-2" points="25 13.46 13.16 13.46 10.39 12.09 22.22 12.09 25 13.46"/><line class="cls-2" x1="13.17" y1="13.45" x2="3" y2="8.45"/><path class="cls-1" d="M9.12,7.85a14,14,0,0,0-1.2-4.28A.23.23,0,0,1,8,3.27a.23.23,0,0,1,.3.11v0a14.7,14.7,0,0,1,.91,4.44.06.06,0,0,1-.06.06A.07.07,0,0,1,9.12,7.85Z"/><polygon class="cls-1" points="6.43 0.47 10.51 3.8 8.21 3.73 7.01 5.7 6.43 0.47"/><path class="cls-1" d="M14.89,7.84A14.11,14.11,0,0,1,15.8,3.4a.23.23,0,0,1,.29-.14.24.24,0,0,1,.13.29v0A14,14,0,0,0,15,7.85s0,.05-.07.05A.06.06,0,0,1,14.89,7.84Z"/><polygon class="cls-1" points="17.7 0.47 17.12 5.7 15.93 3.73 13.62 3.8 17.7 0.47"/><path class="cls-1" d="M12.18,7.84,12,3.93a.22.22,0,1,1,.44,0v0l-.15,3.91a.07.07,0,0,1-.14,0Z"/><polygon class="cls-1" points="12.25 0.47 14.24 5.34 12.25 4.19 10.26 5.34 12.25 0.47"/></svg>