<svg id="Layer_1" data-name="Layer 1" xmlns="http://www.w3.org/2000/svg" viewBox="0 0 28 18"><defs><style>.cls-1{fill:#3c3c3b;}</style></defs><path class="cls-1" d="M14,12.29h0l-.49,0a.14.14,0,0,0-.09.09,1.07,1.07,0,0,0,0,.25.6.6,0,1,0,1.19-.18c0-.15-.07-.17-.18-.17H14m.14-2.21h0c0-.47,0-.94,0-1.41a1.49,1.49,0,0,0,0-.21s0,0-.05,0-.26,0-.27.15v2.95a.55.55,0,0,0,0,.18.14.14,0,0,0,.07.06.18.18,0,0,0,.1,0c.09,0,.15,0,.15-.12v-.28c0-.44,0-.87,0-1.3m-2,5.58c0,.09,0,.19,0,.28l0,.18a1.79,1.79,0,0,0,2,1.35,1.77,1.77,0,0,0,1.45-1.31,2,2,0,0,0,0-.84c-.08-.51-.17-1-.25-1.53-.1-.67-.2-1.34-.31-2a1.86,1.86,0,0,0-.06-.34.25.25,0,0,0-.08-.12.29.29,0,0,0-.3,0,.1.1,0,0,0,0,.05.15.15,0,0,0,0,.17l.13.11a.6.6,0,0,1,.21.36,3.7,3.7,0,0,1,.07.66,1.11,1.11,0,0,1-1.34,1,1.12,1.12,0,0,1-.88-1.22A3.4,3.4,0,0,1,13,12a.52.52,0,0,1,.14-.31l.15-.15a.18.18,0,0,0,0-.2l0,0a.27.27,0,0,0-.39.17,2,2,0,0,0,0,.24c-.05.29-.1.58-.14.87l-.42,2.67c0,.14,0,.28,0,.42m2.47-6.09v.81c0,.08,0,.16,0,.24s.05.12.11.12h.14a.72.72,0,0,1,.7.63c0,.21.07.44.11.66.09.55.18,1.11.26,1.66s.18,1.11.26,1.67a2.23,2.23,0,0,1-.66,2A2.21,2.21,0,0,1,14,18a2.29,2.29,0,0,1-2.19-1.57,2.34,2.34,0,0,1-.09-1.11L12,13.2c.1-.59.19-1.18.28-1.78a1.14,1.14,0,0,1,.09-.26.68.68,0,0,1,.54-.4l.24,0a.13.13,0,0,0,.1-.1s0-.07,0-.1V8.78c0-.09,0-.19,0-.28a.13.13,0,0,0-.11-.08h-.07a.9.9,0,0,0-.61,1.29,3.07,3.07,0,0,0,.17.31s0,.09.05.13a.26.26,0,0,1-.14.27.24.24,0,0,1-.29-.05,1.71,1.71,0,0,1-.39-1.25,1.41,1.41,0,0,1,1-1.18,2.13,2.13,0,0,1,.45-.06H14.6a1.58,1.58,0,0,1,.38,0A1.39,1.39,0,0,1,16,9a1.41,1.41,0,0,1,0,.79,2.25,2.25,0,0,1-.32.59.23.23,0,0,1-.36,0,.21.21,0,0,1-.07-.22.76.76,0,0,1,.06-.16c0-.11.12-.21.17-.31a.89.89,0,0,0-.27-1.08.76.76,0,0,0-.41-.18.12.12,0,0,0-.13.09,1.48,1.48,0,0,1,0,.21v.85"/><path class="cls-1" d="M14.76,6.69l.12.09.92.42a.14.14,0,0,0,.16,0c.07-.16.15-.31.23-.47a.12.12,0,0,0-.05-.15l-.67-.31c-.48-.22-.4-.23-.62.24,0,.07,0,.15-.09.23m1.66-2.84a2.59,2.59,0,0,0-.43.51.09.09,0,0,0,0,.07.47.47,0,0,0,.1.1l.65.53.22.18s.1,0,.12,0,.24-.29.35-.44a.11.11,0,0,0,0-.13l-.05,0-.84-.69a.63.63,0,0,0-.12-.07m1.7-1.76-.07,0-.43.36a.09.09,0,0,0,0,.13l.06.08.73.86.05,0a.11.11,0,0,0,.13,0L19,3.22a.1.1,0,0,0,0-.13c-.11-.12-.21-.25-.32-.38l-.48-.55a.5.5,0,0,0-.08-.07m2.77-.26s0,0,0-.06l-.6-1L20.2.69a.12.12,0,0,0-.13,0l-.42.25c-.09.06-.11.11-.06.2l.39.63c.4.64.21.55.86.17l0,0s0,0,0-.07m-1.06.72a.73.73,0,0,0-.15-.29c-.21-.35-.42-.7-.64-1,0-.06-.07-.12-.1-.19A.27.27,0,0,1,19,.7l.11-.07L20,.11,20.14,0a.24.24,0,0,1,.31.08c.05.06.09.13.14.2.2.33.4.67.6,1,0,.09.1.16.15.24a.11.11,0,0,0,.13,0l.22-.1.71-.32.16,0a.24.24,0,0,1,.28.17.26.26,0,0,1-.11.28l-.31.15A12.58,12.58,0,0,0,20.18,3a11.83,11.83,0,0,0-3.07,3.16,9.79,9.79,0,0,0-.76,1.43l-.09.19a.27.27,0,0,1-.25.1l-.13,0L14.4,7.13A.6.6,0,0,1,14.25,7a.24.24,0,0,1-.1-.25l0-.1c.15-.34.3-.68.46-1a.35.35,0,0,1,.07-.12.21.21,0,0,1,.21-.1,1.09,1.09,0,0,1,.24.07l.93.42.32.14a.11.11,0,0,0,.13,0l.15-.24a.13.13,0,0,0,0-.13l-.19-.16-.84-.69-.21-.18a.26.26,0,0,1,0-.38l.06-.09.65-.78.09-.11a.29.29,0,0,1,.33,0l.19.15.9.74a.88.88,0,0,0,.17.12.09.09,0,0,0,.1,0,.46.46,0,0,0,.19-.2.09.09,0,0,0,0-.07L18,3.82l-.83-1A1.84,1.84,0,0,1,17,2.64a.24.24,0,0,1,0-.29l.07-.08.86-.73A.21.21,0,0,1,18,1.48a.27.27,0,0,1,.33,0,1.9,1.9,0,0,1,.19.21l.78.9a.71.71,0,0,0,.15.15.06.06,0,0,0,.06,0,.73.73,0,0,0,.33-.24"/><path class="cls-1" d="M12.12,7.21l.1,0,.89-.4.06,0a.12.12,0,0,0,.05-.12L13,6.15a.13.13,0,0,0-.18-.06l-1,.43a.12.12,0,0,0-.06.15l.25.5.06,0m-.57-3.35L11.39,4l-.47.38c-.52.44-.47.27-.07.81a.46.46,0,0,0,.07.07.09.09,0,0,0,.07,0l.06,0L12,4.47a.73.73,0,0,0,0-.09c-.21-.32-.3-.43-.47-.52m-4.44-2s0,.06,0,.07l.5.31a.08.08,0,0,0,.1,0,.71.71,0,0,0,.1-.14c.17-.28.34-.56.52-.84l.06-.12A.12.12,0,0,0,8.4,1L7.92.67a.11.11,0,0,0-.12,0L7.73.78l-.58,1a.36.36,0,0,0,0,.09m2.79.26s-.06,0-.08.05L9,3.07l0,0a.11.11,0,0,0,0,.13l.42.37a.08.08,0,0,0,.1,0l.1-.09.68-.81c.13-.15.13-.18,0-.31L10,2.12l-.08,0M9.09.9c0,.06,0,.12-.05.17s-.09.14-.13.21l-.57.93-.14.25a.11.11,0,0,0,0,.15l.22.17a.1.1,0,0,0,.13,0l.17-.18c.25-.29.5-.59.76-.88l.16-.18A.28.28,0,0,1,10,1.48l.09.07.8.69a1,1,0,0,1,.14.15.18.18,0,0,1,0,.2,1.43,1.43,0,0,1-.14.2l-.55.65c-.11.13-.23.26-.34.4S9.89,4,9.92,4a.38.38,0,0,0,.2.23.09.09,0,0,0,.07,0,.66.66,0,0,0,.17-.12l.9-.73.19-.16a.29.29,0,0,1,.36,0l.09.11.63.76.1.14a.27.27,0,0,1,0,.32l-.22.19-.81.67-.21.18a.14.14,0,0,0,0,.16,1.74,1.74,0,0,1,.11.18c.06.09.11.1.21.06l1.06-.47.23-.1a.33.33,0,0,1,.13,0,.23.23,0,0,1,.24.11.83.83,0,0,1,.09.16l.4.9a.5.5,0,0,1,.05.13.26.26,0,0,1-.12.33l-.13.06-1.41.63L12,7.83a.27.27,0,0,1-.33-.14l0-.1a9.94,9.94,0,0,0-1.89-2.9A12.09,12.09,0,0,0,5.92,1.86L5.4,1.63a1.19,1.19,0,0,1-.15-.09.24.24,0,0,1-.09-.25.24.24,0,0,1,.26-.18.48.48,0,0,1,.17,0c.23.09.45.19.67.3s.17.08.26.12a.13.13,0,0,0,.15-.06l.15-.23L7.48.21C7.65-.07,7.79,0,8,.09L8.9.66,9,.74A1.19,1.19,0,0,1,9.09.9"/></svg>