<svg id="Layer_1" data-name="Layer 1" xmlns="http://www.w3.org/2000/svg" viewBox="0 0 28 18"><defs><style>.cls-1{fill:#fff;}.cls-2{fill:#3c3c3b;}.cls-3{fill:none;stroke:#3c3c3b;stroke-linecap:round;stroke-linejoin:round;stroke-width:0.7px;}</style></defs><path class="cls-1" d="M25.07,11.6a3,3,0,0,0-3-2.67c-8.3,0-8.39-3.33-14.52-3.33a4.68,4.68,0,0,0-4.68,4.68v2.58A2.1,2.1,0,0,0,5,15H23.34a1.76,1.76,0,0,0,1.77-1.76V11.6Z"/><path class="cls-2" d="M23.34,15.3H5a2.45,2.45,0,0,1-2.45-2.44V10.28a5,5,0,0,1,5-5,12.87,12.87,0,0,1,6.18,1.51A17.12,17.12,0,0,0,22.1,8.58a3.35,3.35,0,0,1,3.3,2.83.33.33,0,0,1,.06.19v1.59A2.12,2.12,0,0,1,23.34,15.3ZM7.57,6a4.33,4.33,0,0,0-4.33,4.33v2.58A1.74,1.74,0,0,0,5,14.6H23.34a1.42,1.42,0,0,0,1.42-1.41V11.75a.23.23,0,0,1,0-.11A2.65,2.65,0,0,0,22.1,9.28a17.76,17.76,0,0,1-8.64-1.89A12.38,12.38,0,0,0,7.57,6Z"/><path class="cls-3" d="M19.63,6.26c-5.08-.5-6.3-2.5-10-3.06"/><polygon class="cls-2" points="22.09 6.38 18.69 4.77 19.44 6.24 18.54 7.62 22.09 6.38"/><polygon class="cls-2" points="10.75 2.04 10.08 3.28 10.51 4.62 7.57 3.05 10.75 2.04"/></svg>