<svg id="Layer_1" data-name="Layer 1" xmlns="http://www.w3.org/2000/svg" viewBox="0 0 28 18"><defs><style>.cls-1{fill:none;stroke:#3c3c3b;stroke-linecap:round;stroke-linejoin:round;stroke-width:0.7px;}</style></defs><path class="cls-1" d="M20.56,7.16c-1.38,1.64-3,3.47-4.4,4.87l-.22-.22L15,10.87c1.24-1.23,2.83-2.7,4.31-4l.52-.44a26.92,26.92,0,0,1,3.08-2.39A26.29,26.29,0,0,1,20.56,7.16Zm-4.78,5.47A2.61,2.61,0,0,1,13,14.82,4.9,4.9,0,0,1,12,14.7a2.7,2.7,0,0,0,.58-1.43c.19-.94.37-1.82,1.85-2Zm3.41-6.79A8.51,8.51,0,0,0,11.31.58h0a8.23,8.23,0,0,0-4,1.14A3.92,3.92,0,0,0,5.08,5,3,3,0,0,0,6.59,7.57c.55.4,1,.72,1,1.43s-.43,1-1,1.43A3,3,0,0,0,5.08,13a3.94,3.94,0,0,0,2.27,3.24,8.41,8.41,0,0,0,4,1.14h0a8.45,8.45,0,0,0,8.49-8.33M9.54,6.67A1.51,1.51,0,0,0,8.59,4a1.53,1.53,0,0,0-.94.32A1.51,1.51,0,0,0,8.6,7,1.53,1.53,0,0,0,9.54,6.67Zm2.75-.87a1.32,1.32,0,0,0,.34,0,1.51,1.51,0,0,0,1.29-2.31A1.55,1.55,0,0,0,13,2.86a2.09,2.09,0,0,0-.34,0A1.49,1.49,0,0,0,11.15,4a1.45,1.45,0,0,0,.19,1.13A1.49,1.49,0,0,0,12.29,5.8Zm3.77,2.45a1.51,1.51,0,0,0,1.36-2.17,1.54,1.54,0,0,0-1.37-.85,1.44,1.44,0,0,0-.65.15,1.49,1.49,0,0,0-.71,2A1.53,1.53,0,0,0,16.06,8.25ZM10,11.79a1.54,1.54,0,0,0-1-.33,1.5,1.5,0,0,0-.94,2.69,1.48,1.48,0,0,0,.94.33,1.51,1.51,0,0,0,1.19-.56,1.49,1.49,0,0,0,.32-1.11A1.46,1.46,0,0,0,10,11.79Z"/></svg>