<svg id="Layer_1" data-name="Layer 1" xmlns="http://www.w3.org/2000/svg" viewBox="0 0 28 18"><defs><style>.cls-1{fill:none;stroke:#3c3c3b;stroke-linecap:round;stroke-linejoin:round;stroke-width:0.7px;}</style></defs><path class="cls-1" d="M2.22,12.9c0-1.3.57-1.3.57-2.6S2.22,9,2.22,7.7s.57-1.3.57-2.6c0-.75-.33-1.59,0-2.19S4.08,2.15,4.7,1.79,5.86.72,6.6.72c2.47,0,2.47.56,4.93.56S14,.72,16.46.72s2.47.56,4.94.56c.74,0,1.58-.33,2.19,0s.75,1.27,1.11,1.89,1.08,1.16,1.08,1.91c0,1.3-.57,1.3-.57,2.6s.57,1.3.57,2.6-.57,1.3-.57,2.6c0,.75.33,1.59,0,2.19s-1.27.76-1.89,1.12-1.16,1.07-1.9,1.07c-2.47,0-2.47-.56-4.93-.56s-2.47.56-4.93.56-2.47-.56-4.94-.56c-.74,0-1.58.33-2.19,0s-.75-1.27-1.11-1.89S2.22,13.65,2.22,12.9Z"/><rect class="cls-1" x="4.24" y="2.73" width="19.52" height="12.53" rx="2.11"/></svg>