<svg id="Layer_1" data-name="Layer 1" xmlns="http://www.w3.org/2000/svg" xmlns:xlink="http://www.w3.org/1999/xlink" viewBox="0 0 28 18"><defs><style>.cls-1{fill:none;}.cls-2{clip-path:url(#clip-path);}.cls-3{fill:#3c3c3b;}</style><clipPath id="clip-path"><rect class="cls-1" x="4.13" width="19.73" height="18"/></clipPath></defs><g class="cls-2"><path class="cls-3" d="M19.4,13.76c0,.37.07.73.13,1.1s.15.74.21,1.11a8.14,8.14,0,0,1,.08.85.5.5,0,0,1-.33.5,1.4,1.4,0,0,1-.53.11c-.42,0-.84-.07-1.26-.11l-1.57-.16c-.56-.05-1.12-.1-1.68-.13s-1.1-.05-1.65,0c-1.11,0-2.22.05-3.34.08-.2,0-.41,0-.62,0l-1.35.14-.28,0s-1.25.15-1.62.15l-.41,0a.57.57,0,0,1-.43-.34,1.13,1.13,0,0,1,0-.68c.09-.53.21-1.06.29-1.59a8.15,8.15,0,0,0,.13-1.2A14.52,14.52,0,0,0,5,12.1c0-.4-.15-.79-.22-1.19s-.09-.6-.12-.9a.65.65,0,0,1,.71-.72c.45,0,.89,0,1.34.08s1.17.15,1.75.2c.82.07,1.65.13,2.47.15,1,0,2,0,2.95,0,.41,0,.82,0,1.23,0,.62-.05,1.25-.12,1.87-.19l1-.11a10.51,10.51,0,0,1,1.12-.06.64.64,0,0,1,.68.68,4.34,4.34,0,0,1-.07.63c-.05.33-.14.65-.2,1s-.12.64-.14,1,0,1.16,0,1.22m1,2.66c-.07-.55-.2-1.1-.29-1.65a10.93,10.93,0,0,1-.13-1.15A9.76,9.76,0,0,1,20.25,11a4.67,4.67,0,0,0,.13-1.11,1.15,1.15,0,0,0-.5-.91,1.48,1.48,0,0,0-1-.24c-.67,0-1.34.13-2,.19s-1.18.14-1.78.17q-1.29.08-2.58.09a35.11,35.11,0,0,1-4.92-.26c-.53-.07-1.06-.13-1.6-.18a2.29,2.29,0,0,0-1.1.1,1.1,1.1,0,0,0-.66.64,2.05,2.05,0,0,0-.05,1.07c.09.53.2,1.06.3,1.59a6.39,6.39,0,0,1,0,2.09c-.08.58-.21,1.14-.3,1.71a4.79,4.79,0,0,0-.09.84,1.14,1.14,0,0,0,.61,1l.2.08h.11A4.75,4.75,0,0,0,7,17.87l1-.11c.72-.07,1.43-.15,2.15-.18,1,0,1.92,0,2.88,0,.81,0,1.62.06,2.43.1.41,0,.81.08,1.22.12l1.5.17a3.91,3.91,0,0,0,1.23,0,1.25,1.25,0,0,0,.72-.39,1.31,1.31,0,0,0,.28-1.14"/><path class="cls-3" d="M23.75,10.55c-.11-.49-.27-1-.37-1.47s-.25-1.17-.33-1.76a9,9,0,0,1,.21-3.14c.1-.46.22-.91.34-1.37v0l.06-.25h0a.15.15,0,0,1,0-.07v0a.29.29,0,0,1,0-.09c.05-.24.1-.46.11-.55A1.89,1.89,0,0,0,23.76.72,1.13,1.13,0,0,0,23,.06a2,2,0,0,0-1,0c-.48.09-.95.23-1.43.32s-1,.2-1.49.27-1,.15-1.56.18c-.8,0-1.61.05-2.41,0-.6,0-1.19,0-1.79-.09s-1-.13-1.49-.21S11,.42,10.61.33c-.27,0-.55-.13-.82-.19l-.1,0a2.77,2.77,0,0,0-.9-.1H8.7a1,1,0,0,0-.62.24,1.36,1.36,0,0,0-.44,1.35c.09.55.24,1.1.37,1.65s.24,1,.33,1.47a9.55,9.55,0,0,1,.12,1.06A11.61,11.61,0,0,1,8.46,7c0,.32-.06.64-.09,1A.27.27,0,0,0,8.9,8c0-.45.12-.9.14-1.36a10.87,10.87,0,0,0-.33-2.84C8.56,3.19,8.4,2.6,8.27,2a2,2,0,0,1,0-1A.58.58,0,0,1,8.65.58a3.19,3.19,0,0,1,.62,0c.3.05.59.13.88.19.52.12,1,.23,1.56.32s.92.16,1.38.21.84.07,1.26.09a23,23,0,0,0,4.23-.12c.63-.08,1.26-.19,1.88-.31.41-.07.81-.18,1.22-.26s.6-.12.91-.16A.76.76,0,0,1,23,.62a.59.59,0,0,1,.36.57,4,4,0,0,1,0,.49L22.9,3.33c-.07.28-.13.55-.2.83a10.18,10.18,0,0,0-.24,1.9,11,11,0,0,0,.36,3.08c.12.47.23.93.35,1.39a3,3,0,0,1,.14,1,1.06,1.06,0,0,1-.13.39.67.67,0,0,1-.73.25c-.42-.07-.83-.17-1.24-.26-.18,0-.34,0-.38.16a.27.27,0,0,0,.23.37l.6.14a3.46,3.46,0,0,0,1.2.13,1.16,1.16,0,0,0,1-.94,3.09,3.09,0,0,0-.08-1.25"/></g></svg>