<svg id="Layer_1" data-name="Layer 1" xmlns="http://www.w3.org/2000/svg" xmlns:xlink="http://www.w3.org/1999/xlink" viewBox="0 0 28 18"><defs><style>.cls-1,.cls-3,.cls-6{fill:none;}.cls-2{clip-path:url(#clip-path);}.cls-3,.cls-6{stroke:#3c3c3b;stroke-linecap:round;stroke-linejoin:round;}.cls-3{stroke-width:0.7px;}.cls-4{clip-path:url(#clip-path-2);}.cls-5{fill:#fff;}.cls-6{stroke-width:0.5px;}</style><clipPath id="clip-path"><rect class="cls-1" x="0.36" y="0.56" width="27.29" height="16.88"/></clipPath><clipPath id="clip-path-2"><path class="cls-1" d="M5.38,7.62l0,.63L4.7,8.3A3.56,3.56,0,0,0,5,15.41a3.65,3.65,0,0,0,1.88-.54l.34-.22.36.18a19.15,19.15,0,0,0,8.05,1.58c6.59,0,11-2.49,11-4.8C26.61,9.78,24,8,20.09,7.24l-.46-.1-.11-.45a7.05,7.05,0,0,0-7-5.1c-3.78,0-6.91,2.65-7.14,6"/></clipPath></defs><g class="cls-2"><path class="cls-3" d="M20.23,6.52A7.75,7.75,0,0,0,12.51.86c-4.19,0-7.61,3-7.86,6.71a4.29,4.29,0,1,0,2.57,7.92,20.12,20.12,0,0,0,8.37,1.65c6.49,0,11.75-2.48,11.75-5.54C27.34,9.32,24.41,7.37,20.23,6.52Z"/></g><g class="cls-4"><path class="cls-5" d="M17.48,3.21A1.23,1.23,0,1,1,16.25,2a1.23,1.23,0,0,1,1.23,1.23"/><circle class="cls-6" cx="16.25" cy="3.21" r="1.23"/><path class="cls-5" d="M10,2.87A1.23,1.23,0,1,1,8.81,1.64,1.22,1.22,0,0,1,10,2.87"/><circle class="cls-6" cx="8.81" cy="2.87" r="1.23"/><path class="cls-5" d="M13.12,2.73A1.23,1.23,0,1,1,11.89,1.5a1.23,1.23,0,0,1,1.23,1.23"/><circle class="cls-6" cx="11.89" cy="2.73" r="1.23"/><path class="cls-5" d="M15.07,2.58a1.23,1.23,0,1,1-1.23-1.23,1.23,1.23,0,0,1,1.23,1.23"/><circle class="cls-6" cx="13.84" cy="2.58" r="1.23"/><path class="cls-5" d="M7.62,3.13A1.23,1.23,0,1,1,6.4,1.9,1.23,1.23,0,0,1,7.62,3.13"/><circle class="cls-6" cx="6.4" cy="3.13" r="1.23"/><path class="cls-5" d="M18.5,5.66a1.23,1.23,0,1,1-1.23-1.23A1.23,1.23,0,0,1,18.5,5.66"/><circle class="cls-6" cx="17.27" cy="5.66" r="1.23"/><path class="cls-5" d="M17.82,5.28A1.23,1.23,0,1,1,16.6,4.05a1.22,1.22,0,0,1,1.22,1.23"/><circle class="cls-6" cx="16.6" cy="5.28" r="1.23"/><path class="cls-5" d="M10.62,5.74A1.23,1.23,0,1,1,9.39,4.52a1.23,1.23,0,0,1,1.23,1.22"/><circle class="cls-6" cx="9.39" cy="5.74" r="1.23"/><path class="cls-5" d="M12.86,5.38a1.23,1.23,0,1,1-1.22-1.23,1.22,1.22,0,0,1,1.22,1.23"/><circle class="cls-6" cx="11.64" cy="5.38" r="1.23"/><path class="cls-5" d="M15.61,5.74a1.23,1.23,0,1,1-1.23-1.22,1.23,1.23,0,0,1,1.23,1.22"/><circle class="cls-6" cx="14.38" cy="5.74" r="1.23"/><path class="cls-5" d="M7.1,5.72A1.23,1.23,0,1,1,5.87,4.49,1.23,1.23,0,0,1,7.1,5.72"/><circle class="cls-6" cx="5.87" cy="5.72" r="1.23"/><path class="cls-5" d="M22.43,5.57A1.23,1.23,0,1,1,21.2,4.34a1.23,1.23,0,0,1,1.23,1.23"/><circle class="cls-6" cx="21.2" cy="5.57" r="1.23"/><path class="cls-5" d="M20.06,7.55a1.23,1.23,0,1,1-1.23-1.23,1.23,1.23,0,0,1,1.23,1.23"/><circle class="cls-6" cx="18.83" cy="7.55" r="1.23"/><path class="cls-5" d="M19.18,7.92A1.23,1.23,0,1,1,18,6.69a1.23,1.23,0,0,1,1.22,1.23"/><circle class="cls-6" cx="17.96" cy="7.92" r="1.23"/><path class="cls-5" d="M11.41,8a1.23,1.23,0,1,1-1.23-1.23A1.23,1.23,0,0,1,11.41,8"/><circle class="cls-6" cx="10.18" cy="7.99" r="1.23"/><path class="cls-5" d="M25.92,7.36A1.23,1.23,0,1,1,24.7,6.14a1.23,1.23,0,0,1,1.22,1.22"/><circle class="cls-6" cx="24.7" cy="7.36" r="1.23"/><path class="cls-5" d="M13,7.85a1.23,1.23,0,1,1-1.23-1.23A1.23,1.23,0,0,1,13,7.85"/><circle class="cls-6" cx="11.79" cy="7.85" r="1.23"/><path class="cls-5" d="M2.69,8.2A1.23,1.23,0,1,1,1.47,7,1.23,1.23,0,0,1,2.69,8.2"/><circle class="cls-6" cx="1.47" cy="8.2" r="1.23"/><path class="cls-5" d="M16.51,7.79a1.23,1.23,0,1,1-1.22-1.23,1.22,1.22,0,0,1,1.22,1.23"/><circle class="cls-6" cx="15.29" cy="7.79" r="1.23"/><path class="cls-5" d="M9,8.32A1.23,1.23,0,1,1,7.76,7.1,1.23,1.23,0,0,1,9,8.32"/><circle class="cls-6" cx="7.76" cy="8.32" r="1.23"/><path class="cls-5" d="M22.68,7.19A1.23,1.23,0,1,1,21.45,6a1.23,1.23,0,0,1,1.23,1.23"/><circle class="cls-6" cx="21.45" cy="7.19" r="1.23"/><path class="cls-5" d="M6.86,7.87A1.23,1.23,0,1,1,5.63,6.64,1.23,1.23,0,0,1,6.86,7.87"/><circle class="cls-6" cx="5.63" cy="7.87" r="1.23"/><path class="cls-5" d="M19.41,10.24A1.23,1.23,0,1,1,18.18,9a1.23,1.23,0,0,1,1.23,1.22"/><circle class="cls-6" cx="18.18" cy="10.24" r="1.23"/><path class="cls-5" d="M18.41,10.59a1.23,1.23,0,1,1-1.23-1.22,1.23,1.23,0,0,1,1.23,1.22"/><circle class="cls-6" cx="17.18" cy="10.59" r="1.23"/><path class="cls-5" d="M10,10.49A1.23,1.23,0,1,1,8.74,9.27,1.22,1.22,0,0,1,10,10.49"/><circle class="cls-6" cx="8.74" cy="10.49" r="1.23"/><path class="cls-5" d="M25.37,10.72A1.23,1.23,0,1,1,24.14,9.5a1.23,1.23,0,0,1,1.23,1.22"/><circle class="cls-6" cx="24.14" cy="10.72" r="1.23"/><path class="cls-5" d="M13,10a1.23,1.23,0,1,1-1.23-1.22A1.23,1.23,0,0,1,13,10"/><circle class="cls-6" cx="11.74" cy="10.03" r="1.23"/><path class="cls-5" d="M2.42,10.15A1.23,1.23,0,1,1,1.19,8.93a1.23,1.23,0,0,1,1.23,1.22"/><circle class="cls-6" cx="1.19" cy="10.15" r="1.23"/><path class="cls-5" d="M14.66,10.12A1.23,1.23,0,1,1,13.43,8.9a1.23,1.23,0,0,1,1.23,1.22"/><circle class="cls-6" cx="13.43" cy="10.12" r="1.23"/><path class="cls-5" d="M7.89,9.88A1.23,1.23,0,1,1,6.66,8.65,1.23,1.23,0,0,1,7.89,9.88"/><circle class="cls-6" cx="6.66" cy="9.88" r="1.23"/><path class="cls-5" d="M23,9.93A1.23,1.23,0,1,1,21.79,8.7,1.23,1.23,0,0,1,23,9.93"/><circle class="cls-6" cx="21.79" cy="9.93" r="1.23"/><path class="cls-5" d="M4.94,10.78A1.23,1.23,0,1,1,3.71,9.56a1.23,1.23,0,0,1,1.23,1.22"/><circle class="cls-6" cx="3.71" cy="10.78" r="1.23"/><path class="cls-5" d="M27.87,10.15a1.23,1.23,0,1,1-1.23-1.23,1.23,1.23,0,0,1,1.23,1.23"/><circle class="cls-6" cx="26.64" cy="10.15" r="1.23"/><path class="cls-5" d="M19.84,12.9a1.23,1.23,0,1,1-1.23-1.23,1.22,1.22,0,0,1,1.23,1.23"/><circle class="cls-6" cx="18.61" cy="12.9" r="1.23"/><path class="cls-5" d="M17.45,12.86a1.23,1.23,0,1,1-1.23-1.23,1.23,1.23,0,0,1,1.23,1.23"/><circle class="cls-6" cx="16.22" cy="12.86" r="1.23"/><path class="cls-5" d="M11.24,12.72A1.23,1.23,0,1,1,10,11.49a1.23,1.23,0,0,1,1.23,1.23"/><circle class="cls-6" cx="10.01" cy="12.72" r="1.23"/><path class="cls-5" d="M25,13.16a1.23,1.23,0,0,1-2.45,0,1.23,1.23,0,1,1,2.45,0"/><circle class="cls-6" cx="23.76" cy="13.16" r="1.23"/><path class="cls-5" d="M13,12.32a1.23,1.23,0,1,1-1.23-1.23A1.23,1.23,0,0,1,13,12.32"/><circle class="cls-6" cx="11.81" cy="12.32" r="1.23"/><path class="cls-5" d="M3.94,13.19A1.23,1.23,0,1,1,2.72,12a1.23,1.23,0,0,1,1.22,1.23"/><circle class="cls-6" cx="2.72" cy="13.19" r="1.23"/><path class="cls-5" d="M16.46,12.76a1.23,1.23,0,1,1-1.23-1.23,1.23,1.23,0,0,1,1.23,1.23"/><circle class="cls-6" cx="15.23" cy="12.76" r="1.23"/><path class="cls-5" d="M8,12.37a1.23,1.23,0,1,1-1.22-1.22A1.22,1.22,0,0,1,8,12.37"/><circle class="cls-6" cx="6.79" cy="12.37" r="1.23"/><path class="cls-5" d="M24.14,13a1.23,1.23,0,1,1-1.23-1.23A1.23,1.23,0,0,1,24.14,13"/><circle class="cls-6" cx="22.91" cy="12.96" r="1.23"/><path class="cls-5" d="M6.11,13a1.23,1.23,0,1,1-1.23-1.23A1.22,1.22,0,0,1,6.11,13"/><circle class="cls-6" cx="4.88" cy="13.02" r="1.23"/><path class="cls-5" d="M28.84,12.24A1.23,1.23,0,1,1,27.61,11a1.23,1.23,0,0,1,1.23,1.23"/><circle class="cls-6" cx="27.61" cy="12.24" r="1.23"/><path class="cls-5" d="M20.75,14.88a1.23,1.23,0,1,1-1.22-1.23,1.23,1.23,0,0,1,1.22,1.23"/><circle class="cls-6" cx="19.53" cy="14.88" r="1.23"/><path class="cls-5" d="M17,15.62a1.23,1.23,0,1,1-1.23-1.23A1.23,1.23,0,0,1,17,15.62"/><circle class="cls-6" cx="15.78" cy="15.62" r="1.23"/><path class="cls-5" d="M10.83,15.57a1.23,1.23,0,1,1-1.22-1.23,1.23,1.23,0,0,1,1.22,1.23"/><circle class="cls-6" cx="9.61" cy="15.57" r="1.23"/><path class="cls-5" d="M24.8,15.65a1.23,1.23,0,1,1-1.23-1.23,1.23,1.23,0,0,1,1.23,1.23"/><circle class="cls-6" cx="23.57" cy="15.65" r="1.23"/><path class="cls-5" d="M12.71,15.08a1.23,1.23,0,1,1-1.22-1.23,1.22,1.22,0,0,1,1.22,1.23"/><circle class="cls-6" cx="11.49" cy="15.08" r="1.23"/><path class="cls-5" d="M2,14.68A1.23,1.23,0,1,1,.75,13.46,1.23,1.23,0,0,1,2,14.68"/><circle class="cls-6" cx="0.75" cy="14.68" r="1.23"/><path class="cls-5" d="M13.73,15.45a1.23,1.23,0,1,1-1.23-1.23,1.23,1.23,0,0,1,1.23,1.23"/><circle class="cls-6" cx="12.5" cy="15.45" r="1.23"/><path class="cls-5" d="M6.78,15a1.23,1.23,0,1,1-1.23-1.23A1.22,1.22,0,0,1,6.78,15"/><circle class="cls-6" cx="5.55" cy="14.96" r="1.23"/><path class="cls-5" d="M22.84,15.16a1.23,1.23,0,1,1-1.22-1.23,1.22,1.22,0,0,1,1.22,1.23"/><circle class="cls-6" cx="21.62" cy="15.16" r="1.23"/><path class="cls-5" d="M4,15.76a1.23,1.23,0,1,1-1.23-1.23A1.23,1.23,0,0,1,4,15.76"/><circle class="cls-6" cx="2.81" cy="15.76" r="1.23"/><path class="cls-5" d="M26,15a1.23,1.23,0,1,1-1.22-1.23A1.22,1.22,0,0,1,26,15"/><circle class="cls-6" cx="24.77" cy="15.03" r="1.23"/></g></svg>