<svg id="Layer_1" data-name="Layer 1" xmlns="http://www.w3.org/2000/svg" viewBox="0 0 28 18"><defs><style>.cls-1{fill:#3c3c3b;}.cls-2{fill:#fff;}.cls-3{fill:none;stroke:#3c3c3b;stroke-linecap:round;stroke-linejoin:round;stroke-width:0.7px;}</style></defs><path class="cls-1" d="M13.17,17.94,13,7.75a.26.26,0,0,1,.26-.26.25.25,0,0,1,.26.25h0l-.22,10.19a0,0,0,1,1-.08,0"/><path class="cls-1" d="M7,17.9a15.32,15.32,0,0,0,2.27-4.84,15.53,15.53,0,0,0,.44-2.63,15.76,15.76,0,0,0,0-2.66h0A.26.26,0,0,1,10,7.48a.27.27,0,0,1,.28.24h0a16.67,16.67,0,0,1-.08,2.74,14.34,14.34,0,0,1-.56,2.68A15.35,15.35,0,0,1,7.14,18a.06.06,0,0,1-.08,0,.08.08,0,0,1,0-.09"/><path class="cls-1" d="M18.9,18a15.38,15.38,0,0,1-2.48-4.83,15.17,15.17,0,0,1-.55-2.68,16.67,16.67,0,0,1-.08-2.74.27.27,0,0,1,.27-.25.25.25,0,0,1,.25.27h0a15.76,15.76,0,0,0,0,2.66,15.53,15.53,0,0,0,.44,2.63A15.3,15.3,0,0,0,19,17.9.06.06,0,0,1,19,18a.06.06,0,0,1-.08,0"/><polygon class="cls-2" points="2.7 5.51 11.38 9.55 25.3 9.55 16.61 5.51 2.7 5.51"/><polygon class="cls-3" points="11.38 9.55 25.3 9.55 16.61 5.51 2.7 5.51 11.38 9.55"/><path class="cls-1" d="M9.94,7.76A14.89,14.89,0,0,0,8.26,2.28a.19.19,0,1,1,.34-.19h0A15.28,15.28,0,0,1,10,7.75s0,0,0,0-.05,0-.05,0"/><polygon class="cls-1" points="7.63 3.87 8.48 2.38 10.19 2.38 7.09 0 7.63 3.87"/><path class="cls-1" d="M16,7.75A15.5,15.5,0,0,1,17.43,2.1.2.2,0,0,1,17.69,2a.19.19,0,0,1,.09.26h0A14.89,14.89,0,0,0,16.1,7.76a.07.07,0,0,1-.05,0s-.05,0-.05,0"/><polygon class="cls-1" points="18.95 0 15.85 2.38 17.56 2.38 18.4 3.87 18.95 0"/><path class="cls-1" d="M13.16,7.75,13,2.57a.19.19,0,0,1,.19-.2.19.19,0,0,1,.19.19h0l-.14,5.18a0,0,0,0,1-.1,0"/><polygon class="cls-1" points="13.21 0 11.73 3.62 13.21 2.76 14.69 3.62 13.21 0"/></svg>