<svg id="Layer_1" data-name="Layer 1" xmlns="http://www.w3.org/2000/svg" viewBox="0 0 28 18"><defs><style>.cls-1{fill:#f39400;}.cls-2{fill:none;stroke-miterlimit:10;}.cls-2,.cls-3{stroke:#3c3c3b;}.cls-3{fill:#fff;stroke-linecap:round;stroke-linejoin:round;stroke-width:0.7px;}</style></defs><path class="cls-1" d="M14,5.11a6.14,6.14,0,0,1,2.32.45l0,0,.44-2.14a.64.64,0,0,0-.63-.77H11.83a.64.64,0,0,0-.63.77l.44,2.14,0,0A6.14,6.14,0,0,1,14,5.11M16.25,17,16,17A13.95,13.95,0,0,0,12,17l-.21,0a1.41,1.41,0,0,1-.66-.17,6.21,6.21,0,0,1-1-10.33v0L9.6,3.77A2.27,2.27,0,0,1,11.83,1h4.34A2.27,2.27,0,0,1,18.4,3.77l-.54,2.68v0a6.21,6.21,0,0,1-1,10.33,1.41,1.41,0,0,1-.66.17"/><path class="cls-2" d="M14,5.11a6.14,6.14,0,0,1,2.32.45l0,0,.44-2.14a.64.64,0,0,0-.63-.77H11.83a.64.64,0,0,0-.63.77l.44,2.14,0,0A6.14,6.14,0,0,1,14,5.11ZM16.25,17,16,17A13.95,13.95,0,0,0,12,17l-.21,0a1.41,1.41,0,0,1-.66-.17,6.21,6.21,0,0,1-1-10.33v0L9.6,3.77A2.27,2.27,0,0,1,11.83,1h4.34A2.27,2.27,0,0,1,18.4,3.77l-.54,2.68v0a6.21,6.21,0,0,1-1,10.33A1.41,1.41,0,0,1,16.25,17Z"/><path class="cls-1" d="M11.66,5.53l-.42-2.1a.58.58,0,0,1,.12-.5.61.61,0,0,1,.47-.22h4.34a.61.61,0,0,1,.47.22.58.58,0,0,1,.12.5l-.42,2.1a6.31,6.31,0,0,0-4.68,0M16.17,1H11.83A2.32,2.32,0,0,0,9.56,3.77l.55,2.67a6.24,6.24,0,0,0,1,10.39,1.42,1.42,0,0,0,.67.17L12,17A13.95,13.95,0,0,1,16,17l.21,0a1.42,1.42,0,0,0,.67-.17,6.24,6.24,0,0,0,1-10.39l.55-2.67A2.32,2.32,0,0,0,16.17,1M11.61,5.62l.08,0a6.15,6.15,0,0,1,4.62,0l.08,0V5.54l.43-2.09a.62.62,0,0,0-.14-.56.65.65,0,0,0-.52-.25H11.83a.65.65,0,0,0-.52.25.62.62,0,0,0-.14.56l.43,2.09Zm4.56-4.55a2.24,2.24,0,0,1,2.2,2.69l-.54,2.67v0l0,0a6.18,6.18,0,0,1-1,10.28,1.32,1.32,0,0,1-.64.16h-.2a13.21,13.21,0,0,0-4.1,0h-.2a1.32,1.32,0,0,1-.64-.16,6.18,6.18,0,0,1-1-10.28l0,0v0L9.63,3.76a2.24,2.24,0,0,1,2.2-2.69Z"/><path class="cls-3" d="M11.66,5.53l-.42-2.1a.58.58,0,0,1,.12-.5.61.61,0,0,1,.47-.22h4.34a.61.61,0,0,1,.47.22.58.58,0,0,1,.12.5l-.42,2.1a6.31,6.31,0,0,0-4.68,0ZM16.17,1H11.83A2.32,2.32,0,0,0,9.56,3.77l.55,2.67a6.24,6.24,0,0,0,1,10.39,1.42,1.42,0,0,0,.67.17L12,17A13.95,13.95,0,0,1,16,17l.21,0a1.42,1.42,0,0,0,.67-.17,6.24,6.24,0,0,0,1-10.39l.55-2.67A2.32,2.32,0,0,0,16.17,1ZM11.61,5.62l.08,0a6.15,6.15,0,0,1,4.62,0l.08,0V5.54l.43-2.09a.62.62,0,0,0-.14-.56.65.65,0,0,0-.52-.25H11.83a.65.65,0,0,0-.52.25.62.62,0,0,0-.14.56l.43,2.09Zm4.56-4.55a2.24,2.24,0,0,1,2.2,2.69l-.54,2.67v0l0,0a6.18,6.18,0,0,1-1,10.28,1.32,1.32,0,0,1-.64.16h-.2a13.21,13.21,0,0,0-4.1,0h-.2a1.32,1.32,0,0,1-.64-.16,6.18,6.18,0,0,1-1-10.28l0,0v0L9.63,3.76a2.24,2.24,0,0,1,2.2-2.69Z"/></svg>