<svg width="28" height="18" viewBox="0 0 28 18" fill="none" xmlns="http://www.w3.org/2000/svg">
<line x1="5" y1="17.5" x2="23" y2="17.5" stroke="#3C3C3B"/>
<line x1="5.5" y1="17" x2="5.5" y2="12" stroke="#3C3C3B"/>
<line x1="22.5" y1="17" x2="22.5" y2="12" stroke="#3C3C3B"/>
<path d="M13.5404 15.4596C13.7942 15.7135 14.2058 15.7135 14.4596 15.4596L18.5962 11.323C18.85 11.0692 18.85 10.6576 18.5962 10.4038C18.3424 10.15 17.9308 10.15 17.677 10.4038L14 14.0808L10.323 10.4038C10.0692 10.15 9.65765 10.15 9.40381 10.4038C9.14997 10.6576 9.14997 11.0692 9.40381 11.323L13.5404 15.4596ZM13.35 2L13.35 15L14.65 15L14.65 2L13.35 2Z" fill="#F09100"/>
</svg>
