<svg xmlns="http://www.w3.org/2000/svg" viewBox="0 0 51.94 61.95"><defs><style>.cls-1{fill:#221300;}</style></defs><g id="Слой_2" data-name="Слой 2"><g id="Преимущества"><path class="cls-1" d="M17.75,0c.55.16,1.12.28,1.66.48a7.74,7.74,0,0,1,5,8.67,7.74,7.74,0,0,1-15.21.06A7.76,7.76,0,0,1,15.48.12,1.85,1.85,0,0,0,15.81,0Zm-1,2.55a5.25,5.25,0,0,0-5.19,5.2A5.19,5.19,0,0,0,22,7.75,5.24,5.24,0,0,0,16.78,2.55Z"/><path class="cls-1" d="M24,56.69c-.83-.93-1.66-1.87-2.51-2.78a.52.52,0,0,0-.5-.08A2.94,2.94,0,0,1,16.76,52c-.23-.66-.56-1.29-.83-1.94a2.78,2.78,0,0,1,1.5-3.81.68.68,0,0,0,.47-.81c-.07-1-.06-2,0-3,0-.36,0-.57-.41-.73a2.77,2.77,0,0,1-1.66-3.88c.28-.73.57-1.47.87-2.19A2.8,2.8,0,0,1,20.45,34a.66.66,0,0,0,.9-.25,12.15,12.15,0,0,1,1.17-1.31c.39-.4.82-.77,1.2-1.13a8.22,8.22,0,0,1-.38-1.71A2.68,2.68,0,0,1,25.08,27l2.49-1.08-2.34-2.19-4.42-4.12a2.37,2.37,0,0,1-.61-.81,1.15,1.15,0,0,1,.39-1.36A1.19,1.19,0,0,1,22,17.28a3,3,0,0,1,.56.45L31,25.56c.6.56.95,1.14.48,2-.17.29,0,.43.32.42,1.14,0,2.29,0,3.44-.09.17,0,.4-.25.49-.44a2.87,2.87,0,0,1,2.9-1.86,4.36,4.36,0,0,1,1.1.29c.72.26,1.43.54,2.14.84a2.78,2.78,0,0,1,1.65,3.75.72.72,0,0,0,.26.95c.76.66,1.46,1.39,2.16,2.11a.51.51,0,0,0,.66.17,2.87,2.87,0,0,1,4.07,1.71c.3.69.6,1.37.88,2.06A2.77,2.77,0,0,1,50,41.24c-.42.18-.48.4-.47.81,0,1,0,2.06,0,3.08a.5.5,0,0,0,.38.57,2.81,2.81,0,0,1,1.66,4c-.27.69-.54,1.39-.83,2.07A2.79,2.79,0,0,1,47,53.48a.69.69,0,0,0-.9.26c-.67.75-1.38,1.47-2.11,2.16a.54.54,0,0,0-.17.71,2.82,2.82,0,0,1-1.68,4l-2,.88A2.83,2.83,0,0,1,36.23,60c-.19-.42-.41-.48-.83-.46-1,.06-2,.07-3,0a.53.53,0,0,0-.62.39,2.8,2.8,0,0,1-4,1.65l-1.91-.76a2.84,2.84,0,0,1-1.8-4,3.38,3.38,0,0,0,.11-.34Zm2.78-24.94a3.41,3.41,0,0,1-.61.93,16.08,16.08,0,0,0-3.64,3.77,1.21,1.21,0,0,1-1.5.46c-.44-.15-.88-.32-1.3-.51s-.56-.07-.69.29c-.26.68-.52,1.35-.81,2-.16.38-.09.61.31.74s.68.26,1,.39a1.35,1.35,0,0,1,1,1.69,15.11,15.11,0,0,0,.1,4.93,1.25,1.25,0,0,1-.77,1.48c-.42.21-.85.39-1.28.56a.42.42,0,0,0-.26.66c.31.68.61,1.37.88,2.06.15.37.35.43.7.26s.85-.36,1.29-.53a1.23,1.23,0,0,1,1.55.45A15.18,15.18,0,0,0,26.4,55a1.27,1.27,0,0,1,.46,1.66,10.9,10.9,0,0,1-.45,1.12c-.19.42-.06.62.35.77.69.24,1.36.5,2,.79.35.15.51.06.63-.28s.3-.79.47-1.18a1.36,1.36,0,0,1,1.63-.91,25,25,0,0,0,2.59.17,19.76,19.76,0,0,0,2.16-.22c1-.12,1.39.08,1.8,1,.15.33.3.66.43,1s.33.39.65.24c.68-.31,1.36-.6,2.06-.87.35-.15.46-.34.28-.7s-.36-.81-.52-1.22a1.23,1.23,0,0,1,.38-1.57A16.09,16.09,0,0,0,45,51a1.22,1.22,0,0,1,1.56-.43c.41.16.83.31,1.23.49s.57.07.7-.29c.26-.68.53-1.36.81-2,.15-.37.1-.61-.32-.75a10.61,10.61,0,0,1-1.06-.42,1.3,1.3,0,0,1-1-1.6,14.67,14.67,0,0,0-.08-5,1.26,1.26,0,0,1,.77-1.48A10.82,10.82,0,0,1,48.84,39c.36-.14.48-.33.31-.69-.31-.7-.61-1.4-.9-2.11-.14-.33-.34-.35-.62-.22-.45.19-.89.39-1.34.55a1.23,1.23,0,0,1-1.52-.42A15.62,15.62,0,0,0,41,32.47,1.21,1.21,0,0,1,40.58,31c.15-.44.33-.86.51-1.29s.1-.53-.27-.66c-.71-.27-1.42-.56-2.13-.85-.34-.15-.52-.05-.64.29s-.31.83-.49,1.23a1.29,1.29,0,0,1-1.5.86,11.76,11.76,0,0,0-1.56-.15c-1.1,0-2.21.11-3.31.22a1.44,1.44,0,0,1-1.77-1l-.48-1.11c-.11-.28-.27-.35-.56-.22-.66.31-1.33.6-2,.85-.47.17-.59.39-.37.86S26.47,31.12,26.73,31.75Z"/><path class="cls-1" d="M3,26.92c2.07,2.65,4.1,5.25,6.16,7.84a2.45,2.45,0,0,1,.55,1.55c.06,7.22.14,14.44.2,21.66a2.12,2.12,0,0,1-.18.93,1.13,1.13,0,0,1-1.2.63,1.14,1.14,0,0,1-1.06-.93,3.87,3.87,0,0,1-.09-.9q-.11-10.32-.2-20.63a2,2,0,0,0-.47-1.31Q3.58,31.83.5,27.86a1.39,1.39,0,0,1,.16-2.25l8.59-8a1.35,1.35,0,0,1,1.41-.45A1.22,1.22,0,0,1,11.38,19a3.24,3.24,0,0,1-.52.59l-7.3,6.8C3.38,26.55,3.2,26.71,3,26.92Z"/><path class="cls-1" d="M15.51,23.9c0-1.67,0-3.34,0-5a4,4,0,0,1,.07-.84,1.25,1.25,0,0,1,1.17-.95,1.26,1.26,0,0,1,1.24,1,2.63,2.63,0,0,1,.06.48c0,3.57,0,7.13,0,10.7a1.65,1.65,0,0,1-.13.7,1.25,1.25,0,0,1-2.35-.23,4.1,4.1,0,0,1-.06-.78C15.5,27.25,15.51,25.57,15.51,23.9Z"/><path class="cls-1" d="M33.75,52.84a9.11,9.11,0,1,1,9.07-9.15A9.11,9.11,0,0,1,33.75,52.84Zm6.53-9.09a6.55,6.55,0,1,0-6.55,6.55A6.58,6.58,0,0,0,40.28,43.75Z"/></g></g></svg>