<svg xmlns="http://www.w3.org/2000/svg" viewBox="0 0 53.66 48.71"><defs><style>.cls-1{fill:#221300;}</style></defs><g id="Слой_2" data-name="Слой 2"><g id="Преимущества"><path class="cls-1" d="M6.75,34.61a.84.84,0,0,1-.7-.36L.16,26a.86.86,0,0,1-.06-.9.84.84,0,0,1,.76-.47h1.5v-.3A24.39,24.39,0,0,1,26.73,0V1.73A22.67,22.67,0,0,0,4.09,24.37v1.17a.87.87,0,0,1-.87.86H2.54l4.13,5.75L10,26.4H9.11a.86.86,0,0,1-.86-.86V24.37A18.49,18.49,0,0,1,42.37,14.5l-1.46.92a16.77,16.77,0,0,0-30.94,9v.3h1.47a.87.87,0,0,1,.74.43.85.85,0,0,1,0,.86L7.5,34.18a.86.86,0,0,1-.71.43Z"/><path class="cls-1" d="M26.93,48.71V47A22.67,22.67,0,0,0,49.57,24.34V23.18a.87.87,0,0,1,.87-.87h.68L47,16.56l-3.28,5.75h.87a.87.87,0,0,1,.87.87v1.16a18.49,18.49,0,0,1-34.13,9.87l1.46-.92a16.77,16.77,0,0,0,30.94-8.95V24h-1.5a.87.87,0,0,1-.75-1.29l4.69-8.22a.89.89,0,0,1,.71-.43.87.87,0,0,1,.74.36l5.89,8.21a.86.86,0,0,1,.06.9.84.84,0,0,1-.76.47H51.3v.3A24.39,24.39,0,0,1,26.93,48.71Z"/><path class="cls-1" d="M25.57,31.09a.86.86,0,0,1-.61-.25l-4.72-4.69,1.22-1.23,4.07,4,8.77-9.89,1.29,1.14L26.21,30.8a.84.84,0,0,1-.61.29Z"/></g></g></svg>