<svg xmlns="http://www.w3.org/2000/svg" viewBox="0 0 101.08 69.43"><defs><style>.cls-1{fill:#d38922;}</style></defs><g id="Слой_2" data-name="Слой 2"><g id="Преимущества"><path class="cls-1" d="M13.92,23.29,9.41,21.78c-2-.68-4.11-1.36-6.15-2.05a2,2,0,0,1-1.49-1.9,1.91,1.91,0,0,1,1.48-1.89c4-1.36,8-2.69,12-4l21.55-7.2C41.4,3.18,46,1.67,50.59.13a4.22,4.22,0,0,1,2.78.36L72.52,6.88l20.34,6.79c2.14.72,4.29,1.42,6.42,2.14a5.34,5.34,0,0,1,.7.27,1.84,1.84,0,0,1,1.1,1.68A1.71,1.71,0,0,1,100,19.52c-1.17.47-2.37.85-3.57,1.25L77.85,27l-19,6.31c-2,.67-4,1.3-6,2a4.24,4.24,0,0,1-3-.07c-5.57-1.88-11.14-3.73-16.71-5.59l-7.46-2.46c-.16-.06-.31-.14-.54-.24a3.25,3.25,0,0,1,.41-.24c5.68-2.28,11.35-4.58,17.05-6.8,3.06-1.19,6.19-2.22,9.29-3.33a2.46,2.46,0,0,0,1.85-2.4A2.39,2.39,0,0,0,50.42,12C47.59,13,44.75,14,42,15q-8.73,3.42-17.43,7a32.34,32.34,0,0,0-4.38,2.25A10.67,10.67,0,0,0,15.3,31.1c-.47,1.85-.7,3.76-1,5.64a.82.82,0,0,0,.37.87,5,5,0,0,1,.27,8,1,1,0,0,0-.23.8,76.26,76.26,0,0,1,.81,10.24,15.82,15.82,0,0,1-1.68,7.77,10.35,10.35,0,0,1-4.63,4.69A3.43,3.43,0,0,1,6,69C4.27,68.13,2.54,67.2.8,66.28a2.44,2.44,0,0,1-.33-.23c-.61-.48-.61-.58-.09-1.17,1.34-1.53,2.74-3,4-4.59a23.34,23.34,0,0,0,4.22-8.72c.41-1.53.63-3.11,1-4.66a.68.68,0,0,0-.38-.84,5,5,0,0,1,0-8.8,1.32,1.32,0,0,0,.44-.9,35.47,35.47,0,0,1,1.34-7.16,17.17,17.17,0,0,1,2.74-5.39,1.94,1.94,0,0,0,.23-.33S13.91,23.42,13.92,23.29Z"/><path class="cls-1" d="M83.21,30.77v.72c0,4-.13,7.93,0,11.88.14,3.44-1.47,5.75-4.1,7.58a32.77,32.77,0,0,1-11,4.57A67.56,67.56,0,0,1,51.87,57.4a73.73,73.73,0,0,1-12.75-1,53.27,53.27,0,0,1-9.74-2.55,20.57,20.57,0,0,1-7.57-4.54c-.31-.31-.35-.52-.06-.85A8,8,0,0,0,20.2,36.92a.76.76,0,0,1-.34-.54,17.4,17.4,0,0,1,.55-4.71c.14-.46.27-.59.8-.42C26.35,33,31.5,34.69,36.65,36.41q6.42,2.13,12.83,4.28a7.51,7.51,0,0,0,5-.34c6-2,11.93-4,17.9-6L82.48,31Z"/></g></g></svg>