<svg xmlns="http://www.w3.org/2000/svg" viewBox="0 0 52.47 64.13"><defs><style>.cls-1{fill:#e98905;}</style></defs><g id="Слой_2" data-name="Слой 2"><g id="Преимущества"><path class="cls-1" d="M14.64,43.66h14c.61,0,.61,0,.61.59v7.68c0,.57,0,.58-.59.58H15.21c-.57,0-.57,0-.57.56V63.5c0,.63,0,.63-.65.63H6.4c-.6,0-.61,0-.61-.59q0-5.24,0-10.47c0-.43-.09-.58-.55-.57-1.58,0-3.17,0-4.76,0-.37,0-.49-.1-.49-.49,0-2.63,0-5.27,0-7.9,0-.36.09-.47.46-.47,1.6,0,3.2,0,4.8,0,.42,0,.54-.11.54-.53q0-5.93,0-11.83V.76a1.54,1.54,0,0,1,0-.48A.59.59,0,0,1,6.07,0a.79.79,0,0,1,.31,0Q20.62,0,34.87,0A17.17,17.17,0,0,1,46.08,4,17.18,17.18,0,0,1,52,13.56a17.06,17.06,0,0,1-1.12,11.19,17.32,17.32,0,0,1-7.48,8.09,16.34,16.34,0,0,1-6.37,2C36,35,35,35,34,35c-6.25,0-12.51,0-18.76,0-.62,0-.62,0-.62.61v8Zm0-17.49.41,0c6.72,0,13.44,0,20.15,0a8.11,8.11,0,0,0,2.39-.42,8.58,8.58,0,0,0,5-12.19A8,8,0,0,0,35.31,8.9c-6.74-.09-13.49,0-20.24-.05-.41,0-.43.19-.43.51,0,5.45,0,10.9,0,16.36C14.64,25.86,14.66,26,14.67,26.17Z"/></g></g></svg>