<svg xmlns="http://www.w3.org/2000/svg" viewBox="0 0 95.68 61.42"><defs><style>.cls-1{fill:#d38922;}</style></defs><g id="Слой_2" data-name="Слой 2"><g id="Преимущества"><path class="cls-1" d="M54.6,2.47A11.65,11.65,0,0,1,60.27,4.2c1.72,1,3.36,2,5,3.13l.09,0a5.54,5.54,0,0,0,6.82.12c.6-.42.56-.5,1,.27q5.79,11.09,11.59,22.17a.84.84,0,0,1,0,.9,30,30,0,0,1-5.36,6.72c-1.15,1.13-2.36,2.18-3.59,3.2-.32.25-.49.23-.76-.06q-6.24-7-12.51-13.92c-3.36-3.72-6.72-7.44-10.16-11.09a7.86,7.86,0,0,0-1-.86,1.53,1.53,0,0,0-1.83-.14c-4.71,2.68-9.58,5-14.36,7.56a7.75,7.75,0,0,1-2.38.83c-2.49.42-3.87-1.37-3.7-3.55a4.31,4.31,0,0,1,1.7-3.13,125.23,125.23,0,0,1,17.68-12,13.71,13.71,0,0,1,5.33-1.87C54.05,2.5,54.33,2.49,54.6,2.47Z"/><path class="cls-1" d="M95.67,26.07a1.63,1.63,0,0,1-.91,1.62l-4.88,2.6a1.77,1.77,0,0,1-2.41-.55,11.15,11.15,0,0,1-.74-1.3L75.25,6.16a4.26,4.26,0,0,1-.4-.9,1.76,1.76,0,0,1,1-2.12L80.56.64a1.79,1.79,0,0,1,2.59.78c.5.91,1,1.84,1.43,2.75L95.35,25A2.17,2.17,0,0,1,95.67,26.07Z"/><path class="cls-1" d="M17.87,3.51a2.46,2.46,0,0,1-.23,1L8.53,28.74a5.38,5.38,0,0,1-.27.66,1.76,1.76,0,0,1-2.36,1L1.22,28.76a1.68,1.68,0,0,1-1.18-2A16.4,16.4,0,0,1,1,24.11Q5.16,12.92,9.38,1.73A3.44,3.44,0,0,1,10,.64,1.67,1.67,0,0,1,11.86.11c1.61.55,3.22,1.12,4.83,1.68A1.6,1.6,0,0,1,17.87,3.51Z"/><path class="cls-1" d="M22.22,6.27q-1.45,3.92-2.92,7.83c-1.84,4.92-3.7,9.83-5.65,14.71a1.06,1.06,0,0,0,.21,1.27c2,2.29,4,4.53,6.18,6.67.36.36.31.53-.07.76a3.73,3.73,0,0,0-1,.94c-.17.22-.29.28-.52,0-2.33-2.44-4.65-4.89-6.78-7.52a2.39,2.39,0,0,1-.31-2.49c1.49-3.87,3-7.74,4.46-11.62s2.86-7.69,4.27-11.53A2.22,2.22,0,0,1,22,3.73a2.35,2.35,0,0,1,2.26,1.15,3.9,3.9,0,0,0,2.5,1.42,7.59,7.59,0,0,0,5-1c1.39-.71,2.74-1.52,4.13-2.24a11.41,11.41,0,0,1,5.47-1.51,6.52,6.52,0,0,1,4.08,1.55c.23.19.22.31,0,.46-.52.3-1,.61-1.55.93a.36.36,0,0,1-.43,0,5.31,5.31,0,0,0-4.49-.21,24.48,24.48,0,0,0-4.55,2.2,18.21,18.21,0,0,1-5,2.11C26.55,9.2,24.27,8.19,22.22,6.27Z"/><path class="cls-1" d="M67,48A4.07,4.07,0,0,0,66,45.4l-7-7.74a1.34,1.34,0,0,1,.14-2.14.93.93,0,0,1,1.41.12L68.77,45a4.42,4.42,0,0,0,2.35,1.67,3.27,3.27,0,0,0,3.79-2.2,1.1,1.1,0,0,1,.42-.61c.47-.34,1-.69,1.39-1.07s.42-.13.5.18a4.71,4.71,0,0,1-.17,2.24,5.39,5.39,0,0,1-7.27,3.44c-.37-.16-.5-.2-.55.29A5.91,5.91,0,0,1,67,53.23a5.06,5.06,0,0,1-5.41.56c-.52-.22-.51-.24-.58.34a5.87,5.87,0,0,1-4.25,5.07,4.64,4.64,0,0,1-3.17-.39c-.26-.12-.33-.25-.13-.5a6,6,0,0,0,.83-1.43c.06-.16.14-.18.31-.14a3.13,3.13,0,0,0,4.15-2.65,4.12,4.12,0,0,0-1-3.68c-2.07-2.35-4.12-4.73-6.17-7.1a1.39,1.39,0,0,1,.18-2.05.78.78,0,0,1,1.19.11q3.45,3.85,6.89,7.7c.46.52.92,1,1.39,1.54,1.18,1.28,2.46,1.69,3.67,1.21A3.89,3.89,0,0,0,67,48Z"/><path class="cls-1" d="M47.88,46.12a4.19,4.19,0,0,1-1.32,3.41c-2.38,2.19-4.76,4.39-7.17,6.55a2.8,2.8,0,0,1-3,.6A3.33,3.33,0,0,1,34.22,54a4.05,4.05,0,0,1,1.36-4c2.19-2,4.38-4,6.55-6a3.19,3.19,0,0,1,3.66-.91A3.34,3.34,0,0,1,47.88,46.12Z"/><path class="cls-1" d="M27.57,47.25a4.11,4.11,0,0,1,1.29-3.08c1.91-1.73,3.82-3.48,5.74-5.2a2.86,2.86,0,0,1,3-.55,3.27,3.27,0,0,1,2.14,2.7,4.19,4.19,0,0,1-1.46,4.07q-2.52,2.22-5,4.53c-1.1,1-2.31,1.55-3.75.89A3.56,3.56,0,0,1,27.57,47.25Z"/><path class="cls-1" d="M52.61,54.24a4.3,4.3,0,0,1-1.14,3l-3,3.1a3,3,0,0,1-3.33.91,3.34,3.34,0,0,1-2.28-2.82,4.61,4.61,0,0,1,1.64-4.24c.81-.77,1.58-1.59,2.35-2.39a3.09,3.09,0,0,1,3.23-1,3.32,3.32,0,0,1,2.37,2.62A2.86,2.86,0,0,1,52.61,54.24Z"/><path class="cls-1" d="M27.79,41.3a4.05,4.05,0,0,1-1.58,3.27c-.33.25-.67.49-1,.76A3,3,0,0,1,22,46a3.34,3.34,0,0,1-2.13-2.82,4,4,0,0,1,1.63-4,6.76,6.76,0,0,1,2.07-1.34,3.35,3.35,0,0,1,4.13,2.53A2.91,2.91,0,0,1,27.79,41.3Z"/></g></g></svg>