<svg xmlns="http://www.w3.org/2000/svg" viewBox="0 0 114.63 79.32"><defs><style>.cls-1{fill:#d38922;}</style></defs><g id="Слой_2" data-name="Слой 2"><g id="Продукция"><path class="cls-1" d="M15,70.55c-.53,2.13-1,4.23-1.57,6.32s-1.11,2.44-3.11,2.45H2.81C.87,79.3,0,78.48,0,76.53Q0,59.42,0,42.31c0-6,4.07-11,11-11.52V29.52c0-6,0-12,0-18.08,0-4.65,2-8.25,6.27-10.26a12.07,12.07,0,0,1,5-1.12q35-.1,70,0c6.56,0,11.22,4.8,11.26,11.41,0,6,0,12,0,18v1.19A29.88,29.88,0,0,1,108.24,32c4.29,2.06,6.34,5.67,6.36,10.35.06,11.41,0,22.81,0,34.22,0,2-.86,2.78-2.81,2.78H104.1c-1.66,0-2.33-.5-2.75-2.1-.58-2.2-1.13-4.42-1.7-6.66ZM4.45,52.78H110.06V40.58a1.43,1.43,0,0,0-.09-.34c-.87-3.22-3.42-5-7.19-5H11.83c-.32,0-.65,0-1,0a6.5,6.5,0,0,0-6.37,6.42c-.11,2.37,0,4.74,0,7.11C4.44,50.1,4.45,51.41,4.45,52.78Zm15.42-22c0-2.14,0-4.14,0-6.14.11-6.16,4.23-11,9.93-11.31,5.12-.24,10.28-.19,15.41,0a10.25,10.25,0,0,1,9.23,7.45,32.88,32.88,0,0,1,.67,6.06c.09,1.3,0,2.61,0,3.89H59.5c0-2.11,0-4.11,0-6.12.08-6,4.22-11,9.85-11.26,5.16-.27,10.36-.24,15.53,0a10.65,10.65,0,0,1,9.77,9.92c.12,2.08.07,4.17.1,6.26,0,.42.06.84.08,1.2H99.2V11.86c0-4.77-2.7-7.47-7.47-7.47H22.84c-4.69,0-7.4,2.72-7.41,7.41,0,5.9,0,11.81,0,17.71v1.3ZM110.1,74.87V57.37H4.54V74.93c1.29,0,2.49-.05,3.68,0a1.11,1.11,0,0,0,1.38-1c.35-1.68.81-3.35,1.22-5,.6-2.42,1.08-2.8,3.56-2.8h85.76c2.63,0,3,.34,3.69,2.94.49,2,1,3.93,1.48,5.85ZM50.63,30.8c0-2.43.14-4.76,0-7.07a6.34,6.34,0,0,0-6.41-6.08q-6.73-.12-13.49,0A6.22,6.22,0,0,0,24.46,23a65.81,65.81,0,0,0-.07,7.83Zm39.71,0c0-2.28,0-4.48,0-6.68A6.45,6.45,0,0,0,84,17.67c-4.57-.11-9.15-.1-13.72,0a6.13,6.13,0,0,0-6.09,5,65.67,65.67,0,0,0-.07,8.07Z"/><path class="cls-1" d="M96.93,44.18v4.21H92.64V44.18Z"/><path class="cls-1" d="M101.44,48.38v-4.2h4.24v4.2Z"/></g></g></svg>