<svg xmlns="http://www.w3.org/2000/svg" viewBox="0 0 70.34 63.86"><defs><style>.cls-1{fill:#48826a;}</style></defs><g id="Слой_2" data-name="Слой 2"><g id="Достижения_право_вверх_" data-name="Достижения (право вверх)"><path class="cls-1" d="M70.32,29.7a2.41,2.41,0,0,0-.75-1.57c-4.15-3.52-8.35-7-12.55-10.45A2.54,2.54,0,0,1,56,15.42c.11-2.79.09-5.59.13-8.46l-5.68-.07L50.36,12c-.49-.37-.76-.55-1-.76C45,7.62,40.7,4,36.41.42a1.1,1.1,0,0,0-1.64-.1l-34,27a1.62,1.62,0,0,0-.68,1C0,30.74,0,33.15,0,35.73l7.67.09L7.35,63.2c.84,0,1.59,0,2.33,0C10.6,63.31,11,63,11,62q.15-14.34.34-28.67c0-.93-.35-1.17-1.21-1.15-1.66,0-3.32,0-5-.05s-1.83-.35-1.51-1.83A2.46,2.46,0,0,1,4.52,29q15-12,30.09-24a1.18,1.18,0,0,1,1.77,0q10.77,9,21.58,18c2.68,2.24,5.35,4.51,8.06,6.72a2.12,2.12,0,0,1,.6,2.52c-.1.33-1,.52-1.58.53-1.61.06-3.23,0-4.84,0-.84,0-1.23.16-1.24,1.11q-.12,14.34-.33,28.67c0,1,.36,1.32,1.28,1.25a4.87,4.87,0,0,1,1,0c1,.15,1.39-.25,1.39-1.33.06-8.15.17-16.31.27-24.46,0-.5,0-1,0-1.61l7.68.09C70.3,34.1,70.38,31.9,70.32,29.7Z"/><path class="cls-1" d="M40.23,29.13c-2.54-1.23-5.15-2.35-7.57-3.78a7.85,7.85,0,0,1-4.15-5.9c-.28.37-.44.56-.57.77A23.94,23.94,0,0,0,24.4,32.5,18.57,18.57,0,0,0,30.56,47c1.95,1.75,3.9,3.8,6.94,3.6.2,0,.42.24.62.39a6.62,6.62,0,0,1,1,.82c.37.39.9.84.93,1.3a45.13,45.13,0,0,1,0,5.33c-.1,1.67-.37,3.34-.56,5,2.58.54,2.88.36,2.94-2.1.07-2.72,0-5.43.09-8.15a4.76,4.76,0,0,0-.23-1.67,2.8,2.8,0,0,0,.28-1.06c.09-1.85-2.21-5.41-2.21-5.41h0a12.69,12.69,0,0,0-1.12-2c-2.17-3-4.45-5.93-6.67-8.9-.64-.85-1.22-1.76-1.83-2.64l.35-.24c10.77,8.5,14.06,20.18,14.26,21.49a12.32,12.32,0,0,0,4-12.93C48.13,34.83,44.83,31.38,40.23,29.13Z"/><path class="cls-1" d="M33.52,56.13l-3.78-1.62c-1.38-.79-2.89-1.4-4.22-2.26l.17-.34,7.4,2.65c.49-1.28.51-1.31-.64-2.17C27.72,48.86,22.4,48,16.45,49c2.55,4.12,4,8.85,8.59,11.22a10.53,10.53,0,0,0,2.75,1.63A9.21,9.21,0,0,0,36.13,60C38.54,57.87,33.52,56.13,33.52,56.13Z"/></g></g></svg>