<svg xmlns="http://www.w3.org/2000/svg" viewBox="0 0 62.24 62.25"><defs><style>.cls-1{fill:#5e826b;stroke:#fff;stroke-linecap:round;stroke-linejoin:round;stroke-width:0.75px;}</style></defs><g id="Слой_2" data-name="Слой 2"><g id="Достижения_право_вверх_" data-name="Достижения (право вверх)"><path class="cls-1" d="M19.32,2.55A1.94,1.94,0,0,0,17.16.38H2.51A2,2,0,0,0,.38,2.51V59.74a2,2,0,0,0,2.11,2.12H17.12a2.32,2.32,0,0,0,1.6-.61,2.22,2.22,0,0,0,.61-1.63q0-10.56,0-21.11ZM15.46,4.26V58H4.25V4.26Z"/><path class="cls-1" d="M61.86,44.85a1.9,1.9,0,0,0-1.94-1.93H48a1.39,1.39,0,0,0-.71.18c-1.11.66-2.21,1.33-3.29,2l-1.14.69V58H31.67V54.15l-.17-1.39-2.28,1.37-.32.17a2,2,0,0,0-1,.76,2.07,2.07,0,0,0-.14,1.22c0,.12,0,.25,0,.36V58L21,58v3.84H59.64a2,2,0,0,0,2.22-2.24V46.15C61.86,45.72,61.87,45.28,61.86,44.85ZM46.78,58V46.78H58V58Z"/><path class="cls-1" d="M21,57.24l36.94-22.5a2,2,0,0,0,1-1.26,2,2,0,0,0-.32-1.6L50.85,19.24a2,2,0,0,0-1.25-1,2,2,0,0,0-1.58.32L41.7,22.44a1.61,1.61,0,0,0-.57.56c-.6,1-1.18,2-1.76,3l-1.1,1.89h0l-.72,1.21c-.4.68-.79,1.34-1.17,2l-.25.44.26.43c.47.74.9,1.45,1.36,2.2l3.72,6.11-9.6,5.85-2.21-3.62-2.21,3.75,1.12,1.87L25.46,50l-3.33,2L44.25,14.45a1.94,1.94,0,0,0-.74-2.89L30.78,4.06a1.84,1.84,0,0,0-2-.08,2.57,2.57,0,0,0-.82.85q-3.4,5.74-6.78,11.5a1.67,1.67,0,0,0-.21.8c0,1.06,0,2.12,0,3.18v3.92l1.76-2.94L32.4,27l-5.71,9.69L21,33.31v1.81c0,.74,0,1.44,0,2.14v.3l.19.23.29.26,1.26.76,2,1.19L24,41.26S22.39,44,21.6,45.31a4.2,4.2,0,0,0-.66,2.44c0,1,0,1.93,0,2.87l0,3.45,0,0c0,.5,0,1,0,1.51ZM24.66,18l5.71-9.68L40.05,14l-5.7,9.69Zm23.85,4.82,5.84,9.6-9.6,5.85-5.67-9.32-.21-.27Z"/><path class="cls-1" d="M9.79,55h.1a2.47,2.47,0,0,0,1.76-.73,2.58,2.58,0,0,0,.8-1.84A2.54,2.54,0,0,0,9.9,49.79h0a2.61,2.61,0,0,0-2.62,2.55A2.64,2.64,0,0,0,9.79,55Z"/></g></g></svg>