<svg xmlns="http://www.w3.org/2000/svg" viewBox="0 0 131.82 58.17"><defs><style>.cls-1,.cls-2{fill:none;stroke:#e98905;stroke-linecap:round;stroke-linejoin:round;}.cls-1{stroke-width:3px;}.cls-2{stroke-width:2px;}</style></defs><g id="Слой_2" data-name="Слой 2"><g id="Продукция"><polyline class="cls-1" points="76.2 37.28 1.5 37.28 1.5 56.67 130.32 56.67 130.32 37.28 102.01 37.28"/><polyline class="cls-1" points="102.01 37.28 130.32 37.28 106.89 1.5 25.54 1.5 1.5 37.28 76.2 37.28"/><rect class="cls-2" x="5.09" y="45.17" width="5.52" height="5.52"/><rect class="cls-2" x="13.92" y="45.17" width="5.52" height="5.52"/><rect class="cls-2" x="22.8" y="45.17" width="5.52" height="5.52"/><rect class="cls-2" x="31.48" y="45.17" width="5.52" height="5.52"/><rect class="cls-2" x="40.38" y="45.17" width="5.52" height="5.52"/><rect class="cls-2" x="49.2" y="45.17" width="5.52" height="5.52"/><rect class="cls-2" x="57.82" y="45.17" width="5.52" height="5.52"/><rect class="cls-2" x="84.23" y="45.17" width="5.52" height="5.52"/><rect class="cls-2" x="95.41" y="45.17" width="5.52" height="5.52"/><rect class="cls-2" x="104.09" y="45.17" width="5.52" height="5.52"/><rect class="cls-2" x="112.99" y="45.17" width="5.52" height="5.52"/><rect class="cls-2" x="121.59" y="45.17" width="5.52" height="5.52"/><path class="cls-1" d="M75.68,46.14s7.48-2,7.66-7.25S75,14.5,75,14.5,73.5,8.44,77.51,8.29s33.39,0,33.39,0,2.6,3,1,5.47S91.52,39.61,91.52,39.61,82.56,46.48,75.68,46.14Z"/><path class="cls-1" d="M89.37,39.68s1.22-4.21.82-6.87S87,23.29,86.58,22s-1.78-4-1.38-4.34,23.56.25,23.56.25L92,39.06a13.87,13.87,0,0,1-2.1,1.73C88.7,41.53,89.37,39.68,89.37,39.68Z"/><polygon class="cls-1" points="68.45 52.6 75.62 50.02 75.62 44.5 68.45 42.07 68.45 52.6"/></g></g></svg>