<svg xmlns="http://www.w3.org/2000/svg" viewBox="0 0 83.27 31.77"><defs><style>.cls-1{fill:#5e826b;}</style></defs><g id="Слой_2" data-name="Слой 2"><g id="Достижения_право_вверх_" data-name="Достижения (право вверх)"><path class="cls-1" d="M41.62,4.89a1.78,1.78,0,0,1,1.85,1.82,1.84,1.84,0,0,1-3.67,0A1.77,1.77,0,0,1,41.62,4.89Z"/><path class="cls-1" d="M23.23,8.55a1.81,1.81,0,1,1,0,3.62,1.81,1.81,0,1,1,0-3.62Z"/><path class="cls-1" d="M26.9,4.89a1.75,1.75,0,0,1,1.82,1.75,1.8,1.8,0,0,1-3.59.2A1.74,1.74,0,0,1,26.9,4.89Z"/><path class="cls-1" d="M34.29,4.89a1.74,1.74,0,0,1,1.78,1.85,1.81,1.81,0,0,1-1.82,1.78,1.84,1.84,0,0,1-1.79-1.88A1.76,1.76,0,0,1,34.29,4.89Z"/><path class="cls-1" d="M50.81,6.67A1.85,1.85,0,0,1,49,8.52a1.81,1.81,0,0,1-1.8-1.81A1.74,1.74,0,0,1,49,4.89,1.77,1.77,0,0,1,50.81,6.67Z"/><path class="cls-1" d="M58.14,6.71a1.8,1.8,0,0,1-1.83,1.81,1.83,1.83,0,0,1-1.76-1.84,1.75,1.75,0,0,1,1.84-1.79A1.72,1.72,0,0,1,58.14,6.71Z"/><path class="cls-1" d="M21.36,6.7a1.82,1.82,0,0,1-1.84,1.82,1.86,1.86,0,0,1-1.78-1.84,1.81,1.81,0,0,1,3.62,0Z"/><path class="cls-1" d="M61.91,6.67a1.81,1.81,0,0,1,3.61,0,1.84,1.84,0,0,1-1.81,1.81A1.82,1.82,0,0,1,61.91,6.67Z"/><path class="cls-1" d="M30.62,8.55a1.85,1.85,0,0,1,1.81,1.8,1.83,1.83,0,0,1-1.85,1.82,1.74,1.74,0,0,1-1.78-1.85A1.76,1.76,0,0,1,30.62,8.55Z"/><path class="cls-1" d="M52.68,8.55a1.76,1.76,0,0,1,1.79,1.81,1.74,1.74,0,0,1-1.82,1.81,1.81,1.81,0,1,1,0-3.62Z"/><path class="cls-1" d="M41.61,15.84A1.78,1.78,0,0,1,39.8,14a1.84,1.84,0,0,1,3.67,0A1.78,1.78,0,0,1,41.61,15.84Z"/><path class="cls-1" d="M71.09,15.84a1.8,1.8,0,0,1-1.86-1.79,1.85,1.85,0,0,1,1.86-1.82,1.8,1.8,0,0,1,1.79,1.82A1.76,1.76,0,0,1,71.09,15.84Z"/><path class="cls-1" d="M14.07,10.34a1.81,1.81,0,1,1,1.81,1.83A1.77,1.77,0,0,1,14.07,10.34Z"/><path class="cls-1" d="M39.74,10.39A1.75,1.75,0,0,1,38,12.17a1.81,1.81,0,1,1,0-3.62A1.75,1.75,0,0,1,39.74,10.39Z"/><path class="cls-1" d="M34.3,15.84a1.78,1.78,0,0,1-1.84-1.79,1.81,1.81,0,1,1,3.62,0A1.77,1.77,0,0,1,34.3,15.84Z"/><path class="cls-1" d="M49,15.84a1.75,1.75,0,0,1-1.78-1.79A1.78,1.78,0,0,1,49,12.23,1.81,1.81,0,0,1,50.81,14,1.78,1.78,0,0,1,49,15.84Z"/><path class="cls-1" d="M63.7,15.84a1.74,1.74,0,0,1-1.79-1.78,1.78,1.78,0,0,1,1.81-1.83A1.82,1.82,0,0,1,65.53,14,1.78,1.78,0,0,1,63.7,15.84Z"/><path class="cls-1" d="M69.2,10.34a1.81,1.81,0,0,1-3.62,0,1.81,1.81,0,1,1,3.62,0Z"/><path class="cls-1" d="M60,12.17a1.76,1.76,0,0,1-1.78-1.81A1.79,1.79,0,0,1,60,8.55a1.9,1.9,0,0,1,1.92,1.82A1.85,1.85,0,0,1,60,12.17Z"/><path class="cls-1" d="M19.52,15.84A1.77,1.77,0,0,1,17.74,14a1.81,1.81,0,0,1,1.85-1.8,1.79,1.79,0,0,1,1.77,1.88A1.76,1.76,0,0,1,19.52,15.84Z"/><path class="cls-1" d="M43.52,10.35a1.76,1.76,0,0,1,1.78-1.8,1.81,1.81,0,1,1,0,3.62A1.76,1.76,0,0,1,43.52,10.35Z"/><path class="cls-1" d="M26.92,15.84a1.75,1.75,0,0,1-1.8-1.78,1.8,1.8,0,1,1,3.6,0A1.75,1.75,0,0,1,26.92,15.84Z"/><path class="cls-1" d="M56.32,15.84A1.75,1.75,0,0,1,54.55,14a1.8,1.8,0,1,1,3.6.06A1.75,1.75,0,0,1,56.32,15.84Z"/><path class="cls-1" d="M10.33,15.84A1.75,1.75,0,0,1,8.55,14a1.81,1.81,0,1,1,3.61.06A1.76,1.76,0,0,1,10.33,15.84Z"/><path class="cls-1" d="M83.27,17.85a3.14,3.14,0,0,0-1-2.35q-5-4.9-10-9.82L68.87,2.34a12.88,12.88,0,0,0-1.51-1.09A8.23,8.23,0,0,0,62.91,0H20.36a8.2,8.2,0,0,0-5.67,2.12c-1.6,1.45-3.11,3-4.66,4.51L1,15.53A3,3,0,0,0,0,17.69V28.77a2.94,2.94,0,0,0,.69,1.9,3.32,3.32,0,0,0,2.77,1.1H79.59c.25,0,.5,0,.74,0a3,3,0,0,0,2.94-3.19C83.25,25,83.26,21.42,83.27,17.85ZM2.88,16.91Q9.42,10.49,16,4.08a6,6,0,0,1,4.37-1.75q21.29,0,42.55,0a6.67,6.67,0,0,1,4.82,2.11q6.42,6.35,12.88,12.66c.55.54.36,1,0,1.21a1.42,1.42,0,0,1-.62.07H3.51c-.43,0-.93.09-1.14-.43S2.59,17.2,2.88,16.91Zm78.05,4.4v7.13c0,.83-.18,1-1,1H3.63a4.42,4.42,0,0,1-.63,0c-.36-.05-.66-.23-.66-.63,0-2.67,0-5.35,0-8,0,0,0,0,.07-.1H9.74s49,0,71.19,0Z"/></g></g></svg>