<svg xmlns="http://www.w3.org/2000/svg" viewBox="0 0 118.18 97.29"><defs><style>.cls-1,.cls-2{fill:none;stroke:#d38922;stroke-linejoin:round;stroke-width:3px;}.cls-1{stroke-linecap:round;}</style></defs><g id="Слой_2" data-name="Слой 2"><g id="Продукция"><path class="cls-1" d="M94.81,64.21s14.31,2.2,10.38,23"/><path class="cls-2" d="M98,45.86q8.08.89,16.27,1c2.29,0,3,1.7,1.77,3.81a77.39,77.39,0,0,0-11.25,42.27c0,2.44-1.44,3.56-3.42,2.42A165,165,0,0,0,22.76,74.41c-2.29,0-3-1.7-1.77-3.8"/><path class="cls-1" d="M77.13,74.93S66.5,80.81,47.71,76.59"/><path class="cls-1" d="M95.69,50.33A164.83,164.83,0,0,0,17.27,72.08c-2,1.16-3.45,0-3.45-2.38A77.31,77.31,0,0,0,2.12,27.54c-1.27-2.1-.55-3.8,1.73-3.82A165,165,0,0,0,82.27,2c2-1.17,3.46-.06,3.45,2.38A77.34,77.34,0,0,0,97.42,46.5C98.68,48.59,98,50.3,95.69,50.33Z"/><path class="cls-1" d="M70,17.85S83.41,12.5,90.52,32.39"/><path class="cls-1" d="M64.42,44S57.6,55,39.88,61.33"/><path class="cls-1" d="M15.47,39.47s-4.5-6.4-2.25-8.3,9.51,0,9.51,0"/></g></g></svg>